<svg width="128" height="128" viewBox="0 0 128 128" fill="none" xmlns="http://www.w3.org/2000/svg">
<path d="M25.7288 41.1847C26.6296 41.6444 27.6266 41.8841 28.6379 41.8841C29.6492 41.8841 30.6462 41.6444 31.547 41.1847C31.8607 41.0371 32.132 40.8124 32.3355 40.5316C32.5389 40.2508 32.668 39.923 32.7106 39.5789V17.9586C32.7106 15.288 33.4612 13.2575 34.7179 12.536C35.9746 11.8146 38.1099 12.1695 40.4197 13.5076C46.8197 17.208 52.2423 26.5811 52.2423 33.9818V55.6022C52.2763 55.9639 52.4058 56.3102 52.6174 56.6056C52.8289 56.901 53.1151 57.135 53.4466 57.2836C54.3486 57.7397 55.3451 57.9774 56.3557 57.9774C57.3664 57.9774 58.3629 57.7397 59.2648 57.2836C59.5953 57.1342 59.8803 56.8998 60.0908 56.6045C60.3013 56.3092 60.4298 55.9633 60.4634 55.6022V33.9818C60.4634 23.6662 53.4815 11.5411 44.5332 6.38619C39.6052 3.52364 34.5259 3.16874 30.6452 5.40873C26.7645 7.64873 24.5303 12.2335 24.5303 17.9586V39.5789C24.5784 39.9259 24.7135 40.2551 24.9231 40.5359C25.1327 40.8167 25.4098 41.0399 25.7288 41.1847Z" fill="#FFC853"/>
<path d="M32.7227 83.6343C29.8136 81.9645 27.4863 77.8976 27.4863 74.558C27.4863 71.2183 29.8136 69.8627 32.7227 71.5325C35.6317 73.2023 37.959 77.2693 37.959 80.6031C37.959 83.9369 35.6143 85.2983 32.7227 83.6343ZM9.81065 42.3252L9.73502 42.366C8.51902 43.0642 7.75684 44.6933 7.75684 46.9914V88.2016C7.75684 92.4082 10.3168 97.3013 13.4761 99.1282L51.9808 121.348C53.4179 122.174 54.7212 122.232 55.7219 121.65L55.815 121.598C56.9787 120.871 57.7001 119.271 57.7001 117.025V75.8089C57.7001 71.5965 55.1401 66.7034 51.9808 64.8765L13.4761 42.6453C12.0797 41.8598 10.7997 41.7842 9.81065 42.3194V42.3252Z" fill="white" fill-opacity="0.5"/>
<path d="M27.4805 74.5579C27.4805 77.8975 29.8077 81.9644 32.7168 83.6343C35.6259 85.3041 37.9532 83.9426 37.9532 80.603C37.9532 77.2634 35.6259 73.2023 32.7168 71.5324C29.8077 69.8626 27.4805 71.2183 27.4805 74.5579Z" fill="#FFC853"/>
<path d="M30.3945 4.98092C34.4857 2.61439 39.7508 3.02974 44.8184 5.9526C49.3756 8.5831 53.4156 12.9753 56.3154 17.9985C59.2152 23.0218 60.9979 28.7181 60.998 33.9819V45.6948L72.8555 52.5337C74.5424 53.5061 76.0305 55.2697 77.0938 57.3012C78.1591 59.3369 78.8251 61.6925 78.8252 63.893V105.081C78.8251 107.491 78.0354 109.341 76.6025 110.167L56.0713 122.015C56.0682 122.017 56.0656 122.02 56.0625 122.022C56.0602 122.023 56.057 122.023 56.0547 122.025L56.0361 122.036C56.0162 122.052 55.9966 122.069 55.9736 122.082C54.7723 122.781 53.2712 122.666 51.7314 121.781H51.7305L13.2266 99.561H13.2256C11.5391 98.5857 10.0514 96.82 8.98828 94.7885C7.92311 92.7531 7.2569 90.3991 7.25684 88.2016V46.9848C7.25698 44.6107 8.04197 42.7653 9.4707 41.935C9.50079 41.9071 9.53452 41.8822 9.57227 41.8618C9.63166 41.8296 9.69215 41.8002 9.75293 41.7719L24.0303 33.5307V17.9585C24.0304 12.112 26.3041 7.34712 30.3945 4.98092ZM13.2256 43.0776C12.0163 42.3827 10.9863 42.3189 10.2109 42.6616L9.9873 42.7905C9.98615 42.7912 9.98553 42.7928 9.98438 42.7934C8.99111 43.3637 8.25698 44.7718 8.25684 46.9848V88.2016C8.25691 90.2101 8.87074 92.4057 9.875 94.3247C10.8816 96.2481 12.2539 97.8432 13.7266 98.6948H13.7256L52.2295 120.914C53.5268 121.659 54.6079 121.681 55.4023 121.254C55.4191 121.242 55.4354 121.228 55.4541 121.217L55.5508 121.161C56.4961 120.557 57.1826 119.172 57.1826 117.025V75.809C57.1826 73.7973 56.5688 71.6 55.5645 69.6801C54.5578 67.756 53.1856 66.1607 51.7129 65.309L13.2256 43.0786V43.0776ZM33.2451 39.5786C33.2451 39.599 33.2447 39.6199 33.2422 39.6401C33.1892 40.0679 33.0283 40.4756 32.7754 40.8247C32.5224 41.1738 32.185 41.4536 31.7949 41.6372L31.7939 41.6362C30.8266 42.1269 29.7577 42.3833 28.6729 42.3833C27.5866 42.3833 26.5162 42.1262 25.5479 41.6342V41.6352C25.1604 41.4499 24.8253 41.1705 24.5732 40.8227C24.3212 40.4748 24.1599 40.069 24.1045 39.643C24.102 39.6238 24.1008 39.6038 24.1006 39.5844L24.04 34.6782L12.1113 41.5639C12.5474 41.6615 12.9945 41.8266 13.4453 42.059L13.7256 42.2114L13.7266 42.2124L52.2129 64.4438H52.2139C53.9003 65.4191 55.3871 67.1843 56.4502 69.2163C57.5156 71.2527 58.1826 73.6084 58.1826 75.809V117.025C58.1826 118.122 58.014 119.102 57.6953 119.923L76.1025 109.301C77.0899 108.732 77.8251 107.324 77.8252 105.081V63.893C77.8251 61.8813 77.2114 59.6841 76.207 57.7651C75.2005 55.8418 73.8286 54.2485 72.3564 53.3999L60.998 46.8501V55.602C60.998 55.6172 60.9975 55.6328 60.9961 55.6479C60.9544 56.0967 60.7947 56.5269 60.5332 56.894C60.2755 57.2555 59.9271 57.5428 59.5244 57.729C58.5527 58.2202 57.4795 58.477 56.3906 58.477C55.3016 58.477 54.2277 58.2214 53.2559 57.7299V57.729C52.8528 57.5437 52.5046 57.2568 52.2461 56.896C51.9832 56.5288 51.8217 56.0985 51.7793 55.6489C51.7779 55.6335 51.7774 55.6175 51.7773 55.602V41.5131L33.8691 31.186L33.8613 31.1821C33.6634 31.0632 33.4574 30.9589 33.2451 30.8696V39.5786ZM28.5068 70.3012C29.8717 69.5109 31.5807 69.7275 33.2148 70.6655C34.8589 71.6093 36.2829 73.1903 37.293 74.9448C38.303 76.6993 38.9531 78.7207 38.9531 80.603C38.9531 82.4781 38.2908 84.0662 36.9277 84.8579C35.9792 85.4086 34.8641 85.4722 33.7227 85.146V93.3335C33.7225 93.8856 33.2748 94.3335 32.7227 94.3335C32.1705 94.3335 31.7228 93.8856 31.7227 93.3335V84.1909C30.2887 83.2327 29.0471 81.7989 28.1406 80.2231C27.1305 78.467 26.4805 76.4429 26.4805 74.5581C26.4805 72.6809 27.1423 71.0917 28.5068 70.3012ZM32.2188 72.3999C30.9441 71.6683 30.0347 71.7271 29.5088 72.0317C28.9825 72.3366 28.4805 73.0958 28.4805 74.5581C28.4805 76.0127 28.9944 77.6951 29.875 79.226C30.747 80.7418 31.9262 82.0169 33.1758 82.7436C33.2033 82.7576 33.2299 82.7731 33.2559 82.7895C34.5072 83.4925 35.4026 83.431 35.9238 83.1284C36.4515 82.8219 36.9531 82.0614 36.9531 80.603C36.9531 79.1517 36.4402 77.4724 35.5596 75.9428C34.6788 74.4131 33.4836 73.1259 32.2188 72.3999ZM44.3184 6.81881C39.4604 4.01688 34.5889 3.71069 30.8955 5.84713C27.2014 7.98412 25.0304 12.3552 25.0303 17.9585V33.813L25.0986 39.5307C25.1345 39.7852 25.232 40.0275 25.3828 40.2358C25.4984 40.3953 25.6428 40.5313 25.8076 40.6372L25.9795 40.7329L25.9912 40.7387C26.8216 41.1625 27.7405 41.3833 28.6729 41.3833C29.6052 41.3833 30.5241 41.1625 31.3545 40.7387C31.3592 40.7364 31.3644 40.7341 31.3691 40.7319C31.6064 40.6202 31.812 40.4501 31.9658 40.2378C32.1155 40.0311 32.2104 39.7902 32.2451 39.5376V17.9585C32.2452 16.5809 32.4372 15.3451 32.8066 14.3452C33.1742 13.3506 33.735 12.5444 34.5029 12.102C35.2697 11.6604 36.2438 11.5764 37.2881 11.7544C38.2064 11.9109 39.2143 12.2756 40.2559 12.8266L40.7041 13.0737V13.0747C44.0061 14.9803 47.0184 18.3232 49.2031 22.1069C51.3877 25.8905 52.7772 30.1706 52.7773 33.9819V55.5669C52.8048 55.836 52.9011 56.0938 53.0586 56.3139C53.1786 56.4815 53.3307 56.6232 53.5049 56.7309L53.6865 56.8266L53.707 56.8374C54.539 57.2581 55.4584 57.477 56.3906 57.477C57.3229 57.477 58.2423 57.2581 59.0742 56.8374L59.0938 56.8276C59.3436 56.7145 59.5595 56.5373 59.7188 56.3139C59.8756 56.0937 59.9711 55.8358 59.998 55.5669V33.9819C59.9979 28.9304 58.2816 23.4051 55.4492 18.4985C52.6167 13.5919 48.6917 9.34313 44.3184 6.81881ZM37.1201 12.7397C36.2115 12.5848 35.4975 12.6838 35.002 12.9692C34.5077 13.2541 34.0654 13.8253 33.7451 14.6919C33.4267 15.5535 33.2452 16.6661 33.2451 17.9585V29.7993C33.6365 29.9321 34.0129 30.1071 34.3682 30.3198L51.7773 40.3598V33.9819C51.7772 30.3927 50.4605 26.2848 48.3369 22.6069C46.2133 18.9291 43.3145 15.7345 40.2051 13.9399C39.0782 13.292 38.0239 12.8938 37.1201 12.7397Z" fill="#82828A" fill-opacity="0.26"/>
</svg>
