<svg width="128" height="128" viewBox="0 0 128 128" fill="none" xmlns="http://www.w3.org/2000/svg">
<path d="M41.7567 124.495C42.5409 124.182 64.159 124.345 71.6333 125.529C73.4362 125.812 75.2809 125.446 76.8386 124.495L120.015 98.4945C120.5 98.1989 120.89 97.7703 121.139 97.2595C121.388 96.7487 121.484 96.1773 121.417 95.6132C121.351 95.0491 121.123 94.516 120.762 94.0774C120.401 93.6388 119.922 93.3131 119.381 93.139L100.041 89.4062C100.041 89.4062 40.7933 124.862 41.7567 124.495Z" fill="url(#paint0_linear_550_2)" fill-opacity="0.25"/>
<path d="M100.84 85.9002V26.362C100.841 25.9672 100.738 25.5791 100.541 25.237C100.344 24.8949 100.06 24.6109 99.7182 24.4136C99.3762 24.2163 98.9882 24.1128 98.5934 24.1135C98.1987 24.1142 97.811 24.2191 97.4698 24.4176L85.3768 31.3966C84.7021 31.7849 84.117 32.3114 83.6601 32.9417C83.2031 33.572 82.8846 34.2917 82.7254 35.0538L80.4214 45.9216C80.2608 46.6839 79.941 47.4037 79.4831 48.0339C79.0251 48.6641 78.4393 49.1905 77.7639 49.5787L44.5082 68.7909V118.449C44.5082 121.198 43.5269 123.142 41.9482 124.056L98.2987 91.5262C99.8652 90.618 100.84 88.6797 100.84 85.9002Z" fill="url(#paint1_linear_550_2)"/>
<path d="M88.211 3.35242V29.7692L85.3767 31.4027C84.702 31.791 84.1169 32.3175 83.66 32.9478C83.203 33.578 82.8845 34.2978 82.7253 35.0598L80.4213 45.9277C80.2607 46.6899 79.9409 47.4097 79.483 48.0399C79.025 48.6702 78.4392 49.1966 77.7638 49.5848L44.496 68.7909V101.51L38.291 105.094V43.9223L47.696 36.8579L48.464 26.301L88.211 3.35242Z" fill="#F8F8F8"/>
<path d="M48.464 26.3009L47.7021 36.8579L38.291 43.9222L48.464 26.3009Z" fill="#C1C9CF"/>
<path d="M44.4955 101.51V118.43C44.4955 121.179 43.5141 123.124 41.9355 124.038C40.3568 124.952 38.2052 124.824 35.8402 123.465C31.025 120.686 27.124 113.981 27.124 108.41V58.7642L38.2905 52.3154V105.094L44.4955 101.51Z" fill="#636B79" fill-opacity="0.1"/>
<path d="M87.9609 2.91961C88.1156 2.83034 88.3063 2.83034 88.4609 2.91961C88.6155 3.00892 88.7109 3.17369 88.7109 3.35223V28.9001L97.2197 23.9909C97.636 23.7492 98.1084 23.621 98.5898 23.6198C99.0719 23.6186 99.5459 23.7448 99.9639 23.985C100.382 24.2254 100.729 24.5717 100.971 24.989C101.212 25.4062 101.34 25.8799 101.34 26.362V85.9001C101.34 88.7854 100.323 90.9299 98.5488 91.9587L98.5479 91.9597L42.1973 124.49C42.1522 124.516 42.1039 124.531 42.0557 124.542C40.2872 125.488 37.9913 125.279 35.5908 123.899L35.5898 123.898C33.0895 122.455 30.8539 120.011 29.2441 117.235C27.6344 114.459 26.6241 111.304 26.624 108.41V58.7643C26.6241 58.5858 26.7195 58.4211 26.874 58.3317L37.791 52.0261V43.9225C37.791 43.8696 37.7999 43.8172 37.8164 43.7673C37.8181 43.7621 37.8194 43.7568 37.8213 43.7516C37.8313 43.7244 37.8438 43.6978 37.8584 43.6725L48.0312 26.0505L48.0674 25.9968H48.0664C48.1075 25.9432 48.159 25.8982 48.2178 25.8649L87.9609 2.91961ZM27.624 59.0524V108.41C27.6241 111.087 28.5649 114.07 30.1094 116.734C31.6537 119.397 33.7755 121.696 36.0898 123.032L36.5117 123.262C38.6022 124.341 40.4 124.345 41.6865 123.605C43.0568 122.817 43.9951 121.071 43.9951 118.43V102.377L38.541 105.533C38.3864 105.622 38.1957 105.622 38.041 105.533C37.8865 105.444 37.7911 105.279 37.791 105.1V53.1813L27.624 59.0524ZM98.5928 24.6198C98.2864 24.6206 97.9855 24.7022 97.7207 24.8561L97.7188 24.8571L88.4961 30.1784C88.4809 30.189 88.4646 30.1978 88.4482 30.2067L85.626 31.8356V31.8366C85.0124 32.1897 84.48 32.6687 84.0645 33.2419C83.649 33.815 83.3586 34.4699 83.2139 35.1628V35.1638L80.9102 46.0319C80.735 46.8626 80.3858 47.6469 79.8867 48.3337C79.3876 49.0205 78.7488 49.594 78.0127 50.0173L44.9951 69.0798V118.43C44.9951 119.864 44.7364 121.121 44.2539 122.147L98.0469 91.0934C99.4053 90.3059 100.34 88.5734 100.34 85.9001V26.362C100.34 26.0558 100.259 25.7549 100.105 25.4899C99.9521 25.2249 99.7313 25.005 99.4658 24.8522C99.2003 24.6995 98.8991 24.6191 98.5928 24.6198ZM48.9434 26.6003L48.2012 36.8942C48.1906 37.0383 48.1175 37.1717 48.002 37.2585L38.791 44.1725V104.233L43.9951 101.221V68.7907C43.9953 68.6124 44.0907 68.4474 44.2451 68.3581L77.5137 49.152V49.1511C78.128 48.7979 78.6616 48.319 79.0781 47.7458C79.4945 47.1727 79.7855 46.518 79.9316 45.8249V45.8239L82.2354 34.9567C82.409 34.1262 82.7569 33.3419 83.2549 32.655C83.753 31.9678 84.3904 31.3928 85.126 30.9694L87.7109 29.4772V4.21747L48.9434 26.6003ZM74.1914 44.4098C74.4305 44.2719 74.7369 44.3535 74.875 44.5925C75.0129 44.8315 74.9303 45.137 74.6914 45.2751L52.3037 58.2038C52.0646 58.3417 51.7592 58.2593 51.6211 58.0202C51.4832 57.7811 51.5647 57.4756 51.8037 57.3376L74.1914 44.4098ZM65.8535 40.613C66.0926 40.4749 66.3981 40.5565 66.5361 40.7956C66.674 41.0346 66.5923 41.3401 66.3535 41.4782L52.3037 49.5915C52.0647 49.7294 51.7592 49.6468 51.6211 49.4079C51.4832 49.1688 51.5647 48.8634 51.8037 48.7253L65.8535 40.613ZM39.9443 42.0554L47.2188 36.5954L47.8076 28.4362L39.9443 42.0554ZM56.6133 37.8571C56.8524 37.7195 57.158 37.8018 57.2959 38.0407C57.4336 38.2799 57.3514 38.5864 57.1123 38.7243L52.3037 41.4968C52.0647 41.6345 51.7581 41.553 51.6201 41.3141C51.4822 41.075 51.5647 40.7686 51.8037 40.6306L56.6133 37.8571ZM74.1914 35.7917C74.4304 35.6534 74.7367 35.7353 74.875 35.9743C75.0128 36.2132 74.9312 36.5187 74.6924 36.6569L68.8467 40.0397C68.608 40.1776 68.3025 40.0964 68.1641 39.8581C68.0258 39.6191 68.1078 39.3129 68.3467 39.1745L74.1914 35.7917ZM74.1914 27.7028C74.4305 27.5648 74.7369 27.6464 74.875 27.8854C75.013 28.1245 74.9305 28.43 74.6914 28.5681L61.3799 36.2546C61.1409 36.3925 60.8355 36.3107 60.6973 36.072C60.5593 35.8328 60.6408 35.5264 60.8799 35.3884L74.1914 27.7028Z" fill="#82828A" fill-opacity="0.26"/>
<defs>
<linearGradient id="paint0_linear_550_2" x1="75.4243" y1="106.32" x2="83.5724" y2="119.928" gradientUnits="userSpaceOnUse">
<stop stop-color="#99A1AF"/>
<stop offset="1" stop-color="#99A1AF" stop-opacity="0"/>
</linearGradient>
<linearGradient id="paint1_linear_550_2" x1="71.3943" y1="84.6562" x2="88.166" y2="112.656" gradientUnits="userSpaceOnUse">
<stop offset="0.326923" stop-color="white"/>
<stop offset="0.735577" stop-color="#C5CDD6"/>
</linearGradient>
</defs>
</svg>
