<svg width="128" height="128" viewBox="0 0 128 128" fill="none" xmlns="http://www.w3.org/2000/svg">
<path d="M77.8125 127.203C78.0336 126.342 105.885 126.848 111.005 127.092C111.53 127.115 112.053 127.011 112.53 126.79C113.585 126.297 114.491 125.534 115.158 124.579C115.824 123.624 116.227 122.511 116.327 121.35C116.426 120.19 116.217 119.024 115.722 117.97C115.227 116.915 114.463 116.01 113.507 115.345L85.7253 96C85.1101 95.5668 84.3635 95.3611 83.6133 95.4182L68.486 96.6225C67.9611 96.6607 67.4533 96.8258 67.0063 97.1038C66.5594 97.3818 66.1868 97.7643 65.9206 98.2183C65.6544 98.6724 65.5025 99.1843 65.4781 99.7101C65.4537 100.236 65.5575 100.76 65.7805 101.236C69.5042 109.51 77.6322 127.93 77.8125 127.203Z" fill="url(#paint0_linear_528_3302)" fill-opacity="0.25"/>
<path d="M87.3888 66.4553V116.829C87.3888 117.993 87.0164 118.842 86.4172 119.197C86.1503 119.332 85.8519 119.392 85.5537 119.37C85.2556 119.349 84.9688 119.247 84.7241 119.075L15.2026 78.9527C13.7132 78.0917 12.5088 75.7004 12.5088 73.5942V64.704C13.4513 64.5702 14.5684 64.7797 16.0288 65.6233C17.9721 66.7462 19.8513 68.5906 21.719 69.696C27.4324 72.9949 30.4462 64.5411 35.6244 67.52C38.2426 69.0269 40.151 73.1811 42.6702 74.6298C50.4899 79.1447 51.9793 42.0131 63.3248 48.5644C67.0368 50.7055 68.7299 56.4713 72.3662 58.5658C78.7662 62.2604 80.1102 51.6364 87.3888 51.4677V66.4553Z" fill="#FFD042"/>
<path d="M87.389 51.3804V51.4444C80.1104 51.6131 78.7548 62.2371 72.3664 58.5426C68.7301 56.4364 67.037 50.6822 63.325 48.5411C51.9795 41.9898 50.4901 79.1215 42.6704 74.6066C40.1454 73.1578 38.2428 69.0036 35.6246 67.4909C30.4697 64.512 27.4326 72.9658 21.7192 69.6669C19.8515 68.5847 17.9723 66.7578 16.029 65.5942C14.5686 64.7505 13.4515 64.5411 12.5381 64.6749V8.14546C12.5381 6.98183 12.9279 6.11492 13.533 5.76001C13.8004 5.62616 14.0991 5.56737 14.3972 5.58991C14.6954 5.61245 14.9819 5.71548 15.2261 5.88801L84.7301 46.0335C86.1904 46.8829 87.389 49.2742 87.389 51.3804Z" fill="white" fill-opacity="0.2"/>
<path d="M20.5459 1.53345C20.9251 1.55821 21.2897 1.68527 21.6035 1.89868L91.1123 42.0393H91.1113C91.9641 42.5295 92.6916 43.4325 93.2021 44.4534C93.7159 45.4809 94.039 46.6839 94.0391 47.8254V113.28C94.0391 114.548 93.6307 115.611 92.793 116.091L92.7939 116.092L86.6504 119.641C86.6468 119.643 86.6423 119.644 86.6387 119.646C86.6338 119.648 86.63 119.653 86.625 119.656C86.2774 119.831 85.8883 119.908 85.5 119.88C85.123 119.853 84.7608 119.726 84.4482 119.514L14.9521 79.386C14.0953 78.8906 13.3645 77.9868 12.8506 76.9651C12.3336 75.9373 12.0088 74.7362 12.0088 73.594V8.14575C12.0088 6.90418 12.4231 5.81396 13.251 5.32837C13.2657 5.31973 13.2816 5.31385 13.2969 5.30688L19.3975 1.78345C19.403 1.78023 19.4093 1.77668 19.415 1.77368C19.7624 1.59082 20.1542 1.50797 20.5459 1.53345ZM63.0752 48.9983C61.7559 48.2365 60.6394 48.137 59.6582 48.4631C58.6537 48.7971 57.7104 49.603 56.8115 50.8079C55.0078 53.2256 53.5357 57.0374 52.1475 60.9993C50.7741 64.9188 49.4825 68.9862 48.0449 71.7708C47.3285 73.1583 46.539 74.3038 45.625 74.9465C45.1588 75.2743 44.6472 75.4809 44.0918 75.509C43.5356 75.5371 42.976 75.3848 42.4199 75.0637V75.0627C41.0601 74.2803 39.8909 72.7896 38.793 71.4084C37.6561 69.9783 36.5845 68.6506 35.375 67.9543C34.2088 67.2834 33.1918 67.2599 32.2109 67.5471C31.1922 67.8454 30.2162 68.4747 29.1387 69.1516C28.0899 69.8105 26.9494 70.5116 25.6914 70.8157C24.4018 71.1274 23.0099 71.0189 21.4688 70.1292L21.4639 70.1272C20.4968 69.5547 19.5331 68.7944 18.5947 68.0608C17.6439 67.3175 16.7146 66.5979 15.7783 66.0569C14.6225 65.3892 13.7349 65.1609 13.0088 65.1672V73.594C13.0088 74.558 13.2866 75.6062 13.7441 76.5159C14.2047 77.4314 14.8206 78.1541 15.4531 78.5198H15.4521L84.957 118.654L84.9932 118.677C85.1639 118.797 85.3643 118.868 85.5723 118.883C85.7757 118.898 85.9791 118.857 86.1621 118.767C86.5373 118.544 86.8886 117.92 86.8887 116.829V51.9993C83.8107 52.3023 81.9049 54.6503 79.915 56.8049C78.8988 57.9054 77.8367 58.9736 76.584 59.5002C75.2793 60.0486 73.8305 59.9888 72.1162 58.9993C70.1793 57.8834 68.7837 55.8074 67.4609 53.8645C66.1023 51.8689 64.8129 50.0008 63.0752 48.9983ZM20.4805 2.53052C20.2764 2.51725 20.0724 2.5601 19.8906 2.65356L15.2441 5.33716C15.3182 5.376 15.3904 5.41872 15.46 5.46606L84.9561 45.6057H84.957C85.8119 46.0986 86.5402 47.0019 87.0518 48.0227C87.5663 49.0497 87.8886 50.2503 87.8887 51.3918V116.829C87.8887 117.178 87.8562 117.513 87.793 117.825L92.2939 115.226L92.2959 115.225C92.6786 115.006 93.0391 114.395 93.0391 113.28V47.8254C93.039 46.861 92.7624 45.8103 92.3076 44.9006C91.8495 43.9846 91.238 43.2646 90.6133 42.9055H90.6123L21.0967 2.76001C21.0837 2.7525 21.0709 2.74425 21.0586 2.7356C20.8885 2.61556 20.6882 2.54403 20.4805 2.53052ZM14.3359 6.09399C14.1281 6.07836 13.9198 6.11984 13.7334 6.21313C13.7263 6.21669 13.7181 6.21776 13.7109 6.22095C13.3459 6.46861 13.0088 7.10377 13.0088 8.14575V64.1672C13.9525 64.1607 15.0142 64.4599 16.2793 65.1907C17.2861 65.7725 18.2687 66.5369 19.21 67.2727C20.1635 68.0181 21.0735 68.733 21.9736 69.2659H21.9727C23.2863 70.0232 24.4131 70.0951 25.4561 69.843C26.5317 69.583 27.5404 68.9747 28.6064 68.3049C29.6435 67.6534 30.7488 66.934 31.9297 66.5881C33.1488 66.2312 34.4512 66.2686 35.874 67.0872L36.1357 67.2473C37.4311 68.0855 38.5436 69.4874 39.5762 70.7864C40.6449 72.1308 41.6296 73.3665 42.7031 74.0647L42.9199 74.1965V74.1975C43.3411 74.4406 43.7109 74.5266 44.041 74.51C44.3717 74.4933 44.7051 74.3714 45.0498 74.1292C45.7579 73.6312 46.4563 72.6674 47.1562 71.3118C48.5517 68.6089 49.8086 64.648 51.2031 60.6682C52.5827 56.7309 54.0993 52.77 56.0098 50.2092C56.968 48.925 58.0639 47.9401 59.3428 47.5149C60.6452 47.082 62.0581 47.2561 63.5752 48.1321H63.5742C65.5482 49.2707 66.9623 51.356 68.2871 53.302C69.6476 55.3004 70.9173 57.1545 72.6162 58.1331L72.8906 58.2844C74.241 58.989 75.2827 58.9624 76.1963 58.5784C77.2226 58.1469 78.1516 57.2415 79.1807 56.1272C81.0869 54.0631 83.2798 51.3139 86.873 50.9973C86.8101 50.1472 86.5511 49.257 86.1572 48.4709C85.6987 47.5559 85.0857 46.8353 84.457 46.4729V46.4719L14.9531 6.32642C14.94 6.31882 14.9265 6.31077 14.9141 6.302C14.7438 6.18181 14.5438 6.10971 14.3359 6.09399Z" fill="#82828A" fill-opacity="0.26"/>
<path d="M77.0148 75.1011V126.429L29.0381 98.7229V47.3949L77.0148 75.1011ZM66.577 98.9556V90.9556L37.0497 73.8909V81.9142L66.577 98.9556ZM57.0177 107.852V99.8342L37.0614 88.3083V96.3316L57.0177 107.852ZM45.0963 72.1745V64.1571L37.0497 59.5025V67.5258L45.0963 72.1745Z" fill="white" fill-opacity="0.5"/>
<path d="M66.5771 90.9556V98.9789L37.0498 81.9316V73.9083L66.5771 90.9556Z" fill="white"/>
<path d="M57.0062 99.8342V107.852L37.0498 96.3316V88.3083L57.0062 99.8342Z" fill="white"/>
<path d="M45.0963 64.1571V72.1746L37.0498 67.5317V59.5084L45.0963 64.1571Z" fill="white"/>
<path d="M77.0148 126.429L29.0381 98.7287V47.3949L77.0148 75.1011V126.429Z" stroke="#6B6B6B" stroke-opacity="0.2" stroke-linecap="round" stroke-linejoin="round"/>
<path d="M45.0963 72.1746L37.0498 67.5317V59.5084L45.0963 64.1571V72.1746Z" stroke="#6B6B6B" stroke-opacity="0.2" stroke-linecap="round" stroke-linejoin="round"/>
<path d="M66.5771 98.9789L37.0498 81.9316V73.9083L66.5771 90.9556V98.9789Z" stroke="#6B6B6B" stroke-opacity="0.2" stroke-linecap="round" stroke-linejoin="round"/>
<path d="M57.0062 107.852L37.0498 96.3316V88.3083L57.0062 99.8342V107.852Z" stroke="#6B6B6B" stroke-opacity="0.2" stroke-linecap="round" stroke-linejoin="round"/>
<defs>
<linearGradient id="paint0_linear_528_3302" x1="86.9754" y1="110.267" x2="94.9456" y2="119.94" gradientUnits="userSpaceOnUse">
<stop stop-color="#99A1AF" stop-opacity="0"/>
<stop offset="1" stop-color="#99A1AF"/>
</linearGradient>
</defs>
</svg>
