<svg width="200" height="200" viewBox="0 0 200 200" fill="none" xmlns="http://www.w3.org/2000/svg">
<path d="M140.067 177.816C140.714 180.099 141.465 182.739 141.374 186.424C138.662 188.754 138.119 187.008 138.119 187.008L138.071 184.958C138.071 184.958 138.036 184.637 136.336 186.185C135.634 191.289 129.983 194.892 126.979 196.387C125.479 197.141 123.705 196.843 122.301 196.352C121.028 195.908 120.581 194.331 121.399 193.263C122.544 191.768 124.052 189.683 124.877 188.083C125.296 187.277 125.859 185.916 126.457 184.287C126.173 185.799 126.058 186.897 126.018 187.656C125.974 188.486 126.537 189.221 127.346 189.402C127.785 189.502 128.243 189.42 128.622 189.181C130.202 188.17 134.29 184.526 136.42 182.576C138.259 180.888 140.498 179.34 140.067 177.816Z" fill="#58585F"/>
<path d="M140.068 177.816C140.5 179.34 138.26 180.888 136.421 182.575C134.291 184.526 130.203 188.17 128.623 189.18C128.244 189.42 127.786 189.502 127.347 189.402C126.538 189.221 125.975 188.485 126.019 187.656C126.059 186.897 126.174 185.799 126.458 184.286C127.638 181.069 128.978 176.8 129.716 173.64C131.962 175.421 135.842 175.813 139.301 174.633C139.456 175.667 139.751 176.694 140.068 177.816Z" fill="white"/>
<path d="M137.026 81.4792C137.022 81.3916 137.017 81.304 137.009 81.2164L136.555 75.4757C136.834 78.3198 146.518 78.5534 146.701 73.6011C146.69 73.858 146.681 74.115 146.67 74.3602C146.549 76.9415 146.65 79.5228 146.949 82.0865C147.145 83.7626 147.264 85.9936 147.013 88.423C146.486 93.5097 144.755 106.644 143.973 109.33C142.49 113.722 141.501 116.362 140.447 118.756C140.156 119.416 139.862 120.058 139.55 120.712C138.892 122.091 137.763 123.194 136.359 123.784C135.973 123.948 135.598 124.094 135.206 124.216C134.496 124.45 133.819 123.796 134.026 123.078L135.454 118.114C135.685 117.308 135.642 116.455 135.33 115.672L135.291 115.573C134.844 114.458 134.955 113.196 135.585 112.18L136.798 108.951C137.34 108.075 137.587 107.047 137.508 106.025C137.34 103.893 137.197 101.545 137.085 99.1686C136.794 92.8614 136.73 86.3381 137.002 83.0735C137.045 82.5479 137.052 82.0107 137.026 81.4792Z" fill="white"/>
<path d="M124.918 197.724C124.026 197.724 123.056 197.543 122.012 197.181C121.146 196.878 120.497 196.2 120.232 195.313C119.966 194.431 120.142 193.461 120.703 192.731C121.806 191.289 123.292 189.239 124.098 187.68C124.493 186.915 125.039 185.606 125.633 183.989C126.91 180.508 128.177 176.368 128.861 173.442C128.971 172.969 129.441 172.677 129.913 172.788C130.384 172.899 130.677 173.366 130.567 173.839C129.868 176.829 128.577 181.051 127.278 184.59C126.659 186.278 126.082 187.662 125.654 188.486C124.789 190.162 123.241 192.293 122.094 193.794C121.871 194.086 121.804 194.46 121.91 194.81C122.012 195.149 122.259 195.412 122.587 195.529C123.707 195.914 125.311 196.241 126.586 195.605C128.493 194.653 134.768 191.149 135.467 186.062C135.495 185.858 135.594 185.671 135.746 185.536C137.21 184.199 137.771 183.895 138.356 184.117C138.665 184.234 138.905 184.532 138.941 184.859C138.944 184.888 138.946 184.912 138.946 184.941L138.988 186.751L138.995 186.757C139.172 186.792 139.667 186.664 140.504 186.004C140.531 182.663 139.839 180.222 139.226 178.067C138.898 176.911 138.596 175.848 138.432 174.762C138.36 174.283 138.69 173.839 139.168 173.763C139.65 173.693 140.093 174.02 140.165 174.499C140.312 175.474 140.599 176.49 140.904 177.565C141.582 179.947 142.343 182.628 142.249 186.442C142.243 186.693 142.132 186.926 141.944 187.084C140.573 188.264 139.449 188.708 138.502 188.439C137.807 188.234 137.41 187.68 137.282 187.265C137.258 187.189 137.244 187.107 137.242 187.031L137.232 186.558C137.206 186.576 137.18 186.599 137.153 186.623C136.172 192.217 130.011 195.856 127.37 197.176C126.637 197.538 125.817 197.724 124.918 197.724Z" fill="#58585F"/>
<path d="M136.555 75.4756C136.555 75.4756 137.022 81.3916 137.026 81.4792C134.825 82.8866 131.845 84.0721 127.944 84.2181C118.06 84.5977 108.474 80.4513 105.479 73.0637C106.268 69.7466 107.24 67.288 107.981 65.1447C110.243 58.5805 106.35 59.3981 106.171 54.3757C106.063 51.3973 106.845 49.7621 107.539 47.8875L101.103 49.6161C98.7458 47.9809 99.2878 40.1027 102.036 37.2937C109.674 33.9766 116.797 30.7879 120.638 30.1514C120.949 30.9339 121.195 31.6756 121.399 32.4523C109.389 42.1058 126.468 45.2711 134.421 37.7492C135.315 38.6895 136.327 39.583 137.413 40.3889C141.134 43.1571 146.598 47.0582 146.933 55.9409C147.137 61.3137 146.909 68.637 146.702 73.601C146.518 78.5533 136.834 78.3197 136.555 75.4756Z" fill="#DBDBDE"/>
<path d="M127.708 190.319C127.522 190.319 127.334 190.296 127.151 190.255C125.923 189.98 125.076 188.871 125.142 187.609C125.194 186.628 125.347 185.454 125.596 184.129C125.685 183.65 126.141 183.334 126.618 183.428C127.093 183.515 127.406 183.971 127.318 184.45C127.083 185.7 126.94 186.798 126.893 187.703C126.871 188.106 127.141 188.456 127.535 188.544C127.746 188.596 127.97 188.555 128.155 188.438C129.637 187.492 133.676 183.901 135.828 181.933C136.155 181.629 136.495 181.337 136.83 181.045C138.048 179.982 139.428 178.779 139.224 178.055C139.092 177.594 139.363 177.109 139.829 176.975C140.297 176.84 140.779 177.115 140.91 177.582C141.417 179.369 139.67 180.893 137.982 182.365C137.657 182.645 137.329 182.931 137.012 183.223C136.025 184.123 131.008 188.69 129.094 189.916C128.676 190.179 128.191 190.319 127.708 190.319Z" fill="#58585F"/>
<path d="M137.106 20.2877C137.884 24.44 137.668 30.2158 130.777 30.8991C128.108 29.5967 126.249 27.3833 124.826 25.0123C127.127 23.1785 128.674 20.387 127.542 18.6117C126.245 16.5618 123.729 17.3035 122.153 19.6161C121.371 17.87 120.682 16.3808 119.896 15.5281C118.153 13.6301 117.048 10.7394 116.637 7.97119C122.042 0.379181 128.886 3.38092 129.711 5.97388C132.24 5.20884 135.71 6.27756 136.588 9.69396C139.327 7.64412 146.627 9.74652 144.968 16.772C144.158 20.206 140.365 21.1521 137.106 20.2877Z" fill="#58585F"/>
<path d="M137.085 99.1683C137.197 101.545 137.341 103.893 137.508 106.025C137.588 107.047 137.341 108.074 136.798 108.95L135.586 112.18C134.955 113.196 134.844 114.457 135.291 115.573L135.33 115.672C135.642 116.455 135.685 117.307 135.454 118.113L134.026 123.077C133.819 123.796 134.496 124.45 135.207 124.216C135.598 124.093 135.973 123.947 136.359 123.784C137.763 123.194 138.892 122.09 139.55 120.712C139.862 120.058 140.157 119.416 140.447 118.756C140.428 138.29 143.04 158.894 142.023 179.141C141.58 179.93 141.01 180.531 140.36 180.981C138.051 182.581 134.72 182.248 132.463 181.32C131.968 181.115 131.522 180.887 131.151 180.642L130.755 175.281L127.605 172.449C128.705 165.733 128.207 155.565 126.699 143.722C125.998 149.83 125.455 156.914 125.73 162.9C124.414 164.734 122.519 165.984 120.478 166.685C117.019 167.864 113.138 167.473 110.893 165.692C110.566 165.429 110.271 165.143 110.019 164.822C110.019 164.822 111.946 137.035 106.601 109.143C103.004 90.3616 103.851 79.8963 105.479 73.0635C108.474 80.4511 118.06 84.5975 127.944 84.2179C131.845 84.0719 134.825 82.8864 137.026 81.4789C137.054 82.0104 137.046 82.5477 137.002 83.0733C136.73 86.3378 136.794 92.8611 137.085 99.1683Z" fill="#F7F7F8"/>
<path d="M121.399 32.4525C121.196 31.6757 120.943 30.9399 120.639 30.1515C120.569 29.9763 120.494 29.7953 120.418 29.6084C120.418 29.6084 111.767 29.8829 112.146 20.7491C111.827 20.6148 111.567 20.4221 111.364 20.2177C110.977 19.8322 110.996 19.1957 111.416 18.8453C111.603 18.6876 111.81 18.5007 112.022 18.2846C112.349 17.9517 112.581 17.5313 112.688 17.0816C112.884 16.2698 113.139 15.3997 113.454 14.4711C113.725 13.6769 114.041 12.8417 114.407 11.9599C115.105 10.3889 115.855 9.06911 116.637 7.97119C117.048 10.7394 118.153 13.6301 119.896 15.5281C120.681 16.3808 121.371 17.87 122.153 19.6161C123.729 17.3035 126.245 16.5618 127.542 18.6117C128.674 20.387 127.126 23.1785 124.825 25.0123C126.249 27.3833 128.108 29.5967 130.776 30.8991C130.792 32.9431 132.248 35.4659 134.422 37.7494C126.468 45.2713 109.39 42.106 121.399 32.4525Z" fill="white"/>
<path d="M121.245 169.868C121.891 172.151 122.643 174.791 122.551 178.476C119.839 180.806 119.297 179.06 119.297 179.06L119.249 177.01C119.249 177.01 119.213 176.689 117.514 178.236C116.812 183.341 111.16 186.944 108.156 188.439C106.657 189.192 104.882 188.894 103.478 188.404C102.206 187.96 101.759 186.383 102.577 185.314C103.721 183.819 105.229 181.735 106.055 180.134C106.474 179.328 107.036 177.968 107.634 176.338C107.351 177.851 107.235 178.949 107.196 179.708C107.152 180.537 107.714 181.273 108.524 181.454C108.962 181.554 109.421 181.472 109.8 181.232C111.379 180.222 115.468 176.578 117.597 174.627C119.436 172.94 121.676 171.392 121.245 169.868Z" fill="#58585F"/>
<path d="M121.246 169.868C121.678 171.392 119.437 172.939 117.598 174.627C115.469 176.578 111.38 180.222 109.801 181.232C109.422 181.472 108.963 181.553 108.525 181.454C107.715 181.273 107.153 180.537 107.197 179.708C107.236 178.949 107.352 177.851 107.635 176.338C108.816 173.12 110.156 168.851 110.894 165.692C113.139 167.473 117.02 167.864 120.479 166.685C120.634 167.718 120.928 168.746 121.246 169.868Z" fill="white"/>
<path d="M101.103 49.6156L90.7114 52.4013C87.3733 53.2948 83.8074 52.6933 80.9592 50.7369C76.0694 47.3731 69.8673 42.1754 66.3931 39.8219C65.739 39.3839 65.0411 39.0102 64.3193 38.7007C60.6377 37.0947 55.3332 34.5368 53.2151 33.5089C52.7806 33.2928 52.7128 32.7088 53.0837 32.3993L53.8453 31.7628C54.5794 31.1554 55.5085 30.8517 56.4581 30.9043L66.3615 31.4941L69.1735 29.088C69.5402 28.7726 70.0863 28.8019 70.4174 29.1464C70.6166 29.3567 70.7088 29.6428 70.6609 29.9231L70.1465 33.0242C70.0267 33.7601 70.3695 34.4959 71.0119 34.8813C77.1462 38.5196 84.7126 41.0893 87.8358 42.5785C88.2108 42.7537 88.6412 42.777 89.0319 42.631C93.2005 41.1068 97.7007 39.1737 102.036 37.2932C99.2881 40.1023 98.7461 47.9804 101.103 49.6156Z" fill="white"/>
<path d="M130.776 31.7747C130.643 31.7747 130.511 31.7455 130.391 31.6871C127.932 30.484 125.865 28.4458 124.074 25.4616C123.848 25.0878 123.937 24.5973 124.28 24.3287C126.426 22.6175 127.558 20.264 126.803 19.0785C126.475 18.5646 126.054 18.2959 125.548 18.2901H125.523C124.667 18.2901 123.632 19.0025 122.877 20.1063C122.698 20.3691 122.396 20.5151 122.075 20.4859C121.759 20.4567 121.483 20.264 121.353 19.972C120.579 18.2433 119.933 16.8593 119.251 16.1176C117.514 14.2254 116.246 11.3054 115.77 8.09927C115.699 7.62039 116.029 7.17658 116.509 7.1065C116.984 7.03058 117.432 7.36339 117.503 7.84227C117.922 10.6688 119.058 13.3202 120.541 14.9321C121.198 15.6445 121.768 16.6958 122.374 17.9864C123.345 17.0462 124.49 16.5497 125.578 16.5381C126.678 16.5556 127.638 17.1279 128.281 18.1382C129.619 20.2406 128.188 23.1548 125.967 25.1871C127.425 27.4414 129.058 29.024 130.938 29.9993C132.934 29.754 134.408 29.0182 135.322 27.7976C136.842 25.7711 136.663 22.6818 136.245 20.4509C136.156 19.9779 136.469 19.5165 136.945 19.4289C137.42 19.3413 137.878 19.6508 137.967 20.1297C138.659 23.8264 138.229 26.8399 136.724 28.8488C135.466 30.5249 133.494 31.5119 130.862 31.7688C130.834 31.7747 130.804 31.7747 130.776 31.7747Z" fill="#58585F"/>
<path d="M136.549 76.3282C136.097 76.3282 135.713 75.9778 135.677 75.5165L134.472 60.3208C134.435 59.8361 134.794 59.4156 135.277 59.3747C135.751 59.3455 136.18 59.6959 136.219 60.1807L137.423 75.3822C137.462 75.861 137.102 76.2873 136.619 76.3224C136.596 76.3224 136.573 76.3282 136.549 76.3282Z" fill="#58585F"/>
<path d="M134.918 125.14C134.458 125.14 134.007 124.964 133.664 124.632C133.183 124.17 133 123.481 133.186 122.833L134.614 117.875C134.79 117.261 134.756 116.596 134.519 116L134.474 115.883C133.942 114.563 134.062 113.033 134.795 111.795L135.98 108.642C136 108.589 136.025 108.536 136.055 108.49C136.501 107.766 136.702 106.936 136.636 106.09C136.469 103.964 136.322 101.581 136.212 99.2041C135.9 92.5173 135.868 86.1576 136.129 83.004C136.17 82.5192 136.177 82.0228 136.152 81.5206C136.149 81.4447 136.145 81.3746 136.138 81.2987L135.683 75.5463C135.645 75.0615 136.005 74.6411 136.487 74.6002C136.959 74.5651 137.392 74.9214 137.429 75.4061C137.429 75.4061 137.898 81.3395 137.902 81.433C137.931 82.0111 137.922 82.5893 137.876 83.15C137.62 86.2335 137.654 92.5056 137.961 99.1282C138.072 101.482 138.217 103.841 138.382 105.955C138.475 107.146 138.201 108.315 137.591 109.337L136.407 112.49C136.387 112.543 136.362 112.595 136.331 112.642C135.848 113.425 135.764 114.394 136.105 115.247L136.15 115.363C136.526 116.304 136.58 117.372 136.298 118.359L134.869 123.318L134.943 123.382C135.28 123.277 135.622 123.148 136.019 122.979C137.213 122.477 138.187 121.536 138.761 120.333C139.069 119.691 139.361 119.054 139.648 118.406C140.681 116.064 141.662 113.436 143.145 109.05C143.866 106.574 145.578 93.7904 146.143 88.33C146.347 86.362 146.325 84.2946 146.08 82.1922C145.772 79.5408 145.676 76.8953 145.796 74.3199L145.828 73.5665C146.008 69.4668 146.277 61.7346 146.059 55.9764C145.746 47.6719 140.75 43.9635 137.101 41.2479L136.891 41.0961C135.777 40.2668 134.732 39.3441 133.788 38.3513C131.298 35.735 129.918 33.0894 129.9 30.9053C129.897 30.4206 130.286 30.0293 130.77 30.0234H130.776C131.258 30.0234 131.649 30.4089 131.652 30.8936C131.666 32.5755 132.94 34.9173 135.058 37.1424C135.933 38.0651 136.901 38.9177 137.936 39.6886L138.146 39.8463C141.857 42.6028 147.465 46.7667 147.809 55.9122C148.03 61.7288 147.759 69.5135 147.579 73.6366L147.546 74.4016C147.431 76.8836 147.523 79.4357 147.82 81.9878C148.081 84.2187 148.103 86.4145 147.885 88.511C147.398 93.2181 145.646 106.72 144.816 109.576C143.304 114.049 142.307 116.718 141.25 119.113C140.956 119.778 140.657 120.427 140.342 121.087C139.583 122.675 138.29 123.925 136.702 124.596C136.253 124.783 135.862 124.929 135.472 125.052C135.291 125.11 135.104 125.14 134.918 125.14Z" fill="#58585F"/>
<path d="M101.103 50.4919C100.717 50.4919 100.363 50.235 100.258 49.8437C100.133 49.3765 100.409 48.8976 100.877 48.7691L107.313 47.0405C107.779 46.9179 108.26 47.1982 108.386 47.6654C108.511 48.1267 108.234 48.6114 107.767 48.7341L101.331 50.4628C101.255 50.4803 101.179 50.4919 101.103 50.4919Z" fill="#58585F"/>
<path d="M87.6294 53.6862C85.0925 53.6862 82.5941 52.9212 80.4637 51.4612C77.862 49.6683 74.8421 47.3265 72.1785 45.2591C69.7823 43.402 67.5199 41.6441 65.9022 40.552C65.31 40.1549 64.66 39.7987 63.9732 39.5067C60.4768 37.9825 55.493 35.5881 52.8329 34.2974C52.361 34.0638 52.0421 33.6199 51.9785 33.1002C51.9142 32.5804 52.1174 32.0665 52.5216 31.7278L53.2849 31.0913C54.1959 30.3379 55.3359 29.9583 56.5091 30.0342L66.0604 30.5949L68.6044 28.4224C69.3198 27.8092 70.3955 27.8559 71.0508 28.5392C71.4409 28.948 71.6184 29.5203 71.525 30.0693L71.011 33.1703C70.9491 33.5499 71.1255 33.9236 71.4607 34.128C75.6714 36.6276 80.6278 38.6365 84.2474 40.1082C85.8534 40.7564 87.2399 41.323 88.2134 41.7843C88.3758 41.8661 88.5596 41.8719 88.7302 41.8076C92.9087 40.2776 97.4219 38.3445 101.687 36.4933C102.131 36.3005 102.648 36.4991 102.84 36.943C103.033 37.3868 102.829 37.9065 102.385 38.0993C98.0958 39.9622 93.5552 41.907 89.3346 43.4546C88.7261 43.6765 88.0416 43.6473 87.4588 43.367C86.5326 42.9231 85.1684 42.3741 83.5887 41.7317C79.9176 40.2425 74.89 38.1986 70.5655 35.6348C69.6071 35.0625 69.1037 33.982 69.2824 32.8841L69.7969 29.7831L69.7432 29.7539L66.9306 32.1599C66.7583 32.3059 66.5417 32.3819 66.3098 32.3644L56.4063 31.7804C55.6828 31.7395 54.9697 31.9731 54.4032 32.4403L53.8952 32.8608C56.6032 34.1748 61.3306 36.4407 64.6694 37.8949C65.4514 38.2336 66.196 38.6365 66.881 39.0979C68.5489 40.225 70.8335 42.0004 73.2519 43.875C75.898 45.9249 78.8962 48.255 81.4565 50.0129C84.0909 51.8291 87.3806 52.3898 90.484 51.5547L100.876 48.769C101.346 48.6463 101.824 48.9208 101.95 49.388C102.075 49.8552 101.797 50.3399 101.331 50.4626L90.9389 53.2482C89.8463 53.5402 88.7337 53.6862 87.6294 53.6862Z" fill="#58585F"/>
<path d="M102.036 38.1696C101.698 38.1696 101.376 37.971 101.232 37.644C101.039 37.2002 101.243 36.6863 101.687 36.4935L103.464 35.7168C110.645 32.5924 116.847 29.8885 120.495 29.287C120.969 29.2111 121.423 29.5323 121.502 30.0111C121.581 30.49 121.258 30.9397 120.78 31.0156C117.346 31.5821 110.943 34.3736 104.163 37.3228L102.384 38.0995C102.271 38.1463 102.153 38.1696 102.036 38.1696Z" fill="#58585F"/>
<path d="M116.43 168.232C114.084 168.232 111.887 167.596 110.349 166.375C109.96 166.066 109.618 165.727 109.331 165.365C109.197 165.19 109.131 164.979 109.146 164.758C109.165 164.483 111.002 136.761 105.741 109.307C102.762 93.7548 102.409 82.1741 104.627 72.8593C105.275 70.132 106.036 68.0004 106.707 66.1199C106.862 65.6877 107.012 65.2672 107.154 64.8584C108.358 61.3661 107.717 60.3558 106.829 58.9659C106.182 57.9497 105.377 56.6825 105.296 54.4049C105.194 51.59 105.85 49.873 106.483 48.2086C106.562 47.9984 106.64 47.7939 106.718 47.5837C107.13 46.4741 107.575 45.1193 107.649 43.1687C107.667 42.684 108.077 42.2926 108.558 42.3218C109.041 42.3394 109.418 42.7482 109.4 43.2329C109.316 45.4463 108.82 46.953 108.361 48.1911C108.281 48.4072 108.201 48.6174 108.12 48.8335C107.522 50.3986 106.957 51.882 107.047 54.3406C107.111 56.1452 107.691 57.0562 108.306 58.0198C109.282 59.5499 110.29 61.1325 108.81 65.4308C108.666 65.8454 108.514 66.2717 108.357 66.7097C107.701 68.5493 106.958 70.6342 106.331 73.2622C104.172 82.3317 104.531 93.6789 107.463 108.974C112.441 134.962 111.114 161.166 110.916 164.524C111.072 164.693 111.247 164.851 111.438 165.003C113.431 166.586 117.033 166.936 120.194 165.856C122.12 165.196 123.721 164.086 124.842 162.626C124.633 157.539 124.965 151.144 125.83 143.623C125.885 143.144 126.329 142.793 126.8 142.852C127.281 142.904 127.626 143.342 127.57 143.821C126.698 151.407 126.374 157.814 126.605 162.86C126.614 163.052 126.558 163.251 126.443 163.409C125.102 165.283 123.137 166.702 120.761 167.514C119.34 167.999 117.858 168.232 116.43 168.232Z" fill="#58585F"/>
<path d="M101.103 50.4927C100.931 50.4927 100.757 50.4401 100.605 50.335C99.3519 49.4648 98.9309 47.631 98.7989 46.2411C98.5086 43.1985 99.3262 38.8126 101.411 36.681C101.749 36.3365 102.303 36.3307 102.649 36.6694C102.996 37.0081 103.001 37.5629 102.663 37.9075C101.011 39.5952 100.287 43.3854 100.543 46.0718C100.676 47.4734 101.072 48.5304 101.603 48.8983C102.001 49.1728 102.1 49.7159 101.823 50.1189C101.654 50.3642 101.38 50.4927 101.103 50.4927Z" fill="#58585F"/>
<path d="M123.527 42.8065C122.166 42.8065 120.902 42.6254 119.83 42.275C117.91 41.6501 116.702 40.4822 116.43 38.9929C116.043 36.8672 117.529 34.4377 120.85 31.7689C121.226 31.4652 121.779 31.5236 122.082 31.9032C122.385 32.2769 122.325 32.8317 121.947 33.1354C118.301 36.0671 118.005 37.8658 118.154 38.6776C118.347 39.7404 119.468 40.3128 120.375 40.6106C123.859 41.7494 129.988 40.7333 133.819 37.1125C134.171 36.7796 134.725 36.7912 135.057 37.1416C135.389 37.492 135.375 38.0527 135.024 38.3856C131.82 41.4165 127.303 42.8065 123.527 42.8065Z" fill="#58585F"/>
<path d="M126.628 85.117C116.277 85.117 107.55 80.5035 104.667 73.3903C104.486 72.9406 104.702 72.4325 105.15 72.2456C105.599 72.0704 106.108 72.2807 106.291 72.7304C108.978 79.3647 117.875 83.7271 127.91 83.3416C131.135 83.219 134.043 82.343 136.555 80.737C136.961 80.4801 137.504 80.5968 137.764 81.0056C138.025 81.4144 137.906 81.9518 137.498 82.2146C134.72 83.9899 131.517 84.9593 127.977 85.0937C127.525 85.1112 127.075 85.117 126.628 85.117Z" fill="#58585F"/>
<path d="M136.399 182.979C134.836 182.979 133.313 182.617 132.131 182.132C131.577 181.904 131.084 181.647 130.665 181.367C130.44 181.221 130.297 180.976 130.278 180.707L129.908 175.696L127.019 173.097C126.798 172.899 126.692 172.601 126.74 172.303C127.755 166.124 127.448 156.547 125.831 143.833C124.855 136.159 123.414 127.44 121.549 117.921C120.628 113.226 119.611 108.349 118.526 103.432C118.411 102.918 118.214 102.422 117.943 101.966C116.662 99.8287 113.507 94.6311 111.883 92.6455C111.576 92.2717 111.632 91.7169 112.006 91.4133C112.381 91.1037 112.932 91.1621 113.239 91.5359C114.875 93.539 117.831 98.3687 119.447 101.073C119.814 101.686 120.08 102.352 120.236 103.052C121.325 107.987 122.345 112.875 123.268 117.582C125.141 127.142 126.588 135.902 127.569 143.611C129.167 156.179 129.494 165.762 128.544 172.116L131.342 174.633C131.51 174.785 131.613 174.995 131.629 175.217L131.992 180.129C132.235 180.263 132.507 180.392 132.796 180.514C134.892 181.373 137.89 181.63 139.862 180.263C140.383 179.901 140.818 179.44 141.16 178.885C141.732 167.181 141.089 155.221 140.465 143.652C140.022 135.424 139.564 126.915 139.573 118.756C139.573 118.271 139.966 117.88 140.449 117.88C140.933 117.88 141.325 118.277 141.325 118.762C141.316 126.868 141.773 135.353 142.214 143.559C142.843 155.244 143.495 167.322 142.898 179.189C142.892 179.323 142.853 179.457 142.787 179.574C142.301 180.438 141.652 181.151 140.86 181.7C139.526 182.628 137.943 182.979 136.399 182.979Z" fill="#58585F"/>
<path d="M106.096 189.776C105.203 189.776 104.233 189.595 103.19 189.233C102.324 188.929 101.675 188.252 101.41 187.364C101.144 186.482 101.32 185.513 101.88 184.783C102.984 183.341 104.47 181.291 105.276 179.731C105.671 178.966 106.217 177.658 106.811 176.041C108.088 172.56 109.355 168.419 110.039 165.494C110.149 165.02 110.619 164.728 111.091 164.839C111.562 164.95 111.855 165.418 111.745 165.891C111.046 168.881 109.755 173.103 108.456 176.642C107.837 178.33 107.26 179.714 106.831 180.537C105.967 182.213 104.419 184.345 103.272 185.846C103.048 186.138 102.982 186.512 103.087 186.862C103.19 187.201 103.437 187.464 103.765 187.58C104.885 187.966 106.489 188.293 107.764 187.656C109.671 186.704 115.945 183.2 116.645 178.114C116.673 177.909 116.772 177.722 116.924 177.588C118.388 176.251 118.948 175.947 119.534 176.169C119.843 176.286 120.082 176.584 120.119 176.911C120.122 176.94 120.123 176.963 120.124 176.992L120.166 178.803L120.172 178.809C120.35 178.844 120.845 178.715 121.681 178.055C121.708 174.715 121.016 172.274 120.404 170.119C120.076 168.963 119.773 167.9 119.61 166.813C119.538 166.334 119.868 165.891 120.346 165.815C120.828 165.745 121.27 166.072 121.343 166.551C121.489 167.526 121.777 168.542 122.082 169.617C122.76 171.999 123.521 174.68 123.426 178.493C123.421 178.745 123.31 178.978 123.122 179.136C121.75 180.315 120.627 180.759 119.68 180.491C118.985 180.286 118.588 179.731 118.459 179.317C118.436 179.241 118.422 179.159 118.42 179.083L118.409 178.61C118.384 178.628 118.357 178.651 118.33 178.674C117.349 184.269 111.189 187.907 108.547 189.227C107.814 189.589 106.995 189.776 106.096 189.776Z" fill="#58585F"/>
<path d="M108.886 182.371C108.699 182.371 108.512 182.348 108.329 182.307C107.1 182.033 106.253 180.923 106.32 179.661C106.372 178.68 106.524 177.506 106.773 176.181C106.863 175.702 107.319 175.387 107.796 175.48C108.271 175.568 108.584 176.023 108.495 176.502C108.261 177.752 108.118 178.85 108.07 179.755C108.049 180.158 108.319 180.508 108.713 180.596C108.924 180.648 109.148 180.608 109.332 180.491C110.815 179.545 114.854 175.953 117.006 173.985C117.333 173.681 117.672 173.389 118.008 173.097C119.226 172.034 120.606 170.831 120.402 170.107C120.27 169.646 120.541 169.161 121.006 169.027C121.475 168.892 121.957 169.167 122.087 169.634C122.594 171.421 120.848 172.946 119.159 174.417C118.835 174.698 118.506 174.984 118.19 175.276C117.203 176.175 112.186 180.742 110.271 181.968C109.853 182.231 109.369 182.371 108.886 182.371Z" fill="#58585F"/>
<path d="M121.956 36.178C121.528 36.178 121.153 35.8627 121.09 35.4247C120.938 34.3677 120.767 33.4916 120.552 32.674C120.374 31.9966 120.142 31.2957 119.822 30.4723C118.573 30.3905 115.726 29.9759 113.636 27.8618C112.044 26.2558 111.245 24.0367 111.258 21.2627C111.077 21.14 110.905 20.9998 110.745 20.8363C110.384 20.4742 110.19 19.9778 110.213 19.4698C110.236 18.9675 110.47 18.4945 110.856 18.1733C111.025 18.0331 111.213 17.8579 111.399 17.6652C111.614 17.4491 111.766 17.1747 111.836 16.8768C112.037 16.0475 112.302 15.1424 112.625 14.1904C112.907 13.3612 113.234 12.4968 113.599 11.6267C114.304 10.0382 115.083 8.64242 115.924 7.46274C119.764 2.07241 124.089 2.10163 125.768 2.36443C127.703 2.66811 129.399 3.69008 130.195 4.9632C131.681 4.7004 133.27 4.95736 134.576 5.6932C135.704 6.32976 136.554 7.26413 137.076 8.43213C138.863 7.73717 141.286 8.02335 143.167 9.25559C145.63 10.8733 146.597 13.6823 145.82 16.9702C145.466 18.4769 144.586 19.6859 143.276 20.4684C141.571 21.4963 139.181 21.7474 136.882 21.14C134.431 20.4917 132.54 19.0376 131.696 17.1571C131.498 16.7133 131.695 16.1994 132.137 16.0008C132.578 15.8023 133.096 16.0008 133.294 16.4388C133.912 17.8171 135.421 18.9384 137.33 19.4406C139.179 19.9312 141.066 19.7559 142.374 18.9675C143.282 18.4244 143.868 17.6185 144.115 16.5673C144.933 13.1042 143.271 11.4222 142.207 10.7214C140.385 9.53008 138.145 9.62355 137.112 10.3944C136.879 10.5696 136.572 10.6163 136.297 10.5171C136.022 10.4236 135.812 10.19 135.739 9.90967C135.435 8.72415 134.735 7.7956 133.717 7.22328C132.615 6.60424 131.178 6.44659 129.965 6.81451C129.51 6.95467 129.022 6.69765 128.876 6.24213C128.611 5.40701 127.274 4.37337 125.497 4.09889C123.809 3.83025 120.506 4.05217 117.35 8.4789C116.578 9.56514 115.858 10.8557 115.208 12.3157C114.867 13.1392 114.552 13.9627 114.283 14.7569C113.978 15.6563 113.728 16.5089 113.54 17.2856C113.396 17.893 113.087 18.4478 112.647 18.8974C112.418 19.131 112.194 19.3355 111.978 19.5165L111.984 19.5982C112.136 19.7501 112.304 19.8669 112.48 19.937C112.82 20.0771 113.036 20.4158 113.021 20.7838C112.916 23.3066 113.539 25.2689 114.871 26.6179C117.016 28.7962 120.356 28.732 120.393 28.732C120.748 28.7028 121.09 28.9423 121.228 29.2752C121.228 29.2752 121.393 29.6722 121.455 29.8358C121.799 30.7234 122.051 31.4826 122.247 32.2302C122.479 33.112 122.663 34.0523 122.824 35.1794C122.893 35.6583 122.561 36.1021 122.082 36.1663C122.039 36.1722 121.998 36.178 121.956 36.178Z" fill="#58585F"/>
<path d="M140.878 78.3724C138.466 78.3724 135.903 77.5198 135.687 75.5926C135.68 75.5459 135.676 75.4933 135.676 75.4524C135.676 74.9677 136.068 74.5764 136.552 74.5764C136.99 74.5764 137.354 74.8976 137.418 75.3181C137.422 75.3415 137.425 75.3648 137.428 75.3882C137.482 75.9488 138.924 76.6788 141.136 76.6146C143.25 76.5503 145.747 75.7094 145.827 73.5661C145.846 73.0814 146.25 72.696 146.736 72.7252C147.219 72.7427 147.596 73.1515 147.578 73.6362C147.462 76.7723 144.285 78.2731 141.189 78.3666C141.085 78.3724 140.982 78.3724 140.878 78.3724Z" fill="#58585F"/>
</svg>
