<svg width="200" height="200" viewBox="0 0 200 200" fill="none" xmlns="http://www.w3.org/2000/svg">
<path d="M114.079 60.3584C111.994 59.6851 109.953 59.1317 108.026 58.725V55.9784L105.51 54.5317V53.9583C105.51 53.585 105.33 53.1517 105.058 52.8384C110.701 37.5984 117.343 36.0784 117.58 30.8384C119.269 31.6517 120.93 32.4717 122.57 33.325C124.18 34.1517 125.567 35.3051 126.681 36.6784L126.703 36.6983C132.662 43.5983 135.94 57.0717 135.006 71.9917C134.746 76.1184 130.767 78.8517 126.926 77.8117C126.63 77.7317 126.343 77.6317 126.056 77.505C119.372 74.6517 113.022 70.0917 110.32 66.7917C110.694 66.565 111.04 66.3184 111.369 66.0251C112.568 64.9784 113.476 63.3584 114.079 60.3584Z" fill="#DBDBDE"/>
<path d="M110.514 113.512C109.904 130.112 109.034 158.759 109.832 167.939C109.22 168.005 108.638 168.045 108.063 168.059C103.736 168.159 100.402 166.752 97.5604 162.932C97.3464 162.645 97.1364 162.352 96.9357 162.032C97.2084 157.859 97.9777 136.352 95.605 119.925C94.4337 111.825 92.665 106.139 92.665 96.9586C92.665 90.7786 93.5137 83.4986 94.1824 77.1186L94.5917 76.8853C98.481 83.3719 107.941 84.6519 113.512 84.3186C117.322 83.9786 123.67 82.9586 126.064 79.7119C127.228 84.8919 128.479 91.4853 128.479 103.645C128.479 112.665 127.602 120.825 127.58 130.019C127.551 142.239 130.262 159.985 127.257 183.359C126.56 183.265 125.898 183.179 125.266 183.105C122.937 182.819 120.866 182.672 118.522 182.759C117.516 182.785 116.452 182.865 115.295 182.992C115.295 182.992 117.013 161.825 116.639 151.992C116.272 142.165 115.324 136.359 115.316 136.352C114.058 129.685 112.55 123.085 111.126 116.492C111.083 116.299 110.529 113.572 110.514 113.512Z" fill="#F7F7F8"/>
<path d="M126.055 77.5051C126.343 77.6317 126.63 77.7317 126.925 77.8117C126.781 78.5184 126.479 79.1517 126.063 79.7117C123.669 82.9584 117.321 83.9784 113.511 84.3184C107.94 84.6517 98.4802 83.3717 94.5908 76.885L109.011 68.5584C109.248 68.4184 109.277 68.2118 109.069 68.0984L103.469 64.865C103.857 64.305 104.533 64.0184 105.209 64.125C106.395 64.325 108.443 64.8118 111.369 66.0251C111.039 66.3184 110.693 66.565 110.319 66.7917C113.022 70.0917 119.372 74.6517 126.055 77.5051Z" fill="#DBDBDE"/>
<path d="M126.2 189.265C126.609 191.112 125.912 193.032 124.409 194.172C122.972 195.265 121.347 195.992 119.658 195.992C118.745 195.992 117.853 195.779 116.991 195.405C116.287 195.099 115.741 194.525 115.467 193.805C115.201 193.085 115.237 192.292 115.568 191.605C116.963 188.712 118.012 185.959 118.522 182.759C120.866 182.672 122.936 182.825 125.265 183.105C125.416 185.165 125.747 187.219 126.2 189.265Z" fill="#58585F"/>
<path d="M116.625 30.3853C116.941 30.5386 117.258 30.6853 117.581 30.8386C117.344 36.0786 110.702 37.5986 105.058 52.8386C104.95 52.7053 104.821 52.592 104.685 52.512L104.468 52.3919C104.433 52.3719 104.397 52.352 104.368 52.3386C103.62 47.9386 102.923 41.3053 104.16 34.5853C104.332 34.3386 104.599 34.0586 104.9 33.7852C104.979 33.7119 105.066 33.6386 105.158 33.5586C105.953 32.8786 106.848 32.2653 106.848 32.2653C107.193 33.452 107.431 34.3319 107.596 34.9853C107.883 36.1453 107.941 36.5519 107.941 36.5519C107.941 36.5519 113.095 34.4453 116.625 30.3853Z" fill="#DBDBDE"/>
<path d="M114.575 28.3188C115.409 29.3655 115.948 29.8255 116.624 30.3855C113.094 34.4455 107.94 36.5522 107.94 36.5522C107.94 36.5522 107.882 36.1455 107.596 34.9855C107.43 34.3322 107.192 33.4522 106.848 32.2655V32.2589C110.198 32.0122 113.245 30.2388 114.575 28.3188Z" fill="#DBDBDE"/>
<path d="M114.625 13.4917C114.965 14.6184 114.97 16.125 113.971 16.725C114.05 16.8917 114.115 17.065 114.165 17.2317C114.686 18.9317 113.705 20.5384 111.959 21.0917L111.944 21.0984C112.426 19.9984 112.799 18.725 112.555 17.9117C112.318 17.1317 111.628 16.8584 110.916 17.0717C110.297 17.2584 109.665 17.8184 109.305 18.7384C108.177 16.7584 107.257 14.7784 106.711 13.0117C106.279 13.1784 105.841 13.3317 105.403 13.465C101.611 14.6317 98.7742 13.9117 97.0422 12.1183C96.3088 11.3583 95.7621 10.405 95.4321 9.30503C95.3241 8.94503 95.2521 8.57835 95.2021 8.21168C95.7915 8.29835 96.3881 8.28506 97.0061 8.09173C98.9555 7.4984 99.9175 5.55842 101.937 4.94508C102.671 4.72508 103.619 4.75836 104.346 5.05169C104.655 4.65169 105.065 4.31835 105.683 4.13169C107.149 3.69169 108.889 4.47167 109.687 5.78501C111.16 5.65167 112.313 6.17168 112.871 8.03834C112.981 8.40501 113.051 8.78505 113.087 9.16505C113.835 9.43839 114.314 9.94501 114.496 10.5383C114.674 11.1183 114.568 11.7917 114.151 12.4117C114.367 12.745 114.525 13.165 114.625 13.4917Z" fill="#58585F"/>
<path d="M111.42 22.1587C112.247 23.7654 113.469 26.2587 114.575 28.3187C113.245 30.2387 110.198 32.012 106.848 32.2587C106.611 31.4654 106.294 30.672 105.957 29.912C105.921 29.832 105.877 29.7454 105.841 29.6654C105.753 29.4654 105.54 29.3587 105.324 29.392C103.009 29.7787 101.327 29.152 100.083 27.832C99.1053 26.7987 98.4013 25.3387 97.8767 23.6054C97.078 20.9721 96.288 16.2387 97.0427 12.1187C98.7747 13.912 101.612 14.632 105.403 13.4653C105.842 13.332 106.28 13.1787 106.711 13.012C107.258 14.7787 108.178 16.7587 109.306 18.7387C109.666 17.8187 110.298 17.2587 110.917 17.072C111.629 16.8587 112.319 17.132 112.555 17.912C112.8 18.7254 112.433 19.9987 111.945 21.0987C111.774 21.4787 111.593 21.8387 111.42 22.1587Z" fill="#A7ADB8"/>
<path d="M114.079 60.3586C113.476 63.3586 112.562 64.9719 111.369 66.0252C108.443 64.8119 106.395 64.3252 105.209 64.1252C104.533 64.0185 103.857 64.3052 103.469 64.8652C103.447 64.9052 103.418 64.9519 103.39 64.9919L103.023 65.6452C102.686 66.2519 101.938 66.5052 101.305 66.2185L98.9043 65.1719C98.5163 64.9986 98.2357 64.6519 98.157 64.2385L97.9337 63.1319C97.8257 62.6252 97.3584 62.2919 96.8484 62.3452C94.461 62.6252 92.6903 63.1119 90.0763 64.2319C89.7537 64.3719 89.377 64.2652 89.163 63.9785C89.1143 63.9119 89.077 63.8319 89.0484 63.7652C88.955 63.4586 89.057 63.1119 89.3357 62.9119C90.2097 62.3052 91.9617 61.1785 94.2817 60.0585C94.441 59.9852 94.599 59.9119 94.7637 59.8386C95.961 59.3052 97.287 58.7786 98.7243 58.3586C99.4143 58.1519 100.22 58.0319 101.126 57.9919C103.059 57.9052 105.432 58.1785 108.026 58.7252C109.953 59.1319 111.994 59.6852 114.079 60.3586Z" fill="#A7ADB8"/>
<path d="M109.069 68.0988C109.277 68.2121 109.249 68.4187 109.012 68.5587L94.1307 77.1521C93.9013 77.2854 93.542 77.2988 93.3407 77.1854L92.614 76.7588C92.8087 76.8654 92.9667 76.7654 92.9667 76.5387L88.208 64.0854L89.0487 63.7654C89.0773 63.8321 89.1147 63.9121 89.1633 63.9787C89.3773 64.2654 89.754 64.3721 90.0767 64.2321C92.6907 63.1121 94.4613 62.6254 96.8487 62.3454C97.3587 62.2921 97.826 62.6254 97.934 63.1321L98.1573 64.2387C98.236 64.6521 98.5167 64.9988 98.9047 65.1721L101.305 66.2187C101.938 66.5054 102.686 66.2521 103.023 65.6454L103.39 64.9921C103.419 64.9521 103.447 64.9054 103.469 64.8654L109.069 68.0988Z" fill="#F3F3F5"/>
<path d="M97.5597 162.932C100.385 166.765 103.735 168.152 108.062 168.059C107.976 168.659 107.754 169.252 107.408 169.765C106.978 170.405 106.388 170.912 105.705 171.232C104.051 171.559 101.945 171.072 100.414 171.825C96.6757 173.665 96.8623 176.092 90.9896 176.092C88.689 176.092 85.001 175.759 85.001 173.439C85.001 171.072 88.6096 170.912 90.3423 170.019C93.2463 168.379 95.9283 166.059 97.5597 162.932Z" fill="#58585F"/>
<path d="M108.027 55.9785V58.7252C105.432 58.1785 103.059 57.9052 101.126 57.9919V51.9985L103.635 53.4452V52.8718C103.635 52.3852 103.963 52.1519 104.368 52.3385C104.397 52.3519 104.433 52.3718 104.468 52.3918L104.685 52.5119C104.821 52.5919 104.949 52.7052 105.058 52.8385C105.328 53.1585 105.511 53.5852 105.511 53.9585V54.5318L108.027 55.9785Z" fill="white"/>
<path d="M106.848 32.2588V32.2655C106.848 32.2655 105.953 32.8788 105.158 33.5588C105.065 33.6388 104.978 33.7121 104.9 33.7854C104.598 34.0587 104.332 34.3388 104.159 34.5854C104.512 32.8854 104.813 31.6521 105.957 29.9121C106.287 30.6721 106.611 31.4655 106.848 32.2588Z" fill="white"/>
<path d="M105.841 29.6654C105.877 29.7454 105.921 29.832 105.957 29.912C104.813 31.652 104.512 32.8854 104.159 34.5854C102.923 41.3054 103.62 47.9387 104.368 52.3387C103.958 52.1587 103.635 52.3853 103.635 52.872V53.4454L101.126 51.9987V57.992C100.22 58.032 99.4145 58.1521 98.7245 58.3587C97.2872 58.7787 95.9572 59.2987 94.7638 59.8387L94.1958 59.5054C93.9512 57.992 93.2612 53.7387 92.9305 51.5653C92.7365 48.3787 92.3125 45.312 92.3125 42.312C92.3125 34.372 95.7345 29.7854 100.083 27.832C101.327 29.152 103.009 29.7787 105.324 29.392C105.54 29.3587 105.753 29.4654 105.841 29.6654Z" fill="#DBDBDE"/>
<path d="M94.7643 59.8387C94.5989 59.912 94.4403 59.9853 94.2823 60.0587C94.2749 60.0253 94.2463 59.832 94.1963 59.5054L94.7643 59.8387Z" fill="white"/>
<path d="M94.196 59.5051C94.246 59.8318 94.2746 60.0251 94.282 60.0584C91.946 61.1451 90.21 62.3051 89.336 62.9118C89.0574 63.1118 88.9553 63.4584 89.0487 63.7651L88.208 64.0851L87.4093 62.0118C87.4093 61.7651 87.244 61.4851 87.036 61.3717L81.6807 58.2718L86.4393 55.5251C86.6767 55.3851 87.0287 55.3718 87.2373 55.4918L94.196 59.5051Z" fill="#F3F3F5"/>
<path d="M88.2076 64.0852L92.9663 76.5385C92.9663 76.7652 92.8083 76.8652 92.6136 76.7585L92.5922 76.7519L83.0176 71.2252C82.3702 68.2785 81.7583 64.6719 79.8463 63.9919C79.8316 63.9852 79.8183 63.9785 79.8036 63.9785C77.9849 63.4185 77.8916 66.2118 78.3949 68.5585L75.8142 67.0718V67.0652L70.7603 64.1452C70.5589 64.0318 70.3936 63.7385 70.3936 63.5052L64.8369 48.9718C64.8369 48.7385 65.0023 48.6385 65.2036 48.7585L87.0356 61.3718C87.2436 61.4851 87.4089 61.7652 87.4089 62.0119L88.2076 64.0852Z" fill="#D5D5DC"/>
<path d="M83.0178 71.2254L86.3811 73.1655C83.4558 74.2855 78.7405 73.2121 75.8145 67.0721L78.3951 68.5588C77.8918 66.2121 77.9851 63.4188 79.8038 63.9788C79.8185 63.9788 79.8318 63.9855 79.8465 63.9921C81.7585 64.6721 82.3704 68.2788 83.0178 71.2254Z" fill="#A7ADB8"/>
<path d="M94.2778 61.0585C93.8098 61.0585 93.3938 60.7319 93.3005 60.2519C93.2958 60.2252 92.2392 53.6652 91.9419 51.7119C91.9372 51.6852 91.9345 51.6585 91.9325 51.6252C91.8618 50.4785 91.7605 49.3252 91.6612 48.2119C91.4825 46.1785 91.3125 44.2585 91.3125 42.3119C91.3125 32.1785 96.5512 28.3186 99.6745 26.9186C100.178 26.6986 100.769 26.9186 100.996 27.4252C101.222 27.9319 100.996 28.5186 100.492 28.7452C95.8625 30.8186 93.3125 35.6385 93.3125 42.3119C93.3125 44.1719 93.4785 46.0452 93.6538 48.0318C93.7525 49.1452 93.8538 50.2985 93.9258 51.4585C94.2245 53.4185 95.2652 59.8785 95.2652 59.8785C95.3585 60.4185 95.0018 60.9385 94.4632 61.0385C94.4012 61.0518 94.3385 61.0585 94.2778 61.0585Z" fill="#58585F"/>
<path d="M106.712 12.0121C106.861 12.0121 107.011 12.0454 107.148 12.1121C107.398 12.2321 107.585 12.452 107.666 12.7187C108.045 13.9387 108.638 15.3387 109.406 16.8254C109.766 16.492 110.18 16.252 110.628 16.1187C111.258 15.9253 111.9 15.9721 112.431 16.2587C112.635 16.3721 112.818 16.5054 112.974 16.6721C112.992 16.3521 113.163 16.052 113.455 15.872C113.916 15.592 113.909 14.5854 113.668 13.7787C113.568 13.4454 113.442 13.1587 113.314 12.9587C113.096 12.6253 113.098 12.1921 113.32 11.8587C113.557 11.5054 113.636 11.1387 113.542 10.832C113.445 10.512 113.163 10.2587 112.745 10.1054C112.382 9.97207 112.128 9.64539 112.092 9.25872C112.062 8.93206 112.001 8.6187 111.913 8.3187C111.485 6.9187 110.78 6.692 109.78 6.78534C109.396 6.82534 109.032 6.63202 108.833 6.30535C108.244 5.33869 106.961 4.79206 105.974 5.09206C105.618 5.19872 105.361 5.37205 105.14 5.66538C104.866 6.01871 104.388 6.15203 103.97 5.97869C103.467 5.77869 102.752 5.74537 102.229 5.90537C101.41 6.15204 100.762 6.71202 100.075 7.30535C99.3204 7.95202 98.4644 8.69202 97.2997 9.05202C97.0224 9.13202 96.7424 9.19202 96.4584 9.22536C96.7464 10.0854 97.1858 10.8254 97.7638 11.4254C99.3584 13.0721 101.971 13.4587 105.114 12.5054C105.523 12.3787 105.942 12.2387 106.353 12.0787C106.468 12.032 106.59 12.0121 106.712 12.0121ZM114.576 29.3187C114.22 29.3187 113.876 29.1253 113.696 28.792C112.936 27.3787 112.134 25.7853 111.426 24.3787C111.098 23.732 110.795 23.1254 110.531 22.6121C110.38 22.3187 110.384 21.9654 110.542 21.6787C110.704 21.3787 110.872 21.0454 111.034 20.6854C111.606 19.3787 111.697 18.532 111.598 18.2053C111.582 18.152 111.546 18.0521 111.488 18.0254C111.443 17.9987 111.347 17.992 111.208 18.032C110.906 18.1187 110.493 18.4521 110.238 19.1054C110.098 19.4654 109.763 19.712 109.379 19.7387C108.972 19.772 108.628 19.572 108.437 19.232C107.429 17.4587 106.642 15.8053 106.09 14.292C105.962 14.3387 105.832 14.3787 105.702 14.4187C101.795 15.6054 98.4691 15.032 96.3244 12.8187C95.4751 11.932 94.8531 10.8521 94.4751 9.59206C94.3604 9.21206 94.2744 8.79873 94.2124 8.34539C94.1697 8.03206 94.2757 7.71871 94.4991 7.49871C94.7224 7.27871 95.0364 7.17202 95.3484 7.21868C95.8531 7.29202 96.2864 7.26535 96.7177 7.13869C97.4764 6.90535 98.0751 6.38534 98.7684 5.79201C99.5451 5.11867 100.425 4.35871 101.649 3.99204C102.39 3.76537 103.257 3.74538 104.044 3.91872C104.427 3.57872 104.873 3.33206 105.394 3.17873C107.074 2.66539 109.037 3.3454 110.191 4.7654C111.991 4.79873 113.242 5.81871 113.828 7.74538C113.901 7.99204 113.96 8.23871 114.004 8.49204C114.724 8.89204 115.23 9.50538 115.455 10.2521C115.671 10.9521 115.612 11.7054 115.29 12.4187C115.42 12.7054 115.517 12.9853 115.583 13.2053C115.943 14.4053 115.988 15.9921 115.146 17.0187C115.728 19.0387 114.686 21.052 112.678 21.892C112.634 21.9854 112.59 22.072 112.546 22.1587C112.752 22.5654 114.711 26.4587 115.456 27.8454C115.718 28.3254 115.536 28.932 115.05 29.1987C114.9 29.2787 114.737 29.3187 114.576 29.3187Z" fill="#58585F"/>
<path d="M126.682 37.6787C126.391 37.6787 126.102 37.552 125.904 37.3053C124.849 36.0053 123.574 34.9653 122.113 34.2187C120.646 33.452 119.07 32.6654 117.148 31.7387C116.831 31.592 116.512 31.4387 116.193 31.292C115.695 31.052 115.484 30.452 115.722 29.9587C115.96 29.4587 116.556 29.2454 117.055 29.4854C117.369 29.632 117.683 29.7854 118.004 29.9321C119.956 30.8721 121.551 31.6654 123.033 32.4387C124.736 33.3121 126.228 34.5253 127.459 36.0453C127.807 36.472 127.74 37.1053 127.311 37.452C127.126 37.6053 126.903 37.6787 126.682 37.6787Z" fill="#58585F"/>
<path d="M111.001 116.905C110.537 116.905 110.12 116.579 110.023 116.106C109.872 115.366 109.72 114.632 109.576 113.899C109.469 113.352 109.823 112.825 110.364 112.719C110.908 112.619 111.433 112.966 111.538 113.512C111.682 114.239 111.831 114.972 111.982 115.699C112.094 116.239 111.745 116.772 111.204 116.879C111.136 116.899 111.068 116.905 111.001 116.905Z" fill="#58585F"/>
<path d="M127.257 184.358C127.213 184.358 127.169 184.358 127.125 184.352C126.43 184.258 125.771 184.172 125.141 184.092C122.52 183.778 120.609 183.678 118.559 183.758C117.576 183.785 116.547 183.858 115.406 183.985C115.111 184.025 114.813 183.918 114.599 183.712C114.383 183.505 114.273 183.212 114.297 182.912C114.315 182.705 116.007 161.692 115.639 152.025C115.28 142.385 114.371 136.765 114.335 136.552L114.333 136.538C113.511 132.178 112.548 127.772 111.617 123.512C111.121 121.238 110.624 118.972 110.147 116.698C110.033 116.158 110.379 115.625 110.919 115.512C111.462 115.398 111.99 115.745 112.103 116.285C112.58 118.552 115.471 131.778 116.298 136.172L116.235 136.178C116.799 138.378 117.435 146.505 117.638 151.952C117.959 160.385 116.738 177.258 116.384 181.878C117.122 181.818 117.819 181.778 118.493 181.758C120.623 181.678 122.685 181.785 125.385 182.112C125.713 182.152 126.047 182.192 126.389 182.238C128.362 166.125 127.629 152.778 127.036 142.005C126.787 137.478 126.572 133.565 126.58 130.018C126.591 125.432 126.817 121.045 127.034 116.805C127.253 112.558 127.479 108.165 127.479 103.645C127.479 91.5718 126.244 85.0718 125.087 79.9318C124.966 79.3985 125.305 78.8584 125.844 78.7384C126.383 78.6184 126.917 78.9585 127.039 79.4985C128.219 84.7385 129.479 91.3651 129.479 103.645C129.479 108.212 129.251 112.632 129.031 116.912C128.815 121.125 128.591 125.485 128.58 130.025C128.572 133.512 128.785 137.398 129.033 141.898C129.642 152.972 130.4 166.752 128.248 183.492C128.214 183.752 128.077 183.992 127.866 184.152C127.69 184.292 127.476 184.358 127.257 184.358Z" fill="#58585F"/>
<path d="M90.9896 177.092C85.213 177.092 84.001 175.105 84.001 173.439C84.001 170.999 86.463 170.252 88.2596 169.705C88.885 169.518 89.4763 169.338 89.8843 169.132C92.9897 167.378 95.285 165.132 96.673 162.465C96.9283 161.978 97.533 161.792 98.0216 162.045C98.5123 162.298 98.7016 162.905 98.4463 163.392C96.8763 166.405 94.315 168.925 90.8336 170.892C90.2296 171.198 89.5537 171.405 88.839 171.625C87.125 172.138 86.001 172.545 86.001 173.439C86.001 174.659 88.5776 175.092 90.9896 175.092C94.491 175.092 95.507 174.232 96.913 173.032C97.697 172.365 98.585 171.612 99.9723 170.925C101.106 170.365 102.372 170.365 103.596 170.365C104.242 170.365 104.856 170.359 105.388 170.272C105.865 170.025 106.275 169.658 106.578 169.212C106.835 168.825 107.007 168.378 107.072 167.918C107.15 167.372 107.658 166.992 108.203 167.065C108.75 167.145 109.13 167.652 109.052 168.198C108.945 168.952 108.664 169.685 108.24 170.325C107.71 171.112 106.982 171.738 106.133 172.138C106.058 172.172 105.978 172.198 105.896 172.218C105.149 172.358 104.361 172.365 103.599 172.365C102.557 172.365 101.574 172.365 100.856 172.718C99.6916 173.292 98.9376 173.932 98.2096 174.552C96.6756 175.858 95.2263 177.092 90.9896 177.092Z" fill="#58585F"/>
<path d="M119.658 196.992C118.653 196.992 117.622 196.765 116.593 196.319C115.638 195.912 114.906 195.145 114.532 194.159C114.17 193.179 114.22 192.092 114.668 191.172C116.24 187.905 117.097 185.339 117.534 182.599C117.622 182.052 118.136 181.685 118.68 181.772C119.225 181.859 119.596 182.372 119.51 182.912C119.04 185.859 118.13 188.585 116.468 192.039C116.256 192.479 116.233 192.999 116.405 193.459C116.58 193.919 116.93 194.285 117.384 194.485C118.164 194.819 118.928 194.992 119.658 194.992C121 194.992 122.394 194.445 123.804 193.379C124.991 192.472 125.548 190.945 125.223 189.479C124.727 187.245 124.414 185.179 124.268 183.179C124.227 182.625 124.641 182.145 125.192 182.105C125.735 182.059 126.222 182.479 126.262 183.032C126.402 184.939 126.701 186.905 127.176 189.045C127.669 191.272 126.821 193.592 125.015 194.965C123.248 196.312 121.446 196.992 119.658 196.992Z" fill="#58585F"/>
<path d="M111.78 85.3651C105.281 85.3651 97.2852 83.3251 93.7332 77.3984C93.4492 76.9251 93.6033 76.3051 94.0773 76.0251C94.5499 75.7385 95.1653 75.8917 95.4493 76.3717C98.8799 82.0984 107.297 83.6918 113.451 83.3184C119.451 82.7851 123.654 81.2917 125.259 79.1184C125.607 78.6517 125.838 78.1451 125.945 77.6118C126.055 77.0718 126.589 76.7251 127.124 76.8318C127.665 76.9384 128.016 77.4651 127.907 78.0051C127.74 78.8318 127.389 79.6051 126.866 80.3118C124.369 83.6918 118.273 84.8984 113.6 85.3118C113.011 85.3451 112.403 85.3651 111.78 85.3651Z" fill="#58585F"/>
<path d="M107.678 169.059C103.013 169.059 99.535 167.292 96.7557 163.525C96.5084 163.192 96.2897 162.879 96.0917 162.572C95.9777 162.392 95.9237 162.179 95.9371 161.965C96.2484 157.205 96.9363 136.139 94.6157 120.072C94.265 117.645 93.8577 115.425 93.4637 113.279C92.539 108.232 91.665 103.465 91.665 96.9587C91.665 91.3587 92.3624 84.7921 92.9777 78.9988L93.1871 77.0188C93.2451 76.4655 93.7497 76.0787 94.2864 76.1254C94.8357 76.1854 95.2344 76.6787 95.177 77.2254L94.9663 79.2121C94.3563 84.9587 93.665 91.4654 93.665 96.9587C93.665 103.285 94.5231 107.965 95.4317 112.919C95.8284 115.085 96.2397 117.325 96.5951 119.785C98.8891 135.672 98.2757 156.372 97.9544 161.765C98.0864 161.959 98.2217 162.145 98.3597 162.332C100.872 165.739 103.768 167.165 108.042 167.059C108.284 167.052 108.522 167.039 108.76 167.025C108.083 156.779 108.933 129.292 109.515 113.472C109.535 112.919 110.014 112.492 110.55 112.512C111.103 112.532 111.534 112.992 111.514 113.545C110.913 129.872 110.026 158.632 110.828 167.852C110.876 168.399 110.48 168.879 109.938 168.932C109.324 168.999 108.718 169.039 108.088 169.059H107.678Z" fill="#58585F"/>
<path d="M106.847 33.2588C106.416 33.2588 106.018 32.9788 105.888 32.5454C105.657 31.7654 105.329 30.9788 105.039 30.3121C104.819 29.8054 105.051 29.2121 105.558 28.9921C106.065 28.7788 106.654 29.0055 106.874 29.5121C107.187 30.2388 107.544 31.0921 107.805 31.9654C107.964 32.4988 107.663 33.0521 107.134 33.2121C107.039 33.2388 106.942 33.2588 106.847 33.2588Z" fill="#58585F"/>
<path d="M104.934 30.0854C104.938 30.0988 104.943 30.1121 104.949 30.1187L104.934 30.0854ZM105.957 30.9121C105.617 30.9121 105.291 30.7388 105.105 30.4388C102.771 30.7321 100.84 30.0921 99.3566 28.5188C98.3293 27.4321 97.5327 25.9188 96.9193 23.8988C96.0427 20.9988 95.2913 16.1321 96.0586 11.9388C96.158 11.3988 96.676 11.0388 97.2226 11.1388C97.766 11.2388 98.126 11.7587 98.026 12.2987C97.3233 16.1387 98.0213 20.6321 98.8333 23.3188C99.354 25.0388 100.001 26.2921 100.811 27.1454C101.918 28.3188 103.299 28.7188 105.158 28.4054C105.837 28.2988 106.495 28.6521 106.761 29.2721L106.867 29.4988C107.095 29.9988 106.873 30.5921 106.371 30.8254C106.236 30.8854 106.095 30.9121 105.957 30.9121Z" fill="#58585F"/>
<path d="M108.128 33.1054C108.295 33.6987 108.441 34.2521 108.565 34.7454C108.599 34.8787 108.629 34.9987 108.657 35.1187C110.156 34.3653 112.919 32.792 115.189 30.4654C114.991 30.2854 114.794 30.092 114.585 29.8653C113.027 31.4653 110.641 32.6654 108.128 33.1054ZM107.941 37.552C107.769 37.552 107.597 37.5121 107.443 37.4187C107.176 37.2654 106.994 36.9987 106.951 36.6921C106.951 36.6921 106.889 36.292 106.625 35.2254C106.434 34.472 106.186 33.5654 105.889 32.5454C105.859 32.4387 105.845 32.332 105.848 32.232C105.86 31.7254 106.257 31.2987 106.775 31.2587C109.917 31.0321 112.664 29.3187 113.754 27.7454C113.934 27.4854 114.227 27.3254 114.543 27.3187C114.853 27.2987 115.161 27.4454 115.359 27.6921C116.158 28.6987 116.67 29.1253 117.263 29.6187C117.47 29.792 117.599 30.0387 117.621 30.3054C117.643 30.572 117.556 30.8387 117.379 31.0454C113.735 35.2387 108.539 37.392 108.319 37.4787C108.197 37.532 108.069 37.552 107.941 37.552Z" fill="#58585F"/>
<path d="M104.158 35.5855C104.025 35.5855 103.89 35.5588 103.761 35.4988C103.326 35.3121 103.084 34.8454 103.18 34.3788C103.559 32.5588 103.899 31.2187 105.12 29.3654C105.424 28.8987 106.046 28.7788 106.506 29.0788C106.967 29.3788 107.096 29.9988 106.792 30.4588C106.157 31.4254 105.81 32.2054 105.559 33.0387C105.588 33.0587 105.616 33.0854 105.642 33.1187C106.012 33.5254 105.98 34.1587 105.57 34.5321C105.312 34.7654 105.096 34.9921 104.976 35.1588C104.784 35.4321 104.476 35.5855 104.158 35.5855Z" fill="#58585F"/>
<path d="M104.9 34.7854C104.63 34.7854 104.36 34.6787 104.163 34.4654C103.79 34.0587 103.818 33.4254 104.224 33.0521C104.312 32.9721 104.408 32.8787 104.513 32.7921C105.228 32.1787 106.02 31.6188 106.232 31.4721C106.402 31.3388 106.616 31.2588 106.848 31.2588C107.4 31.2588 107.848 31.7055 107.848 32.2588V32.2655C107.848 32.5921 107.684 32.9055 107.41 33.0921C107.402 33.0988 106.548 33.6788 105.812 34.3121C105.722 34.3921 105.646 34.4588 105.576 34.5255C105.384 34.6988 105.142 34.7854 104.9 34.7854Z" fill="#58585F"/>
<path d="M128.6 79.0384C127.952 79.0384 127.301 78.9518 126.662 78.7718C126.325 78.6851 125.998 78.5718 125.664 78.4251C119.21 75.6584 112.584 71.1318 109.546 67.4251C109.362 67.1984 109.284 66.905 109.334 66.6184C109.384 66.3317 109.557 66.0784 109.807 65.9318C110.128 65.7384 110.424 65.5251 110.712 65.2718C111.854 64.2651 112.592 62.6851 113.099 60.1584C113.208 59.6184 113.738 59.2717 114.276 59.3784C114.818 59.4851 115.168 60.0117 115.06 60.5517C114.462 63.5317 113.527 65.4518 112.032 66.7785C111.958 66.8385 111.883 66.9051 111.809 66.9651C114.57 69.8784 120.157 73.8851 126.45 76.5918C126.695 76.6918 126.936 76.7784 127.186 76.8451C128.75 77.2718 130.411 76.9718 131.746 76.0184C133.08 75.0651 133.905 73.5718 134.008 71.9318C134.916 57.4184 131.829 44.1718 125.952 37.3584C125.605 36.9651 125.61 36.3584 125.985 35.9784C126.374 35.5917 126.992 35.5784 127.383 35.9651C127.406 35.9851 127.439 36.0251 127.459 36.0451C133.669 43.2384 136.944 57.0384 136.004 72.0584C135.862 74.2984 134.735 76.3384 132.909 77.6451C131.628 78.5584 130.124 79.0384 128.6 79.0384Z" fill="#58585F"/>
<path d="M128.457 67.6383C128.287 67.6383 128.114 67.5984 127.957 67.505C126.574 66.705 125.108 65.9383 123.6 65.2183C120.493 63.7317 117.097 62.3783 113.773 61.305C111.69 60.6383 109.687 60.0983 107.82 59.705C105.195 59.1517 102.962 58.9117 101.171 58.9917C100.306 59.0317 99.6011 59.1384 99.0151 59.3117C97.7458 59.6917 96.4564 60.1717 95.1758 60.7517C95.0164 60.8184 94.8738 60.885 94.7311 60.9583C93.6651 61.4517 92.7258 61.9584 91.9431 62.425C93.5324 61.8717 94.9618 61.5584 96.7324 61.3517C97.7598 61.2384 98.6964 61.9117 98.9118 62.9184L99.1377 64.0383C99.1571 64.145 99.2191 64.2184 99.3111 64.2584L101.706 65.305C101.874 65.3783 102.065 65.3117 102.151 65.1584C102.151 65.1584 102.544 64.4584 102.558 64.4384C102.578 64.3984 102.622 64.3317 102.648 64.2917C103.25 63.425 104.314 62.965 105.366 63.1317C106.64 63.3517 108.772 63.8651 111.753 65.1051C112.263 65.3184 112.505 65.8984 112.294 66.4117C112.081 66.9184 111.497 67.165 110.986 66.9517C108.178 65.785 106.204 65.3051 105.042 65.1051C104.769 65.0651 104.485 65.1784 104.314 65.3984C104.293 65.4384 104.27 65.4784 104.245 65.5117L103.896 66.1383C103.302 67.1983 102.015 67.6317 100.9 67.1383L98.5044 66.085C97.8084 65.7784 97.3138 65.1584 97.1751 64.425L96.9537 63.325C94.6237 63.6117 92.9251 64.085 90.4744 65.1517C89.7064 65.4717 88.8391 65.2317 88.3544 64.565C88.2444 64.425 88.1671 64.2517 88.1211 64.1317C88.1111 64.1117 88.1024 64.085 88.0944 64.0583C87.8651 63.3183 88.1351 62.5317 88.7671 62.0917C89.8231 61.345 91.5738 60.2184 93.8611 59.1517C94.0078 59.0784 94.1817 58.9984 94.3637 58.925C95.7164 58.3117 97.0924 57.7984 98.4424 57.3984C99.1811 57.1717 100.046 57.0384 101.078 56.9917C103.039 56.8984 105.442 57.1584 108.233 57.745C110.168 58.1584 112.238 58.7117 114.385 59.405C117.794 60.4984 121.278 61.885 124.462 63.4117C126.015 64.1517 127.529 64.9451 128.958 65.7717C129.436 66.0517 129.6 66.6583 129.324 67.1383C129.138 67.4583 128.802 67.6383 128.457 67.6383Z" fill="#58585F"/>
<path d="M124.027 65.3185C123.507 65.3185 123.068 64.9118 123.031 64.3851C122.786 60.8851 122.257 54.3052 121.461 49.5985C121.369 49.0518 121.737 48.5385 122.281 48.4452C122.826 48.3518 123.341 48.7185 123.434 49.2652C124.242 54.0585 124.779 60.7118 125.026 64.2451C125.065 64.7985 124.649 65.2785 124.099 65.3118C124.075 65.3185 124.051 65.3185 124.027 65.3185Z" fill="#58585F"/>
<path d="M94.7634 60.8387C94.592 60.8387 94.4187 60.792 94.2607 60.7053L86.864 56.432L82.1807 59.1387C81.7014 59.412 81.09 59.252 80.8147 58.772C80.5387 58.292 80.7027 57.6787 81.1807 57.4053L85.9394 54.6587C86.4847 54.3453 87.2007 54.3254 87.7207 54.612L95.2674 58.972C95.744 59.252 95.906 59.8654 95.628 60.3387C95.442 60.6587 95.1067 60.8387 94.7634 60.8387Z" fill="#58585F"/>
<path d="M108.564 68.9588C108.572 68.9655 108.578 68.9722 108.585 68.9722L108.564 68.9588ZM93.6909 78.2656C93.3896 78.2656 93.0909 78.1922 92.8436 78.0522L92.1096 77.6255C91.6322 77.3455 91.4716 76.7322 91.7496 76.2589C92.0282 75.7789 92.6416 75.6189 93.1176 75.8989L93.7056 76.2389L107.439 68.3122L102.969 65.7322C102.491 65.4522 102.327 64.8388 102.603 64.3655C102.88 63.8855 103.492 63.7189 103.969 63.9989L109.569 67.2322C109.96 67.4455 110.205 67.8455 110.209 68.2855C110.213 68.7455 109.952 69.1722 109.512 69.4255L94.6223 78.0189C94.3503 78.1789 94.0189 78.2656 93.6909 78.2656Z" fill="#58585F"/>
<path d="M86.3804 74.1653C86.2111 74.1653 86.0391 74.1253 85.8811 74.032L82.5177 72.092C82.0391 71.812 81.8758 71.2053 82.1518 70.7253C82.4278 70.2453 83.0397 70.0854 83.5177 70.3587L86.8811 72.2986C87.3597 72.5786 87.5231 73.1853 87.2471 73.6653C87.0624 73.9853 86.7257 74.1653 86.3804 74.1653Z" fill="#58585F"/>
<path d="M64.7036 49.625C64.7096 49.6317 64.7149 49.6317 64.7209 49.6384L64.7036 49.625ZM86.5316 62.2317C86.5382 62.2384 86.5449 62.2384 86.5516 62.2451L86.5316 62.2317ZM92.7636 77.805C92.5749 77.805 92.3836 77.7584 92.2023 77.6717C92.1629 77.6584 92.1242 77.6383 92.0922 77.6183L85.8809 74.0317C85.4029 73.7583 85.2396 73.1451 85.5156 72.6651C85.7916 72.1851 86.4043 72.025 86.8809 72.2984L91.2383 74.8184L86.4756 62.365C86.4509 62.305 86.4336 62.2384 86.4223 62.1717L66.5716 50.705L71.3276 63.145C71.3523 63.2117 71.3703 63.2784 71.3809 63.3451L76.3142 66.1983C76.7922 66.4783 76.9563 67.085 76.6803 67.565C76.4049 68.0384 75.7916 68.2051 75.3142 67.9317L70.2603 65.0117C69.8176 64.7584 69.4883 64.2517 69.4109 63.7317L63.9029 49.325C63.8589 49.2117 63.8369 49.0917 63.8369 48.9717C63.8369 48.4917 64.0689 48.0784 64.4569 47.8584C64.8449 47.6451 65.3183 47.6584 65.7229 47.905L87.5363 60.5051C87.9876 60.7517 88.3176 61.2517 88.3929 61.7784L93.9009 76.1784C93.9443 76.2917 93.9663 76.4183 93.9663 76.5383C93.9663 77.005 93.7423 77.4184 93.3669 77.6384C93.1823 77.7517 92.9743 77.805 92.7636 77.805Z" fill="#58585F"/>
<path d="M78.394 69.5583C78.2247 69.5583 78.0526 69.5184 77.896 69.425L75.3153 67.9384C74.8367 67.6584 74.6726 67.0517 74.948 66.5717C75.2246 66.0917 75.8366 65.925 76.3146 66.1983L78.8946 67.6917C79.3733 67.9651 79.5373 68.5783 79.262 69.0583C79.076 69.3783 78.7407 69.5583 78.394 69.5583Z" fill="#58585F"/>
<path d="M84.2018 74.5588C81.0131 74.5588 77.3158 72.5454 74.9111 67.4988C74.8478 67.3654 74.8145 67.2188 74.8145 67.0721C74.8145 66.5188 75.2625 66.0654 75.8145 66.0654C76.2405 66.0654 76.6031 66.3321 76.7478 66.7054C79.2858 71.9721 83.3311 73.2654 86.0231 72.2321C86.5391 72.0321 87.1171 72.2921 87.3151 72.8054C87.5131 73.3254 87.2551 73.9055 86.7398 74.0988C85.9611 74.3988 85.1018 74.5588 84.2018 74.5588Z" fill="#58585F"/>
<path d="M108.027 59.7254C107.475 59.7254 107.027 59.2787 107.027 58.7254V56.5587L105.013 55.3988C104.702 55.2188 104.511 54.8921 104.511 54.5321C104.511 54.5321 104.51 53.9388 104.509 53.9321C104.423 54.0921 104.295 54.2187 104.134 54.3121C103.825 54.4921 103.443 54.4921 103.134 54.3121L102.126 53.7321V57.9921C102.126 58.5454 101.678 58.9921 101.126 58.9921C100.574 58.9921 100.126 58.5454 100.126 57.9921V51.9988C100.126 51.6388 100.317 51.3054 100.627 51.1321C100.936 50.9521 101.317 50.9521 101.627 51.1321L102.929 51.8854C103.032 51.7387 103.161 51.6121 103.315 51.5121C103.735 51.2388 104.266 51.2054 104.769 51.4254C104.869 51.4721 104.926 51.4987 104.983 51.5321L105.177 51.6454C105.417 51.7854 105.639 51.9721 105.825 52.1987C106.249 52.6854 106.509 53.3454 106.511 53.9521L108.525 55.1121C108.835 55.2921 109.027 55.6187 109.027 55.9787V58.7254C109.027 59.2787 108.579 59.7254 108.027 59.7254Z" fill="#58585F"/>
<path d="M105.058 53.8388C104.942 53.8388 104.825 53.8188 104.711 53.7721C104.192 53.5854 103.928 53.0054 104.12 52.4921C107.376 43.6987 110.912 39.4454 113.493 36.3388C115.364 34.0921 116.494 32.732 116.582 30.792C116.606 30.2454 117.06 29.7921 117.626 29.8388C118.178 29.8654 118.604 30.3321 118.579 30.8854C118.462 33.4921 117.022 35.2254 115.032 37.6187C112.542 40.612 109.132 44.7121 105.995 53.1854C105.846 53.5854 105.464 53.8388 105.058 53.8388Z" fill="#58585F"/>
<path d="M104.366 53.3387C103.888 53.3387 103.464 52.9987 103.382 52.5054C102.254 45.8787 102.186 39.7853 103.176 34.4053C103.276 33.8587 103.801 33.4987 104.34 33.5987C104.883 33.6987 105.242 34.2254 105.143 34.7654C104.194 39.9187 104.266 45.772 105.353 52.172C105.446 52.7187 105.08 53.232 104.535 53.3253C104.478 53.3387 104.422 53.3387 104.366 53.3387Z" fill="#58585F"/>
<path d="M78.3939 69.5585C77.9332 69.5585 77.5185 69.2385 77.4172 68.7652C77.1592 67.5652 76.7045 64.6385 78.0452 63.4118C78.3565 63.1252 79.0352 62.7119 80.0985 63.0252C80.1685 63.0452 80.2365 63.0718 80.2945 63.0985C80.7885 63.3452 80.9885 63.9452 80.7412 64.4385C80.5125 64.8985 79.9785 65.1052 79.5072 64.9318C79.3999 64.8985 79.3539 64.9052 79.3539 64.9052C79.1785 65.0785 78.9385 66.3252 79.3732 68.3519C79.4892 68.8852 79.1452 69.4185 78.6045 69.5385C78.5345 69.5518 78.4639 69.5585 78.3939 69.5585Z" fill="#58585F"/>
<path d="M83.0171 72.2252C82.5571 72.2252 82.1431 71.9053 82.0411 71.4386L81.8765 70.6786C81.3958 68.4386 80.7378 65.3653 79.5138 64.9386C78.9925 64.7519 78.7198 64.1786 78.9045 63.6586C79.0885 63.1386 79.6605 62.8652 80.1805 63.0519C82.4585 63.8586 83.1565 67.1119 83.8311 70.2586L83.9938 71.0119C84.1125 71.5519 83.7711 72.0852 83.2318 72.1985C83.1591 72.2185 83.0878 72.2252 83.0171 72.2252Z" fill="#58585F"/>
<path d="M111.125 117.492C110.666 117.492 110.252 117.172 110.149 116.705L109.54 113.732C108.693 109.472 108.088 105.965 107.64 102.745C104.31 101.292 103.833 98.5652 103.544 94.9319C103.5 94.3852 103.91 93.8986 104.462 93.8586C105.005 93.8119 105.494 94.2252 105.538 94.7719C105.835 98.5119 106.222 100.132 108.892 101.092C109.242 101.219 109.493 101.532 109.543 101.905C109.992 105.239 110.612 108.865 111.495 113.312L112.102 116.279C112.221 116.812 111.88 117.352 111.342 117.465C111.269 117.485 111.196 117.492 111.125 117.492Z" fill="#58585F"/>
</svg>
