<svg width="200" height="200" viewBox="0 0 200 200" fill="none" xmlns="http://www.w3.org/2000/svg">
<path d="M90.9516 8.90887C90.9677 8.14757 90.3624 7.51695 89.6006 7.50052C88.8389 7.48207 88.2095 8.08744 88.1935 8.84914C88.1775 9.61085 88.7788 10.2415 89.5406 10.2575C90.3023 10.2739 90.9316 9.66857 90.9516 8.90887ZM96.1433 8.34281C96.1594 7.58351 95.554 6.95289 94.7923 6.93445C94.0306 6.91842 93.4011 7.52377 93.3851 8.28548C93.3651 9.04478 93.9705 9.67539 94.7322 9.69383C95.4939 9.70987 96.1233 9.10451 96.1433 8.34281ZM101.291 8.07823C101.307 7.31893 100.702 6.68831 99.9398 6.66987C99.1781 6.65384 98.5487 7.25919 98.5287 8.0209C98.5126 8.7802 99.1179 9.41081 99.8796 9.42925C100.641 9.44529 101.271 8.84033 101.291 8.07823ZM144.183 44.416C145.325 44.5543 145.771 43.3388 145.061 42.0086C144.905 41.7212 144.463 41.0144 143.67 40.6648C137.031 37.8641 132.998 36.9276 132.97 36.9252C131.671 36.7456 130.897 37.7699 131.41 38.9895C131.531 39.2701 132.016 40.2138 133.262 40.5934C136.049 41.4057 139.392 42.3947 143.662 44.2689C143.73 44.2981 143.934 44.3859 144.183 44.416ZM149.403 39.5118C150.497 39.7628 150.882 38.3821 150.108 36.9665C149.936 36.649 149.555 36.0669 148.938 35.731C148.741 35.6295 129.55 25.6624 131.366 31.3443C131.563 31.9589 132.184 32.7944 133.286 33.1303C135.684 33.8323 142.062 35.6917 148.493 39.1045C149.154 39.4545 149.154 39.4545 149.403 39.5118ZM149.423 32.0511C150.517 32.2997 150.898 30.9186 150.132 29.5058C149.96 29.1883 149.583 28.6026 148.958 28.2698C148.765 28.1672 129.578 18.2041 131.386 23.8836C131.583 24.4958 132.204 25.3337 133.307 25.6696C135.708 26.3692 142.082 28.2285 148.513 31.6438C149.174 31.9934 149.174 31.9934 149.423 32.0511ZM168.754 67.8481C168.088 52.0631 167.868 46.7472 166.3 44.2043C164.432 41.2633 163.538 44.9083 162.949 47.3201C162.432 49.4304 162.023 51.099 161.141 50.8965C160.195 50.6824 159.537 48.9425 158.836 47.1036C157.99 44.8762 157.417 43.5244 156.571 43.4631C156.478 43.4567 156.358 43.4887 156.278 43.5252C154.787 44.1831 153.56 48.5882 153.219 49.9231C156.543 52.1549 165.358 58.0858 168.754 67.8481ZM150.79 11.5716C162.817 18.5172 170.021 28.0882 169.993 38.269V94.4854C169.993 84.3274 162.632 74.7816 150.629 67.8501C142.78 63.3187 132.91 59.9059 121.741 58.1732C108.535 56.125 94.9166 56.5207 82.2041 59.3146V3.03612C94.9166 0.242265 108.691 -0.15101 121.897 1.89477C133.074 3.62785 142.94 7.0403 150.79 11.5716ZM107.886 15.7137C104.217 15.3317 100.549 16.2778 97.5184 18.3905C97.5144 18.3881 97.5104 18.3813 97.5104 18.3813C97.1816 18.6226 96.8689 18.8692 96.5682 19.1201C87.568 26.6386 91.064 38.0297 103.456 39.9424C116.044 41.8843 124.274 33.6206 120.674 24.972C119.985 23.3063 118.85 21.6282 117.226 20.0037C117.226 20.0037 117.106 19.8566 116.741 19.5595C114.035 17.2812 110.96 16.0312 107.886 15.7137Z" fill="white"/>
<path d="M166.301 44.2035C167.869 46.7464 168.089 52.0623 168.755 67.8473C165.359 58.085 156.543 52.1541 153.22 49.9223C153.56 48.5873 154.787 44.1823 156.279 43.5244C156.359 43.4879 156.479 43.4558 156.571 43.4623C157.417 43.5236 157.99 44.8754 158.836 47.1028C159.538 48.9417 160.195 50.6816 161.141 50.8957C162.023 51.0982 162.432 49.4296 162.95 47.3193C163.539 44.9075 164.433 41.2625 166.301 44.2035Z" fill="#373A3A" fill-opacity="0.24"/>
<path d="M150.135 29.5058C150.9 30.9185 150.52 32.2996 149.425 32.0511C149.177 31.9933 149.177 31.9933 148.515 31.6437C142.085 28.2285 135.71 26.3691 133.309 25.6696C132.207 25.3336 131.585 24.4957 131.389 23.8836C129.581 18.204 148.768 28.1672 148.96 28.2698C149.586 28.6025 149.962 29.1882 150.135 29.5058Z" fill="#DAE0E5"/>
<path d="M150.109 36.9665C150.883 38.3821 150.498 39.7628 149.404 39.5118C149.155 39.4545 149.155 39.4545 148.494 39.1045C142.063 35.6916 135.685 33.8323 133.288 33.1303C132.185 32.7944 131.564 31.9589 131.367 31.3443C129.551 25.6624 148.742 35.6295 148.939 35.7309C149.556 36.0669 149.937 36.649 150.109 36.9665Z" fill="#DAE0E5"/>
<path d="M145.063 42.0082C145.772 43.3384 145.327 44.5539 144.185 44.4156C143.936 44.3855 143.732 44.2977 143.664 44.2685C139.394 42.3943 136.05 41.4053 133.264 40.593C132.017 40.2134 131.532 39.2697 131.412 38.9891C130.899 37.7695 131.673 36.7452 132.972 36.9248C133 36.9272 137.033 37.8637 143.672 40.6644C144.465 41.014 144.906 41.7208 145.063 42.0082Z" fill="#DAE0E5"/>
<path d="M120.675 24.9715C124.275 33.6201 116.045 41.8838 103.456 39.9419C91.0646 38.0292 87.5687 26.6381 96.5689 19.1196L106.215 28.3479L120.675 24.9715Z" fill="#D9D9D9"/>
<path d="M120.677 24.9712L106.217 28.3476L107.889 15.7129C110.963 16.0304 114.038 17.2804 116.744 19.5587C117.109 19.8558 117.229 20.0029 117.229 20.0029C118.853 21.6273 119.988 23.3055 120.677 24.9712Z" fill="#373A3A" fill-opacity="0.54"/>
<path d="M107.887 15.7133L106.215 28.348L96.5693 19.1197C96.87 18.8688 97.1827 18.6222 97.5115 18.3809C97.5115 18.3809 97.5155 18.3877 97.5195 18.3901C100.55 16.2773 104.219 15.3312 107.887 15.7133Z" fill="white"/>
<path d="M99.9418 6.66926C100.703 6.6877 101.309 7.31831 101.293 8.07761C101.273 8.83972 100.643 9.44467 99.8816 9.42864C99.1199 9.41019 98.5145 8.77958 98.5306 8.02028C98.5506 7.25857 99.18 6.65322 99.9418 6.66926Z" fill="white"/>
<path d="M94.7934 6.93391C95.5551 6.95235 96.1605 7.58296 96.1445 8.34226C96.1244 9.10397 95.495 9.70932 94.7333 9.69328C93.9716 9.67484 93.3662 9.04423 93.3862 8.28493C93.4023 7.52322 94.0317 6.91787 94.7934 6.93391Z" fill="white"/>
<path d="M89.6018 7.49992C90.3635 7.51636 90.9689 8.14697 90.9529 8.90828C90.9328 9.66798 90.3034 10.2733 89.5417 10.2569C88.78 10.2409 88.1786 9.61025 88.1946 8.84855C88.2107 8.08684 88.8401 7.48148 89.6018 7.49992Z" fill="white"/>
<path d="M104.97 56.2841C110.606 56.2841 116.263 56.7143 121.836 57.5782C132.756 59.2724 142.819 62.6439 150.933 67.3288C160.442 72.8215 166.868 79.8669 169.394 87.3461V38.2686C169.422 28.5857 162.531 19.0451 150.492 12.0919C142.502 7.48001 132.584 4.15936 121.808 2.48842C108.806 0.474306 95.3322 0.831897 82.8082 3.52032V58.5688C89.9802 57.0482 97.457 56.2841 104.97 56.2841ZM169.995 95.0862C169.663 95.0862 169.394 94.8172 169.394 94.4849C169.394 84.8858 162.447 75.3673 150.331 68.3704C142.341 63.7589 132.423 60.4382 121.651 58.7669C108.55 56.7355 94.9554 57.1276 82.3351 59.9014C82.1587 59.9411 81.9703 59.897 81.83 59.7827C81.6857 59.6685 81.6055 59.4961 81.6055 59.3141V3.03564C81.6055 2.75301 81.8019 2.50885 82.0785 2.44831C94.8792 -0.364788 108.682 -0.762074 121.992 1.29974C132.912 2.99354 142.975 6.3651 151.093 11.0504C163.517 18.2249 170.625 28.1463 170.597 38.2701V94.4849C170.597 94.8172 170.328 95.0862 169.995 95.0862Z" fill="#373A3A" fill-opacity="0.12"/>
<path d="M132.862 22.7013C132.457 22.7013 132.152 22.7707 131.972 22.9222C131.8 23.0633 131.872 23.4237 131.96 23.7011C132.08 24.0832 132.541 24.8072 133.483 25.0939C135.893 25.7958 142.307 27.666 148.798 31.1125C149.383 31.4252 149.383 31.4253 149.559 31.4649C149.744 31.5074 149.792 31.4461 149.82 31.4096C149.98 31.1984 150.016 30.5565 149.603 29.7932C149.463 29.5306 149.158 29.0575 148.677 28.8002C144.356 26.5066 135.865 22.7013 132.862 22.7013ZM149.672 32.6817C149.547 32.6817 149.423 32.6672 149.291 32.6376C148.962 32.5618 148.906 32.5325 148.232 32.1749C141.85 28.7861 135.524 26.9412 133.139 26.2464C131.808 25.8411 131.054 24.8193 130.813 24.0664C130.449 22.9254 130.825 22.3116 131.202 21.9973C134.021 19.6493 149.09 27.6584 149.243 27.7398C150.004 28.1467 150.457 28.8427 150.662 29.2215C151.251 30.3051 151.295 31.4501 150.778 32.1356C150.51 32.492 150.117 32.6817 149.672 32.6817Z" fill="#373A3A" fill-opacity="0.2"/>
<path d="M132.807 30.1722C132.41 30.1722 132.118 30.2391 131.949 30.3823C131.781 30.5238 131.853 30.8838 131.941 31.1608C132.062 31.5437 132.518 32.2673 133.465 32.5543C135.906 33.2695 142.32 35.1469 148.779 38.5726C149.364 38.8853 149.364 38.8853 149.541 38.9246C149.725 38.9675 149.773 38.907 149.801 38.8709C149.962 38.6592 150.002 38.0178 149.585 37.2537C149.444 36.9951 149.136 36.524 148.659 36.261C142.405 33.0234 135.393 30.1722 132.807 30.1722ZM149.653 40.1421C149.529 40.1421 149.4 40.1273 149.268 40.0972C148.943 40.0223 148.887 39.993 148.214 39.635C141.867 36.267 135.537 34.4141 133.152 33.7165L133.112 33.7049C131.785 33.3008 131.035 32.2789 130.795 31.526C130.43 30.3915 130.799 29.7781 131.171 29.4634C133.633 27.3856 145.6 33.3241 149.212 35.193C149.216 35.195 149.224 35.1999 149.228 35.2019C149.982 35.6124 150.435 36.3031 150.639 36.6784C151.232 37.766 151.281 38.9122 150.759 39.5977C150.491 39.9533 150.098 40.1421 149.653 40.1421Z" fill="#373A3A" fill-opacity="0.2"/>
<path d="M132.69 37.5078C132.377 37.5078 132.132 37.6072 131.992 37.7912C131.816 38.0234 131.804 38.3746 131.964 38.755C132.06 38.9735 132.441 39.7152 133.439 40.0178C135.997 40.7643 139.513 41.7894 143.903 43.7177C144.055 43.7847 144.179 43.8095 144.256 43.8188C144.568 43.856 144.665 43.7165 144.697 43.6704C144.857 43.4367 144.865 42.9199 144.532 42.2921C144.408 42.0604 144.051 41.4915 143.434 41.2165C137.023 38.5137 133.135 37.5796 132.866 37.5174C132.806 37.511 132.746 37.5078 132.69 37.5078ZM144.356 45.0275C144.276 45.0275 144.191 45.0226 144.111 45.0126C143.883 44.9854 143.65 44.92 143.422 44.819C139.1 42.9219 135.628 41.9097 133.095 41.1704C131.595 40.7146 131.006 39.5664 130.858 39.2253C130.525 38.4331 130.589 37.6449 131.038 37.0596C131.483 36.4799 132.217 36.2137 133.055 36.3292C133.223 36.3428 137.448 37.3867 143.903 40.1104L143.915 40.1145C144.877 40.5394 145.406 41.3817 145.591 41.7241C146.104 42.6826 146.14 43.688 145.687 44.3495C145.39 44.7877 144.909 45.0275 144.356 45.0275Z" fill="#373A3A" fill-opacity="0.2"/>
<path d="M153.91 49.6613C157.105 51.8165 164.133 56.7339 168.014 64.5406C167.457 51.4424 167.164 46.7535 165.793 44.5225C165.348 43.827 165.071 43.6975 165.003 43.7091C164.43 43.8037 163.756 46.5575 163.536 47.4619C162.938 49.895 162.473 51.8161 161.01 51.4817C159.751 51.1975 159.07 49.4035 158.28 47.3264C157.791 46.0427 157.065 44.1216 156.536 44.0627C156.548 44.0651 156.532 44.0699 156.52 44.0751C155.754 44.4119 154.724 46.6349 153.91 49.6613ZM168.751 68.4473C168.503 68.4473 168.27 68.2898 168.186 68.0444C164.859 58.469 156.159 52.6223 152.888 50.4209C152.675 50.2794 152.575 50.0201 152.639 49.7731C153.209 47.5425 154.407 43.6927 156.035 42.9743C156.127 42.9342 156.368 42.8448 156.612 42.8624C157.847 42.9518 158.476 44.4512 159.398 46.8898C159.956 48.3547 160.645 50.1664 161.275 50.3091C161.639 50.1567 162.076 48.3631 162.365 47.1765C162.978 44.6665 163.548 42.7297 164.807 42.5225C165.841 42.3521 166.571 43.503 166.807 43.8811L166.811 43.8879C168.463 46.5643 168.687 51.9203 169.353 67.8195C169.369 68.1174 169.16 68.3808 168.868 68.4365C168.828 68.4437 168.791 68.4473 168.751 68.4473Z" fill="#373A3A" fill-opacity="0.2"/>
<path d="M97.7728 18.9362C97.4962 19.1431 97.2197 19.3595 96.9551 19.5808C93.0423 22.8433 91.3584 27.1442 92.4529 31.0862C93.6436 35.3702 97.7929 38.4583 103.55 39.3471C110.008 40.3441 115.901 38.5585 118.936 34.6903C121.097 31.9345 121.518 28.565 120.119 25.2018C119.433 23.5493 118.319 21.9429 116.804 20.4279C116.792 20.4159 116.779 20.4035 116.771 20.3907C116.771 20.3907 116.659 20.2652 116.363 20.0234C113.857 17.9123 110.906 16.6302 107.827 16.3111C104.307 15.9463 100.768 16.8587 97.865 18.8829C97.837 18.9037 97.8049 18.9214 97.7728 18.9362ZM107.13 40.8316C105.911 40.8316 104.652 40.7342 103.365 40.5358C97.1274 39.5728 92.6133 36.1608 91.2943 31.4081C90.0716 26.9974 91.8997 22.2308 96.1853 18.6572C96.498 18.395 96.8268 18.1384 97.1555 17.8959C97.1956 17.8678 97.2356 17.8446 97.2797 17.8265C100.399 15.6869 104.187 14.7252 107.952 15.1144C111.271 15.4588 114.446 16.8367 117.132 19.0986C117.453 19.3627 117.613 19.5275 117.669 19.5909C119.285 21.2141 120.484 22.9468 121.229 24.7408C122.781 28.4675 122.288 32.3647 119.882 35.4327C117.144 38.9198 112.534 40.8316 107.13 40.8316Z" fill="#373A3A" fill-opacity="0.2"/>
<path d="M106.214 28.9494C106.062 28.9494 105.914 28.8913 105.797 28.7826L96.1519 19.5543C95.9114 19.3246 95.9033 18.9438 96.1318 18.7041C96.3644 18.4639 96.7452 18.4555 96.9817 18.6852L105.773 27.0945L107.293 15.6344C107.337 15.3052 107.634 15.0707 107.966 15.1172C108.295 15.1605 108.528 15.4628 108.484 15.7919L106.812 28.4266C106.78 28.6515 106.627 28.8404 106.415 28.9153C106.351 28.9382 106.283 28.9494 106.214 28.9494Z" fill="#373A3A" fill-opacity="0.2"/>
<path d="M106.214 28.9491C105.941 28.9491 105.693 28.7619 105.628 28.4841C105.552 28.1609 105.753 27.8374 106.078 27.762L120.538 24.3857C120.863 24.3111 121.183 24.5116 121.259 24.8347C121.336 25.1582 121.135 25.4817 120.811 25.5571L106.35 28.9335C106.306 28.9439 106.258 28.9491 106.214 28.9491Z" fill="#373A3A" fill-opacity="0.2"/>
<path d="M89.5697 8.10131C89.3692 8.10131 89.1809 8.17707 89.0366 8.31578C88.8842 8.4597 88.8 8.65333 88.796 8.8618C88.792 9.06987 88.8682 9.26711 89.0125 9.41705C89.1528 9.56698 89.3492 9.65157 89.5536 9.65638C89.7581 9.65477 89.9586 9.58382 90.1109 9.4399C90.2593 9.29638 90.3434 9.10314 90.3514 8.89628C90.3554 8.68821 90.2793 8.49097 90.135 8.34103C89.9907 8.19109 89.7982 8.10611 89.5898 8.1017C89.5817 8.1013 89.5777 8.10131 89.5697 8.10131ZM89.5737 10.8591C89.5577 10.8591 89.5457 10.8591 89.5297 10.8587C89.0005 10.8475 88.5073 10.631 88.1425 10.2489C87.7777 9.86686 87.5813 9.36533 87.5933 8.83655C87.6053 8.30616 87.8218 7.81265 88.2027 7.44623C88.5875 7.08061 89.0847 6.8878 89.6178 6.89942C90.143 6.91065 90.6361 7.12713 91.0009 7.50919C91.3698 7.89124 91.5621 8.39277 91.5541 8.92155C91.5421 9.44994 91.3257 9.94223 90.9408 10.3083C90.572 10.6643 90.0869 10.8591 89.5737 10.8591Z" fill="#373A3A" fill-opacity="0.2"/>
<path d="M94.7622 7.53497C94.3453 7.53497 93.9964 7.87371 93.9884 8.29786C93.9844 8.50552 94.0606 8.70116 94.2009 8.8511C94.3452 9.00143 94.5417 9.08723 94.7501 9.09204C94.7542 9.09204 94.7621 9.09243 94.7661 9.09243C95.183 9.09243 95.5319 8.75368 95.5439 8.32913C95.5519 7.90177 95.2111 7.54578 94.7822 7.53536C94.7741 7.53536 94.7702 7.53497 94.7622 7.53497ZM94.7661 10.2951C94.7501 10.2951 94.7381 10.2947 94.7221 10.2943C94.1929 10.2819 93.6998 10.0646 93.335 9.68336C92.9661 9.3005 92.7737 8.79858 92.7857 8.2706C92.8097 7.17935 93.7198 6.29778 94.8062 6.33305C95.9007 6.35951 96.7707 7.26756 96.7466 8.35599C96.7185 9.43361 95.8325 10.2951 94.7661 10.2951Z" fill="#373A3A" fill-opacity="0.2"/>
<path d="M99.9085 7.27008C99.4916 7.27008 99.1428 7.60963 99.1308 8.03458C99.1228 8.46034 99.4675 8.81675 99.8964 8.82718C100.305 8.8356 100.678 8.49362 100.69 8.06346C100.698 7.6365 100.354 7.2805 99.9245 7.27008H99.9085ZM99.9125 10.0303C99.8965 10.0303 99.8844 10.0299 99.8684 10.0295C98.7739 10.003 97.908 9.09616 97.9281 8.00732C97.9561 6.92811 98.8381 6.06738 99.9085 6.06738C99.9245 6.06738 99.9366 6.0674 99.9526 6.0678C101.047 6.09426 101.917 7.00269 101.893 8.09113C101.869 9.16874 100.983 10.0303 99.9125 10.0303Z" fill="#373A3A" fill-opacity="0.2"/>
<path d="M74.9922 197.189C83.3887 199.09 87.1112 190.95 87.2559 186.147H87.267C88.085 186.542 88.9808 186.737 89.8934 186.731C92.0134 186.726 94.0498 185.524 96.2589 185.524C97.7111 185.524 99.3248 186.032 99.3248 187.489C99.3248 189.445 96.7764 190.847 95.096 191.654C89.515 195.012 82.3315 199.22 78.7592 199.165C77.9134 199.155 77.0899 198.9 76.3498 198.489C75.7934 198.18 75.326 197.736 74.9922 197.189Z" fill="#58585F"/>
<path d="M106.965 79.8165C106.948 83.3203 104.161 85.4703 101.29 87.0027C98.6576 88.4111 95.447 89.8511 92.6259 91.1837C90.6895 92.1041 89.7493 93.6749 88.8145 94.8934C88.0688 95.8733 87.3121 96.6262 86.0435 96.6262C83.9791 96.6262 79.7168 91.5087 79.7168 90.8588C79.7168 90.4849 79.7501 90.1332 79.8058 89.8027C80.4512 86.187 84.3352 84.7392 87.2843 83.5907C88.3415 83.1795 89.2763 82.8056 89.8939 82.3833C92.6705 80.2605 93.9502 79.4264 94.8405 78.939C93.5718 76.908 91.246 73.274 91.2237 73.2417C90.1776 71.0811 99.893 64.1541 102.608 67.821C105.229 72.6675 106.982 77.0271 106.965 79.8165Z" fill="#E0E2E6"/>
<path d="M54.0046 80.2925C60.4035 86.0276 67.5481 90.0572 75.85 90.0517C77.1687 90.0461 78.4986 89.9649 79.8062 89.8024C79.7506 90.1329 79.7171 90.4846 79.7171 90.8585C79.7171 91.5084 83.9794 96.6259 86.0438 96.6259C87.3124 96.6259 88.0692 95.873 88.8148 94.8932L88.8426 94.9149C93.7058 120.216 81.1026 162.864 86.9284 183.807C87.1677 184.391 87.2846 185.204 87.2567 186.146C87.1121 190.95 83.3895 199.082 74.993 197.189C74.7315 197.129 74.4589 197.058 74.1807 196.977C73.1624 196.679 72.4502 195.764 72.4168 194.703C72.2332 188.724 71.8158 182.94 71.3595 177.768C71.1871 175.856 71.0146 174.026 70.8421 172.304C70.1911 165.729 69.5957 160.682 69.5957 158.359C69.5957 149.64 70.9757 139.057 70.2134 126.109H70.1967C67.9599 133.257 66.3017 139.946 65.0664 145.767C63.9925 150.82 63.4695 155.971 63.5307 161.126C63.5975 167.273 64.1148 171.67 64.1148 171.67C64.126 171.805 64.1316 171.936 64.1371 172.071C64.4598 179.33 59.2294 185.2 51.6063 183.574C51.317 183.513 51.0222 183.437 50.7328 183.352C49.9372 183.12 49.4363 182.339 49.5754 181.527C50.7217 174.443 50.9276 168.41 49.3195 152.082C48.891 138.651 53.9934 130.739 53.9934 118.121C53.9934 104.002 54.9784 101.224 53.9267 96.6153C53.042 92.7376 53.131 88.7463 53.515 84.6248C53.6541 83.1954 53.8265 81.7548 54.0046 80.2925Z" fill="#F7F7F8"/>
<path d="M75.8507 90.0523C67.5488 90.0578 60.4042 86.0282 54.0053 80.2931C54.0442 80.0115 54.2835 77.8342 54.2835 77.8342C54.5061 75.9874 54.6063 74.2764 54.6007 72.6678C54.5506 62.8658 50.6723 56.8869 48.5523 46.982C47.1 47.5723 45.7201 48.6446 44.4292 49.803C40.6399 52.4405 35.2926 45.4546 36.7337 41.041C49.398 26.0452 54.6063 27.5398 61.9567 30.1934C59.5251 33.9893 66.2579 37.2828 73.369 35.7983C73.8643 35.6954 74.3761 35.7276 74.8547 35.8851C74.9715 35.9241 75.094 35.9736 75.2109 36.0314C76.5797 36.7203 77.954 37.3852 79.3005 38.0729C80.7584 38.8208 82.0883 39.779 83.2624 40.9163L83.2735 40.9057C87.9475 45.4651 97.1564 57.7099 102.609 67.8213C99.894 64.1544 90.1787 71.0814 91.2247 73.242C89.4442 70.491 87.8806 68.1674 86.5062 66.2232C86.7177 72.1152 87.0906 79.7895 87.2853 83.591C84.3363 84.7395 80.4413 86.1857 79.807 89.803C78.4994 89.9655 77.1694 90.0467 75.8507 90.0523Z" fill="white"/>
<path d="M73.3692 35.798C66.258 37.2826 59.5252 33.9891 61.9568 30.1931C62.2017 29.733 62.5244 29.1097 62.8416 28.4003C66.7756 30.8374 70.9487 26.1857 72.6904 21.3387C69.0346 19.6543 70.5982 14.9642 73.9089 17.2278C73.5918 15.5546 75.4279 14.2386 77.2141 12.7168C77.6703 14.5363 77.9375 17.0169 77.9876 20.5101C78.1267 29.0775 72.49 25.7467 72.5401 30.4802C72.6904 31.563 72.0893 33.5317 73.8421 34.9856C74.2093 35.2905 74.5432 35.5816 74.8604 35.8576L74.8548 35.8848C74.3763 35.7223 73.8644 35.6951 73.3692 35.798Z" fill="#E0E2E6"/>
<path d="M67.4702 179.41C62.8964 182.08 59.2017 186.25 55.4069 186.25C54.8449 186.25 54.2829 186.158 53.7543 185.974C52.6637 185.6 51.8513 184.696 51.6064 183.575C59.2184 185.242 64.4989 179.329 64.1372 172.072H64.1651C65.0887 172.408 66.0625 172.537 67.0418 172.516C68.2603 172.494 69.5903 172.391 70.8422 172.305C71.0147 174.027 71.1872 175.857 71.3597 177.769C70.002 178.159 68.6888 178.701 67.4702 179.41Z" fill="#58585F"/>
<path d="M62.6525 28.2761C59.1414 25.9107 57.2496 18.5715 57.8004 13.4C58.4348 7.43732 67.4934 5.81256 71.0823 4.30687C73.2969 3.21293 73.9034 1.56144 74.2762 1.20922C74.8326 0.683396 75.7174 0.716227 76.2404 1.27433C82.912 7.23646 80.1187 10.2478 77.2142 12.7173C75.428 14.2391 73.5919 15.5551 73.909 17.2282C70.5983 14.9647 69.0347 19.6548 72.6905 21.3391C70.9489 26.1862 66.7811 30.8329 62.8471 28.3958C62.7804 28.3629 62.7193 28.3201 62.6525 28.2761Z" fill="#B6B6B6"/>
<path d="M54.4889 72.6676H54.6002C54.6057 74.2762 54.5056 75.9872 54.283 77.834C54.283 77.834 53.6543 83.1957 53.5152 84.6252L53.4261 84.6146C52.3076 84.1161 51.2281 83.5424 50.2043 82.8869C49.3808 82.3616 48.919 81.4246 48.9969 80.4498C49.0804 79.4755 49.2028 78.4839 49.3364 77.6175C43.4549 73.5667 39.0646 67.1817 33.1164 60.3471C28.8375 55.4299 30.1786 49.8139 31.82 47.1765C33.5783 44.8745 35.203 42.833 36.7276 41.0352C35.2865 45.4487 40.6394 52.4403 44.4287 49.8028C43.4605 50.6803 42.5313 51.6112 41.6744 52.4241C41.474 52.6139 41.335 52.8576 41.2793 53.123C41.4296 55.8467 47.3778 66.2558 54.4889 72.6676Z" fill="#E0E2E6"/>
<path d="M55.4063 187.084C54.7441 187.084 54.0931 186.975 53.4811 186.761C52.1289 186.297 51.1273 185.195 50.799 183.808C50.7768 183.729 50.7656 183.646 50.7656 183.563C50.7656 183.102 51.1384 182.728 51.6003 182.728C51.9341 182.728 52.218 182.924 52.3515 183.207C52.3793 183.266 52.4015 183.329 52.4182 183.393C52.6074 184.233 53.2028 184.903 54.0264 185.184C54.4659 185.337 54.9278 185.415 55.4063 185.415C57.6487 185.415 60.058 183.624 62.6176 181.729C64.0198 180.687 65.472 179.61 67.0523 178.688C68.2931 177.966 69.662 177.386 71.131 176.966C71.5705 176.838 72.0323 177.094 72.1603 177.538C72.2882 177.981 72.0324 178.443 71.5873 178.571C70.2574 178.952 69.0109 179.478 67.8925 180.13C66.3902 181.006 64.9769 182.055 63.608 183.069C60.8259 185.134 58.1996 187.084 55.4063 187.084Z" fill="#58585F"/>
<path d="M87.2786 84.426C86.8391 84.426 86.4718 84.0794 86.4496 83.6331C86.2604 79.8722 85.676 66.3849 85.6705 66.2492C85.6538 65.7884 86.01 65.399 86.4718 65.3795C86.917 65.3511 87.3231 65.7167 87.3398 66.1774C87.3453 66.3126 87.9297 79.7943 88.1133 83.5502C88.1355 84.0104 87.785 84.4027 87.3232 84.4255C87.3121 84.426 87.2953 84.426 87.2786 84.426Z" fill="#58585F"/>
<path d="M77.3803 198.301C76.5512 198.301 75.6887 198.202 74.8095 198.004C74.5257 197.94 74.2421 197.866 73.9471 197.778C72.5783 197.378 71.6268 196.152 71.5823 194.73C71.421 189.499 71.0759 183.976 70.5306 177.843C70.3581 175.935 69.7127 169.474 69.5791 168.151C69.1006 163.533 68.7612 160.197 68.7612 158.36C68.7612 155.19 68.9392 151.756 69.134 148.12C69.4789 141.682 69.863 134.387 69.3789 126.159C69.1174 121.686 68.6276 117.406 67.882 113.074C67.2755 109.515 66.2517 107.819 65.1723 106.024C63.5531 103.331 61.8782 100.546 61.6946 91.7814C61.6835 91.3207 62.0507 90.939 62.5069 90.9289C62.9577 90.8983 63.3527 91.2845 63.3639 91.7458C63.5419 100.067 65.0275 102.543 66.6078 105.164C67.715 107.013 68.8669 108.924 69.529 112.792C70.2802 117.186 70.7755 121.525 71.0482 126.06C71.5378 134.382 71.1482 141.728 70.8032 148.209C70.6085 151.822 70.4305 155.234 70.4305 158.36C70.4305 160.111 70.7866 163.583 71.2373 167.98C71.3764 169.305 72.0218 175.78 72.1887 177.695C72.7396 183.859 73.0902 189.415 73.2516 194.678C73.2739 195.377 73.7412 195.979 74.4145 196.177C74.676 196.254 74.932 196.319 75.1768 196.375C77.8699 196.981 80.2237 196.527 82.1656 195.018C84.9756 192.839 86.3388 188.88 86.4222 186.123C86.4445 185.309 86.3499 184.598 86.1552 184.122C86.144 184.092 86.1329 184.062 86.1273 184.031C83.1226 173.245 84.8976 157.17 86.7783 140.151C88.5533 124.053 90.3951 107.407 88.0247 95.0732C87.9357 94.6203 88.2307 94.1829 88.6869 94.0956C89.1376 94.0099 89.5717 94.3053 89.6607 94.7577C92.0811 107.339 90.2283 124.113 88.4366 140.334C86.5781 157.166 84.8253 173.064 87.7243 183.54C87.9914 184.231 88.1193 185.14 88.0915 186.171C87.9969 189.412 86.4445 193.813 83.1894 196.338C81.5145 197.638 79.5392 198.3 77.3803 198.301Z" fill="#58585F"/>
<path d="M78.8278 200C78.8 200 78.7721 200 78.7442 200C77.8094 199.988 76.8412 199.718 75.9454 199.217C75.2665 198.84 74.6934 198.294 74.2928 197.639C74.0702 197.315 74.1091 196.87 74.3929 196.582C74.7212 196.256 75.2499 196.256 75.5726 196.582C75.6171 196.622 75.6505 196.67 75.6839 196.72C75.695 196.732 75.7006 196.745 75.7117 196.757C75.9566 197.17 76.3237 197.516 76.7577 197.758C77.4143 198.125 78.1099 198.323 78.7721 198.33C78.7888 198.331 78.8111 198.331 78.8278 198.331C82.3778 198.331 90.3625 193.527 94.6693 190.938C94.6915 190.925 94.7137 190.912 94.736 190.902C95.6652 190.455 98.4919 189.096 98.4919 187.489C98.4919 186.389 96.4887 186.358 96.2606 186.358C95.259 186.358 94.2797 186.64 93.2392 186.939C92.1653 187.245 91.058 187.563 89.8951 187.566C88.8546 187.552 87.8197 187.341 86.9016 186.898C86.4898 186.697 86.3172 186.199 86.5175 185.784C86.7178 185.368 87.2131 185.194 87.6304 185.395C88.3092 185.723 89.0771 185.896 89.8561 185.896H89.8895C90.8243 185.894 91.7702 185.622 92.7773 185.334C93.8846 185.017 95.0253 184.688 96.2606 184.688C98.631 184.688 100.161 185.787 100.161 187.489C100.161 189.857 97.5071 191.417 95.4928 192.389C89.0827 196.245 82.5225 200 78.8278 200Z" fill="#58585F"/>
<path d="M66.8365 173.352C65.7848 173.352 64.7888 173.186 63.8762 172.856C63.4478 172.699 63.2197 172.22 63.3811 171.787C63.5369 171.353 64.0154 171.13 64.4494 171.286C65.2284 171.569 66.0963 171.701 67.0256 171.68C68.0661 171.662 69.2013 171.582 70.2919 171.506L70.7815 171.471C71.2656 171.438 71.6829 171.824 71.6829 172.304C71.6829 172.765 71.3101 173.139 70.8539 173.139L70.4087 173.171C69.2958 173.25 68.144 173.33 67.059 173.35C66.9867 173.351 66.9088 173.352 66.8365 173.352Z" fill="#58585F"/>
<path d="M75.8329 90.8865C68.2599 90.8865 60.9373 87.6247 53.4478 80.9142C53.1028 80.6071 53.0749 80.079 53.381 79.7357C53.687 79.3929 54.2157 79.3629 54.5606 79.6711C61.7274 86.0946 68.6884 89.2172 75.8329 89.2172H75.8496C77.1516 89.2117 78.4481 89.1304 79.7056 88.9741C80.2008 88.9151 80.6459 89.3074 80.6459 89.8026C80.6459 90.245 80.3066 90.6072 79.8726 90.6356C78.565 90.7964 77.2129 90.881 75.8552 90.8865H75.8329Z" fill="#58585F"/>
<path d="M42.1242 53.2025C42.408 55.554 47.2545 64.3967 53.7035 70.7768C53.4086 65.6699 52.0343 61.5072 50.5876 57.1276C49.6751 54.3555 48.729 51.4976 47.9611 48.1896C47.0708 48.6876 46.1027 49.4149 44.9843 50.4226C44.3778 50.974 43.7769 51.5521 43.2038 52.1108C42.8755 52.4274 42.5526 52.7368 42.2466 53.0312C42.191 53.0801 42.152 53.1385 42.1242 53.2025ZM54.093 184.679C53.225 184.679 52.3347 184.583 51.4277 184.391C51.1216 184.325 50.8101 184.244 50.4985 184.154C49.2966 183.804 48.5455 182.615 48.7514 181.389C49.8753 174.445 50.1035 168.576 48.4843 152.164C48.2561 144.965 49.5749 139.321 50.8547 133.862C52.0399 128.808 53.1582 124.035 53.1582 118.121C53.1582 112.313 53.3252 108.391 53.4476 105.529C53.6201 101.455 53.709 99.4106 53.1137 96.8009C52.1121 92.4079 52.3569 87.9437 52.6852 84.5456C52.8188 83.1228 53.4309 77.9558 53.4531 77.7366C53.6479 76.1457 53.7481 74.6005 53.7648 73.1343C46.8873 66.8545 40.6163 56.2941 40.4493 53.1675C40.4438 53.0963 40.4494 53.025 40.4661 52.9555C40.5551 52.5187 40.7722 52.1253 41.1005 51.8176C41.4065 51.5282 41.7181 51.2239 42.0408 50.9117C42.625 50.343 43.2371 49.7543 43.8715 49.1834C45.5185 47.6933 46.9095 46.7485 48.2338 46.2082C48.4619 46.1147 48.7179 46.1281 48.9405 46.2438C49.1575 46.359 49.3133 46.5649 49.3633 46.8064C50.1535 50.4721 51.1773 53.5898 52.1733 56.6045C53.8371 61.6424 55.4062 66.401 55.4341 72.6642C55.4396 74.3351 55.3339 76.1085 55.1113 77.9335C55.1057 77.9853 54.4826 83.3003 54.3435 84.7053C54.0319 87.9787 53.7926 92.2694 54.7385 96.4303C55.384 99.2576 55.2949 101.377 55.1169 105.6C54.9945 108.448 54.8275 112.349 54.8275 118.121C54.8275 124.227 53.6312 129.319 52.4794 134.243C51.2274 139.596 49.931 145.132 50.1536 152.055C51.7839 168.597 51.5446 174.564 50.3984 181.661C50.3316 182.056 50.5764 182.437 50.9659 182.55C51.2386 182.631 51.5112 182.701 51.7783 182.758C54.8776 183.42 57.6486 182.804 59.8019 180.98C62.189 178.959 63.4633 175.726 63.3019 172.109C63.2963 171.948 63.2908 171.845 63.2796 171.737C63.2796 171.723 62.7621 167.255 62.6954 161.136C62.6341 155.972 63.1572 150.743 64.2478 145.594C65.6834 138.839 67.4139 132.199 69.4003 125.86C69.5339 125.42 70.0014 125.175 70.4465 125.312C70.8861 125.45 71.1309 125.918 70.9918 126.358C69.022 132.647 67.3027 139.236 65.8838 145.941C64.8155 150.969 64.3034 156.075 64.3646 161.117C64.4314 167.143 64.9378 171.53 64.9433 171.574C64.9545 171.732 64.9601 171.855 64.9656 171.982C65.1548 176.171 63.6637 179.896 60.8815 182.253C58.9952 183.851 56.647 184.679 54.093 184.679Z" fill="#58585F"/>
<path d="M86.0441 97.461C83.5791 97.461 78.8828 92.0953 78.8828 90.8589C78.8828 90.4527 78.9162 90.0477 78.9885 89.6571C79.7007 85.6397 83.8239 84.0399 86.8286 82.8714L86.9789 82.8135C88.0361 82.4018 88.8874 82.0579 89.4215 81.6946C91.6139 80.0169 92.8603 79.1612 93.6783 78.6531C92.5154 76.8052 91.5026 75.2105 90.5901 73.7977C90.3397 73.411 90.4509 72.8941 90.8349 72.6437C91.2244 72.3938 91.7419 72.504 91.9923 72.8913C93.0273 74.4938 94.1901 76.3272 95.5478 78.4962C95.6702 78.691 95.7093 78.928 95.6481 79.1506C95.5924 79.3731 95.4422 79.5618 95.2419 79.672C94.5074 80.0737 93.3555 80.7887 90.4009 83.0467C89.6886 83.5364 88.7428 83.918 87.5854 84.3688L87.4352 84.4272C84.6475 85.5094 81.1809 86.856 80.6301 89.9492C80.5856 90.2096 80.5577 90.4783 80.5521 90.7504C81.0251 91.7859 84.6363 95.7917 86.0441 95.7917C86.9121 95.7917 87.4519 95.2981 88.153 94.3861C88.2865 94.2125 88.4201 94.0317 88.5536 93.8464C89.3883 92.7146 90.4232 91.3063 92.2705 90.4299C92.9382 90.1139 93.6282 89.7923 94.3293 89.4667C96.5772 88.4168 98.9087 87.3317 100.901 86.2673C104.501 84.3426 106.12 82.3511 106.131 79.8116C106.148 77.4123 104.673 73.4032 101.874 68.2179C96.4938 58.2517 87.4463 46.1399 82.6944 41.5026C82.3605 41.181 82.355 40.6524 82.6777 40.3224C83.0004 39.9925 83.529 39.9864 83.8573 40.308C88.6982 45.0293 97.8904 57.3263 103.343 67.4244C106.32 72.9336 107.817 77.1046 107.8 79.8216C107.778 84.0043 104.3 86.3435 101.685 87.7396C99.6543 88.8252 97.3062 89.9202 95.0304 90.9797C94.3348 91.3041 93.6505 91.624 92.9828 91.9384C91.5194 92.6339 90.6958 93.7535 89.9001 94.8352C89.7555 95.0294 89.6163 95.2191 89.4772 95.4011C88.7149 96.3976 87.7579 97.461 86.0441 97.461Z" fill="#58585F"/>
<path d="M91.2234 74.0762C90.9507 74.0762 90.6836 73.9421 90.5223 73.6951C88.8085 71.0498 87.2282 68.6972 85.826 66.7035C83.6003 63.5447 81.8086 61.2867 80.501 59.9919C80.1782 59.6675 80.1727 59.1389 80.501 58.8117C80.8237 58.484 81.3524 58.4818 81.6807 58.8067C83.0717 60.1889 84.8745 62.4575 87.1893 65.7421C88.6081 67.7541 90.1995 70.1245 91.9245 72.7875C92.1749 73.1748 92.0636 73.6912 91.6797 73.9421C91.535 74.0328 91.3792 74.0762 91.2234 74.0762Z" fill="#58585F"/>
<path d="M91.2732 74.1701C91.0062 74.1701 90.7502 74.0454 90.5944 73.8078L90.5443 73.7321C90.522 73.7004 90.4887 73.6398 90.472 73.6053C89.5261 71.6511 92.9369 68.9213 94.8733 67.7511C97.7612 66.005 101.461 64.9701 103.236 67.267C103.287 67.3243 103.32 67.3749 103.342 67.4011C103.598 67.785 103.492 68.3031 103.108 68.5585C102.747 68.8005 102.263 68.7221 101.996 68.3888C101.973 68.3665 101.957 68.3426 101.934 68.3175C100.938 66.9676 98.4345 67.864 97.4051 68.3125C94.15 69.7286 91.9243 72.2381 91.9799 72.8724C92.2192 73.2547 92.1191 73.7739 91.7407 74.0259C91.596 74.1227 91.4346 74.1701 91.2732 74.1701Z" fill="#58585F"/>
<path d="M61.9491 31.0281C61.8156 31.0281 61.6821 30.9958 61.5541 30.9274C61.1479 30.7081 60.9976 30.2018 61.2202 29.7961C61.5262 29.2297 61.8211 28.6288 62.0771 28.0579C62.2663 27.6378 62.7615 27.4514 63.1844 27.64C63.6017 27.8292 63.7909 28.3233 63.6017 28.7439C63.3235 29.3594 63.0175 29.9803 62.6837 30.5902C62.5334 30.8695 62.2496 31.0281 61.9491 31.0281Z" fill="#373A3A"/>
<path d="M74.8602 36.692C74.6655 36.692 74.4652 36.6236 74.3094 36.4845C73.9978 36.213 73.6695 35.9269 73.3078 35.6276C71.6608 34.2593 71.6998 32.5138 71.7276 31.3587C71.7332 31.0626 71.7387 30.7828 71.7165 30.5914C71.7109 30.5574 71.7053 30.5229 71.7053 30.4884C71.6831 27.9717 73.063 27.2144 74.2871 26.5456C75.7283 25.7549 77.2251 24.9369 77.1528 20.5233C77.1027 17.2209 76.8578 14.7331 76.4071 12.9192C76.2959 12.4718 76.563 12.0189 77.0137 11.907C77.4588 11.7935 77.915 12.0673 78.0263 12.5141C78.5104 14.4544 78.772 17.0657 78.8221 20.4972C78.9111 25.9179 76.702 27.127 75.0883 28.0101C73.9866 28.6132 73.3746 28.9488 73.3746 30.4255C73.4136 30.7299 73.4025 31.0543 73.3969 31.3965C73.3747 32.4259 73.3468 33.4909 74.3762 34.3439C74.749 34.6538 75.0884 34.9498 75.4111 35.2308C75.7561 35.5352 75.7896 36.0621 75.4891 36.4088C75.3222 36.5963 75.0884 36.692 74.8602 36.692Z" fill="#58585F"/>
<path d="M75.2208 1.66782C75.0873 1.66782 74.9482 1.71733 74.8481 1.81637C74.8202 1.8453 74.7257 1.99055 74.6534 2.10684C74.1971 2.80961 73.3513 4.11832 71.4539 5.05479C70.6916 5.37696 69.8069 5.66855 68.783 6.00575C64.6877 7.35453 59.0845 9.20131 58.6282 13.4875C58.1107 18.3629 59.919 25.4273 63.1185 27.5835C63.1519 27.6069 63.1854 27.6319 63.2243 27.6497C63.2466 27.6608 63.2632 27.6725 63.2855 27.6858C64.2369 28.2773 65.2108 28.3869 66.2624 28.0208C68.2711 27.3203 70.3799 24.8291 71.6486 21.717C70.4912 20.9614 69.7957 19.8358 69.7512 18.5949C69.7123 17.5121 70.213 16.5506 71.0587 16.0854C71.4594 15.8634 72.1883 15.6208 73.1843 15.9374C73.6128 14.6482 74.887 13.5798 76.1334 12.5376C76.3115 12.3874 76.6732 12.0814 76.6732 12.0814C78.0976 10.8678 79.4943 9.54016 79.511 7.83971C79.5333 6.18545 78.2423 4.18509 75.6827 1.89594C75.666 1.87981 75.6493 1.86369 75.6326 1.84588C75.5213 1.72792 75.3711 1.66782 75.2208 1.66782ZM65.0938 29.8971C64.1757 29.8971 63.2743 29.6373 62.4341 29.1209C62.3506 29.0769 62.2672 29.0241 62.1837 28.969C58.3388 26.3783 56.3858 18.7808 56.9701 13.3105C57.5376 7.95324 63.9921 5.82769 68.2599 4.42048C69.2503 4.09386 70.1018 3.8123 70.7584 3.53687C72.1995 2.8252 72.8561 1.80748 73.2512 1.19986C73.4125 0.950583 73.5404 0.754157 73.7018 0.601695C74.5809 -0.229052 75.9721 -0.193989 76.8178 0.67237C79.7836 3.32598 81.2081 5.67743 81.1803 7.86029C81.1525 10.2607 79.3996 11.9539 77.7526 13.3522C77.569 13.5092 77.3854 13.6644 77.2017 13.8174C75.7717 15.0166 74.5365 16.052 74.7257 17.0742C74.7869 17.4058 74.6422 17.7425 74.3585 17.9272C74.0802 18.1108 73.7129 18.1069 73.4347 17.9172C72.8004 17.4815 72.2273 17.3474 71.8601 17.5477C71.5708 17.7069 71.4038 18.0852 71.4205 18.5354C71.4483 19.3628 72.0548 20.1273 73.0341 20.5803C73.4292 20.7611 73.6184 21.2129 73.4737 21.6202C72.4054 24.6004 70.0183 28.4782 66.8133 29.5966C66.2401 29.7975 65.6614 29.8971 65.0938 29.8971Z" fill="#58585F"/>
<path d="M42.6257 51.2163C41.6019 51.2163 40.5335 50.8285 39.4985 50.0589C36.9389 48.1565 34.8969 43.9744 35.9374 40.7816C36.0821 40.3442 36.5494 40.1044 36.989 40.2474C37.4286 40.3904 37.668 40.8617 37.5233 41.2996C36.7165 43.7724 38.4413 47.1944 40.4945 48.7196C41.3848 49.3801 42.7035 49.986 43.9499 49.118C44.3283 48.8548 44.8514 48.9483 45.1129 49.3267C45.3745 49.705 45.2854 50.2253 44.907 50.4885C44.2059 50.9748 43.4325 51.2163 42.6257 51.2163Z" fill="#58585F"/>
<path d="M53.4251 85.4493C53.3083 85.4493 53.1915 85.4259 53.0802 85.3764C51.9117 84.8539 50.7933 84.2535 49.7528 83.5908C48.6678 82.898 48.0612 81.6683 48.1669 80.3808C48.2281 79.6402 48.3227 78.8283 48.434 78.0059C44.1773 74.9623 40.7608 70.8252 36.8268 66.0594C35.4469 64.3857 34.017 62.6552 32.4868 60.8952C27.7961 55.5084 29.4153 49.46 31.1124 46.7358C31.1236 46.7135 31.1402 46.6918 31.1569 46.6706C32.904 44.3743 34.5678 42.2971 36.0869 40.496C48.7456 25.528 54.271 26.5318 62.2334 29.408C62.4727 29.4943 62.6619 29.684 62.7453 29.9244C62.8232 30.1642 62.7899 30.4285 62.6563 30.6422C62.1667 31.4084 62.1611 32.1156 62.6341 32.8045C63.9027 34.6462 68.3041 36.0017 73.2006 34.9812C73.8294 34.8499 74.4915 34.8877 75.1147 35.0919C75.2705 35.1437 75.4319 35.2088 75.5822 35.2844C76.1442 35.5682 78.8873 36.9231 79.6774 37.3299C81.1909 38.1056 82.5931 39.1099 83.845 40.3151C83.9841 40.4537 84.1288 40.5961 84.2679 40.7386C84.5851 41.0713 84.5741 41.5994 84.2402 41.9188C83.9119 42.2376 83.3777 42.2276 83.0605 41.8943C82.9381 41.7663 82.8102 41.6389 82.6822 41.5159C81.5526 40.4253 80.284 39.5166 78.9152 38.8155C78.1306 38.4127 75.3985 37.0606 74.8365 36.7768C74.7586 36.7378 74.6696 36.7044 74.5917 36.6772C74.2467 36.5642 73.8851 36.5431 73.5401 36.6154C68.4877 37.6699 63.0959 36.4123 61.2597 33.7526C60.5975 32.7878 60.4417 31.7183 60.7978 30.6655C54.4045 28.3903 49.3744 27.3709 37.3611 41.5743C35.8643 43.3449 34.2339 45.3892 32.5089 47.6505C31.0622 50.0014 29.7158 55.1684 33.7443 59.7996C35.2912 61.5752 36.7267 63.3145 38.1178 64.9966C42.1018 69.8242 45.5461 73.993 49.8084 76.9304C50.0699 77.1112 50.2091 77.4261 50.159 77.7411C50.0143 78.7009 49.903 79.6613 49.8306 80.5193C49.775 81.1876 50.0866 81.8252 50.6486 82.1836C51.6223 82.8018 52.6685 83.3632 53.7646 83.8523C54.1819 84.0404 54.3711 84.534 54.1875 84.9552C54.0484 85.2651 53.7423 85.4493 53.4251 85.4493Z" fill="#58585F"/>
</svg>
