<svg width="128" height="128" viewBox="0 0 128 128" fill="none" xmlns="http://www.w3.org/2000/svg">
<path d="M49.7544 108.132C31.1994 104.747 25.2109 84.4761 25.2109 63.013C25.2109 48.2471 25.4892 41.1391 26.2907 35.25C30.3846 42.7091 40.6724 46.5645 51.543 46.5645C63.8247 46.5645 70.6876 44.034 79.0145 38.9994C79.8095 50.5458 81.2867 62.0789 81.5782 73.6386C83.1614 72.5124 84.791 71.4525 86.4736 70.4721C88.8916 64.3246 93.4823 55.004 98.9077 55.004C99.5834 55.004 100.226 55.1498 100.822 55.4479C102.412 56.2494 103.578 58.1838 103.578 61.496C103.578 64.5631 100.378 82.5484 90.8126 83.6216C91.8924 90.1069 94.0122 96.4928 97.6159 101.859C90.8391 112.829 80.1473 118.055 70.0119 118.055C61.8109 118.055 55.2593 113.928 49.7611 108.139L49.7544 108.132Z" fill="#E4D6C6"/>
<path d="M102.101 45.5111C102.101 48.9359 101.584 52.1422 100.816 55.4477C100.226 55.143 99.577 55.0039 98.9013 55.0039C93.4759 55.0039 88.8852 64.3311 86.4672 70.4719C84.7913 71.4457 83.1617 72.5123 81.5718 73.6384C81.2737 62.0788 79.7964 50.5457 79.0081 38.9993C70.6812 44.0339 63.8183 46.5644 51.5366 46.5644C40.6659 46.5644 30.3782 42.709 26.2843 35.2499C25.0853 33.0704 24.4229 30.5863 24.4229 27.7908C24.4229 19.1724 32.1933 9.95117 46.2238 9.95117C55.6107 9.95117 59.1879 12.4618 64.5006 16.2841C68.515 14.999 72.7149 14.3895 76.0868 14.3895C92.2239 14.3895 102.101 29.1819 102.101 45.5111Z" fill="#4F4233"/>
<path d="M26.3916 34.5063C26.8017 34.5621 27.0894 34.94 27.0342 35.3501C26.2402 41.1898 25.9609 48.2459 25.9609 63.0122C25.9609 73.6894 27.4551 83.9985 31.207 92.0317C34.9467 100.038 40.9075 105.752 49.8896 107.394H49.8887C51.6227 107.71 53.4661 107.872 55.4453 107.872C63.0425 107.871 71.257 103.835 77.125 98.4819C77.431 98.2033 77.9055 98.2251 78.1846 98.5308C78.4634 98.8367 78.4414 99.3112 78.1357 99.5903C72.08 105.114 63.5213 109.371 55.4453 109.372C53.3837 109.372 51.45 109.203 49.6201 108.87H49.6191C40.0535 107.12 33.7426 101.005 29.8477 92.6665C25.9652 84.354 24.4609 73.7979 24.4609 63.0122C24.4609 48.2481 24.7388 41.1004 25.5479 35.1489C25.6038 34.7388 25.9814 34.4507 26.3916 34.5063ZM55.2695 91.8188C55.6263 91.6084 56.0864 91.7277 56.2969 92.0845C56.5072 92.4412 56.3889 92.9014 56.0322 93.1118C54.1992 94.193 52.0868 94.6528 49.9932 94.6528C48.1633 94.6528 46.3246 94.2974 44.6533 93.7173C44.2621 93.5814 44.0546 93.1535 44.1904 92.7622C44.3263 92.371 44.7543 92.1645 45.1455 92.3003C46.6801 92.8329 48.3522 93.1528 49.9932 93.1528C51.8742 93.1528 53.7109 92.7382 55.2695 91.8188ZM42.9863 61.6538C43.4004 61.655 43.7355 61.9917 43.7344 62.4058C43.7141 69.2171 41.9871 72.8168 40.2031 75.1812C39.7643 75.7627 39.328 76.2611 38.9297 76.7026C38.5231 77.1535 38.1779 77.5221 37.877 77.8843C37.2848 78.5971 37.004 79.1295 37.0039 79.7661C37.0039 80.3959 37.4939 81.3535 38.5908 82.1938C39.6551 83.0091 41.1918 83.6274 43.0371 83.6274C43.2773 83.6274 43.5169 83.6151 43.749 83.5913C44.1611 83.549 44.529 83.8492 44.5713 84.2612C44.6133 84.673 44.3141 85.0412 43.9023 85.0835C43.6178 85.1127 43.3268 85.1274 43.0371 85.1274C40.855 85.1274 38.9991 84.3966 37.6787 83.3853C36.3913 82.3991 35.5039 81.0506 35.5039 79.7661C35.504 78.598 36.0594 77.7236 36.7227 76.9253C37.0496 76.5318 37.4376 76.1177 37.8164 75.6978C38.2034 75.2686 38.606 74.8078 39.0059 74.2778C40.5771 72.1955 42.2149 68.9185 42.2344 62.4019C42.2356 61.9877 42.5722 61.6527 42.9863 61.6538ZM97.3711 60.8579C98.3785 60.858 99.0297 61.6088 99.3887 62.3677C99.7584 63.1497 99.9364 64.1512 99.9365 65.145C99.9365 66.5799 99.5037 68.0611 99.0898 69.8882C98.9984 70.2921 98.5963 70.546 98.1924 70.4546C97.7885 70.3631 97.5355 69.9611 97.627 69.5571C98.0742 67.5825 98.4365 66.3596 98.4365 65.145C98.4364 64.3046 98.2826 63.5369 98.0332 63.0093C97.7729 62.4589 97.516 62.358 97.3711 62.3579C97.258 62.3579 96.9379 62.467 96.4189 62.9731C95.9359 63.4444 95.3959 64.1473 94.8457 65.0308C93.9645 66.446 93.0978 68.2631 92.4277 70.1851C92.5195 70.1764 92.6126 70.1714 92.707 70.1714C93.778 70.1714 94.5045 70.8704 94.9229 71.6294C95.3398 72.3863 95.5312 73.3227 95.5312 74.1479C95.5312 74.6874 95.4503 75.2438 95.249 75.7017C95.0822 76.0808 94.6389 76.2532 94.2598 76.0864C93.881 75.9195 93.7093 75.4771 93.876 75.0981C93.9659 74.8937 94.0312 74.5618 94.0312 74.1479C94.0312 73.5228 93.8801 72.8462 93.6084 72.353C93.3378 71.8621 93.0269 71.6714 92.707 71.6714C92.3683 71.6715 92.0236 71.7913 91.6748 72.0308C91.4139 72.2099 91.0683 72.2051 90.8115 72.02C90.555 71.8349 90.4419 71.5086 90.5293 71.2046C91.2661 68.6412 92.3968 66.1256 93.5723 64.2378C94.1587 63.2961 94.7721 62.4852 95.3721 61.8999C95.9363 61.3495 96.6297 60.8579 97.3711 60.8579ZM53.6436 70.4253C54.0456 70.3268 54.4519 70.5731 54.5508 70.9751C55.0868 73.1617 56.5224 74.4312 57.9824 74.4312C58.6947 74.4311 59.5195 74.1357 60.4102 73.3579C60.722 73.0858 61.1963 73.1176 61.4688 73.4292C61.7411 73.7411 61.7091 74.2153 61.3975 74.4878C60.3009 75.4455 59.1381 75.9311 57.9824 75.9312C55.5738 75.9312 53.7237 73.9022 53.0938 71.3325C52.9954 70.9304 53.2415 70.5239 53.6436 70.4253ZM30.2461 64.3521C30.6399 64.2246 31.0635 64.4408 31.1914 64.8345C31.4658 65.6816 31.9638 66.5737 32.5771 67.2407C33.2022 67.9202 33.8534 68.271 34.4326 68.271C34.8639 68.2709 35.4062 68.0723 36.0176 67.3647C36.2883 67.0516 36.7618 67.0171 37.0752 67.2876C37.3885 67.5583 37.4229 68.0318 37.1523 68.3452C36.3332 69.2932 35.4054 69.7709 34.4326 69.771C33.2564 69.771 32.2348 69.0838 31.4736 68.2563C30.7012 67.4165 30.0986 66.3312 29.7637 65.2974C29.6363 64.9035 29.8523 64.4797 30.2461 64.3521ZM53.6846 60.7417C57.6733 61.3585 61.3478 63.0209 64.625 65.2554C64.9672 65.4887 65.0555 65.9552 64.8223 66.2974C64.589 66.6395 64.1225 66.7278 63.7803 66.4946C60.6451 64.357 57.178 62.7997 53.4561 62.2241C53.0468 62.1608 52.766 61.7778 52.8291 61.3687C52.8924 60.9594 53.2754 60.6786 53.6846 60.7417ZM32.5312 55.3403C35.1154 55.3404 37.6635 55.7727 40.1816 56.8589C40.5618 57.023 40.7372 57.465 40.5732 57.8452C40.4091 58.2253 39.9672 58.4008 39.5869 58.2368C37.2827 57.243 34.9418 56.8404 32.5312 56.8403C31.1098 56.8403 29.6608 56.9817 28.1826 57.228C27.7742 57.2959 27.3874 57.0193 27.3193 56.6108C27.2514 56.2024 27.5281 55.8156 27.9365 55.7476C29.4789 55.4905 31.0115 55.3403 32.5312 55.3403Z" fill="#9C7B55"/>
</svg>
