<svg width="128" height="128" viewBox="0 0 128 128" fill="none" xmlns="http://www.w3.org/2000/svg">
<path d="M70.6217 116.48L79.9831 109.655C81.2864 108.707 80.9373 106.67 79.3897 106.211L65.8333 102.196L53.1846 109.335L70.6275 116.474L70.6217 116.48Z" fill="url(#paint0_linear_544_1936)"/>
<path d="M105.938 84.6834L100.946 88.3547C96.5998 91.5489 89.8739 93.4165 82.3394 94.3241C70.3772 95.7612 56.3438 94.7779 46.4878 92.8347C42.4499 89.1867 38.7438 84.2121 36.8238 79.0805C36.5678 78.3881 36.3408 77.6841 36.1488 76.986C34.5605 71.1678 35.5088 65.3496 41.1234 61.2245L62.7263 45.3467C75.8638 50.455 87.7212 52.3459 101.9 52.1074C104.856 60.119 110.837 66.3154 122.555 72.4827L105.95 84.6892L105.938 84.6834Z" fill="url(#paint1_linear_544_1936)"/>
<path d="M84.9688 53.632V60.6604C84.9688 66.7695 82.147 71.5578 77.8939 75.1302L68.7303 82.8218C72.9833 79.2495 75.8052 74.4611 75.8052 68.3462V37.9695C62.2488 32.0291 52.5266 24.3666 43.1826 13.0735L52.3463 5.38184C61.6844 16.6807 71.4124 24.3433 84.9688 30.2778V53.632Z" fill="#A2AEB9"/>
<path d="M76.2356 114.408C77.149 114.938 77.8821 116.352 77.8821 117.574C77.8821 118.481 77.4749 119.022 76.893 119.022C76.6952 119.022 76.4683 118.958 76.2356 118.824L64.8203 112.238V107.828L76.2356 114.414V114.408Z" fill="white"/>
<path d="M58.6886 44.4623C54.9707 38.6442 49.3969 33.8034 43.1889 31.5111C43.09 31.4762 42.9969 31.4471 42.9038 31.4122C36.7598 29.3758 31.3431 30.1031 27.6835 33.1751C24.9198 35.4849 23.2267 39.0689 22.9533 43.6071C22.93 43.9562 22.9242 44.2994 22.9242 44.6602C22.9242 48.1511 23.7795 51.7525 25.3038 55.1852C28.6726 62.8012 35.282 69.5852 42.9096 72.4536C43.0085 72.4885 43.0958 72.5292 43.1947 72.5642C43.2878 72.5991 43.3751 72.6282 43.4682 72.6572C51.0958 75.3394 57.7053 73.3671 61.074 68.2063C62.5926 65.8791 63.4595 62.906 63.4595 59.4151C63.4595 59.0543 63.4536 58.6994 63.4362 58.3387C63.1976 53.6376 61.458 48.7852 58.7002 44.4682L58.6886 44.4623ZM75.8056 61.3234V68.346C75.8056 74.4551 72.9838 79.2493 68.7307 82.8216C61.9816 88.4827 51.6136 91.0718 43.1831 90.9962C37.1147 86.6383 30.0515 80.1743 24.0471 72.9423C23.2384 71.9649 22.4413 70.9642 21.6675 69.9634C15.2558 61.5969 10.5605 52.4972 10.5605 44.602V14.2252C24.1111 18.1525 33.8391 17.5707 43.1831 13.0732C52.5213 24.3663 62.2493 32.0289 75.8056 37.9692V61.3234Z" fill="white"/>
<path d="M69.1496 118.499C70.0631 119.028 70.802 120.442 70.802 121.664C70.802 122.572 70.3889 123.113 69.8071 123.113C69.6093 123.113 69.3824 123.049 69.1496 122.915L57.7344 116.329V111.918L69.1496 118.505V118.499Z" fill="white"/>
<path d="M68.818 104.134V110.126L64.8209 107.822V112.232L68.2129 114.193C67.8114 114.99 67.2413 115.671 66.6071 116.038L65.7402 116.544L57.7285 111.924V116.334L61.9176 118.749L55.5235 122.438C54.8718 122.816 54.2842 122.781 53.8827 122.414C53.5278 122.094 53.3184 121.524 53.3184 120.774V113.094C53.3184 111.47 54.3016 109.579 55.5235 108.875L66.6013 102.475C67.0609 102.208 67.4973 102.15 67.8464 102.266C68.4282 102.464 68.8064 103.133 68.8064 104.145L68.818 104.134Z" fill="#C2C7CC"/>
<path d="M45.0443 105.041C45.3643 104.419 45.8124 103.901 46.3011 103.61L48.4131 102.394H48.4189L55.1156 98.525C55.4822 98.3097 55.8196 98.2632 56.1047 98.3621L67.8516 102.254C67.4967 102.132 67.0662 102.196 66.6065 102.464L55.5287 108.864C54.3069 109.568 53.3236 111.459 53.3236 113.082V120.762C53.3236 121.518 53.5389 122.083 53.888 122.403L44.9978 114.38C44.7185 114.129 44.5498 113.676 44.5498 113.07V106.967C44.5498 106.327 44.736 105.641 45.0502 105.041H45.0443Z" fill="white"/>
<path d="M63.4238 58.333C63.4413 58.6937 63.4471 59.0486 63.4471 59.4093C63.4471 62.9002 62.586 65.8733 61.0616 68.2006C58.6063 68.1075 55.6042 67.6537 52.2471 66.8391C53.3642 64.1511 54.0449 60.6951 54.1147 56.7388C57.6522 57.6057 60.8114 58.141 63.418 58.333H63.4238Z" fill="#0F85A8"/>
<path d="M58.688 44.4626C61.4517 48.7797 63.1855 53.6321 63.424 58.3332C60.8175 58.147 57.6582 57.6117 54.1208 56.739C54.1324 56.5004 54.1324 56.2619 54.1324 56.0233C54.1324 51.6364 53.3993 47.3135 52.1426 43.5259C54.5688 44.0553 56.7739 44.3695 58.688 44.4626Z" fill="#0F85A8"/>
<path d="M43.5605 31.5054C49.7801 33.7686 55.3481 38.6385 59.0601 44.4566C57.1518 44.3636 54.9409 44.0494 52.5147 43.5199C50.5423 37.5039 47.2667 32.8552 43.5547 31.5054H43.5605Z" fill="#0F85A8"/>
<path d="M52.2532 66.8394C55.6103 67.6539 58.6066 68.1077 61.0677 68.2008C57.699 73.3615 51.0896 75.3339 43.4619 72.6517C47.1216 73.8212 50.3332 71.4532 52.2532 66.8394Z" fill="#0F85A8"/>
<path d="M54.5045 56.0232C54.5045 56.2676 54.5045 56.5061 54.4929 56.7388C51.1416 55.9243 47.4471 54.8014 43.5605 53.3817V40.8843C46.7431 42.0421 49.7685 42.9206 52.5205 43.5257C53.7715 47.3134 54.5104 51.6363 54.5104 56.0232H54.5045Z" fill="#58C5E6"/>
<path d="M54.1208 56.7389C54.051 60.6953 53.3703 64.1513 52.2532 66.8393C49.4488 66.1702 46.3827 65.2451 43.1885 64.0873V53.3818C47.075 54.8015 50.7696 55.9244 54.1208 56.7389Z" fill="#0F85A8"/>
<path d="M52.3526 5.38184L43.189 13.0735C33.8508 17.5651 24.117 18.1527 10.5664 14.2255L19.73 6.53384C33.2806 10.4611 43.0086 9.87929 52.3526 5.38184Z" fill="#CDD9E3"/>
<path d="M52.5147 43.5257C49.7685 42.9265 46.7372 42.0421 43.5547 40.8843V31.5054C47.2667 32.8552 50.5423 37.5097 52.5147 43.5199V43.5257Z" fill="#58C5E6"/>
<path d="M48.419 102.394L46.307 103.61C45.8125 103.895 45.3703 104.419 45.0503 105.041C38.0277 102.103 31.4765 101.434 25.9143 100.87C18.3448 100.096 11.7994 99.4266 8.13391 93.3524C6.59209 90.7982 6.17318 88.0928 6.89464 85.3059C8.18045 80.3372 13.027 75.3044 21.6786 69.9575C22.4525 70.9582 23.2495 71.959 24.0583 72.9364C16.1281 77.7655 11.5841 82.2397 10.5543 86.2484C10.1005 88.0346 10.3623 89.7219 11.3746 91.3975C14.0626 95.8542 19.2001 96.3837 26.3099 97.1052C32.6517 97.7568 40.2154 98.5306 48.4248 102.388L48.419 102.394Z" fill="#A2AEB9"/>
<path d="M52.2532 66.8394C50.3332 71.4532 47.1448 73.7339 43.4619 72.6517C43.3688 72.6226 43.2816 72.5935 43.1885 72.5586V64.0815C46.3885 65.2452 49.4547 66.1703 52.2532 66.8335V66.8394Z" fill="#0F85A8"/>
<path d="M43.1887 64.087V72.5641C43.0898 72.5292 42.9967 72.4943 42.9036 72.4536C39.2265 71.0107 36.0382 66.2514 34.1182 60.2412C36.9283 61.6085 39.9887 62.9176 43.1887 64.087Z" fill="#0F85A8"/>
<path d="M43.5612 53.3815V64.0869C40.3554 62.9175 37.295 61.6142 34.4906 60.2411C33.3735 56.7386 32.6928 52.7938 32.6172 48.7793C35.9801 50.4026 39.6805 51.9677 43.5612 53.3815Z" fill="#58C5E6"/>
<path d="M43.5611 40.8841V53.3816C39.6746 51.9619 35.9801 50.4026 32.6171 48.7794C32.6113 48.535 32.6113 48.2906 32.6113 48.0521C32.6113 43.671 33.3386 39.8776 34.5895 36.9976C37.3415 38.4056 40.3786 39.7321 43.567 40.8899L43.5611 40.8841Z" fill="#BAEDFD"/>
<path d="M43.5614 31.5056V40.8845C40.3731 39.7266 37.3418 38.4059 34.584 36.9921C36.5156 32.5412 39.6807 30.2779 43.2763 31.4066C43.3753 31.4357 43.4625 31.4648 43.5614 31.5056Z" fill="#BAEDFD"/>
<path d="M43.2701 31.4125C39.6745 30.2779 36.5152 32.5412 34.5778 36.9979C32.1574 35.7703 29.9523 34.4728 28.0439 33.1812C31.7036 30.1092 37.161 29.2772 43.2643 31.4183L43.2701 31.4125Z" fill="#BAEDFD"/>
<path d="M34.8565 59.9911C36.7765 66.0012 39.9881 70.7023 43.642 72.2034C36.0143 69.3292 29.4049 62.5452 26.0361 54.9351C28.4914 56.634 31.4936 58.3562 34.8565 59.9969V59.9911Z" fill="#BAEDFD"/>
<path d="M34.4842 60.2416C31.1213 58.6067 28.1249 56.8786 25.6638 55.1797C24.1453 51.7412 23.2842 48.1456 23.2842 44.6547C23.2842 44.2939 23.29 43.9507 23.3133 43.6016C25.914 45.3121 29.0733 47.075 32.6049 48.7739C32.6805 52.7885 33.3613 56.7332 34.4784 60.2357L34.4842 60.2416Z" fill="#BAEDFD"/>
<path d="M34.5833 36.992C33.3382 39.872 32.6052 43.6713 32.6052 48.0465C32.6052 48.2909 32.6052 48.5353 32.611 48.7738C29.0793 47.0691 25.9201 45.3062 23.3193 43.6014C23.5521 39.0633 25.2917 35.4851 28.0495 33.1694C29.9521 34.4669 32.163 35.7585 34.5833 36.9862V36.992Z" fill="#BAEDFD"/>
<path d="M27.1953 32.6001C31.0979 29.3305 36.8379 28.5006 43.1172 30.6948L43.123 30.6968L43.1338 30.7007C43.1377 30.702 43.1416 30.7032 43.1455 30.7046L43.1475 30.7056L43.2842 30.7524C43.2991 30.7576 43.3145 30.7626 43.3301 30.7681C43.3894 30.7794 43.4456 30.7993 43.499 30.8237C49.8594 33.1528 55.5088 38.1111 59.29 44.0044C59.3178 44.0401 59.3413 44.0782 59.3623 44.1187C62.0672 48.3716 63.8211 53.1519 64.1514 57.8394L64.1787 58.2954V58.2964C64.1969 58.6727 64.2031 59.0411 64.2031 59.4097C64.2031 62.9938 63.3189 66.0901 61.7363 68.5454C61.7138 68.5886 61.6874 68.6287 61.6572 68.6665C58.0679 74.1055 51.1493 76.0872 43.3721 73.4116C43.3287 73.3998 43.2846 73.3901 43.2412 73.3774C43.2368 73.3762 43.2319 73.3749 43.2275 73.3735C43.1297 73.343 43.0324 73.3099 42.9277 73.271C42.9262 73.2705 42.9244 73.2705 42.9229 73.27C42.92 73.2689 42.9169 73.2682 42.9141 73.2671V73.2661C42.8067 73.2279 42.7125 73.19 42.6172 73.1509C42.5676 73.1313 42.5191 73.109 42.4697 73.0884C34.7023 70.0985 28.0255 63.2073 24.6113 55.4888V55.4878C23.0519 51.9755 22.168 48.2707 22.168 44.6597C22.168 44.2919 22.1734 43.9298 22.1982 43.5571C22.4825 38.8573 24.2512 35.0661 27.1953 32.6001ZM52.6826 67.7075C51.7151 69.8237 50.4509 71.4788 48.9297 72.5063C48.6636 72.6861 48.3893 72.8428 48.1104 72.9819C52.9912 73.5516 57.0651 71.9723 59.6445 68.8628C57.5818 68.6891 55.2347 68.2983 52.6826 67.7075ZM43.9385 72.0103C45.4586 72.3793 46.8512 72.0997 48.0898 71.2632C49.2621 70.4714 50.3273 69.1573 51.1953 67.3481C48.912 66.7714 46.4707 66.0383 43.9385 65.1499V72.0103ZM35.3984 61.6772C36.2507 63.9487 37.2877 65.9741 38.4531 67.6255C39.6877 69.3747 41.0419 70.6669 42.4385 71.4146V64.6069C39.9907 63.6975 37.6274 62.7095 35.3984 61.6772ZM27.1836 57.3022C29.634 61.7714 33.1996 65.7959 37.3584 68.6724C37.3148 68.612 37.2707 68.5519 37.2275 68.4907C35.7277 66.3655 34.4559 63.7087 33.4893 60.7661C31.2022 59.6398 29.0807 58.4741 27.1836 57.3022ZM54.8174 57.6694C54.6438 60.9317 54.1315 63.8642 53.2539 66.3003C56.0487 66.9365 58.5535 67.3169 60.6631 67.4312C61.9536 65.2953 62.7031 62.5948 62.7031 59.4097C62.7031 59.2773 62.7011 59.1463 62.6992 59.0161C60.4051 58.805 57.7431 58.3532 54.8174 57.6694ZM43.9385 63.5581C46.6927 64.5422 49.338 65.3406 51.7861 65.9507C52.6586 63.5988 53.1777 60.6656 53.335 57.3091C50.549 56.6054 47.5339 55.7058 44.3828 54.6021L43.9385 54.4429V63.5581ZM33.0283 49.9771C33.2033 53.3803 33.7987 56.7013 34.7246 59.6997C37.1374 60.8634 39.732 61.9831 42.4385 63.0063V53.8989C39.135 52.6799 35.9661 51.3541 33.0283 49.9771ZM23.6719 44.9546C23.7155 48.0226 24.4353 51.1895 25.7119 54.2505L25.8955 54.6772C27.8973 56.049 30.2657 57.44 32.9014 58.7915C32.0955 55.7957 31.604 52.5473 31.4971 49.2446C28.6024 47.8363 25.9587 46.3857 23.6719 44.9546ZM53.2344 44.5122C54.2777 48.0722 54.8828 52.0186 54.8828 56.0229C54.8828 56.063 54.8811 56.1031 54.8809 56.1431C57.7737 56.8299 60.3855 57.2839 62.6182 57.5024C62.2408 53.3386 60.6747 49.0629 58.2588 45.186C56.7338 45.0902 55.0484 44.8641 53.2344 44.5122ZM43.9385 52.8491C47.2686 54.0482 50.4521 55.0209 53.3799 55.772C53.3533 51.7054 52.682 47.708 51.5566 44.1587C49.1812 43.6171 46.6183 42.8765 43.9385 41.9438V52.8491ZM34.5986 38.0239C33.5777 40.6949 32.9776 44.1197 32.9775 48.0522L32.9795 48.2944C35.9153 49.6958 39.1029 51.0516 42.4385 52.2993V41.4048C39.6787 40.3824 37.0405 39.2373 34.5986 38.0239ZM27.7402 34.1196C25.4959 36.2029 24.0505 39.2894 23.7266 43.2104C25.8957 44.613 28.4427 46.0543 31.2666 47.4624L31.4824 47.5679C31.5303 43.6258 32.162 40.1299 33.2539 37.3403C31.2496 36.2962 29.392 35.2152 27.7402 34.1196ZM48.916 35.3335C50.4299 37.3938 51.7234 39.9819 52.7148 42.8774C54.3296 43.2171 55.8336 43.4583 57.207 43.5972C54.9377 40.3737 52.0953 37.5115 48.9102 35.3257C48.9121 35.3283 48.9141 35.3309 48.916 35.3335ZM43.9385 40.354C46.4087 41.231 48.7749 41.9419 50.9805 42.4819C50.0776 40.0638 48.963 37.9304 47.707 36.2212C46.5304 34.6199 45.2523 33.4196 43.9385 32.686V40.354ZM42.3789 32.0435C40.9159 31.6659 39.5598 31.9303 38.3418 32.7358C37.157 33.5195 36.0749 34.8377 35.1943 36.644C37.4548 37.7703 39.8901 38.8402 42.4385 39.8042V32.0601L42.3789 32.0435ZM38.209 31.0796C34.5858 30.6691 31.4099 31.4426 28.9717 33.1323C30.4462 34.0888 32.0882 35.0385 33.8574 35.9634C34.8181 34.0007 36.051 32.4524 37.5137 31.4849C37.7406 31.3348 37.9729 31.2002 38.209 31.0796Z" fill="url(#paint2_linear_544_1936)"/>
<path d="M52.3887 4.63428C52.407 4.63516 52.4252 4.63597 52.4434 4.63818C52.4697 4.6414 52.4956 4.64686 52.5215 4.65283C52.5375 4.65653 52.5536 4.6598 52.5693 4.66455C52.6074 4.67602 52.6447 4.69007 52.6807 4.70752C52.6948 4.71439 52.7079 4.72316 52.7217 4.73096C52.7468 4.74521 52.7714 4.76058 52.7949 4.77783C52.8126 4.7908 52.83 4.80417 52.8467 4.81885C52.8502 4.8219 52.854 4.82452 52.8574 4.82764C52.8816 4.84973 52.9051 4.87317 52.9268 4.89893C52.9274 4.89973 52.928 4.90105 52.9287 4.90186L52.9307 4.90381C62.2 16.1194 71.836 23.7066 85.2764 29.5903C85.5489 29.7098 85.7254 29.9802 85.7256 30.2778V60.6597C85.7256 67.0309 82.7713 72.0173 78.3828 75.7036V75.7046L69.2188 83.396C62.2926 89.2056 51.7308 91.8222 43.1826 91.7456C43.0281 91.7442 42.8775 91.695 42.752 91.605C36.8219 87.3464 29.958 81.1107 24.0449 74.1011L23.8877 73.9136C20.2143 76.1884 17.3306 78.3673 15.2334 80.4341C13.0268 82.6088 11.7371 84.6154 11.2695 86.4351C10.8685 88.0157 11.0915 89.4972 12.0049 91.0093L12.0059 91.0103C13.2299 93.0395 15.0096 94.1937 17.3955 94.9351C19.8174 95.6876 22.7955 95.9958 26.374 96.3589H26.375C32.6289 97.0015 40.1841 97.7709 48.3877 101.549L54.7422 97.8794V97.8784C55.2364 97.5883 55.7999 97.4664 56.3457 97.6519L56.3467 97.6509L56.3506 97.6528C56.3524 97.6535 56.3546 97.6532 56.3564 97.6538L56.3555 97.6548L68.0938 101.543C68.1245 101.554 68.1541 101.566 68.1826 101.58C69.149 101.961 69.5624 103.02 69.5625 104.134V109.69L76.6104 113.759L76.6113 113.76C77.2288 114.118 77.7276 114.732 78.0674 115.386C78.4104 116.046 78.6317 116.823 78.6318 117.574C78.6318 118.129 78.5089 118.658 78.2197 119.07C77.9156 119.503 77.446 119.773 76.8926 119.773C76.5373 119.773 76.1823 119.66 75.8613 119.475L75.8604 119.474L68.4814 115.217C68.133 115.736 67.7092 116.197 67.2256 116.53L69.5186 117.855L69.5195 117.856C70.1362 118.213 70.6362 118.826 70.9775 119.48C71.3222 120.14 71.5458 120.918 71.5459 121.669C71.5459 122.227 71.4203 122.756 71.1289 123.167C70.8232 123.6 70.3533 123.869 69.8008 123.869C69.4455 123.869 69.0905 123.755 68.7695 123.571H68.7686L61.9072 119.612L55.9053 123.074L55.9062 123.075C55.0862 123.551 54.1512 123.604 53.4443 123.007C53.4246 122.993 53.4053 122.977 53.3867 122.96L53.3848 122.958L44.4971 114.938L44.4072 114.851C43.9739 114.402 43.7999 113.744 43.7998 113.071V106.967C43.7998 106.46 43.8957 105.942 44.0625 105.45C37.4158 102.798 31.2111 102.161 25.833 101.616H25.832C18.3567 100.852 11.3777 100.188 7.48633 93.7397C5.84486 91.0205 5.3889 88.1083 6.16309 85.1177C7.48984 79.9914 12.3282 74.9638 20.5762 69.7583C14.3875 61.5414 9.81641 52.5396 9.81641 44.6011V14.2251C9.81642 14.2071 9.81804 14.1892 9.81934 14.1714C9.81974 14.1659 9.81979 14.1603 9.82031 14.1548C9.82442 14.1116 9.83241 14.0692 9.84375 14.0278C9.84554 14.0213 9.84764 14.0148 9.84961 14.0083C9.87521 13.924 9.91565 13.8453 9.96875 13.7749C9.99201 13.7441 10.0164 13.7136 10.0449 13.686C10.0481 13.683 10.0515 13.6802 10.0547 13.6772C10.0642 13.6684 10.0739 13.6593 10.084 13.6509L19.248 5.9585L19.3223 5.90381C19.5034 5.78653 19.7283 5.75222 19.9385 5.81299C33.3575 9.70215 42.8884 9.10434 52.0273 4.70557L52.0977 4.67822C52.112 4.67301 52.126 4.66689 52.1406 4.6626L52.1465 4.66064C52.1842 4.64986 52.2225 4.64292 52.2607 4.63818C52.276 4.63631 52.2913 4.63619 52.3066 4.63525C52.3341 4.63356 52.3614 4.63296 52.3887 4.63428ZM58.4785 115.901L62.1787 118.036C62.2602 118.065 62.3356 118.109 62.4033 118.166L69.5166 122.27H69.5176C69.6613 122.353 69.7603 122.369 69.8008 122.369C69.8301 122.369 69.8581 122.367 69.9043 122.301C69.9648 122.216 70.0459 122.02 70.0459 121.669C70.0458 121.2 69.9005 120.659 69.6475 120.174C69.3911 119.684 69.0641 119.326 68.7676 119.154V119.153L65.4307 117.226C65.4087 117.216 65.3864 117.206 65.3652 117.194L58.4785 113.222V115.901ZM67.6133 102.965C67.5214 102.936 67.3107 102.922 66.9844 103.112L66.9824 103.114L55.9043 109.513L55.9033 109.514C55.4542 109.773 54.9898 110.293 54.6338 110.975C54.281 111.651 54.0743 112.412 54.0742 113.083V120.762C54.0742 121.319 54.2118 121.637 54.3379 121.791L54.3906 121.846L54.3945 121.849C54.4842 121.931 54.6935 122.045 55.1533 121.778L55.1543 121.777L60.4072 118.746L57.3535 116.984C57.1216 116.85 56.9785 116.602 56.9785 116.334V111.924C56.9786 111.657 57.1216 111.409 57.3535 111.275C57.5854 111.141 57.8715 111.141 58.1035 111.275L65.7363 115.674L66.2344 115.384L66.2373 115.383C66.5603 115.197 66.8879 114.877 67.1787 114.465L64.4453 112.888C64.2134 112.754 64.0703 112.507 64.0703 112.239V107.829C64.0704 107.561 64.2135 107.313 64.4453 107.179C64.6771 107.045 64.9634 107.046 65.1953 107.179L68.0625 108.831V104.134C68.0624 103.263 67.7477 103.013 67.6133 102.965ZM55.8652 99.0708C55.8443 99.0635 55.7367 99.0339 55.501 99.1724L55.4971 99.1753L48.7998 103.044C48.7788 103.057 48.757 103.067 48.7354 103.077L46.6904 104.254C46.3526 104.455 45.9905 104.852 45.7168 105.384L45.7148 105.389C45.4494 105.896 45.2999 106.464 45.2998 106.967V113.071C45.2999 113.562 45.4392 113.768 45.498 113.821L45.5 113.823L52.5742 120.207V113.083C52.5743 112.13 52.8595 111.133 53.3037 110.282C53.7445 109.437 54.3821 108.659 55.1543 108.214L65.4707 102.254L55.875 99.0747L55.8652 99.0708ZM65.5703 111.805L68.4824 113.485C68.5075 113.494 68.5322 113.506 68.5566 113.518C68.6059 113.543 68.6512 113.573 68.6924 113.606L76.6084 118.174H76.6094C76.7531 118.257 76.8521 118.273 76.8926 118.273C76.9209 118.273 76.9473 118.272 76.9922 118.208C77.052 118.122 77.1318 117.925 77.1318 117.574C77.1317 117.103 76.9879 116.562 76.7363 116.078C76.4812 115.587 76.1552 115.23 75.8594 115.058V115.057L68.5195 110.82C68.4936 110.809 68.4672 110.797 68.4424 110.783L65.5703 109.126V111.805ZM21.4961 70.9517C13.2364 76.1455 8.79616 80.9306 7.61523 85.4937C6.94657 88.0767 7.32847 90.5754 8.77051 92.9644V92.9653C12.21 98.6646 18.3212 99.3401 25.9844 100.124L28.1191 100.344C33.0533 100.875 38.7177 101.683 44.7412 104.106C45.0671 103.64 45.4677 103.236 45.9229 102.965L45.9326 102.96L46.7773 102.473C39.2027 99.1871 32.2179 98.4672 26.2217 97.8511V97.8501C22.6911 97.4918 19.5461 97.1743 16.9502 96.3677C14.3182 95.5498 12.1846 94.2118 10.7207 91.7847V91.7837C9.61078 89.9458 9.31076 88.0532 9.81641 86.063V86.061C10.3789 83.8724 11.876 81.637 14.1807 79.3657C16.3487 77.2292 19.2735 75.0204 22.9238 72.7476C22.441 72.1541 21.9657 71.5525 21.4961 70.9517ZM42.9834 13.9956C33.8206 18.2562 24.2572 18.8097 11.3164 15.2144V44.6011C11.3164 52.2263 15.8602 61.1474 22.2354 69.4634C22.2566 69.4876 22.2766 69.5131 22.2949 69.5405L23.4365 70.9937C23.8308 71.4876 24.2297 71.9785 24.6309 72.4634L25.1924 73.1353C30.962 79.9747 37.6497 86.0634 43.4326 90.2446C51.701 90.269 61.7443 87.7065 68.2539 82.2466C72.371 78.7884 75.0615 74.1921 75.0615 68.3452V38.4546C61.8019 32.5704 52.1744 25.0042 42.9834 13.9956ZM44.2432 13.1655C53.3675 24.0629 62.9013 31.4927 76.1123 37.2817C76.3849 37.4012 76.5613 37.6716 76.5615 37.9692V68.3452C76.5615 71.6057 75.786 74.5043 74.4424 77.0522L77.418 74.5552L77.7998 74.228C81.7008 70.8091 84.2256 66.3235 84.2256 60.6597V30.7642C71.019 24.9091 61.4164 17.3793 52.2588 6.43701L44.2432 13.1655ZM12.1357 13.8862C24.8053 17.337 33.9791 16.6488 42.7812 12.4351L48.1855 7.89795C40.0445 10.6812 31.2772 10.6025 19.9082 7.36182L12.1357 13.8862Z" fill="#82828A" fill-opacity="0.26"/>
<defs>
<linearGradient id="paint0_linear_544_1936" x1="66.9845" y1="102.196" x2="66.9845" y2="116.48" gradientUnits="userSpaceOnUse">
<stop offset="0.456731" stop-color="#D9D9D9" stop-opacity="0"/>
<stop offset="1" stop-color="#737373" stop-opacity="0.29"/>
</linearGradient>
<linearGradient id="paint1_linear_544_1936" x1="79.0063" y1="45.3467" x2="79.0063" y2="95.0086" gradientUnits="userSpaceOnUse">
<stop offset="0.456731" stop-color="#D9D9D9" stop-opacity="0"/>
<stop offset="1" stop-color="#737373" stop-opacity="0.29"/>
</linearGradient>
<linearGradient id="paint2_linear_544_1936" x1="28" y1="29.4722" x2="50.5" y2="74.5945" gradientUnits="userSpaceOnUse">
<stop stop-color="#9AE7FF"/>
<stop offset="1" stop-color="#00556E"/>
</linearGradient>
</defs>
</svg>
