<svg width="128" height="128" viewBox="0 0 128 128" fill="none" xmlns="http://www.w3.org/2000/svg">
<path d="M63.75 117.875L25.625 97L84 64.625L124.125 84.875L63.75 117.875Z" fill="url(#paint0_linear_543_1615)"/>
<path d="M72.0902 110.314C73.2352 109.651 74.1609 108.045 74.1609 106.724C74.1609 105.404 73.2352 104.874 72.0902 105.532C70.9457 106.189 70.0195 107.795 70.0195 109.116C70.0195 110.436 70.9457 110.972 72.0902 110.314ZM110.314 77.5171V93.4531L64.0273 120.17V104.24L110.314 77.5171Z" fill="#86B7DD"/>
<path d="M72.0902 88.4259C73.2352 87.7685 74.1609 86.1626 74.1609 84.8419C74.1609 83.5212 73.2352 82.986 72.0902 83.6434C70.9457 84.3067 70.0195 85.9125 70.0195 87.2333C70.0195 88.554 70.9457 89.0834 72.0902 88.4259ZM110.314 55.7568V71.687L64.0273 98.4041V82.4798L110.314 55.7568Z" fill="#86B7DD"/>
<path d="M72.0902 66.5439C73.2352 65.8865 74.1609 64.2806 74.1609 62.9599C74.1609 61.6392 73.2352 61.1039 72.0902 61.7672C70.9457 62.4247 70.0195 64.0304 70.0195 65.3512C70.0195 66.6661 70.9457 67.2072 72.0902 66.5439ZM110.314 33.9912V49.9272L64.0273 76.6501V60.7141L110.314 33.9912Z" fill="#86B7DD"/>
<path d="M64.027 43.3175L80.1678 33.991L64.027 24.6761L47.8862 33.991L64.027 43.3175ZM110.314 33.991L64.027 60.7139L17.7451 33.991L64.027 7.27393L110.314 33.991Z" fill="#F0F6FA"/>
<path d="M110.314 55.7572L64.027 82.4801L17.7451 55.7572L22.7971 52.8423L64.027 76.6503L105.257 52.8423L110.314 55.7572Z" fill="#268FDF"/>
<path d="M110.314 77.517L64.027 104.24L17.7451 77.517L22.7971 74.6021L64.027 98.4043L105.257 74.6021L110.314 77.517Z" fill="#005CA2"/>
<path d="M80.1681 33.9912L64.0273 43.3177V24.6763L80.1681 33.9912Z" fill="white"/>
<path d="M74.1599 62.9599C74.1599 64.2806 73.2343 65.8864 72.0893 66.5439C70.9448 67.2071 70.0186 66.666 70.0186 65.3511C70.0186 64.0304 70.9448 62.4246 72.0893 61.7672C73.2343 61.1039 74.1599 61.6391 74.1599 62.9599Z" fill="white"/>
<path d="M74.1599 84.8423C74.1599 86.163 73.2343 87.7689 72.0893 88.4263C70.9448 89.0838 70.0186 88.5544 70.0186 87.2336C70.0186 85.9129 70.9448 84.3071 72.0893 83.6438C73.2343 82.9863 74.1599 83.5216 74.1599 84.8423Z" fill="white"/>
<path d="M74.1599 106.724C74.1599 108.045 73.2343 109.651 72.0893 110.314C70.9448 110.972 70.0186 110.436 70.0186 109.116C70.0186 107.795 70.9448 106.189 72.0893 105.532C73.2343 104.874 74.1599 105.404 74.1599 106.724Z" fill="white"/>
<path d="M64.027 104.24V120.17L17.7451 93.4531V77.5171L64.027 104.24Z" fill="#F0F6FA"/>
<path d="M64.027 82.4798V98.4041L17.7451 71.687V55.7568L64.027 82.4798Z" fill="#F0F6FA"/>
<path d="M64.027 60.7141V76.6501L17.7451 49.9272V33.9912L64.027 60.7141Z" fill="#F0F6FA"/>
<path d="M64.0275 24.6763V43.3177L47.8867 33.9912L64.0275 24.6763Z" fill="#81B9E4"/>
<path d="M63.5908 6.51714C63.8607 6.36011 64.194 6.36024 64.4639 6.51714L110.688 33.2046C110.844 33.2794 110.974 33.3984 111.062 33.5455C111.066 33.5513 111.07 33.5571 111.073 33.563C111.09 33.592 111.104 33.6221 111.117 33.6529C111.12 33.6603 111.123 33.6678 111.126 33.6753C111.136 33.7014 111.145 33.7282 111.152 33.7554C111.155 33.7633 111.157 33.771 111.159 33.7789C111.165 33.8026 111.17 33.8267 111.174 33.8511C111.176 33.8638 111.178 33.8764 111.18 33.8892C111.184 33.9228 111.187 33.9572 111.187 33.9917V49.9273C111.187 50.2355 111.021 50.526 110.751 50.6832L107.008 52.8423L110.751 55.0005C110.763 55.0077 110.774 55.0172 110.786 55.0249C110.798 55.0324 110.809 55.0395 110.82 55.0474C110.833 55.0568 110.846 55.0667 110.858 55.0767C110.91 55.1181 110.956 55.1655 110.997 55.2173C111.004 55.2257 111.01 55.2341 111.017 55.2427C111.031 55.262 111.044 55.2819 111.057 55.3023C111.063 55.3124 111.069 55.3222 111.075 55.3326C111.09 55.3597 111.104 55.3878 111.116 55.4165C111.119 55.4237 111.122 55.4308 111.125 55.438C111.136 55.466 111.145 55.4947 111.153 55.524C111.155 55.5301 111.157 55.5363 111.158 55.5425C111.164 55.5669 111.17 55.5916 111.174 55.6167C111.176 55.6291 111.178 55.6414 111.18 55.6539C111.184 55.6876 111.187 55.7217 111.187 55.7564V71.6871C111.186 71.9952 111.021 72.2858 110.751 72.4429L107.008 74.6031L110.751 76.7603C110.759 76.7649 110.766 76.7711 110.773 76.7759C110.795 76.7891 110.815 76.8031 110.835 76.8179C110.84 76.822 110.846 76.8254 110.852 76.8296C111.02 76.9611 111.137 77.1527 111.174 77.3726C111.176 77.3856 111.178 77.3986 111.18 77.4117C111.184 77.4462 111.187 77.4815 111.187 77.5171V93.4527C111.187 93.7609 111.021 94.0523 110.751 94.2037L64.4639 120.926C64.4611 120.928 64.4578 120.929 64.4551 120.93C64.4392 120.939 64.4227 120.947 64.4062 120.955C64.3441 120.985 64.2801 121.008 64.2139 121.022C64.2007 121.025 64.1872 121.027 64.1738 121.029C64.1595 121.031 64.1453 121.034 64.1309 121.036C64.0969 121.04 64.0624 121.043 64.0273 121.043L63.9375 121.039C63.9319 121.038 63.9265 121.036 63.9209 121.036C63.9114 121.035 63.9021 121.032 63.8926 121.031C63.8731 121.028 63.854 121.024 63.835 121.02C63.8137 121.015 63.7925 121.011 63.7715 121.004C63.7666 121.003 63.7617 121.001 63.7568 121C63.7225 120.988 63.6893 120.974 63.6562 120.959C63.6364 120.949 63.6166 120.94 63.5977 120.929C63.5957 120.928 63.5928 120.928 63.5908 120.926L17.3096 94.2037C17.0396 94.0524 16.873 93.761 16.873 93.4527V77.5171C16.873 77.4811 16.8757 77.4455 16.8799 77.4107C16.8807 77.4038 16.8818 77.397 16.8828 77.3902C16.9157 77.164 17.0348 76.9665 17.2061 76.8316C17.2133 76.8258 17.221 76.8205 17.2285 76.815C17.2466 76.8016 17.2651 76.7888 17.2842 76.7769C17.2926 76.7716 17.3009 76.7653 17.3096 76.7603L21.0498 74.6021L17.3096 72.4429C17.0397 72.2858 16.8731 71.9954 16.873 71.6871V55.7564C16.8731 55.7217 16.8759 55.6875 16.8799 55.6539C16.8811 55.6437 16.8822 55.6336 16.8838 55.6236C16.8882 55.5955 16.8934 55.5677 16.9004 55.5406C16.9018 55.535 16.9037 55.5295 16.9053 55.524C16.9134 55.4948 16.9225 55.466 16.9336 55.438C16.9361 55.4318 16.9388 55.4257 16.9414 55.4195C16.9539 55.39 16.9679 55.3613 16.9834 55.3335C16.9901 55.3215 16.9977 55.3101 17.0049 55.2984C17.0155 55.2813 17.0273 55.2649 17.0391 55.2486C17.047 55.2376 17.0541 55.226 17.0625 55.2154C17.0759 55.1986 17.09 55.1823 17.1045 55.1665C17.1191 55.1506 17.1346 55.1355 17.1504 55.1207C17.1662 55.1058 17.1823 55.0913 17.1992 55.0777C17.2137 55.066 17.2289 55.0553 17.2441 55.0445C17.2525 55.0385 17.2609 55.0326 17.2695 55.0269C17.2828 55.0182 17.2957 55.0086 17.3096 55.0005L21.0488 52.8423L17.3096 50.6832C17.0397 50.5261 16.873 50.2356 16.873 49.9273V33.9917C16.873 33.9569 16.8758 33.9221 16.8799 33.8882C16.8811 33.8781 16.8822 33.868 16.8838 33.858C16.8881 33.8305 16.8936 33.8035 16.9004 33.7769C16.9022 33.7697 16.9042 33.7626 16.9062 33.7554C16.914 33.7282 16.9224 33.7014 16.9326 33.6753C16.9354 33.6681 16.9384 33.661 16.9414 33.6539C16.9687 33.5894 17.0036 33.5288 17.0449 33.4732C17.0489 33.4678 17.0535 33.4629 17.0576 33.4576C17.1407 33.3508 17.2479 33.2639 17.3711 33.2046L63.5908 6.51714ZM64.8994 104.745V118.66L109.441 92.9468V79.0289L64.8994 104.745ZM18.6182 92.9468L63.1543 118.659V104.744L18.6182 79.0279V92.9468ZM71.6533 104.775C72.4793 104.298 73.3312 104.246 73.9932 104.629C74.6535 105.013 75.0332 105.776 75.0332 106.724C75.0332 108.347 73.9314 110.255 72.5264 111.07C72.0669 111.332 71.5997 111.465 71.1611 111.465C70.812 111.465 70.4807 111.378 70.1875 111.21C69.5264 110.825 69.1466 110.064 69.1465 109.116C69.1465 107.492 70.2476 105.584 71.6533 104.775ZM73.0146 106.119C72.9035 106.119 72.731 106.165 72.5244 106.288C71.6558 106.788 70.8916 108.109 70.8916 109.116C70.8917 109.447 70.9805 109.65 71.0625 109.697C71.1445 109.749 71.3644 109.72 71.6553 109.557C72.5238 109.051 73.288 107.731 73.2881 106.724C73.2881 106.393 73.1996 106.189 73.1182 106.142C73.0944 106.131 73.0597 106.119 73.0146 106.119ZM64.4639 99.1607C64.4583 99.1641 64.452 99.1663 64.4463 99.1695C64.4409 99.1724 64.4351 99.1745 64.4297 99.1773C64.3605 99.2145 64.2884 99.2408 64.2139 99.2564C64.2035 99.2586 64.1931 99.2604 64.1826 99.2623C64.1621 99.2658 64.1417 99.269 64.1211 99.271C64.0903 99.2743 64.0591 99.2769 64.0273 99.2769L63.9375 99.272C63.9348 99.2718 63.9323 99.2704 63.9297 99.2701C63.913 99.2683 63.8965 99.2659 63.8799 99.2632C63.8647 99.2607 63.8498 99.2578 63.835 99.2544C63.8137 99.2498 63.7924 99.2451 63.7715 99.2388C63.7666 99.2373 63.7617 99.2355 63.7568 99.2339C63.7363 99.2273 63.7154 99.2218 63.6953 99.2134L63.6113 99.1714C63.6097 99.1705 63.6081 99.1694 63.6064 99.1685C63.6015 99.1657 63.5957 99.1637 63.5908 99.1607L22.7969 75.6109L19.4912 77.5171L64.0273 103.234L108.568 77.5171L105.261 75.6109L64.4639 99.1607ZM64.8994 82.9839V96.8941L104.781 73.8707C104.806 73.8546 104.831 73.8401 104.857 73.8267L109.441 71.1812V57.2691L64.8994 82.9839ZM18.6182 71.1812L63.1543 96.8931V82.983L18.6182 57.2681V71.1812ZM71.6533 82.8873C72.4799 82.4162 73.3313 82.3638 73.9922 82.7476C74.6537 83.1316 75.0332 83.894 75.0332 84.8423C75.0331 86.4654 73.9321 88.3733 72.5273 89.1822C72.0673 89.4497 71.5991 89.5786 71.1611 89.5787C70.8115 89.5787 70.4803 89.4964 70.1865 89.3277C69.5263 88.9437 69.1466 88.1821 69.1465 87.2339C69.1465 85.6107 70.2476 83.7018 71.6533 82.8873ZM73.0137 84.2369C72.9025 84.2369 72.7309 84.2836 72.5244 84.3999C71.6558 84.9061 70.8916 86.2274 70.8916 87.2339C70.8917 87.565 70.9798 87.7682 71.0605 87.815C71.1432 87.8615 71.3644 87.8382 71.6553 87.6695C72.5238 87.1691 73.288 85.8488 73.2881 84.8423C73.2881 84.5108 73.1996 84.3069 73.1182 84.2603C73.0943 84.2428 73.0591 84.2369 73.0137 84.2369ZM19.4912 55.7574L64.0273 81.4732L108.568 55.7574L105.262 53.8511L64.5195 77.3677C64.4411 77.4219 64.3538 77.4635 64.2598 77.4898C64.2524 77.4919 64.2447 77.4928 64.2373 77.4947C64.2119 77.501 64.1863 77.5062 64.1602 77.5103C64.15 77.5119 64.14 77.5139 64.1299 77.5152C64.0962 77.5192 64.0621 77.523 64.0273 77.523L63.9375 77.5181C63.9322 77.5176 63.9271 77.5158 63.9219 77.5152C63.915 77.5143 63.9082 77.5133 63.9014 77.5123C63.8705 77.5077 63.8403 77.5014 63.8105 77.4937C63.8067 77.4927 63.8027 77.4919 63.7988 77.4908C63.7013 77.4641 63.6101 77.4223 63.5293 77.3658L22.7959 53.8501L19.4912 55.7574ZM64.8994 61.2183V75.1343L104.778 52.1128C104.81 52.092 104.843 52.0726 104.877 52.0562L109.441 49.4214V35.5035L64.8994 61.2183ZM18.6182 49.4214L63.1543 75.1333V61.2173L18.6182 35.5025V49.4214ZM71.6553 61.0103C72.4756 60.5333 73.327 60.4818 73.9902 60.8658C74.6527 61.2498 75.0331 62.0114 75.0332 62.9595C75.0332 64.5886 73.9307 66.4916 72.5244 67.3003C72.0673 67.5679 71.6003 67.7016 71.1611 67.7017C70.8139 67.7017 70.483 67.6145 70.1904 67.4458C69.5272 67.0618 69.1465 66.2995 69.1465 65.3511C69.1465 63.722 70.2484 61.819 71.6553 61.0103ZM73.0146 62.355C72.9041 62.3551 72.7327 62.4019 72.5264 62.524C71.6545 63.0246 70.8916 64.3448 70.8916 65.3511C70.8916 65.6828 70.9805 65.8866 71.0625 65.9332C71.1446 65.9796 71.3643 65.9563 71.6533 65.7876C72.5254 65.2872 73.2881 63.966 73.2881 62.9595C73.288 62.6285 73.1995 62.4254 73.1182 62.3785C73.0943 62.361 73.0589 62.355 73.0146 62.355ZM19.4912 33.9908L64.0273 59.7076L108.568 33.9908L64.0273 8.28081L19.4912 33.9908ZM63.8701 23.8179C63.9736 23.7988 64.0791 23.799 64.1826 23.8179C64.1961 23.8203 64.2094 23.8227 64.2227 23.8257C64.2377 23.8292 64.2527 23.8331 64.2676 23.8375C64.3313 23.8556 64.3924 23.8803 64.4492 23.9117C64.454 23.9144 64.4591 23.9167 64.4639 23.9195L80.6045 33.2408C80.8744 33.3921 81.041 33.6834 81.041 33.9917C81.0408 34.3057 80.8743 34.5964 80.6045 34.7476L64.4639 44.0738C64.4616 44.0751 64.4583 44.0755 64.4561 44.0767C64.394 44.1118 64.3272 44.1386 64.2568 44.1578C64.2516 44.1592 64.2464 44.1603 64.2412 44.1617C64.2133 44.1687 64.1852 44.175 64.1562 44.1792C64.1478 44.1805 64.1394 44.1821 64.1309 44.1832C64.1093 44.1857 64.0875 44.1871 64.0654 44.188C64.0527 44.1886 64.0401 44.191 64.0273 44.191C64.0143 44.191 64.0013 44.1886 63.9883 44.188C63.9659 44.1871 63.9438 44.1858 63.9219 44.1832C63.9134 44.1821 63.905 44.1806 63.8965 44.1792C63.8683 44.175 63.8407 44.1695 63.8135 44.1626C63.8066 44.1609 63.7998 44.1587 63.793 44.1568C63.7637 44.1486 63.735 44.1395 63.707 44.1285C63.7016 44.1263 63.6959 44.1248 63.6904 44.1226C63.6581 44.1091 63.6269 44.0938 63.5967 44.0767C63.5948 44.0757 63.5927 44.0748 63.5908 44.0738L47.4502 34.7476C47.1804 34.5964 47.0138 34.3057 47.0137 33.9917C47.0137 33.6834 47.1802 33.392 47.4502 33.2408L63.5908 23.9195C63.5956 23.9167 63.6006 23.9144 63.6055 23.9117C63.633 23.8965 63.6612 23.8819 63.6904 23.8697C63.6975 23.8667 63.7048 23.8646 63.7119 23.8619C63.7349 23.853 63.7583 23.8444 63.7822 23.8375C63.7983 23.8327 63.8148 23.8295 63.8311 23.8257C63.844 23.8228 63.857 23.8203 63.8701 23.8179ZM64.8994 41.8013L78.4229 33.9917L64.8994 26.1861V41.8013ZM49.6318 33.9917L63.1543 41.8003V26.1861L49.6318 33.9917Z" fill="#82828A" fill-opacity="0.26"/>
<defs>
<linearGradient id="paint0_linear_543_1615" x1="122.25" y1="73.75" x2="106.75" y2="89.25" gradientUnits="userSpaceOnUse">
<stop offset="0.456731" stop-color="#D9D9D9" stop-opacity="0"/>
<stop offset="1" stop-color="#737373" stop-opacity="0.29"/>
</linearGradient>
</defs>
</svg>
