<svg width="101" height="32" viewBox="0 0 101 32" fill="none" xmlns="http://www.w3.org/2000/svg">
<g filter="url(#filter0_di_477_6010)">
<path d="M9.78418 12.665C11.2336 12.6651 12.409 13.8397 12.4092 15.2891C12.4092 16.7386 11.2337 17.914 9.78418 17.9141C8.33461 17.9141 7.15918 16.7386 7.15918 15.2891C7.15933 13.8397 8.33471 12.665 9.78418 12.665Z" fill="url(#paint0_linear_477_6010)"/>
<path fill-rule="evenodd" clip-rule="evenodd" d="M16.9258 3.86133C19.0255 3.86133 26.1369 4.3372 27.7607 5.28906C29.3844 6.2129 30.6442 7.50072 31.54 9.15234C32.4639 10.804 32.9257 12.7078 32.9258 14.8633C32.9258 17.019 32.4779 18.9234 31.582 20.5752C31.0503 21.5555 30.3887 22.4108 29.6006 23.1445C29.424 23.3832 28.1499 24.9431 24.0254 26.3896C19.5449 27.9609 15.1201 28.1387 15.1201 28.1387V25.8008C12.1597 25.6475 7.43782 25.2104 6.13281 24.4805C4.50916 23.5286 3.23536 22.2268 2.31152 20.5752C1.38764 18.9234 0.925781 17.019 0.925781 14.8633C0.925847 12.7078 1.37371 10.804 2.26953 9.15234C3.19337 7.50072 4.46717 6.2129 6.09082 5.28906C7.71462 4.3372 14.826 3.86133 16.9258 3.86133ZM16.9258 8.18652C15.7499 8.18652 9.46425 8.46645 8.56836 9.02637C7.67262 9.58626 6.97264 10.3702 6.46875 11.3779C5.96487 12.3857 5.71295 13.5477 5.71289 14.8633C5.71289 16.1791 5.96481 17.3418 6.46875 18.3496C7.00063 19.3293 7.7146 20.1133 8.61035 20.7012C9.2949 21.116 12.9311 21.3759 15.2471 21.4834C18.9273 21.6542 16.9258 8.18652 19.6924 8.30176C18.4345 8.22556 17.3491 8.18652 16.9258 8.18652ZM22.0596 13.2666V17.3125H26.1064V13.2666H22.0596Z" fill="url(#paint1_linear_477_6010)"/>
</g>
<path d="M94.5389 21.764C93.2189 21.764 92.1922 21.4707 91.4589 20.884C90.7402 20.2973 90.3809 19.4687 90.3809 18.398C90.3809 17.254 90.7622 16.3813 91.5249 15.78C92.3022 15.1787 93.3802 14.878 94.7589 14.878H97.5529C97.4649 14.0713 97.2375 13.4553 96.8709 13.03C96.5042 12.6047 95.9615 12.392 95.2429 12.392C94.7149 12.392 94.2529 12.502 93.8569 12.722C93.4609 12.942 93.1235 13.2867 92.8449 13.756L90.6889 12.964C90.9235 12.48 91.2315 12.0327 91.6129 11.622C92.0089 11.1967 92.5002 10.8593 93.0869 10.61C93.6882 10.3607 94.4069 10.236 95.2429 10.236C96.3135 10.236 97.2082 10.4487 97.9269 10.874C98.6455 11.2847 99.1735 11.8787 99.5109 12.656C99.8629 13.4333 100.039 14.372 100.039 15.472L99.9729 21.5H97.7069L97.6409 20.158C97.3475 20.6713 96.9369 21.0673 96.4089 21.346C95.8955 21.6247 95.2722 21.764 94.5389 21.764ZM94.8469 19.696C95.3895 19.696 95.8662 19.5787 96.2769 19.344C96.7022 19.0947 97.0249 18.7647 97.2449 18.354C97.4795 17.9433 97.5969 17.4887 97.5969 16.99V16.77H95.5509C94.5682 16.77 93.8789 16.9093 93.4829 17.188C93.0869 17.452 92.8889 17.8333 92.8889 18.332C92.8889 18.7573 93.0575 19.0947 93.3949 19.344C93.7469 19.5787 94.2309 19.696 94.8469 19.696Z" fill="#58585F"/>
<path d="M83.5049 21.5V10.5H85.9689V12.502C86.4089 11.8127 86.9809 11.2993 87.6849 10.962C88.3889 10.6247 89.1149 10.456 89.8629 10.456V12.81C89.1882 12.81 88.5502 12.9053 87.9489 13.096C87.3622 13.272 86.8856 13.5653 86.5189 13.976C86.1522 14.3867 85.9689 14.9293 85.9689 15.604V21.5H83.5049Z" fill="#58585F"/>
<path d="M75.4466 21.5L70.8926 10.5H73.4226L76.6786 18.684L79.9126 10.5H82.4646L77.9326 21.5H75.4466Z" fill="#58585F"/>
<path d="M53.8252 21.5V10.5H56.1352L56.2452 11.974C56.5825 11.402 57.0152 10.9693 57.5432 10.676C58.0712 10.3827 58.6725 10.236 59.3472 10.236C60.2272 10.236 60.9752 10.434 61.5912 10.83C62.2072 11.226 62.6545 11.8273 62.9332 12.634C63.2559 11.8567 63.7105 11.2627 64.2972 10.852C64.8839 10.4413 65.5732 10.236 66.3652 10.236C67.6412 10.236 68.6239 10.6467 69.3132 11.468C70.0025 12.2747 70.3399 13.5213 70.3252 15.208V21.5H67.8832V15.868C67.8832 14.988 67.7879 14.3133 67.5972 13.844C67.4065 13.36 67.1499 13.0227 66.8272 12.832C66.5045 12.6413 66.1305 12.546 65.7052 12.546C64.9425 12.5313 64.3485 12.8027 63.9232 13.36C63.5125 13.9173 63.3072 14.7167 63.3072 15.758V21.5H60.8432V15.868C60.8432 14.988 60.7479 14.3133 60.5572 13.844C60.3812 13.36 60.1319 13.0227 59.8092 12.832C59.4865 12.6413 59.1125 12.546 58.6872 12.546C57.9245 12.5313 57.3305 12.8027 56.9052 13.36C56.4945 13.9173 56.2892 14.7167 56.2892 15.758V21.5H53.8252Z" fill="#58585F"/>
<path d="M46.6018 21.764C45.5018 21.764 44.5191 21.522 43.6538 21.038C42.8031 20.5393 42.1358 19.8573 41.6518 18.992C41.1678 18.1267 40.9258 17.1293 40.9258 16C40.9258 14.8707 41.1604 13.8733 41.6298 13.008C42.1138 12.1427 42.7811 11.468 43.6318 10.984C44.4824 10.4853 45.4578 10.236 46.5578 10.236C47.6578 10.236 48.6331 10.4853 49.4838 10.984C50.3344 11.468 50.9944 12.1427 51.4638 13.008C51.9478 13.8733 52.1898 14.8707 52.1898 16C52.1898 17.1293 51.9551 18.1267 51.4858 18.992C51.0164 19.8573 50.3564 20.5393 49.5058 21.038C48.6551 21.522 47.6871 21.764 46.6018 21.764ZM46.6018 19.498C47.2031 19.498 47.7384 19.3513 48.2078 19.058C48.6771 18.75 49.0438 18.3393 49.3078 17.826C49.5718 17.298 49.7038 16.6893 49.7038 16C49.7038 15.3107 49.5644 14.7093 49.2858 14.196C49.0218 13.668 48.6551 13.2573 48.1858 12.964C47.7164 12.656 47.1738 12.502 46.5578 12.502C45.9418 12.502 45.3991 12.6487 44.9298 12.942C44.4604 13.2353 44.0938 13.646 43.8298 14.174C43.5658 14.702 43.4338 15.3107 43.4338 16C43.4338 16.6893 43.5658 17.298 43.8298 17.826C44.1084 18.3393 44.4824 18.75 44.9518 19.058C45.4358 19.3513 45.9858 19.498 46.6018 19.498Z" fill="#58585F"/>
<defs>
<filter id="filter0_di_477_6010" x="-0.000412643" y="3.16668" width="33.8524" height="26.1297" filterUnits="userSpaceOnUse" color-interpolation-filters="sRGB">
<feFlood flood-opacity="0" result="BackgroundImageFix"/>
<feColorMatrix in="SourceAlpha" type="matrix" values="0 0 0 0 0 0 0 0 0 0 0 0 0 0 0 0 0 0 127 0" result="hardAlpha"/>
<feOffset dy="0.231548"/>
<feGaussianBlur stdDeviation="0.463097"/>
<feComposite in2="hardAlpha" operator="out"/>
<feColorMatrix type="matrix" values="0 0 0 0 1 0 0 0 0 1 0 0 0 0 1 0 0 0 1 0"/>
<feBlend mode="normal" in2="BackgroundImageFix" result="effect1_dropShadow_477_6010"/>
<feBlend mode="normal" in="SourceGraphic" in2="effect1_dropShadow_477_6010" result="shape"/>
<feColorMatrix in="SourceAlpha" type="matrix" values="0 0 0 0 0 0 0 0 0 0 0 0 0 0 0 0 0 0 127 0" result="hardAlpha"/>
<feOffset dy="0.926194"/>
<feGaussianBlur stdDeviation="1.15774"/>
<feComposite in2="hardAlpha" operator="arithmetic" k2="-1" k3="1"/>
<feColorMatrix type="matrix" values="0 0 0 0 0.495192 0 0 0 0 0.495192 0 0 0 0 0.495192 0 0 0 1 0"/>
<feBlend mode="multiply" in2="shape" result="effect2_innerShadow_477_6010"/>
</filter>
<linearGradient id="paint0_linear_477_6010" x1="16.9258" y1="3.86133" x2="16.9258" y2="28.1387" gradientUnits="userSpaceOnUse">
<stop offset="0.0192308" stop-color="#1F2A56"/>
<stop offset="0.649038" stop-color="#949FAA"/>
<stop offset="0.884615" stop-color="#D2BCA2"/>
<stop offset="1" stop-color="#F1C39A"/>
</linearGradient>
<linearGradient id="paint1_linear_477_6010" x1="16.9258" y1="3.86133" x2="16.9258" y2="28.1387" gradientUnits="userSpaceOnUse">
<stop offset="0.0192308" stop-color="#1F2A56"/>
<stop offset="0.649038" stop-color="#949FAA"/>
<stop offset="0.884615" stop-color="#D2BCA2"/>
<stop offset="1" stop-color="#F1C39A"/>
</linearGradient>
</defs>
</svg>
