<svg width="101" height="32" viewBox="0 0 101 32" fill="none" xmlns="http://www.w3.org/2000/svg">
<g filter="url(#filter0_di_547_49)">
<path d="M9.78418 12.665C11.2336 12.6651 12.409 13.8397 12.4092 15.2891C12.4092 16.7386 11.2337 17.914 9.78418 17.9141C8.33461 17.9141 7.15918 16.7386 7.15918 15.2891C7.15933 13.8397 8.33471 12.665 9.78418 12.665Z" fill="url(#paint0_linear_547_49)"/>
<path fill-rule="evenodd" clip-rule="evenodd" d="M16.9258 3.86133C19.0255 3.86133 26.1369 4.3372 27.7607 5.28906C29.3844 6.2129 30.6442 7.50072 31.54 9.15234C32.4639 10.804 32.9257 12.7078 32.9258 14.8633C32.9258 17.019 32.4779 18.9234 31.582 20.5752C31.0503 21.5555 30.3887 22.4108 29.6006 23.1445C29.424 23.3832 28.1499 24.9431 24.0254 26.3896C19.5449 27.9609 15.1201 28.1387 15.1201 28.1387V25.8008C12.1597 25.6475 7.43782 25.2104 6.13281 24.4805C4.50916 23.5286 3.23536 22.2268 2.31152 20.5752C1.38764 18.9234 0.925781 17.019 0.925781 14.8633C0.925847 12.7078 1.37371 10.804 2.26953 9.15234C3.19337 7.50072 4.46717 6.2129 6.09082 5.28906C7.71462 4.3372 14.826 3.86133 16.9258 3.86133ZM16.9258 8.18652C15.7499 8.18652 9.46425 8.46645 8.56836 9.02637C7.67262 9.58626 6.97264 10.3702 6.46875 11.3779C5.96487 12.3857 5.71295 13.5477 5.71289 14.8633C5.71289 16.1791 5.96481 17.3418 6.46875 18.3496C7.00063 19.3293 7.7146 20.1133 8.61035 20.7012C9.2949 21.116 12.9311 21.3759 15.2471 21.4834C18.9273 21.6542 16.9258 8.18652 19.6924 8.30176C18.4345 8.22556 17.3491 8.18652 16.9258 8.18652ZM22.0596 13.2666V17.3125H26.1064V13.2666H22.0596Z" fill="url(#paint1_linear_547_49)"/>
</g>
<path d="M94.5389 21.7643C93.2189 21.7643 92.1922 21.471 91.4589 20.8843C90.7402 20.2977 90.3809 19.469 90.3809 18.3983C90.3809 17.2543 90.7622 16.3817 91.5249 15.7803C92.3022 15.179 93.3802 14.8783 94.7589 14.8783H97.5529C97.4649 14.0717 97.2375 13.4557 96.8709 13.0303C96.5042 12.605 95.9615 12.3923 95.2429 12.3923C94.7149 12.3923 94.2529 12.5023 93.8569 12.7223C93.4609 12.9423 93.1235 13.287 92.8449 13.7563L90.6889 12.9643C90.9235 12.4803 91.2315 12.033 91.6129 11.6223C92.0089 11.197 92.5002 10.8597 93.0869 10.6103C93.6882 10.361 94.4069 10.2363 95.2429 10.2363C96.3135 10.2363 97.2082 10.449 97.9269 10.8743C98.6455 11.285 99.1735 11.879 99.5109 12.6563C99.8629 13.4337 100.039 14.3723 100.039 15.4723L99.9729 21.5003H97.7069L97.6409 20.1583C97.3475 20.6717 96.9369 21.0677 96.4089 21.3463C95.8955 21.625 95.2722 21.7643 94.5389 21.7643ZM94.8469 19.6963C95.3895 19.6963 95.8662 19.579 96.2769 19.3443C96.7022 19.095 97.0249 18.765 97.2449 18.3543C97.4795 17.9437 97.5969 17.489 97.5969 16.9903V16.7703H95.5509C94.5682 16.7703 93.8789 16.9097 93.4829 17.1883C93.0869 17.4523 92.8889 17.8337 92.8889 18.3323C92.8889 18.7577 93.0575 19.095 93.3949 19.3443C93.7469 19.579 94.2309 19.6963 94.8469 19.6963Z" fill="#58585F"/>
<path d="M83.5049 21.5001V10.5001H85.9689V12.5021C86.4089 11.8127 86.9809 11.2994 87.6849 10.9621C88.3889 10.6247 89.1149 10.4561 89.8629 10.4561V12.8101C89.1882 12.8101 88.5502 12.9054 87.9489 13.0961C87.3622 13.2721 86.8856 13.5654 86.5189 13.9761C86.1522 14.3867 85.9689 14.9294 85.9689 15.6041V21.5001H83.5049Z" fill="#58585F"/>
<path d="M75.4466 21.5L70.8926 10.5H73.4226L76.6786 18.684L79.9126 10.5H82.4646L77.9326 21.5H75.4466Z" fill="#58585F"/>
<path d="M53.8252 21.5003V10.5003H56.1352L56.2452 11.9743C56.5825 11.4023 57.0152 10.9697 57.5432 10.6763C58.0712 10.383 58.6725 10.2363 59.3472 10.2363C60.2272 10.2363 60.9752 10.4343 61.5912 10.8303C62.2072 11.2263 62.6545 11.8277 62.9332 12.6343C63.2559 11.857 63.7105 11.263 64.2972 10.8523C64.8839 10.4417 65.5732 10.2363 66.3652 10.2363C67.6412 10.2363 68.6239 10.647 69.3132 11.4683C70.0025 12.275 70.3399 13.5217 70.3252 15.2083V21.5003H67.8832V15.8683C67.8832 14.9883 67.7879 14.3137 67.5972 13.8443C67.4065 13.3603 67.1499 13.023 66.8272 12.8323C66.5045 12.6417 66.1305 12.5463 65.7052 12.5463C64.9425 12.5317 64.3485 12.803 63.9232 13.3603C63.5125 13.9177 63.3072 14.717 63.3072 15.7583V21.5003H60.8432V15.8683C60.8432 14.9883 60.7479 14.3137 60.5572 13.8443C60.3812 13.3603 60.1319 13.023 59.8092 12.8323C59.4865 12.6417 59.1125 12.5463 58.6872 12.5463C57.9245 12.5317 57.3305 12.803 56.9052 13.3603C56.4945 13.9177 56.2892 14.717 56.2892 15.7583V21.5003H53.8252Z" fill="#58585F"/>
<path d="M46.6018 21.7643C45.5018 21.7643 44.5191 21.5223 43.6538 21.0383C42.8031 20.5397 42.1358 19.8577 41.6518 18.9923C41.1678 18.127 40.9258 17.1297 40.9258 16.0003C40.9258 14.871 41.1604 13.8737 41.6298 13.0083C42.1138 12.143 42.7811 11.4683 43.6318 10.9843C44.4824 10.4857 45.4578 10.2363 46.5578 10.2363C47.6578 10.2363 48.6331 10.4857 49.4838 10.9843C50.3344 11.4683 50.9944 12.143 51.4638 13.0083C51.9478 13.8737 52.1898 14.871 52.1898 16.0003C52.1898 17.1297 51.9551 18.127 51.4858 18.9923C51.0164 19.8577 50.3564 20.5397 49.5058 21.0383C48.6551 21.5223 47.6871 21.7643 46.6018 21.7643ZM46.6018 19.4983C47.2031 19.4983 47.7384 19.3517 48.2078 19.0583C48.6771 18.7503 49.0438 18.3397 49.3078 17.8263C49.5718 17.2983 49.7038 16.6897 49.7038 16.0003C49.7038 15.311 49.5644 14.7097 49.2858 14.1963C49.0218 13.6683 48.6551 13.2577 48.1858 12.9643C47.7164 12.6563 47.1738 12.5023 46.5578 12.5023C45.9418 12.5023 45.3991 12.649 44.9298 12.9423C44.4604 13.2357 44.0938 13.6463 43.8298 14.1743C43.5658 14.7023 43.4338 15.311 43.4338 16.0003C43.4338 16.6897 43.5658 17.2983 43.8298 17.8263C44.1084 18.3397 44.4824 18.7503 44.9518 19.0583C45.4358 19.3517 45.9858 19.4983 46.6018 19.4983Z" fill="#58585F"/>
<defs>
<filter id="filter0_di_547_49" x="-0.000412643" y="3.16668" width="33.8524" height="26.1297" filterUnits="userSpaceOnUse" color-interpolation-filters="sRGB">
<feFlood flood-opacity="0" result="BackgroundImageFix"/>
<feColorMatrix in="SourceAlpha" type="matrix" values="0 0 0 0 0 0 0 0 0 0 0 0 0 0 0 0 0 0 127 0" result="hardAlpha"/>
<feOffset dy="0.231548"/>
<feGaussianBlur stdDeviation="0.463097"/>
<feComposite in2="hardAlpha" operator="out"/>
<feColorMatrix type="matrix" values="0 0 0 0 1 0 0 0 0 1 0 0 0 0 1 0 0 0 1 0"/>
<feBlend mode="normal" in2="BackgroundImageFix" result="effect1_dropShadow_547_49"/>
<feBlend mode="normal" in="SourceGraphic" in2="effect1_dropShadow_547_49" result="shape"/>
<feColorMatrix in="SourceAlpha" type="matrix" values="0 0 0 0 0 0 0 0 0 0 0 0 0 0 0 0 0 0 127 0" result="hardAlpha"/>
<feOffset dy="0.926194"/>
<feGaussianBlur stdDeviation="1.15774"/>
<feComposite in2="hardAlpha" operator="arithmetic" k2="-1" k3="1"/>
<feColorMatrix type="matrix" values="0 0 0 0 0.495192 0 0 0 0 0.495192 0 0 0 0 0.495192 0 0 0 1 0"/>
<feBlend mode="multiply" in2="shape" result="effect2_innerShadow_547_49"/>
</filter>
<linearGradient id="paint0_linear_547_49" x1="16.9258" y1="3.86133" x2="16.9258" y2="28.1387" gradientUnits="userSpaceOnUse">
<stop offset="0.0192308" stop-color="#1F2A56"/>
<stop offset="0.649038" stop-color="#949FAA"/>
<stop offset="0.884615" stop-color="#D2BCA2"/>
<stop offset="1" stop-color="#F1C39A"/>
</linearGradient>
<linearGradient id="paint1_linear_547_49" x1="16.9258" y1="3.86133" x2="16.9258" y2="28.1387" gradientUnits="userSpaceOnUse">
<stop offset="0.0192308" stop-color="#1F2A56"/>
<stop offset="0.649038" stop-color="#949FAA"/>
<stop offset="0.884615" stop-color="#D2BCA2"/>
<stop offset="1" stop-color="#F1C39A"/>
</linearGradient>
</defs>
</svg>
