<svg width="150" height="108" viewBox="0 0 150 108" fill="none" xmlns="http://www.w3.org/2000/svg">
<g filter="url(#filter0_f_563_866)">
<path d="M144 43.4309L133.317 35.6862L62.4173 11L9 68.6011L42.5072 78.2819L35.223 99.5798L47.8489 102L52.2194 85.0585L61.9317 91.3511L69.2158 86.0266L83.2986 92.3192L107.579 64.7287L144 43.4309Z" fill="url(#paint0_linear_563_866)" fill-opacity="0.7"/>
</g>
<path d="M143.487 36.6087L62.8064 83.1761L52.1463 77.0652L65.8618 41.8709C66.222 40.9173 66.3006 39.8803 66.0882 38.8833L65.1263 28.6419L57.9346 34.7585C57.2313 35.1338 56.6323 35.6783 56.1919 36.3428C56.0178 36.6038 55.8681 36.8803 55.7449 37.1689L41.5314 70.9373L0.848633 47.4386L81.5578 0.848633L143.487 36.6087Z" fill="white"/>
<path d="M137.891 25.145L132.872 30.4807L106.675 15.3506L137.891 25.145Z" fill="#E5E8EC"/>
<path d="M107.62 57.3179L83.4081 83.0516L70.2188 78.9154V78.9097L107.62 57.3179Z" fill="#E5E8EC"/>
<path d="M74.1225 5.1433L36.7158 26.7351L60.9331 1.00146L74.1225 5.1433Z" fill="#E5E8EC"/>
<path d="M66.0881 38.8719C66.3005 39.8689 66.222 40.9059 65.8618 41.8595L44.6604 96.2635C45.1237 94.9077 45.1293 93.4373 44.6766 92.0779C44.2238 90.7185 43.3375 89.5453 42.1538 88.738C39.2624 86.7011 35.4431 87.2782 33.6042 90.0281C33.4091 90.3199 33.2406 90.6285 33.1006 90.9504L55.7336 37.1688C55.8568 36.8803 56.0064 36.6037 56.1806 36.3427C56.621 35.6782 57.2199 35.1337 57.9233 34.7584C58.8297 34.2939 59.8475 34.0907 60.8627 34.1717C61.878 34.2526 62.8507 34.6145 63.6721 35.2167C64.9141 36.0824 65.7784 37.39 66.0881 38.8719Z" fill="#72738A"/>
<path d="M65.1264 28.6421L66.094 38.8722C65.7871 37.392 64.927 36.0847 63.6892 35.217C62.8679 34.6147 61.8951 34.2529 60.8799 34.1719C59.8646 34.091 58.8468 34.2941 57.9404 34.7587L65.1264 28.6421Z" fill="#E3D6C7"/>
<path d="M42.1543 88.7384C43.3381 89.5456 44.2243 90.7189 44.6771 92.0783C45.1299 93.4377 45.1242 94.908 44.6609 96.2639V96.3261C44.5121 96.7094 44.3224 97.0755 44.0951 97.4182C42.2618 100.162 38.4369 100.74 35.5342 98.6969C34.3192 97.8709 33.4188 96.6585 32.9792 95.2566C32.5397 93.8547 32.5866 92.3453 33.1125 90.9734C33.2524 90.6516 33.421 90.3429 33.6161 90.0511C35.4437 87.2786 39.263 86.7014 42.1543 88.7384ZM40.9378 95.2058C41.2865 94.6399 41.4018 93.9607 41.2593 93.3115C41.1168 92.6622 40.7276 92.0937 40.174 91.726C39.9173 91.528 39.6233 91.3839 39.3096 91.3021C38.996 91.2204 38.669 91.2028 38.3484 91.2503C38.0278 91.2979 37.72 91.4096 37.4436 91.5788C37.1671 91.748 36.9276 91.9713 36.7394 92.2352C36.3937 92.8034 36.2808 93.4831 36.4242 94.1325C36.5676 94.7819 36.9562 95.3509 37.5089 95.7207C37.7661 95.9167 38.06 96.0591 38.3732 96.1394C38.6864 96.2197 39.0125 96.2364 39.3323 96.1884C39.652 96.1404 39.9589 96.0287 40.2347 95.8599C40.5105 95.6911 40.7496 95.4687 40.9378 95.2058Z" fill="white"/>
<path d="M40.1734 91.7258C40.728 92.0927 41.1183 92.6607 41.2619 93.31C41.4054 93.9593 41.2911 94.639 40.9429 95.2056C40.7546 95.4693 40.5152 95.6924 40.2389 95.8617C39.9627 96.031 39.6552 96.143 39.3347 96.1911C39.0143 96.2391 38.6875 96.2222 38.3737 96.1413C38.06 96.0605 37.7656 95.9174 37.5083 95.7205C36.9531 95.3514 36.5623 94.7818 36.4178 94.131C36.2733 93.4802 36.3863 92.7987 36.7331 92.2293C36.9218 91.965 37.1619 91.7416 37.439 91.5724C37.7162 91.4032 38.0247 91.2917 38.346 91.2447C38.6673 91.1976 38.9948 91.216 39.3088 91.2987C39.6228 91.3813 39.9169 91.5266 40.1734 91.7258Z" fill="#586184"/>
<path d="M37.6552 68.6967L6.44434 58.9023L11.4575 53.5723L37.6552 68.6967Z" fill="#E5E8EC"/>
<path d="M106.675 15.3506L137.891 25.145L132.872 30.4807" stroke="#373A3A" stroke-opacity="0.2" stroke-width="1.69747" stroke-linecap="round" stroke-linejoin="round"/>
<path d="M107.62 57.3179L83.4081 83.0516L70.2188 78.9154" stroke="#373A3A" stroke-opacity="0.2" stroke-width="1.69747" stroke-linecap="round" stroke-linejoin="round"/>
<path d="M37.6552 68.6967L6.44434 58.9023L11.4575 53.5723" stroke="#373A3A" stroke-opacity="0.2" stroke-width="1.69747" stroke-linecap="round" stroke-linejoin="round"/>
<path d="M36.7158 26.7351L60.9331 1.00146L74.1225 5.1433" stroke="#373A3A" stroke-opacity="0.2" stroke-width="1.69747" stroke-linecap="round" stroke-linejoin="round"/>
<path d="M41.5314 70.9373L0.848633 47.4386L81.5578 0.848633L143.487 36.6087L62.7781 83.1987L52.1463 77.0652" stroke="#373A3A" stroke-opacity="0.2" stroke-width="1.69747" stroke-linecap="round" stroke-linejoin="round"/>
<path d="M103.608 29.3721L120.057 38.8666" stroke="#586184" stroke-width="1.69747" stroke-linecap="round" stroke-linejoin="round"/>
<path d="M97.6553 32.8066L114.098 42.3068" stroke="#586184" stroke-width="1.69747" stroke-linecap="round" stroke-linejoin="round"/>
<path d="M91.6973 36.2466L99.9244 40.9995" stroke="#586184" stroke-width="1.69747" stroke-linecap="round" stroke-linejoin="round"/>
<path d="M44.6375 96.3258C44.4887 96.7091 44.299 97.0753 44.0717 97.4179C42.2384 100.162 38.4134 100.739 35.5108 98.6966C34.2957 97.8706 33.3954 96.6583 32.9558 95.2563C32.5162 93.8544 32.5632 92.3451 33.089 90.9731" stroke="#373A3A" stroke-opacity="0.2" stroke-width="1.69747" stroke-linecap="round" stroke-linejoin="round"/>
<path d="M33.1006 90.9508C33.2406 90.6289 33.4091 90.3203 33.6042 90.0285C35.4431 87.2786 39.2624 86.7015 42.1538 88.7384C43.3375 89.5457 44.2238 90.7189 44.6766 92.0783C45.1293 93.4377 45.1237 94.9081 44.6604 96.2639" stroke="#373A3A" stroke-opacity="0.2" stroke-width="1.69747" stroke-linecap="round" stroke-linejoin="round"/>
<path d="M40.1734 91.7258C40.728 92.0927 41.1183 92.6607 41.2619 93.31C41.4054 93.9593 41.2911 94.639 40.9429 95.2056C40.7546 95.4693 40.5152 95.6924 40.2389 95.8617C39.9627 96.031 39.6552 96.143 39.3347 96.1911C39.0143 96.2391 38.6875 96.2222 38.3737 96.1413C38.06 96.0605 37.7656 95.9174 37.5083 95.7205C36.9531 95.3514 36.5623 94.7818 36.4178 94.131C36.2733 93.4802 36.3863 92.7987 36.7331 92.2293C36.9218 91.965 37.1619 91.7416 37.439 91.5724C37.7162 91.4032 38.0247 91.2917 38.346 91.2447C38.6673 91.1976 38.9948 91.216 39.3088 91.2987C39.6228 91.3813 39.9169 91.5266 40.1734 91.7258Z" stroke="#373A3A" stroke-opacity="0.2" stroke-width="1.69747" stroke-linecap="round" stroke-linejoin="round"/>
<path d="M57.9346 34.7587L65.1319 28.6421L66.0938 38.8722" stroke="#373A3A" stroke-opacity="0.2" stroke-width="1.69747" stroke-linecap="round" stroke-linejoin="round"/>
<path d="M33.0898 90.9734L55.7228 37.1918C55.846 36.9032 55.9957 36.6267 56.1698 36.3657C56.6119 35.7025 57.2104 35.1584 57.9125 34.7814C58.8193 34.3181 59.8368 34.1157 60.8518 34.1966C61.8668 34.2775 62.8394 34.6386 63.6613 35.2397C64.8962 36.1102 65.7555 37.4163 66.0661 38.8949C66.2756 39.8921 66.1971 40.9283 65.8397 41.8825L44.6383 96.3261" stroke="#373A3A" stroke-opacity="0.2" stroke-width="1.69747" stroke-linecap="round" stroke-linejoin="round"/>
<defs>
<filter id="filter0_f_563_866" x="3" y="5" width="147" height="103" filterUnits="userSpaceOnUse" color-interpolation-filters="sRGB">
<feFlood flood-opacity="0" result="BackgroundImageFix"/>
<feBlend mode="normal" in="SourceGraphic" in2="BackgroundImageFix" result="shape"/>
<feGaussianBlur stdDeviation="3" result="effect1_foregroundBlur_563_866"/>
</filter>
<linearGradient id="paint0_linear_563_866" x1="26.9676" y1="45.8511" x2="91.4285" y2="88.1539" gradientUnits="userSpaceOnUse">
<stop stop-color="#81879A" stop-opacity="0"/>
<stop offset="1" stop-color="#81879A"/>
</linearGradient>
</defs>
</svg>
