<svg width="132" height="126" viewBox="0 0 132 126" fill="none" xmlns="http://www.w3.org/2000/svg">
<path d="M105.994 94.6727V101.967C105.994 102.356 105.788 102.75 105.358 103.091L79.4309 123.656C78.3536 124.509 76.2813 124.698 74.7977 124.074L2.10217 93.5247C1.20731 93.1538 0.736328 92.571 0.736328 91.9823V84.688H0.742215C0.742215 85.2767 1.20731 85.8595 2.10217 86.2304L74.7977 116.785C76.2813 117.403 78.3536 117.215 79.4309 116.361L105.358 95.8031C105.788 95.4616 105.994 95.0672 105.994 94.6786V94.6727Z" fill="#E4E5E6"/>
<path d="M105.993 94.6666C105.993 95.0611 105.787 95.4555 105.357 95.797L79.4299 116.355C78.3526 117.215 76.2803 117.403 74.7967 116.779L2.10116 86.2302C1.2063 85.8593 0.741211 85.2765 0.741211 84.6878C0.741211 84.2933 0.947264 83.8989 1.37114 83.5574L27.2985 62.9933C28.3759 62.1397 30.4541 61.9513 31.9318 62.5753L104.627 93.1301C105.522 93.501 105.987 94.0779 105.993 94.6725V94.6666ZM88.7847 97.5632L92.6762 94.4782L87.3365 92.2352L83.4509 95.3142L88.7847 97.5632ZM81.0725 103.68L84.958 100.601L79.6183 98.352L75.7327 101.437L81.0725 103.68ZM77.9993 93.0241L81.8849 89.9451L76.5511 87.702L72.6596 90.7811L77.9993 93.0241ZM73.3543 109.803L77.2399 106.724L71.906 104.481L68.0146 107.56L73.3543 109.803ZM70.2812 99.1468L74.1667 96.0619L68.8329 93.8189L64.9415 96.8979L70.2812 99.1468ZM67.208 88.485L71.0995 85.406L65.7598 83.163L61.8683 86.242L67.208 88.485ZM62.563 105.27L66.4545 102.191L61.1148 99.9416L57.2233 103.026L62.563 105.27ZM59.4899 94.6078L63.3813 91.5287L58.0416 89.2857L54.1502 92.3647L59.4899 94.6078ZM56.4109 83.9519L60.3023 80.8729L54.9626 78.6239L51.0711 81.7088L56.4109 83.9519ZM51.7717 100.736L55.6632 97.6515L39.5263 90.8753L35.6407 93.9543L51.7717 100.736ZM48.6927 90.0746L52.5842 86.9956L47.2444 84.7525L43.3589 87.8316L48.6927 90.0746ZM45.6196 79.4187L49.511 76.3338L44.1713 74.0908L40.2857 77.1698L45.6196 79.4187ZM37.9073 85.5414L41.7929 82.4624L36.4531 80.2135L32.5676 83.2984L37.9073 85.5414ZM34.8283 74.8797L38.7138 71.8006L33.3741 69.5576L29.4886 72.6366L34.8283 74.8797ZM30.1891 91.6583L34.0747 88.5792L28.7409 86.3362L24.8494 89.4152L30.1891 91.6583ZM27.1101 81.0083L30.9957 77.9234L25.6619 75.6803L21.7704 78.7593L27.1101 81.0083ZM19.392 87.1251L23.2834 84.0461L17.9437 81.7971L14.0522 84.8821L19.392 87.1251Z" fill="white"/>
<path d="M92.6765 94.4725L88.785 97.5633L83.4512 95.3144L87.3367 92.2295L92.6765 94.4725Z" fill="#C9D0DA"/>
<path d="M84.9587 100.601L81.0731 103.68L75.7334 101.437L79.619 98.3521L84.9587 100.601Z" fill="#C9D0DA"/>
<path d="M81.8854 89.9393L77.9999 93.0242L72.6602 90.7812L76.5457 87.6963L81.8854 89.9393Z" fill="#C9D0DA"/>
<path d="M77.2409 106.718L73.3553 109.803L68.0156 107.56L71.9071 104.481L77.2409 106.718Z" fill="#C9D0DA"/>
<path d="M74.1667 96.0624L70.2811 99.1473L64.9414 96.8984L68.827 93.8193L74.1667 96.0624Z" fill="#C9D0DA"/>
<path d="M71.0945 85.4061L67.2089 88.4851L61.8633 86.248L65.7547 83.1631L71.0945 85.4061Z" fill="#C9D0DA"/>
<path d="M66.4548 102.184L62.5634 105.269L57.2236 103.026L61.1092 99.9355L66.4548 102.184Z" fill="#C9D0DA"/>
<path d="M63.3757 91.5287L59.4901 94.6077L54.1445 92.3647L58.036 89.2856L63.3757 91.5287Z" fill="#C9D0DA"/>
<path d="M60.3025 80.8729L56.411 83.952L51.0713 81.7089L54.9569 78.624L60.3025 80.8729Z" fill="white"/>
<path d="M55.6582 97.6458L51.7726 100.737L35.6416 93.9545L39.5213 90.8696L55.6582 97.6458Z" fill="#C9D0DA"/>
<path d="M52.5847 86.9896L48.6932 90.0745L43.3594 87.8315L47.2391 84.7524L52.5847 86.9896Z" fill="#C9D0DA"/>
<path d="M49.5056 76.3339L45.62 79.4188L40.2803 77.1698L44.1658 74.0908L49.5056 76.3339Z" fill="#C9D0DA"/>
<path d="M41.7878 82.4564L37.9081 85.5413L32.5625 83.2983L36.4481 80.2075L41.7878 82.4564Z" fill="#C9D0DA"/>
<path d="M38.7145 71.8007L34.829 74.8797L29.4893 72.6366L33.3748 69.5576L38.7145 71.8007Z" fill="#C9D0DA"/>
<path d="M34.069 88.5795L30.1894 91.6585L24.8438 89.4155L28.7352 86.3364L34.069 88.5795Z" fill="#C9D0DA"/>
<path d="M30.9968 77.9174L27.1112 81.0082L21.7715 78.7592L25.6629 75.6743L30.9968 77.9174Z" fill="#C9D0DA"/>
<path d="M23.2839 84.0463L19.3925 87.1253L14.0527 84.8823L17.9442 81.7974L23.2839 84.0463Z" fill="#C9D0DA"/>
<path d="M105.993 94.6725C105.993 95.0611 105.787 95.4555 105.357 95.797L79.4299 116.355C78.3526 117.215 76.2803 117.403 74.7967 116.779L2.10116 86.2302C1.2063 85.8593 0.741211 85.2765 0.741211 84.6878C0.741211 84.2933 0.947264 83.8989 1.37114 83.5574L27.2985 62.9933C28.3759 62.1397 30.4541 61.9513 31.9318 62.5753L104.627 93.1301C105.522 93.501 105.987 94.0779 105.993 94.6725Z" stroke="#373A3A" stroke-opacity="0.2" stroke-linecap="round" stroke-linejoin="round"/>
<path d="M34.829 74.8797L29.4893 72.6366L33.3748 69.5576L38.7145 71.8007L34.829 74.8797Z" stroke="#373A3A" stroke-opacity="0.2" stroke-linecap="round" stroke-linejoin="round"/>
<path d="M45.62 79.4188L40.2803 77.1698L44.1658 74.0908L49.5056 76.3339L45.62 79.4188Z" stroke="#373A3A" stroke-opacity="0.2" stroke-linecap="round" stroke-linejoin="round"/>
<path d="M56.411 83.952L51.0713 81.7089L54.9569 78.624L60.3025 80.8729L56.411 83.952Z" stroke="#373A3A" stroke-opacity="0.2" stroke-linecap="round" stroke-linejoin="round"/>
<path d="M67.2089 88.4851L61.8633 86.248L65.7547 83.1631L71.0945 85.4061L67.2089 88.4851Z" stroke="#373A3A" stroke-opacity="0.2" stroke-linecap="round" stroke-linejoin="round"/>
<path d="M77.9999 93.0242L72.6602 90.7812L76.5457 87.6963L81.8854 89.9393L77.9999 93.0242Z" stroke="#373A3A" stroke-opacity="0.2" stroke-linecap="round" stroke-linejoin="round"/>
<path d="M88.785 97.5633L83.4512 95.3144L87.3367 92.2295L92.6765 94.4725L88.785 97.5633Z" stroke="#373A3A" stroke-opacity="0.2" stroke-linecap="round" stroke-linejoin="round"/>
<path d="M27.1112 81.0082L21.7715 78.7592L25.6629 75.6743L30.9968 77.9174L27.1112 81.0082Z" stroke="#373A3A" stroke-opacity="0.2" stroke-linecap="round" stroke-linejoin="round"/>
<path d="M37.9081 85.5413L32.5625 83.2983L36.4481 80.2075L41.7878 82.4564L37.9081 85.5413Z" stroke="#373A3A" stroke-opacity="0.2" stroke-linecap="round" stroke-linejoin="round"/>
<path d="M48.6932 90.0745L43.3594 87.8315L47.2391 84.7524L52.5847 86.9896L48.6932 90.0745Z" stroke="#373A3A" stroke-opacity="0.2" stroke-linecap="round" stroke-linejoin="round"/>
<path d="M59.4901 94.6077L54.1445 92.3647L58.036 89.2856L63.3757 91.5287L59.4901 94.6077Z" stroke="#373A3A" stroke-opacity="0.2" stroke-linecap="round" stroke-linejoin="round"/>
<path d="M70.2811 99.1473L64.9414 96.8984L68.827 93.8193L74.1667 96.0624L70.2811 99.1473Z" stroke="#373A3A" stroke-opacity="0.2" stroke-linecap="round" stroke-linejoin="round"/>
<path d="M81.0731 103.68L75.7334 101.437L79.619 98.3521L84.9587 100.601L81.0731 103.68Z" stroke="#373A3A" stroke-opacity="0.2" stroke-linecap="round" stroke-linejoin="round"/>
<path d="M19.3925 87.1253L14.0527 84.8823L17.9442 81.7974L23.2839 84.0463L19.3925 87.1253Z" stroke="#373A3A" stroke-opacity="0.2" stroke-linecap="round" stroke-linejoin="round"/>
<path d="M30.1894 91.6585L24.8438 89.4155L28.7352 86.3364L34.069 88.5795L30.1894 91.6585Z" stroke="#373A3A" stroke-opacity="0.2" stroke-linecap="round" stroke-linejoin="round"/>
<path d="M51.7726 100.737L35.6416 93.9545L39.5213 90.8696L55.6582 97.6458L51.7726 100.737Z" stroke="#373A3A" stroke-opacity="0.2" stroke-linecap="round" stroke-linejoin="round"/>
<path d="M62.5634 105.269L57.2236 103.026L61.1092 99.9355L66.4548 102.184L62.5634 105.269Z" stroke="#373A3A" stroke-opacity="0.2" stroke-linecap="round" stroke-linejoin="round"/>
<path d="M73.3553 109.803L68.0156 107.56L71.9071 104.481L77.2409 106.718L73.3553 109.803Z" stroke="#373A3A" stroke-opacity="0.2" stroke-linecap="round" stroke-linejoin="round"/>
<path d="M105.994 94.6669V101.967C105.994 102.356 105.788 102.75 105.358 103.091L79.4309 123.656C78.3536 124.509 76.2813 124.698 74.7977 124.074L2.10217 93.5248C1.20731 93.1539 0.736328 92.571 0.736328 91.9823V84.6821" stroke="#373A3A" stroke-opacity="0.2" stroke-linecap="round" stroke-linejoin="round"/>
<path d="M122.619 32.9217C122.619 36.3186 121.412 38.9973 119.398 40.681L112.139 46.7743H112.133C114.147 45.0906 115.354 42.4178 115.354 39.0091C115.354 31.3439 109.213 22.8957 101.648 20.1464C97.4389 18.6157 93.6769 19.1632 91.1631 21.2708L98.422 15.1834C100.936 13.0758 104.698 12.5224 108.913 14.0531C116.478 16.8083 122.619 25.2565 122.619 32.9217Z" fill="#77818B"/>
<path d="M115.36 39.0149C115.36 42.4237 114.153 45.0965 112.14 46.7743C111.604 47.2217 111.021 47.5985 110.385 47.9047C110.574 46.6919 110.697 45.4674 110.697 44.231C110.697 33.8931 96.0793 24.9386 89.3207 24.9386C89.1441 24.9386 88.9086 24.9621 88.6143 25.0092C89.1677 23.4786 90.0448 22.2128 91.1752 21.265C93.6832 19.1573 97.4451 18.6098 101.66 20.1405C109.225 22.8957 115.366 31.3439 115.366 39.0032L115.36 39.0149Z" fill="#B9BFC5"/>
<path d="M110.691 44.2368C110.691 45.4731 110.568 46.6918 110.379 47.9104C110.091 49.7531 109.643 51.5841 109.19 53.415C108.69 55.4225 108.118 57.4654 107.294 59.208C106.388 54.7043 102.473 52.2316 94.8899 52.2316C90.7688 52.2316 87.107 52.5025 83.5982 53.8212C81.3257 48.8759 77.1811 47.7338 73.1542 49.1997C72.0651 45.3024 69.5042 43.1889 65.4773 43.6481C64.3646 39.58 61.7507 37.1898 58.3537 38.9324L58.3066 38.8735C65.3419 32.8273 83.9337 25.8098 88.6082 25.015C88.9026 24.9679 89.1381 24.9443 89.3147 24.9443C96.0732 24.9443 110.691 33.8988 110.691 44.2368Z" fill="#E6E8EB"/>
<path d="M107.295 59.2023C106.388 61.1333 105.169 62.7169 103.403 63.5058H103.368C103.327 63.2115 103.238 62.9171 103.115 62.6169C103.392 61.9222 103.55 61.1686 103.55 60.3738C103.55 57.0887 100.884 54.4218 97.5926 54.4218C94.6196 54.4218 92.1587 56.6001 91.7113 59.4495L91.7525 59.4966C91.2226 59.9558 90.8517 60.5387 90.6928 61.198C90.6928 61.198 90.6045 61.5513 90.4632 62.1341C90.0334 62.1164 89.5801 62.1047 89.1032 62.1047C86.8367 62.1047 84.5465 62.3048 82.2682 62.3048C81.3498 62.3048 80.449 62.2577 79.5777 62.1753C79.7955 61.9104 80.0075 61.6396 80.2194 61.3746C80.2429 61.1686 80.2547 60.9567 80.2547 60.7506C80.2547 60.2914 80.2076 59.8263 80.1193 59.3789C80.7316 58.5429 81.0966 57.5009 81.0966 56.3764C81.0966 53.5682 78.8241 51.2957 76.0159 51.2957C74.2497 51.2957 72.6955 52.1965 71.783 53.5623C71.4592 53.6624 71.1531 53.7742 70.841 53.9096C69.693 55.1047 68.3802 56.5412 67.0085 57.9777C67.7502 57.1358 68.4744 56.2763 69.1632 55.3932C69.1867 55.1872 69.1985 54.9752 69.1985 54.7692C69.1985 54.5513 69.1867 54.3276 69.1632 54.1039H69.1691C69.9815 53.1973 70.476 52.0081 70.476 50.6952C70.476 47.887 68.2036 45.6145 65.3954 45.6145C64.4181 45.6145 63.4997 45.8912 62.7226 46.374C62.7579 46.1326 62.7755 45.8736 62.7755 45.6145C62.7755 42.8063 60.5031 40.5339 57.6949 40.5339C57.3004 40.5339 56.9177 40.5751 56.5527 40.6693C57.0002 40.0864 57.5948 39.4859 58.3012 38.8737L58.3483 38.9325C61.7453 37.1899 64.3592 39.5801 65.4719 43.6482C69.4929 43.189 72.0597 45.3025 73.1488 49.1999C77.1698 47.728 81.3144 48.8702 83.5928 53.8213C87.1016 52.5026 90.7634 52.2318 94.8845 52.2318C102.467 52.2318 106.382 54.7044 107.289 59.2081L107.295 59.2023Z" fill="#B9BFC5"/>
<path d="M90.4632 62.14C90.6045 61.5572 90.6928 61.204 90.6928 61.204C90.8518 60.5387 91.2227 59.9618 91.7525 59.5026C94.3547 57.2065 100.678 57.5186 103.068 62.5345C103.08 62.5639 103.091 62.5875 103.109 62.6169C103.239 62.9172 103.321 63.2115 103.362 63.5118C103.386 63.6825 103.397 63.8532 103.397 64.024C103.397 74.8565 86.7072 88.1263 82.8216 88.1263C80.3431 88.1263 79.248 85.5771 79.248 83.1339C79.248 77.8119 83.428 74.9153 88.4262 71.3241C88.5911 69.8641 89.9216 64.3536 90.4632 62.1342V62.14Z" fill="#E6E8EB"/>
<path d="M103.55 60.3738C103.55 61.1686 103.391 61.9222 103.114 62.6169C103.097 62.5874 103.085 62.5639 103.073 62.5345C100.683 57.5185 94.3602 57.2065 91.758 59.5025L91.7168 59.4554C92.1642 56.606 94.6251 54.4277 97.5981 54.4277C100.883 54.4277 103.556 57.0888 103.556 60.3797L103.55 60.3738Z" fill="#657583"/>
<path d="M81.0958 56.3766C81.0958 57.501 80.7308 58.5431 80.1185 59.3791C79.5004 56.1823 76.7687 53.3211 73.3364 53.3211C72.8125 53.3211 72.2944 53.4094 71.7881 53.5625C72.7006 52.1966 74.2489 51.2959 76.021 51.2959C78.8292 51.2959 81.1017 53.5684 81.1017 56.3766H81.0958Z" fill="#657583"/>
<path d="M63.5408 61.6218C64.7006 60.4797 65.8309 59.3023 66.9083 58.0836C66.9436 58.0483 66.9789 58.013 67.0143 57.9717C68.386 56.5353 69.6988 55.1047 70.8468 53.9037C71.1589 53.7683 71.465 53.6564 71.7888 53.5563C72.301 53.4033 72.8132 53.3149 73.3371 53.3149C76.7694 53.3149 79.507 56.1761 80.1192 59.3729C80.2075 59.8203 80.2546 60.2854 80.2546 60.7387C80.2546 60.9507 80.2429 61.1626 80.2193 61.3687C80.0074 61.6336 79.7954 61.9044 79.5776 62.1693C77.4464 64.7715 75.1033 67.1794 72.6425 69.4813C71.8124 70.2525 71.1648 71.1945 70.7173 72.2365C68.7863 76.7108 65.1421 83.122 60.7208 88.3793C58.99 90.4339 56.0993 91.2228 53.6032 90.2161C53.5148 90.1867 53.4265 90.1513 53.3441 90.1101C51.0834 89.1387 50.2121 86.413 51.472 84.3171C51.9606 83.5105 52.4375 82.6746 52.9143 81.8445C55.6872 76.9404 58.1716 71.742 59.8789 67.6562C60.1144 67.0911 60.3381 66.5553 60.5442 66.0372C61.1741 64.4477 62.0984 62.9935 63.2818 61.7455C63.2818 61.7455 63.2876 61.7455 63.2876 61.7396C63.376 61.6984 63.4643 61.6571 63.5526 61.6101L63.5408 61.6218Z" fill="#E6E8EB"/>
<path d="M70.4822 50.6954C70.4822 52.0083 69.9877 53.1975 69.1752 54.1041H69.1693C68.8455 50.6954 66.0785 47.4516 62.4814 47.3397C62.5933 47.0277 62.6757 46.7098 62.7228 46.3742C63.4999 45.8914 64.4183 45.6147 65.3956 45.6147C68.2038 45.6147 70.4763 47.8872 70.4763 50.6954H70.4822Z" fill="#657583"/>
<path d="M69.169 54.1037C69.1925 54.3216 69.2043 54.5453 69.2043 54.769C69.2043 54.975 69.1925 55.187 69.169 55.393C68.4743 56.2761 67.7443 57.1239 67.0142 57.9775C66.9848 58.0128 66.9495 58.0482 66.9083 58.0894C65.8721 59.155 64.8183 60.2559 63.788 61.239C63.6114 61.4098 63.4407 61.5805 63.27 61.7571C63.27 61.763 63.2641 61.763 63.2641 61.763C62.1043 62.3105 60.9268 62.8168 59.7317 63.2819C59.7612 64.742 59.8318 66.2079 59.8671 67.6679C58.1598 71.7595 55.6754 76.9521 52.9025 81.8561C52.3021 82.0033 51.6898 82.074 51.0716 82.074C50.842 82.074 50.6183 82.0681 50.3828 82.0445C47.8984 81.809 46.1028 79.5601 46.3206 77.0757C46.6444 73.4609 46.8681 70.5821 47.1507 68.1801C47.7807 62.9051 48.7403 59.885 51.7369 56.3056C52.096 55.8758 52.4963 55.4813 52.9025 55.0928C55.2928 52.8085 57.7831 50.018 59.7847 47.9339C60.0143 47.8338 60.2439 47.7455 60.4853 47.669C60.8268 47.5571 61.18 47.4629 61.5332 47.4099C61.7805 47.3687 62.0336 47.3511 62.2809 47.3511C62.3457 47.3511 62.4104 47.3511 62.4752 47.357C66.0664 47.4688 68.8098 50.7127 69.1631 54.1214L69.169 54.1037Z" fill="#E6E8EB"/>
<path d="M63.7876 61.2332C64.8178 60.25 65.8834 59.1667 66.9078 58.0835C65.8304 59.2963 64.7001 60.4796 63.5403 61.6217C63.452 61.6629 63.3637 61.7041 63.2754 61.7512C63.4461 61.5746 63.6168 61.4039 63.7935 61.2332H63.7876Z" fill="white"/>
<path d="M62.7807 45.6144C62.7807 45.8734 62.763 46.1325 62.7277 46.3739C62.2862 46.6506 61.8741 46.9979 61.5444 47.3923C61.1911 47.4453 60.8379 47.5395 60.4965 47.6514C60.2727 44.9197 58.8775 42.5118 56.5873 41.1754C56.4931 41.1166 56.3931 41.0636 56.293 41.0165C56.3754 40.8987 56.4637 40.781 56.552 40.6632C56.917 40.5749 57.2997 40.5278 57.6941 40.5278C60.5023 40.5278 62.7748 42.8003 62.7748 45.6085L62.7807 45.6144Z" fill="#657583"/>
<path d="M62.7283 46.374C62.6812 46.7096 62.5928 47.0275 62.4869 47.3336H62.2926C62.0453 47.3336 61.7922 47.3513 61.5449 47.3925C61.8805 46.9981 62.2867 46.6507 62.7283 46.374Z" fill="white"/>
<path d="M63.2697 61.7573C62.0922 63.0054 61.1679 64.4596 60.5321 66.0491C60.3261 66.5672 60.1082 67.1029 59.8669 67.6681C59.8315 66.2022 59.7609 64.7363 59.7314 63.2821C60.9207 62.817 62.104 62.3107 63.2638 61.7632L63.2697 61.7573Z" fill="white"/>
<path d="M56.2929 41.0162C56.393 41.0633 56.4872 41.1163 56.5873 41.1752C58.8774 42.5116 60.2727 44.9253 60.4964 47.6511C60.2609 47.7277 60.0313 47.8218 59.7958 47.916C57.7942 50.0001 55.3039 52.7907 52.9136 55.0749C52.5074 55.4635 52.1071 55.8579 51.748 56.2877C48.7455 59.8671 47.7918 62.8873 47.1618 68.1622C45.9903 69.6046 44.5832 70.1992 43.3528 70.1992C40.3738 70.1992 38.9668 66.8611 38.9668 63.4819C38.9668 60.8267 39.8381 55.3575 41.5395 50.4652C42.1812 48.6166 43.4117 47.0153 45.013 45.9026C47.7211 44.0246 50.5882 42.3938 53.573 40.9985C54.3089 40.6512 55.1449 40.6159 55.9044 40.8573C56.0398 40.8985 56.1752 40.9456 56.2988 41.0103L56.2929 41.0162Z" fill="#E6E8EB"/>
<path d="M56.5578 40.6694C56.4695 40.7872 56.3812 40.9049 56.2987 41.0227C56.1692 40.9638 56.0397 40.9108 55.9043 40.8696C56.1162 40.7872 56.3341 40.7165 56.5578 40.6694Z" fill="white"/>
<path d="M58.3545 38.9325C61.7514 37.1899 64.3654 39.5801 65.478 43.6482C69.499 43.189 72.0659 45.3025 73.155 49.1999C77.176 47.728 81.3206 48.8702 83.5989 53.8213C87.1077 52.5026 90.7696 52.2318 94.8906 52.2318C102.473 52.2318 106.388 54.7044 107.295 59.2081" stroke="#373A3A" stroke-opacity="0.2" stroke-linecap="round" stroke-linejoin="round"/>
<path d="M90.4695 62.1398H90.4636C90.0338 62.1221 89.5805 62.1104 89.1037 62.1104C86.8371 62.1104 84.547 62.3105 82.2686 62.3105C81.3502 62.3105 80.4494 62.2634 79.5781 62.181" stroke="#373A3A" stroke-opacity="0.2" stroke-linecap="round" stroke-linejoin="round"/>
<path d="M69.1748 54.1041C69.9872 53.1975 70.4817 52.0083 70.4817 50.6954C70.4817 47.8872 68.2093 45.6147 65.4011 45.6147C64.4238 45.6147 63.5054 45.8914 62.7283 46.3742C62.2808 46.6509 61.8746 46.9982 61.5449 47.3927" stroke="#373A3A" stroke-opacity="0.2" stroke-linecap="round" stroke-linejoin="round"/>
<path d="M62.4804 47.3334C62.5922 47.0273 62.6747 46.7094 62.7218 46.3738C62.7571 46.1324 62.7747 45.8734 62.7747 45.6144C62.7747 42.8062 60.5023 40.5337 57.6941 40.5337C57.2996 40.5337 56.917 40.5808 56.5519 40.6691C56.3282 40.7221 56.1104 40.7868 55.8985 40.8693H55.8926" stroke="#373A3A" stroke-opacity="0.2" stroke-linecap="round" stroke-linejoin="round"/>
<path d="M56.2939 41.0283C56.3764 40.9046 56.4647 40.7869 56.553 40.6691C57.0063 40.0863 57.595 39.4858 58.3015 38.8735C65.3485 32.8332 83.9286 25.8098 88.6031 25.015C88.8974 24.9679 89.1329 24.9443 89.3095 24.9443C96.0681 24.9443 110.686 33.8988 110.686 44.2368C110.686 45.4731 110.562 46.6918 110.374 47.9104C110.091 49.7531 109.638 51.5841 109.185 53.415C108.684 55.4225 108.113 57.4595 107.289 59.208C106.377 61.139 105.164 62.7227 103.398 63.5116" stroke="#373A3A" stroke-opacity="0.2" stroke-linecap="round" stroke-linejoin="round"/>
<path d="M103.114 62.6169C103.391 61.9222 103.55 61.1686 103.55 60.3739C103.55 57.0888 100.883 54.4219 97.5923 54.4219C94.6192 54.4219 92.1584 56.6002 91.7109 59.4496" stroke="#373A3A" stroke-opacity="0.2" stroke-linecap="round" stroke-linejoin="round"/>
<path d="M80.1195 59.3791C80.7318 58.5431 81.0968 57.501 81.0968 56.3766C81.0968 53.5684 78.8243 51.2959 76.0161 51.2959C74.2499 51.2959 72.6957 52.1966 71.7832 53.5625" stroke="#373A3A" stroke-opacity="0.2" stroke-linecap="round" stroke-linejoin="round"/>
<path d="M103.368 63.5117C103.392 63.6824 103.403 63.8531 103.403 64.0239C103.403 74.8564 86.713 88.1262 82.8275 88.1262C80.3489 88.1262 79.2539 85.577 79.2539 83.1338C79.2539 77.8117 83.4338 74.9152 88.4321 71.324C88.5969 69.864 89.9333 64.3535 90.4691 62.1341C90.6104 61.5512 90.6987 61.198 90.6987 61.198C90.8576 60.5327 91.2285 59.9617 91.7584 59.4966C94.3664 57.2064 100.683 57.5126 103.074 62.5285C103.085 62.5579 103.097 62.5815 103.115 62.6109C103.244 62.9112 103.327 63.2055 103.368 63.5058V63.5117Z" stroke="#373A3A" stroke-opacity="0.2" stroke-linecap="round" stroke-linejoin="round"/>
<path d="M63.2754 61.7512C63.4461 61.5746 63.6168 61.4039 63.7935 61.2332C64.8237 60.25 65.8893 59.1667 66.9137 58.0835" stroke="#373A3A" stroke-opacity="0.2" stroke-linecap="round" stroke-linejoin="round"/>
<path d="M67.0143 57.9776C68.386 56.5411 69.6988 55.1105 70.8468 53.9095C71.1589 53.7741 71.465 53.6623 71.7888 53.5622C72.301 53.4091 72.8132 53.3208 73.3371 53.3208C76.7694 53.3208 79.507 56.182 80.1192 59.3788C80.2075 59.8262 80.2546 60.2913 80.2546 60.7446C80.2546 60.9565 80.2429 61.1685 80.2193 61.3745C80.0074 61.6395 79.7954 61.9103 79.5776 62.1752C77.4464 64.7774 75.1033 67.1852 72.6425 69.4871C71.8124 70.2584 71.1648 71.2003 70.7173 72.2424C68.7863 76.7167 65.1421 83.1278 60.7208 88.3851C58.99 90.4398 56.0993 91.2287 53.6032 90.222C53.5148 90.1925 53.4265 90.1572 53.3441 90.116C51.0834 89.1446 50.2121 86.4188 51.472 84.323C51.9606 83.5164 52.4375 82.6804 52.9143 81.8503C55.6931 76.9521 58.1658 71.7478 59.8789 67.6621C60.1144 67.0969 60.3381 66.5612 60.5442 66.0431C61.1741 64.4536 62.0984 62.9994 63.2818 61.7513" stroke="#373A3A" stroke-opacity="0.2" stroke-linecap="round" stroke-linejoin="round"/>
<path d="M63.1404 62.0222C63.2758 61.8868 63.4053 61.7572 63.5407 61.6218C64.6829 60.462 65.8309 59.3023 66.9082 58.0836C66.9436 58.0483 66.9789 58.013 67.0142 57.9717C67.7442 57.1181 68.4801 56.2703 69.1689 55.3873C69.1925 55.1812 69.2043 54.9693 69.2043 54.7632C69.2043 54.5454 69.1925 54.3217 69.1689 54.098C68.8216 50.6892 66.0781 47.4454 62.481 47.3335C62.4163 47.3276 62.3515 47.3276 62.2868 47.3276C62.0395 47.3276 61.7863 47.3453 61.5391 47.3865C61.1859 47.4454 60.8326 47.5337 60.4912 47.6455C60.2557 47.728 60.0261 47.8163 59.7906 47.9105C57.7889 49.9946 55.2986 52.7851 52.9084 55.0693C52.5022 55.4579 52.1019 55.8523 51.7427 56.2821C48.7402 59.8615 47.7806 62.8817 47.1566 68.1567C46.8681 70.5645 46.6444 73.4375 46.3265 77.0523C46.1087 79.5367 47.9043 81.7856 50.3887 82.0211C50.6183 82.0446 50.842 82.0505 51.0775 82.0505C51.6898 82.0505 52.3079 81.9799 52.9084 81.8327" stroke="#373A3A" stroke-opacity="0.2" stroke-linecap="round" stroke-linejoin="round"/>
<path d="M59.8727 67.6619C59.8374 66.196 59.7667 64.7301 59.7373 63.2759C60.9265 62.8108 62.1099 62.3045 63.2696 61.757C63.2696 61.757 63.2755 61.757 63.2755 61.7511C63.3638 61.7099 63.4521 61.6687 63.5405 61.6216C63.5463 61.6216 63.5522 61.6157 63.5581 61.6157" stroke="#373A3A" stroke-opacity="0.2" stroke-linecap="round" stroke-linejoin="round"/>
<path d="M60.4974 47.6575C60.2737 44.9258 58.8784 42.5179 56.5883 41.1815C56.4941 41.1227 56.394 41.0697 56.2939 41.0226C56.1644 40.9578 56.0349 40.9166 55.8995 40.8695C55.14 40.6222 54.2981 40.6635 53.5681 41.0108C50.5833 42.4061 47.7221 44.0368 45.0081 45.9149C43.4009 47.0275 42.1763 48.6289 41.5346 50.4775C39.8332 55.3698 38.9619 60.839 38.9619 63.4941C38.9619 66.8734 40.369 70.2115 43.3479 70.2115C44.5842 70.2115 45.9854 69.6169 47.1569 68.1745" stroke="#373A3A" stroke-opacity="0.2" stroke-linecap="round" stroke-linejoin="round"/>
<path d="M88.6084 25.0151C89.1618 23.4844 90.039 22.2187 91.1693 21.2708C93.6832 19.1632 97.4392 18.6157 101.655 20.1464C109.22 22.9016 115.36 31.3497 115.36 39.009C115.36 42.4177 114.147 45.0905 112.14 46.7684C111.604 47.2158 111.021 47.5926 110.385 47.8988" stroke="#373A3A" stroke-opacity="0.2" stroke-linecap="round" stroke-linejoin="round"/>
<path d="M91.1689 21.2708L98.4279 15.1834C100.942 13.0758 104.704 12.5224 108.919 14.0531C116.484 16.8083 122.624 25.2565 122.624 32.9217C122.624 36.3186 121.418 38.9973 119.404 40.681L112.145 46.7743" stroke="#373A3A" stroke-opacity="0.2" stroke-linecap="round" stroke-linejoin="round"/>
</svg>
