<svg width="118" height="125" viewBox="0 0 118 125" fill="none" xmlns="http://www.w3.org/2000/svg">
<g clip-path="url(#clip0_563_998)">
<path d="M98.3306 108.783C94.2377 112.54 89.3548 115.332 84.0409 116.954C61.6044 125.822 48.3436 114.358 28.7508 105.856C27.2846 105.224 25.913 104.579 24.6123 103.929C24.6596 103.657 24.7069 103.385 24.7601 103.119C29.2001 95.8118 35.5024 90.9284 41.9053 87.0559C44.5347 90.6445 46.6666 94.5722 48.2431 98.7324C57.4364 93.3642 66.8603 87.4993 70.7978 73.5645C71.9712 75.1478 73.3133 76.5989 74.8003 77.8921C84.4785 86.4292 97.0535 86.9377 98.3306 108.783Z" fill="white"/>
<path d="M89.2727 61.5748C89.2727 68.9768 81.2322 71.921 74.8294 77.9041C73.3423 76.6108 72.0003 75.1597 70.8269 73.5764C69.4067 71.6481 68.2274 69.5535 67.3151 67.3391C65.5414 63.1652 64.3117 57.8265 63.7973 50.7852C63.4434 50.8408 63.0856 50.8685 62.7272 50.868C54.1901 50.868 48.0002 33.6341 45.9959 22.3597C44.5534 22.6788 43.0807 22.8414 41.6032 22.8445C39.2384 22.8445 38.1446 22.6435 33.6514 22.6435C24.3635 22.6435 20.0536 23.2761 16.9674 24.5708C15.8372 27.1862 15.2345 29.999 15.1938 32.8478C15.1938 46.1324 16.8019 62.1306 25.3449 68.8172C21.9256 70.1893 18.7357 72.0753 15.8855 74.41V74.2859C15.8855 66.6001 0.916016 66.677 0.916016 58.0335C0.916016 51.1577 11.9835 46.8004 11.9835 39.3157C11.9835 34.3613 8.14654 29.7558 8.14654 24.3994C8.14654 7.88092 36.3237 0.869141 51.8962 0.869141C66.1977 0.869141 80.1798 21.5616 80.1798 30.0987C80.1798 33.3622 78.1579 37.0099 78.1579 40.575C78.1224 48.1779 89.2727 54.226 89.2727 61.5748Z" fill="#373A3A"/>
<path d="M70.8036 73.5766C66.8602 87.4997 57.4363 93.3763 48.2429 98.7327C46.6744 94.5633 44.5484 90.6255 41.9229 87.0267C53.4988 80.0268 65.4117 76.2844 67.2859 67.3394C68.2 69.554 69.3813 71.6486 70.8036 73.5766Z" fill="white"/>
<path d="M34.0541 71.992C32.2908 71.9104 30.553 71.5389 28.9105 70.8923C27.6356 70.38 26.441 69.6871 25.3632 68.8349C16.7966 62.1483 15.1885 46.1501 15.1885 32.8655C15.2292 30.0167 15.8319 27.2039 16.9621 24.5886C20.0601 23.2938 24.3582 22.6612 33.6461 22.6612C38.1393 22.6612 39.2449 22.8622 41.5979 22.8622C43.0753 22.8591 44.5481 22.6966 45.9906 22.3774C47.9948 33.6519 54.1848 50.8857 62.7219 50.8857C63.0803 50.8862 63.4381 50.8585 63.792 50.8029C64.3064 57.8265 65.5657 63.1652 67.3097 67.3569C65.4356 76.3019 53.5227 80.0443 41.9467 87.0442C35.538 90.9167 29.2357 95.8001 24.8016 103.107C26.3315 95.291 29.0007 87.7415 32.7238 80.7005C32.7391 80.662 32.7569 80.6245 32.777 80.5882H32.7297C32.902 77.6877 33.3454 74.8098 34.0541 71.992Z" fill="#EEDED3"/>
<path d="M34.0546 71.9922C33.3356 74.811 32.8823 77.6909 32.7007 80.5943C28.9927 82.248 25.4842 84.3166 22.2422 86.7607C24.1814 80.884 25.9787 75.7346 28.9111 70.8984C30.5539 71.543 32.2917 71.9125 34.0546 71.9922Z" fill="white"/>
<path d="M32.7475 80.5703C32.7274 80.6066 32.7096 80.6441 32.6943 80.6826C32.6943 80.6531 32.6943 80.6176 32.6943 80.594L32.7475 80.5703Z" fill="white"/>
<path d="M32.7001 80.5941C32.7001 80.5941 32.7001 80.6532 32.7001 80.6828C28.9769 87.7237 26.3077 95.2732 24.7778 103.09C24.6359 103.314 24.5059 103.539 24.3699 103.77C13.8404 98.4487 8.99835 92.773 7.43164 87.2156C8.94347 82.2295 11.8726 77.7906 15.8623 74.4396C18.7125 72.1048 21.9024 70.2188 25.3217 68.8467C26.3995 69.6989 27.5941 70.3918 28.869 70.9041C25.9129 75.7402 24.1393 80.8897 22.2001 86.7663C25.4548 84.3175 28.9774 82.2468 32.7001 80.5941Z" fill="white"/>
<path d="M24.7722 103.089C24.719 103.355 24.6717 103.627 24.6244 103.899L24.3643 103.769C24.5002 103.539 24.6303 103.314 24.7722 103.089Z" fill="white"/>
<path d="M15.8562 74.4281V74.3039C15.8562 66.6182 0.886719 66.695 0.886719 58.0515C0.886719 51.1757 11.9542 46.8185 11.9542 39.3337C11.9542 34.3794 8.11724 29.7738 8.11724 24.4175C8.11724 7.89898 36.2944 0.887207 51.867 0.887207C66.1684 0.887207 80.1506 21.5796 80.1506 30.1167C80.1506 33.3802 78.1286 37.028 78.1286 40.593C78.1286 48.1783 89.2552 54.2264 89.2552 61.5751C89.2552 68.9239 81.2147 71.9214 74.8119 77.9044" stroke="#373A3A" stroke-width="1.77364" stroke-linecap="round" stroke-linejoin="round"/>
<path d="M52.1036 63.7032C47.4626 68.4329 41.6983 72.0156 35.0767 72.0156C34.7338 72.0156 34.3909 72.0156 34.0539 72.0156C32.2915 71.9277 30.5547 71.5564 28.9104 70.916C27.6355 70.4037 26.4408 69.7108 25.3631 68.8585C16.8024 62.1424 15.1883 46.1501 15.1883 32.8655C15.229 30.0167 15.8318 27.2039 16.962 24.5886C20.0599 23.2938 24.358 22.6612 33.646 22.6612C38.1392 22.6612 39.2448 22.8622 41.5978 22.8622C43.0752 22.8591 44.548 22.6966 45.9905 22.3774C47.9947 33.6519 54.1847 50.8857 62.7218 50.8857C63.0801 50.8862 63.4379 50.8585 63.7919 50.8029C64.3063 57.8265 65.5655 63.1652 67.3096 67.3569C68.2219 69.5712 69.4013 71.6658 70.8214 73.5942C71.9948 75.1775 73.3369 76.6286 74.8239 77.9218C84.5021 86.4412 97.0712 86.9556 98.3483 108.771C94.2554 112.528 89.3725 115.32 84.0587 116.942C61.6221 125.81 48.3613 114.346 28.7685 105.845C27.3023 105.212 25.9425 104.544 24.63 103.917L24.3699 103.787C13.9054 98.3246 8.99835 92.7908 7.43164 87.2334C8.94347 82.2473 11.8726 77.8084 15.8623 74.4573C18.7125 72.1226 21.9024 70.2366 25.3217 68.8645" stroke="#3A3837" stroke-opacity="0.2" stroke-width="1.77364" stroke-linecap="round" stroke-linejoin="round"/>
<path d="M24.3643 103.77C24.5002 103.539 24.6303 103.315 24.7722 103.09C29.2891 95.8299 35.5145 90.8992 41.9173 87.0267C53.4933 80.0268 65.4062 76.2844 67.2804 67.3394" stroke="#373A3A" stroke-opacity="0.2" stroke-width="1.77364" stroke-linecap="round" stroke-linejoin="round"/>
<path d="M41.9229 87.0264C44.5484 90.6251 46.6744 94.5629 48.2429 98.7324C57.4363 93.3642 66.8602 87.4993 70.7977 73.5645" stroke="#373A3A" stroke-opacity="0.2" stroke-width="1.77364" stroke-linecap="round" stroke-linejoin="round"/>
<path d="M28.9111 70.8984C25.955 75.7346 24.1814 80.884 22.2422 86.7607C25.5089 84.3539 29.0134 82.2877 32.7007 80.5943H32.748C32.7279 80.6306 32.7101 80.6681 32.6948 80.7066C28.999 87.7596 26.3313 95.305 24.7726 103.114C24.7194 103.38 24.6721 103.652 24.6248 103.924" stroke="#373A3A" stroke-opacity="0.2" stroke-width="1.77364" stroke-linecap="round" stroke-linejoin="round"/>
<path d="M32.6943 80.6825C32.6943 80.653 32.6943 80.6175 32.6943 80.5938C32.8759 77.6905 33.3292 74.8105 34.0482 71.9917" stroke="#373A3A" stroke-opacity="0.2" stroke-width="1.77364" stroke-linecap="round" stroke-linejoin="round"/>
<path d="M20.2969 36.0933C22.6263 39.611 25.4227 42.4311 25.4227 46.8297C25.4227 51.9673 22.6026 53.0847 22.6026 55.0594C22.6026 56.36 24.4117 58.1455 25.0325 58.4115" stroke="#373A3A" stroke-width="1.77364" stroke-linecap="round" stroke-linejoin="round"/>
<path d="M32.8955 40.7939C35.6801 41.7103 38.583 42.6917 40.2857 45.234" stroke="#373A3A" stroke-width="1.77364" stroke-linecap="round" stroke-linejoin="round"/>
<path d="M20.2969 42.8984C20.4506 43.9626 20.4092 45.0564 20.4861 46.1324" stroke="#373A3A" stroke-width="1.77364" stroke-linecap="round" stroke-linejoin="round"/>
<path d="M35.0186 48.917C35.0186 50.2236 35.1013 51.5183 35.2018 52.8249" stroke="#373A3A" stroke-width="1.77364" stroke-linecap="round" stroke-linejoin="round"/>
</g>
<defs>
<clipPath id="clip0_563_998">
<rect width="118" height="125" fill="white"/>
</clipPath>
</defs>
</svg>
