<svg width="128" height="128" viewBox="0 0 128 128" fill="none" xmlns="http://www.w3.org/2000/svg">
<path d="M119.559 119.068C121.095 118.606 124.26 117.468 124.26 115.42C124.26 113.728 96.7182 98.0835 92.3734 98.0835C89.4862 98.0835 88.9529 99.2924 88.9529 100.928C88.9529 105.315 90.0054 108.615 90.0054 111.595C90.0054 118.656 83.9111 120.647 83.9111 123.207C83.9111 126.379 88.3271 126.763 91.7334 126.763C97.0738 126.763 101.035 125.091 106.539 123.299L119.559 119.068Z" fill="url(#paint0_linear_528_4010)" fill-opacity="0.25"/>
<path d="M13.4258 83.6052C16.1849 79.111 19.2711 76.8994 21.8524 76.167C21.9591 76.3377 22.0658 76.4941 22.1796 76.6577C23.0315 77.9287 24.1502 78.9989 25.4578 79.7937C26.4222 80.4401 27.6036 80.6779 28.7431 80.455C28.8569 80.455 28.9707 80.3839 29.0773 80.3483C31.6587 84.0603 34.7662 89.8274 37.4898 97.5003L13.4258 83.6052Z" fill="white"/>
<path d="M53.6885 106.851C56.5329 102.023 59.74 99.6764 62.4209 98.9226C62.5276 99.0933 62.6343 99.2497 62.748 99.4062C63.5999 100.679 64.7185 101.752 66.0263 102.549C66.9897 103.192 68.1673 103.429 69.3045 103.211C69.4254 103.211 69.5391 103.132 69.6458 103.09C72.3267 106.951 75.5338 112.995 78.3498 121.088L53.6885 106.851Z" fill="#ECEDEE"/>
<path d="M22.1793 36.8C23.0313 38.0711 24.15 39.1412 25.4576 39.936C25.9327 40.2613 26.4683 40.488 27.0326 40.6028C27.5968 40.7176 28.1784 40.7182 28.7429 40.6044C28.8569 40.5716 28.9685 40.5312 29.0771 40.4835C31.7865 44.3804 35.0362 50.5315 37.8807 58.7591L13.0273 44.416C15.8718 39.4382 19.1429 37.0773 21.8522 36.3093C21.9589 36.48 22.0442 36.6364 22.1793 36.8Z" fill="white"/>
<path d="M8.34883 6.2505C8.0695 6.04963 7.74149 5.92721 7.39885 5.89595C7.05622 5.86469 6.71146 5.92572 6.40039 6.07272L12.0893 2.70206C12.4006 2.54372 12.7492 2.4733 13.0975 2.49836C13.4458 2.52342 13.7807 2.64302 14.0662 2.84428L90.6671 47.0683C92.3311 48.0283 93.6822 50.6238 93.6822 52.8283V119.218C93.6822 120.419 93.2911 121.273 92.6511 121.643L86.9622 125.042C87.588 124.665 87.9791 123.819 87.9791 122.624V56.2345C87.9791 54.0158 86.6422 51.4416 84.9782 50.4816L8.34883 6.2505Z" fill="#ECEDEE"/>
<path d="M46.6415 28.359V63.8221L37.8806 58.759C35.0361 50.5314 31.7863 44.3803 29.077 40.4834C30.2503 39.9999 31.0112 38.6914 31.0112 36.743C30.9023 34.8167 30.343 32.9428 29.3785 31.2719C28.414 29.6009 27.071 28.1794 25.4575 27.1216C22.3997 25.3581 19.9108 26.7874 19.9037 30.3288C19.9932 32.4631 20.6672 34.5318 21.8521 36.3092C19.1428 37.0772 15.8859 39.4665 13.0272 44.4159L5.33301 39.9714V8.5332C5.33301 7.28164 5.75256 6.39986 6.39967 6.07275C6.70804 5.92981 7.04872 5.87097 7.38716 5.90219C7.72561 5.93341 8.04978 6.05359 8.32679 6.25053L46.6415 28.359Z" fill="url(#paint1_linear_528_4010)"/>
<path d="M84.9492 124.892L78.35 121.088C75.5056 112.995 72.3269 106.951 69.646 103.09C70.8265 102.606 71.5803 101.298 71.5803 99.3491C71.473 97.4234 70.9144 95.5499 69.9497 93.8798C68.9849 92.2098 67.6411 90.7899 66.0265 89.7349C62.9616 87.9714 60.4798 89.3936 60.4727 92.942C60.5644 95.0759 61.2382 97.1441 62.4212 98.9225C59.7403 99.6762 56.5332 102.023 53.6887 106.851L46.6416 102.784V63.822L87.95 87.6656V122.624C87.95 123.818 87.5589 124.672 86.9332 125.042C86.621 125.203 86.2703 125.274 85.92 125.248C85.5698 125.221 85.2337 125.098 84.9492 124.892Z" fill="#0D58A4"/>
<path d="M55.3105 68.8213C58.0839 64.2844 61.1772 62.0658 63.7728 61.3191L64.0999 61.8098C64.9555 63.0796 66.0734 64.1514 67.3781 64.9529C68.3451 65.5932 69.5249 65.8282 70.6634 65.6071C70.7746 65.5755 70.8838 65.5375 70.9905 65.4933C73.5932 69.2338 76.6794 75.0364 79.4528 82.7591L55.3105 68.8213Z" fill="white"/>
<path d="M46.6416 63.8221V102.784L37.4896 97.5003C34.7376 89.8274 31.6585 84.0603 29.0771 80.3483C30.2505 79.8505 31.0114 78.5492 31.0114 76.6008C30.9029 74.6744 30.344 72.8003 29.3794 71.1292C28.4148 69.4582 27.0715 68.0368 25.4576 66.9794C22.3998 65.2159 19.9109 66.6452 19.9109 70.1865C20.0004 72.3209 20.6744 74.3896 21.8594 76.167C19.278 76.8781 16.1705 79.111 13.4327 83.6052L8.45491 80.7608C7.4968 80.2051 6.70149 79.4075 6.14862 78.4478C5.59575 77.488 5.30472 76.3999 5.30469 75.2923V39.9714L46.6416 63.8221Z" fill="url(#paint2_linear_528_4010)"/>
<path d="M87.9504 56.2347V87.6658L79.4171 82.7591C76.658 75.0365 73.5576 69.248 70.9549 65.4934C72.1424 65.0098 72.8962 63.7014 72.8962 61.7529C72.8962 58.1973 70.4144 53.9307 67.3353 52.1387C64.2562 50.3467 61.7887 51.7974 61.7887 55.3387C61.8793 57.4728 62.5532 59.5412 63.7371 61.3191C61.1416 62.0302 58.0482 64.2845 55.2749 68.8214L46.6064 63.8436V28.3591L84.9496 50.4889C86.6136 51.4418 87.9504 54.0445 87.9504 56.2347Z" fill="#00ABD5"/>
<path d="M31.0116 76.6009C31.0116 78.5493 30.2578 79.8577 29.0774 80.3484C28.9685 80.3914 28.8568 80.427 28.7431 80.4551C27.6037 80.678 26.4223 80.4402 25.4578 79.7937C24.1502 78.999 23.0315 77.9288 22.1796 76.6577C22.0658 76.4942 21.9591 76.3377 21.8525 76.1671C20.674 74.387 20.0028 72.3195 19.9111 70.1866C19.9111 66.6311 22.4071 65.2089 25.4649 66.9795C27.0775 68.0377 28.4194 69.4594 29.3827 71.1304C30.3461 72.8014 30.904 74.6751 31.0116 76.6009Z" fill="white"/>
<path d="M72.9318 61.7529C72.9318 63.7013 72.178 65.0098 70.9904 65.4933C70.8837 65.5375 70.7745 65.5755 70.6633 65.6071C69.5248 65.8282 68.345 65.5932 67.378 64.9529C66.0732 64.1514 64.9554 63.0796 64.0998 61.8098L63.7727 61.3191C62.5926 59.5393 61.9191 57.472 61.8242 55.3386C61.8242 51.7831 64.3202 50.3609 67.3709 52.1386C70.4215 53.9164 72.9247 58.2186 72.9318 61.7529Z" fill="white"/>
<path d="M71.5803 99.3494C71.5803 101.298 70.8692 102.613 69.6461 103.09C69.5394 103.132 69.4257 103.175 69.3048 103.211C68.1676 103.429 66.99 103.192 66.0266 102.549C64.7188 101.752 63.6002 100.679 62.7483 99.4062C62.6346 99.2498 62.5279 99.0934 62.4212 98.9227C61.2321 97.1454 60.5488 95.0781 60.4443 92.9422C60.4443 89.3867 62.9332 87.9645 65.9981 89.7351C67.618 90.787 68.9674 92.2055 69.9372 93.8757C70.907 95.546 71.4699 97.4211 71.5803 99.3494Z" fill="white"/>
<path d="M31.0116 36.7429C31.0116 38.6914 30.2436 39.9714 29.0774 40.4834C28.9688 40.5311 28.8571 40.5715 28.7431 40.6043C28.1786 40.718 27.5971 40.7175 27.0328 40.6027C26.4685 40.4878 25.933 40.2611 25.4578 39.9358C24.1502 39.1411 23.0315 38.0709 22.1796 36.7998C22.0658 36.6363 21.9591 36.4798 21.8525 36.3092C20.674 34.5291 20.0028 32.4616 19.9111 30.3287C19.9111 26.7732 22.4071 25.3509 25.4649 27.1216C27.0771 28.1802 28.4187 29.602 29.382 31.2729C30.3453 32.9438 30.9034 34.8173 31.0116 36.7429Z" fill="white"/>
<path d="M13.1338 1.99891C13.5609 2.0297 13.971 2.17548 14.3242 2.41687L90.8887 46.6346L91.0635 46.7411C91.9285 47.2982 92.6748 48.2162 93.2129 49.244C93.7891 50.3448 94.1532 51.6242 94.1533 52.828V119.218C94.1532 120.501 93.7357 121.576 92.873 122.075L92.8721 122.074L87.3076 125.399C87.2682 125.427 87.229 125.455 87.1875 125.479C87.1793 125.484 87.1705 125.489 87.1621 125.493C86.7679 125.696 86.3251 125.787 85.8828 125.754C85.455 125.722 85.0441 125.574 84.6924 125.329L78.2236 121.593C78.1399 121.571 78.0643 121.526 78.002 121.465L53.4365 107.283L53.4346 107.282C53.4336 107.282 53.4326 107.281 53.4316 107.28L37.3008 97.9677C37.2571 97.9497 37.2158 97.9269 37.1787 97.8973L8.2334 81.1874L8.23242 81.1864C7.19864 80.5869 6.34073 79.7258 5.74414 78.6903C5.14768 77.6549 4.83318 76.4809 4.83301 75.286V8.53308C4.83312 7.2083 5.27617 6.08083 6.17383 5.62683L6.18945 5.61902C6.23741 5.5968 6.28584 5.57548 6.33496 5.55652L11.833 2.27234L11.8623 2.25574C12.2546 2.05624 12.6948 1.96733 13.1338 1.99891ZM47.1416 102.494L53.5127 106.172C56.1226 101.905 59.0422 99.5878 61.6445 98.6473C60.6246 96.9235 60.0396 94.9733 59.9453 92.9657C59.945 92.958 59.9444 92.9499 59.9443 92.9423C59.9444 91.06 60.607 89.6077 61.8223 88.9081C62.9612 88.2525 64.4283 88.3486 65.9443 89.1356L66.248 89.3026L66.2715 89.3163C67.9515 90.4141 69.3506 91.8919 70.3545 93.6298C71.2955 95.2589 71.8648 97.0746 72.0244 98.9462L72.0508 99.3221L72.0518 99.3427C72.0778 101.141 71.4755 102.551 70.3691 103.286C72.9896 107.167 76.0465 113.026 78.749 120.741L85.1992 124.467L85.2422 124.495C85.4516 124.647 85.6992 124.737 85.957 124.757C86.2022 124.775 86.4469 124.726 86.668 124.619C86.6713 124.617 86.6744 124.614 86.6777 124.612L86.7539 124.565C87.1287 124.293 87.4501 123.673 87.4502 122.632V87.954L79.2021 83.1923L47.1416 64.6835V102.494ZM13.0615 2.99695C12.806 2.97859 12.5501 3.02932 12.3213 3.14441L8.2002 5.6073C8.33414 5.66737 8.46316 5.73933 8.58496 5.82312L46.8018 27.8876C46.8637 27.9086 46.9194 27.9413 46.9678 27.9833L85.1982 50.0555H85.1992C86.1397 50.5982 86.9477 51.5739 87.5176 52.6708C88.0898 53.7721 88.4502 55.0494 88.4502 56.2421V122.632C88.4501 122.974 88.4187 123.302 88.3584 123.607L92.3662 121.213L92.3721 121.209C92.789 120.968 93.1532 120.337 93.1533 119.218V52.828C93.1532 51.8134 92.8424 50.6922 92.3271 49.7079C91.842 48.7811 91.1998 48.0198 90.5244 47.5839L90.3887 47.5009L13.8164 3.27723C13.8035 3.26978 13.7905 3.26138 13.7783 3.25281C13.5673 3.10404 13.3191 3.01548 13.0615 2.99695ZM62.1982 99.5145C59.8231 100.303 56.9785 102.431 54.3789 106.672L77.4121 119.97C74.8013 112.778 71.9087 107.325 69.4482 103.711L69.4463 103.712C69.431 103.716 69.4151 103.72 69.3994 103.724C68.1334 103.967 66.8217 103.702 65.749 102.987V102.986C64.3925 102.155 63.2307 101.042 62.3438 99.7216C62.2941 99.6533 62.2461 99.5842 62.1982 99.5145ZM65.7305 90.1581C64.2963 89.3349 63.1138 89.3191 62.3213 89.7753C61.5273 90.2325 60.9459 91.2666 60.9443 92.9354C61.0372 94.8534 61.6176 96.7145 62.6279 98.3427L62.7793 98.577C62.8227 98.6219 62.8573 98.6748 62.8818 98.7352C62.9198 98.7949 62.9573 98.8538 62.9961 98.911L63.1523 99.1337L63.1641 99.1493C63.8741 100.21 64.7786 101.126 65.8281 101.847L66.2871 102.144L66.3037 102.155C67.1509 102.72 68.1851 102.931 69.1855 102.745C69.2761 102.717 69.3654 102.684 69.457 102.647C70.3865 102.255 71.0783 101.182 71.0518 99.3563H71.0508C70.945 97.5165 70.4101 95.7267 69.4883 94.1307C68.564 92.5307 67.2766 91.1698 65.7305 90.1581ZM5.83301 75.286C5.83318 76.3057 6.10136 77.3077 6.61035 78.1913C7.11949 79.075 7.85213 79.8095 8.73438 80.3212H8.7334L13.2549 82.9315C15.7627 78.9724 18.5819 76.7784 21.085 75.8856C20.0733 74.161 19.496 72.2122 19.4111 70.2079C19.4108 70.2009 19.4111 70.1934 19.4111 70.1864C19.4112 68.3036 20.076 66.8516 21.292 66.1522C22.4316 65.4969 23.8986 65.5925 25.4121 66.3798L25.7158 66.5468L25.7393 66.5614C27.4183 67.6615 28.8157 69.1404 29.8193 70.8788C30.823 72.6176 31.4047 74.5686 31.5176 76.5731C31.5181 76.5828 31.5186 76.5927 31.5186 76.6024C31.512 78.3964 30.9005 79.7973 29.8008 80.5302C32.3235 84.2592 35.2824 89.8446 37.8936 97.1552L46.1416 101.917V64.1063L12.8057 44.8612C12.7966 44.8567 12.7862 44.8546 12.7773 44.8495C12.7678 44.844 12.76 44.836 12.751 44.83L5.83301 40.8368V75.286ZM21.6396 76.7557C19.36 77.4983 16.6166 79.5069 14.1221 83.4315L36.5459 96.3768C34.0274 89.5873 31.2359 84.4064 28.873 80.9442C28.8698 80.945 28.8666 80.9463 28.8633 80.9471C28.8554 80.9491 28.8468 80.9514 28.8389 80.953C27.5768 81.1998 26.2692 80.9383 25.1982 80.2274V80.2284C23.8287 79.396 22.657 78.2745 21.7646 76.9432V76.9423C21.7219 76.8808 21.6819 76.8178 21.6396 76.7557ZM47.1416 63.5292L55.1406 68.1473C57.6774 64.1503 60.4889 61.933 63.0049 61.037C61.9792 59.3172 61.3979 57.3645 61.3242 55.3563C61.324 55.3506 61.3242 55.3445 61.3242 55.3387C61.3243 53.4562 61.9888 52.0031 63.2041 51.3046C64.4193 50.6063 66.0068 50.7641 67.623 51.7059C69.2408 52.6488 70.6856 54.2414 71.7256 56.036C72.7654 57.8306 73.4278 59.876 73.4316 61.7518V61.7528C73.4316 63.5445 72.8221 64.9475 71.7158 65.6718C74.258 69.4317 77.2016 75.0551 79.8594 82.4159L87.4502 86.7987V56.2421C87.4502 55.2376 87.142 54.1174 86.6299 53.1317C86.1155 52.1417 85.4225 51.3391 84.6992 50.9218L47.1416 29.2372V63.5292ZM63.5625 61.9042C61.2728 62.6469 58.5363 64.6766 56.0078 68.6473L78.5059 81.6356C75.9478 74.7956 73.1715 69.5786 70.791 66.0887C70.7802 66.0916 70.7697 66.0954 70.7588 66.0975C69.497 66.3426 68.1899 66.0837 67.1162 65.3778C65.7509 64.539 64.581 63.4176 63.6855 62.0887C63.6813 62.0825 63.6768 62.0757 63.6729 62.0692C63.6408 62.0166 63.6038 61.9641 63.5625 61.9042ZM25.2041 67.4061C23.7709 66.5794 22.5859 66.5624 21.791 67.0194C20.9981 67.4754 20.4162 68.5051 20.4111 70.1649L20.4336 70.5477C20.5699 72.3291 21.1286 74.0526 22.0635 75.5751L22.2393 75.8514C22.2632 75.8807 22.2847 75.9123 22.3018 75.9471L22.5898 76.3788L22.5947 76.3866C23.3047 77.4458 24.2095 78.3583 25.2588 79.077L25.7178 79.3739L25.7363 79.3856C26.586 79.9551 27.6257 80.1663 28.6299 79.9745C28.7159 79.953 28.8002 79.9255 28.8828 79.8934C29.8095 79.5025 30.5081 78.4357 30.5176 76.6102C30.411 74.7685 29.8764 72.9766 28.9541 71.3788C28.0313 69.7801 26.7467 68.4197 25.2041 67.4061ZM67.1191 52.5702C65.6852 51.7346 64.4985 51.7149 63.7031 52.1718C62.9108 52.6271 62.3285 53.6583 62.3242 55.3202L62.3447 55.702C62.4724 57.4819 63.0334 59.2041 63.9785 60.7177L64.1875 61.0389L64.1963 61.0536C64.2421 61.1269 64.292 61.199 64.3496 61.2821C64.401 61.3563 64.4596 61.4412 64.5146 61.5302L64.832 61.9755C65.5994 62.9923 66.5515 63.8578 67.6396 64.5262C67.6444 64.5292 67.6496 64.5329 67.6543 64.536C68.5051 65.0993 69.5417 65.3082 70.5439 65.12C70.6304 65.0948 70.7157 65.0656 70.7988 65.0311L70.8018 65.0302C71.7309 64.6518 72.4313 63.5858 72.4316 61.7538L72.4238 61.4403C72.3524 59.862 71.7753 58.116 70.8604 56.537C69.8844 54.8529 68.5517 53.405 67.1191 52.5702ZM7.34082 6.40027C7.14385 6.38216 6.94635 6.40645 6.75977 6.46863L6.65723 6.53016C6.61321 6.55646 6.56594 6.57229 6.51855 6.58387C6.16104 6.83831 5.83311 7.46153 5.83301 8.53308V39.6825L12.8496 43.7323C15.4823 39.3454 18.4537 36.9818 21.0908 36.0292C20.077 34.3046 19.4974 32.3557 19.4111 30.3505C19.4108 30.3435 19.4111 30.336 19.4111 30.329C19.4112 28.4462 20.0761 26.9942 21.292 26.2948C22.4316 25.6394 23.8986 25.735 25.4121 26.5223L25.7158 26.6893L25.7393 26.704C27.418 27.8046 28.8158 29.2838 29.8193 31.0223C30.8227 32.7608 31.4042 34.7107 31.5176 36.7147C31.5181 36.7246 31.5186 36.7351 31.5186 36.745C31.5119 38.5484 30.8845 39.921 29.7969 40.6542C32.4509 44.5803 35.5566 50.5549 38.291 58.4198L46.1416 62.952V28.66L8.07715 6.68348C8.06357 6.67564 8.04989 6.66716 8.03711 6.65808C7.83201 6.5123 7.59139 6.42339 7.34082 6.40027ZM21.6436 36.8973C19.2356 37.6966 16.3373 39.8681 13.7148 44.2323L36.958 57.6503C34.3142 50.3092 31.3749 44.7426 28.8818 41.0839V41.0848C28.8688 41.0886 28.8551 41.0919 28.8418 41.0946C28.212 41.2215 27.5632 41.2207 26.9336 41.0927C26.3127 40.9663 25.7229 40.718 25.1982 40.3632L24.9434 40.204C23.6831 39.3902 22.6012 38.3268 21.7646 37.079V37.078C21.7233 37.0185 21.6844 36.9574 21.6436 36.8973ZM25.2041 27.5487C23.7708 26.7219 22.5859 26.7049 21.791 27.162C20.9982 27.618 20.4161 28.6477 20.4111 30.3075L20.4336 30.6893C20.5709 32.4686 21.1295 34.1902 22.0635 35.7108L22.2695 36.0331L22.2764 36.0448C22.3764 36.2048 22.4777 36.3533 22.5898 36.5145L22.5947 36.5214C23.3047 37.5806 24.2095 38.494 25.2588 39.2128L25.7178 39.5087L25.7402 39.5233C26.1602 39.8108 26.6341 40.0117 27.1328 40.1132C27.6245 40.2131 28.1308 40.2134 28.623 40.1171C28.709 40.0915 28.7939 40.0623 28.876 40.0262C29.801 39.6201 30.5079 38.5687 30.5176 36.7528C30.4105 34.9114 29.8753 33.12 28.9531 31.5223C28.0303 29.9237 26.7463 28.5627 25.2041 27.5487Z" fill="#82828A" fill-opacity="0.26"/>
<defs>
<linearGradient id="paint0_linear_528_4010" x1="101.115" y1="112.423" x2="108.965" y2="122.229" gradientUnits="userSpaceOnUse">
<stop stop-color="#99A1AF"/>
<stop offset="1" stop-color="#99A1AF" stop-opacity="0"/>
</linearGradient>
<linearGradient id="paint1_linear_528_4010" x1="5.33301" y1="8.65625" x2="46.6415" y2="63.8221" gradientUnits="userSpaceOnUse">
<stop stop-color="#E7E8EA"/>
<stop offset="0.879808" stop-color="#B2BAC2"/>
</linearGradient>
<linearGradient id="paint2_linear_528_4010" x1="5.30469" y1="39.9714" x2="46.6416" y2="102.784" gradientUnits="userSpaceOnUse">
<stop stop-color="#C5CACF"/>
<stop offset="1" stop-color="#889099"/>
</linearGradient>
</defs>
</svg>
