<svg width="128" height="128" viewBox="0 0 128 128" fill="none" xmlns="http://www.w3.org/2000/svg">
<path d="M123.927 98.5189L72.6608 83.8757L55.4525 93.1685L47.9415 90.9669L32.5968 99.2562L26.1968 97.3772L6.28516 108.134L38.8637 119.26L57.9511 111.667L67.0186 114.683L86.9508 106.752L99.8941 111.339L123.927 98.5189Z" fill="url(#paint0_linear_534_86)" fill-opacity="0.25"/>
<path d="M79.0247 43.2947V60.7334L63.9258 69.4476V52.014L79.0247 43.2947Z" fill="#08A4FF"/>
<path d="M79.025 43.2947L63.9261 52.014L41.1729 38.8812L56.282 30.1619L79.025 43.2947Z" fill="#75CCFF"/>
<path d="M63.9261 52.0141V69.4478L41.1729 56.3149V38.8813L63.9261 52.0141Z" fill="#08A4FF"/>
<path d="M60.5667 67.5123V80.4301L45.4678 89.1494V71.7107L56.6499 65.2493L60.5667 67.5123Z" fill="#11B7C0"/>
<path d="M56.6507 65.2494L45.4686 71.7108L34.0459 65.1214L45.2331 58.6599L56.6507 65.2494Z" fill="#87E8ED"/>
<path d="M56.2819 30.1618L41.1728 38.8812L4.07324 17.4591L19.1824 8.73975L56.2819 30.1618Z" fill="white"/>
<path d="M45.4686 71.7108V89.1495L34.0459 82.5549V65.1213L45.4686 71.7108Z" fill="#11B7C0"/>
<path d="M45.2329 58.6599L34.0457 65.1213L4.07324 47.8157L15.2604 41.3594L45.2329 58.6599Z" fill="white"/>
<path d="M4.07324 17.459L41.1728 38.8811V56.3147L4.07324 34.9028V17.459Z" fill="white"/>
<path d="M40.9885 86.5636V99.4865L25.8896 108.201V90.762L37.0768 84.3057L40.9885 86.5636Z" fill="#7FC313"/>
<path d="M34.0457 65.121V82.5546L31.5728 81.1262H31.5676L15.2656 71.7105H15.2604L4.07324 65.2541V47.8154L34.0457 65.121Z" fill="white"/>
<path d="M25.8894 90.7621V108.201L20.4775 105.078V87.6389L25.8894 90.7621Z" fill="#7FC313"/>
<path d="M25.8894 90.7621L20.4775 87.6389V87.5313L31.5675 81.1262H31.5726L37.0766 84.3057L25.8894 90.7621Z" fill="#BEEB78"/>
<path d="M20.4777 87.639V105.078L4.07324 95.6057V78.167L20.4777 87.639Z" fill="white"/>
<path d="M20.4777 87.639L4.07324 78.167L15.2604 71.7107H15.2656L31.5676 81.1264L20.4777 87.5315V87.639Z" fill="white"/>
<path d="M18.9922 8.27783C19.1344 8.21926 19.2973 8.22899 19.4326 8.30713L79.2754 42.8618C79.2821 42.8657 79.2884 42.8703 79.2949 42.8745C79.3012 42.8786 79.3074 42.8829 79.3135 42.8872C79.3586 42.9192 79.3979 42.9576 79.4297 43.0015C79.4365 43.0108 79.4421 43.0209 79.4482 43.0308C79.4597 43.0491 79.4705 43.0677 79.4795 43.0874C79.4817 43.0923 79.4842 43.0971 79.4863 43.1021C79.4964 43.126 79.5035 43.1509 79.5098 43.1763C79.5127 43.1882 79.5146 43.2002 79.5166 43.2124C79.5211 43.2394 79.5254 43.2666 79.5254 43.2944V60.7339C79.5252 60.9123 79.429 61.0773 79.2744 61.1665L64.1758 69.8813C64.1614 69.8896 64.1458 69.8951 64.1309 69.9019C64.1243 69.9048 64.118 69.908 64.1113 69.9106C64.0845 69.9214 64.0572 69.9291 64.0293 69.9351C64.0267 69.9356 64.0241 69.9365 64.0215 69.937C63.9578 69.9494 63.8928 69.9496 63.8291 69.937C63.8265 69.9365 63.8239 69.9356 63.8213 69.9351C63.771 69.9243 63.7216 69.9077 63.6758 69.8813L61.0664 68.3745V80.4302C61.0663 80.6087 60.971 80.7735 60.8164 80.8628L45.7178 89.5825C45.6743 89.6076 45.6276 89.6243 45.5801 89.6353C45.5717 89.6372 45.5632 89.6386 45.5547 89.6401C45.4967 89.6504 45.4379 89.6505 45.3799 89.6401C45.3713 89.6386 45.3629 89.6372 45.3545 89.6353C45.3072 89.6243 45.261 89.6075 45.2178 89.5825L41.4883 87.4282V99.4858C41.4883 99.6644 41.3929 99.8301 41.2383 99.9194L26.1396 108.633C26.1278 108.64 26.1148 108.645 26.1025 108.651C26.0925 108.656 26.0826 108.66 26.0723 108.665C26.0492 108.674 26.0259 108.681 26.002 108.687C25.9936 108.689 25.9851 108.69 25.9766 108.692C25.9186 108.702 25.8597 108.702 25.8018 108.692C25.7932 108.69 25.7847 108.689 25.7764 108.687C25.7527 108.682 25.7298 108.674 25.707 108.665C25.6964 108.66 25.6861 108.656 25.6758 108.651C25.6638 108.645 25.6513 108.64 25.6396 108.633L3.82324 96.0386C3.66864 95.9492 3.57324 95.7835 3.57324 95.605V78.1665C3.57328 78.1391 3.57568 78.112 3.58008 78.0854C3.58219 78.0726 3.58482 78.0599 3.58789 78.0474C3.59407 78.0224 3.60146 77.9977 3.61133 77.9741C3.61397 77.9678 3.61723 77.9618 3.62012 77.9556C3.62803 77.9386 3.63771 77.9227 3.64746 77.9067C3.65427 77.8956 3.66034 77.8841 3.66797 77.8735C3.67988 77.8571 3.69314 77.8416 3.70703 77.8267C3.71597 77.817 3.72568 77.8082 3.73535 77.7993C3.75065 77.7853 3.76705 77.7724 3.78418 77.7603C3.79044 77.7558 3.79627 77.7508 3.80273 77.7466C3.80942 77.7423 3.81632 77.7379 3.82324 77.7339L14.2598 71.7104L3.82324 65.688C3.66863 65.5988 3.5734 65.4329 3.57324 65.2544V47.8149C3.57327 47.7875 3.57664 47.7605 3.58105 47.7339C3.58316 47.7211 3.58483 47.7083 3.58789 47.6958C3.59406 47.6708 3.60147 47.6461 3.61133 47.6226C3.61397 47.6162 3.61723 47.6102 3.62012 47.604C3.62826 47.5866 3.63737 47.5696 3.64746 47.5532C3.65326 47.5438 3.65963 47.5348 3.66602 47.5259C3.69821 47.4806 3.73789 47.4405 3.78418 47.4077C3.79029 47.4034 3.79643 47.3991 3.80273 47.395C3.80943 47.3907 3.8163 47.3863 3.82324 47.3823L14.2588 41.3589L3.82324 35.3364C3.66865 35.2472 3.5734 35.0813 3.57324 34.9028V17.4585C3.5733 17.431 3.57663 17.4041 3.58105 17.3774C3.58316 17.3646 3.58483 17.3518 3.58789 17.3394C3.59407 17.3144 3.60148 17.2897 3.61133 17.2661C3.61397 17.2598 3.61723 17.2537 3.62012 17.2476C3.62825 17.2301 3.63739 17.2132 3.64746 17.1968C3.65326 17.1874 3.65963 17.1784 3.66602 17.1694C3.69818 17.1241 3.73792 17.0841 3.78418 17.0513C3.79029 17.0469 3.79643 17.0426 3.80273 17.0386C3.80947 17.0342 3.81626 17.0299 3.82324 17.0259L18.9326 8.30713L18.9922 8.27783ZM20.9775 104.786L25.3896 107.333V91.0503L20.9775 88.5024V104.786ZM26.3896 91.0503V107.333L40.4883 99.1968V86.8511L37.0771 84.8823L26.3896 91.0503ZM4.57324 95.3159L19.9775 104.208V87.9253L4.57324 79.0327V95.3159ZM21.3857 87.5835L25.8896 90.1841L36.0771 84.3042L31.5693 81.7017L21.3857 87.5835ZM34.5459 82.2651L44.9678 88.2827V71.9976L34.5459 65.981V82.2651ZM45.9678 71.9985V88.2817L60.0664 80.1401V67.7974L56.6504 65.8257L45.9678 71.9985ZM5.07324 78.1665L20.3857 87.0063L30.5674 81.1255L15.2627 72.2856L5.07324 78.1665ZM4.57324 64.9653L15.4932 71.2671C15.5005 71.2709 15.5084 71.2737 15.5156 71.2778L31.7998 80.6821C31.8071 80.6859 31.815 80.6887 31.8223 80.6929L33.5459 81.688V65.4038L4.57324 48.6812V64.9653ZM35.0488 65.1177L45.4678 71.1323L55.6494 65.2485L45.2334 59.2358L35.0488 65.1177ZM41.6729 56.0259L63.4258 68.5815V52.3022L41.6729 39.7427V56.0259ZM64.4258 52.3022V68.5815L78.5254 60.4438V44.1606L64.4258 52.3022ZM5.07324 47.8149L34.0488 64.5405L44.2334 58.6597L15.2588 41.936L5.07324 47.8149ZM4.57324 34.6138L40.6729 55.4487V39.1655L4.57324 18.3247V34.6138ZM42.1748 38.8784L63.9248 51.436L78.0244 43.2944L56.2812 30.7388L42.1748 38.8784ZM5.07324 17.4585L41.1748 38.3013L55.2812 30.1616L19.1816 9.31592L5.07324 17.4585Z" fill="#82828A" fill-opacity="0.26"/>
<defs>
<linearGradient id="paint0_linear_534_86" x1="56.4466" y1="101.568" x2="62.4791" y2="119.376" gradientUnits="userSpaceOnUse">
<stop stop-color="#99A1AF"/>
<stop offset="1" stop-color="#99A1AF" stop-opacity="0"/>
</linearGradient>
</defs>
</svg>
