<svg width="129" height="129" viewBox="0 0 129 129" fill="none" xmlns="http://www.w3.org/2000/svg">
<path d="M82.0537 94.6074C86.6684 92.4714 94.2531 92.6319 102.024 95.4638C113.194 99.5343 120.519 107.581 118.386 113.437C116.252 119.292 105.468 120.739 94.2979 116.669C94.08 116.59 93.8643 116.505 93.6494 116.423C88.3139 119.768 79.9835 121.921 70.6221 121.921C54.5173 121.921 41.4612 115.553 41.4609 107.697C41.4609 99.8417 54.5171 93.4736 70.6221 93.4736C74.6795 93.4736 78.5434 93.877 82.0537 94.6074Z" fill="url(#paint0_linear_534_418)" fill-opacity="0.25"/>
<path d="M39.3912 64.1763C39.381 64.467 39.4601 64.7539 39.6179 64.9984C39.7756 65.2429 40.0045 65.4332 40.2736 65.5437C44.2208 67.1524 48.3371 68.3104 52.5441 68.9957C52.6213 69.0034 52.6991 69.0034 52.7763 68.9957C52.9644 68.9949 53.1504 68.9563 53.3232 68.8822C53.4441 69.3767 53.3913 69.8978 53.1736 70.358C53.1216 70.5743 53.0011 70.7681 52.83 70.9104C52.6589 71.0526 52.4464 71.1358 52.2242 71.1474C47.6369 70.5128 43.5192 68.1391 38.932 67.8244C37.6678 67.8244 36.3984 66.715 37.1931 65.4508C37.434 65.081 37.7585 64.773 38.1403 64.5517C38.5221 64.3303 38.9506 64.2017 39.3912 64.1763Z" fill="#DAE0E5"/>
<path d="M22.1573 60.8688C21.6574 60.1943 21.0446 59.6112 20.3461 59.1454V58.7739C20.0314 58.2269 19.7527 57.7419 19.4896 57.2259L19.2522 56.7615C20.752 58.0205 22.2192 59.185 23.6537 60.2548C23.8145 60.4047 24.0273 60.4861 24.2471 60.4818C24.236 60.5567 24.2205 60.6307 24.2006 60.7037C23.9014 61.9731 22.632 61.4984 22.1573 60.8688Z" fill="#DAE0E5"/>
<path d="M22.1567 60.869C22.6314 61.4986 23.9008 61.9733 24.2207 60.7091C24.2406 60.6361 24.2561 60.562 24.2671 60.4872C24.5613 60.4408 24.6541 60.0125 24.4529 59.3004C24.1194 58.1707 23.4758 57.1571 22.5953 56.3747C21.1608 55.3083 19.6937 54.1404 18.1938 52.871C18.1629 52.5821 18.1474 52.2931 18.1422 52.0042C18.0855 49.2384 15.5364 30.5334 34.2517 20.0122C37.8328 18.877 42.1981 19.4136 46.2642 21.0442C50.7225 22.814 57.8949 27.1742 63.7669 32.5406C67.864 36.2816 71.3315 40.5128 72.8021 44.6976C68.5967 49.3055 65.929 55.8071 66.2489 61.5966C66.3136 63.3223 66.7297 65.0167 67.4718 66.576C68.0221 67.7662 68.8613 68.7999 69.913 69.5831C70.9647 70.3662 72.1956 70.8739 73.4935 71.06C76.2025 81.8341 68.9476 91.4627 61.1611 98.1552C54.6492 103.749 47.7451 107.294 46.0165 107.748L45.8669 107.784C42.9037 108.383 39.8261 108.007 37.0949 106.71L36.7853 106.561C28.2145 102.195 23.6479 89.0168 21.6046 77.8712C20.4689 71.7016 20.0396 65.4227 20.3249 59.1559C21.0299 59.6168 21.6497 60.1964 22.1567 60.869ZM41.0784 77.0766C41.2513 77.2047 41.4544 77.2858 41.6679 77.3119C41.8815 77.338 42.0981 77.3083 42.2967 77.2256C42.4954 77.1429 42.6691 77.0102 42.8011 76.8402C42.933 76.6703 43.0186 76.4691 43.0495 76.2562C43.1339 75.7405 43.0643 75.2115 42.8495 74.7351C42.6348 74.2588 42.2844 73.8564 41.8421 73.5781C41.6697 73.4485 41.4664 73.3661 41.2524 73.3392C41.0384 73.3122 40.821 73.3417 40.6219 73.4245C40.4227 73.5074 40.2487 73.6409 40.117 73.8118C39.9853 73.9826 39.9005 74.1849 39.871 74.3986C39.7874 74.9142 39.8573 75.443 40.0719 75.9192C40.2866 76.3954 40.6367 76.7979 41.0784 77.0766ZM38.9319 67.8299C43.5191 68.1446 47.6368 70.5182 52.224 71.1529C52.4456 71.1416 52.6575 71.0592 52.8286 70.9179C52.9996 70.7766 53.1205 70.584 53.1735 70.3686C53.3912 69.9084 53.444 69.3874 53.3231 68.8928C53.6084 68.7739 53.8472 68.5653 54.0035 68.2986C54.1598 68.032 54.2252 67.7217 54.1896 67.4147C54.1541 67.1076 54.0196 66.8205 53.8065 66.5966C53.5934 66.3727 53.3133 66.2242 53.0083 66.1735C49.0112 65.5244 45.1006 64.4235 41.3519 62.8918C41.0035 62.7481 40.6125 62.7483 40.2643 62.8924C39.9161 63.0366 39.6392 63.3128 39.4943 63.6606C39.4268 63.8243 39.3918 63.9995 39.3911 64.1766C38.9486 64.2043 38.519 64.3361 38.137 64.5611C37.7551 64.7862 37.4316 65.0982 37.1929 65.4718C36.3983 66.7205 37.6677 67.8299 38.9319 67.8299ZM22.1567 66.0342C22.2009 66.5162 22.3659 66.9793 22.6365 67.3806C22.9071 67.782 23.2745 68.1086 23.7047 68.3304C24.4839 68.6452 25.0515 68.124 24.9792 67.1694C24.9354 66.6866 24.7705 66.2227 24.5 65.8205C24.2294 65.4182 23.8619 65.0907 23.4312 64.868C22.6314 64.5533 22.0587 65.0744 22.1567 66.0342Z" fill="url(#paint1_radial_534_418)"/>
<path d="M18.1887 52.8708C18.3131 54.2233 18.6783 55.5427 19.2671 56.7667C20.767 58.0257 22.2341 59.1901 23.6686 60.26C24.3962 60.776 24.747 60.3735 24.4478 59.3002C24.1142 58.1705 23.4707 57.1569 22.5902 56.3745C21.1557 55.3081 19.6885 54.1402 18.1887 52.8708Z" fill="white"/>
<path d="M23.4055 64.8679C22.6315 64.5531 22.0587 65.0743 22.1361 66.034C22.1804 66.516 22.3454 66.9791 22.6159 67.3804C22.8865 67.7818 23.2539 68.1085 23.6841 68.3302C24.4633 68.645 25.0309 68.1238 24.9586 67.1692C24.9143 66.6859 24.7487 66.2217 24.4772 65.8194C24.2057 65.4171 23.8371 65.0898 23.4055 64.8679Z" fill="#969A9E"/>
<path d="M39.4944 63.6603C39.4229 63.8334 39.3863 64.0189 39.3868 64.2061C39.3873 64.3934 39.4248 64.5787 39.4972 64.7514C39.5696 64.9241 39.6755 65.0807 39.8088 65.2123C39.942 65.3438 40.1 65.4477 40.2736 65.5179C44.2198 67.1297 48.3364 68.2878 52.5441 68.97C52.6213 68.9776 52.6991 68.9776 52.7763 68.97C53.138 68.9761 53.4884 68.8444 53.7565 68.6015C54.0247 68.3587 54.1903 68.0229 54.2198 67.6624C54.2494 67.3018 54.1406 66.9436 53.9157 66.6603C53.6907 66.377 53.3663 66.19 53.0085 66.1372C49.0127 65.4997 45.1022 64.4108 41.352 62.8915C41.0037 62.7478 40.6126 62.7481 40.2644 62.8922C39.9162 63.0363 39.6394 63.3125 39.4944 63.6603Z" fill="white"/>
<path d="M39.8716 74.3982C39.788 74.9138 39.8578 75.4426 40.0725 75.9188C40.2872 76.395 40.6373 76.7975 41.079 77.0762C41.2519 77.2043 41.455 77.2854 41.6685 77.3115C41.8821 77.3376 42.0987 77.3079 42.2973 77.2252C42.496 77.1426 42.6697 77.0098 42.8017 76.8399C42.9336 76.6699 43.0192 76.4687 43.0501 76.2558C43.1344 75.7402 43.0649 75.2111 42.8501 74.7348C42.6354 74.2585 42.2849 73.856 41.8427 73.5778C41.6703 73.4481 41.467 73.3657 41.253 73.3388C41.039 73.3119 40.8216 73.3413 40.6225 73.4242C40.4233 73.5071 40.2493 73.6406 40.1176 73.8114C39.9859 73.9822 39.9011 74.1845 39.8716 74.3982Z" fill="#969A9E"/>
<path d="M50.4596 110.725C49.9746 110.493 49.4998 110.245 49.0458 109.982C47.9488 109.359 46.9317 108.606 46.0168 107.737C47.7712 107.283 54.6495 103.738 61.1614 98.1448C62.6255 98.3152 64.1013 98.3618 65.5732 98.2841C61.4437 103.425 56.2988 107.66 50.4596 110.725Z" fill="#DAE0E5"/>
<path d="M50.4596 110.725C49.9746 110.493 49.4998 110.245 49.0458 109.982C47.9488 109.359 46.9317 108.606 46.0168 107.737C47.7712 107.283 54.6495 103.738 61.1614 98.1448C62.6255 98.3152 64.1013 98.3618 65.5732 98.2841C61.4437 103.425 56.2988 107.66 50.4596 110.725Z" fill="url(#paint2_linear_534_418)"/>
<path d="M65.5733 98.2839C68.7804 98.1713 71.9182 97.3201 74.7426 95.7967C77.2142 94.3726 78.6384 92.5666 79.0151 90.709C79.1441 91.2921 79.2937 91.8751 79.4588 92.4531C79.9655 94.2037 80.6376 95.9021 81.4661 97.5253C81.5744 97.7317 81.6776 97.9433 81.7912 98.1497C82.1644 98.8713 82.4254 99.6456 82.5652 100.446C82.7631 101.545 82.7242 102.674 82.4511 103.757C82.1779 104.84 81.6767 105.852 80.981 106.726C79.8742 108.044 78.5344 109.148 77.0285 109.982C69.7529 114.182 58.2255 114.43 50.4493 110.725C56.2922 107.661 61.4407 103.426 65.5733 98.2839Z" fill="#DAE0E5"/>
<path d="M65.5733 98.2839C68.7804 98.1713 71.9182 97.3201 74.7426 95.7967C77.2142 94.3726 78.6384 92.5666 79.0151 90.709C79.1441 91.2921 79.2937 91.8751 79.4588 92.4531C79.9655 94.2037 80.6376 95.9021 81.4661 97.5253C81.5744 97.7317 81.6776 97.9433 81.7912 98.1497C82.1644 98.8713 82.4254 99.6456 82.5652 100.446C82.7631 101.545 82.7242 102.674 82.4511 103.757C82.1779 104.84 81.6767 105.852 80.981 106.726C79.8742 108.044 78.5344 109.148 77.0285 109.982C69.7529 114.182 58.2255 114.43 50.4493 110.725C56.2922 107.661 61.4407 103.426 65.5733 98.2839Z" fill="url(#paint3_linear_534_418)"/>
<path d="M73.8092 78.8462C74.2431 76.2534 74.1359 73.5989 73.4944 71.0495C75.379 71.2762 77.29 71.004 79.0363 70.26C80.4693 69.9031 81.8064 69.2355 82.9527 68.3044C83.092 68.2012 83.2262 68.0876 83.3604 67.9741C83.1127 68.423 82.8444 68.872 82.5812 69.3157C78.6911 75.7345 77.4148 83.4021 79.0156 90.7349C78.639 92.5925 77.2148 94.3985 74.7432 95.8226C71.9187 97.346 68.7809 98.1972 65.5738 98.3098C68.9599 94.1114 71.5181 89.3084 73.1126 84.1559C73.6515 82.4399 73.8872 80.6431 73.8092 78.8462Z" fill="#E6EDF2"/>
<path d="M61.1615 98.1446C67.0129 93.1136 72.5599 86.4314 73.8087 78.8462C73.8837 80.6345 73.648 82.4223 73.1121 84.13C71.5176 89.2826 68.9594 94.0856 65.5733 98.2839C64.1014 98.3616 62.6256 98.315 61.1615 98.1446Z" fill="#DAE0E5"/>
<path d="M72.7976 44.6817C68.5973 49.3051 65.9296 55.8067 66.2495 61.5962C66.3142 63.3219 66.7303 65.0163 67.4724 66.5756L75.4962 69.9863C73.5303 69.1091 72.0958 66.9574 71.6469 63.7066C70.7129 57.0193 74.2733 48.2524 79.5881 44.1089C82.2558 42.0449 84.8616 41.5289 86.9102 42.3545L80.0886 39.4495C79.6036 39.637 79.1282 39.8488 78.6645 40.0841C76.4446 41.2458 74.4562 42.804 72.7976 44.6817Z" fill="#DAE0E5"/>
<path d="M75.4954 69.9762L67.4716 66.5654C68.0219 67.7556 68.8611 68.7893 69.9128 69.5725C70.9645 70.3556 72.1953 70.8634 73.4933 71.0495C75.3779 71.2762 77.2889 71.004 79.0352 70.26C77.8838 70.5445 76.6719 70.4579 75.5728 70.0123L75.4954 69.9762Z" fill="#DAE0E5"/>
<path d="M79.5878 44.1092C74.2678 48.2372 70.7126 57.0092 71.6465 63.7172C72.0954 66.968 73.5299 69.1197 75.4959 69.9969L75.5733 70.033C76.6724 70.4785 77.8843 70.5652 79.0356 70.2807C80.4696 69.9155 81.8064 69.2409 82.9521 68.3044C83.0914 68.2012 83.2256 68.0877 83.3597 67.9742C88.4526 63.6862 91.817 55.1928 90.8933 48.6964C90.5115 45.941 89.4227 43.9698 87.9005 42.9017C87.6078 42.6981 87.2948 42.5252 86.9666 42.3857H86.9098C84.8613 41.5085 82.2555 42.0245 79.5878 44.1092ZM75.5062 61.2146C74.9025 56.8853 77.2038 51.199 80.6662 48.5158C84.1286 45.8326 87.3794 47.1484 87.9831 51.488C88.5868 55.8275 86.2803 61.5035 82.8231 64.1867C79.3659 66.8699 76.1099 65.5438 75.5062 61.2146Z" fill="white"/>
<path d="M79.5878 44.1092C74.2678 48.2372 70.7126 57.0092 71.6465 63.7172C72.0954 66.968 73.5299 69.1197 75.4959 69.9969L75.5733 70.033C76.6724 70.4785 77.8843 70.5652 79.0356 70.2807C80.4696 69.9155 81.8064 69.2409 82.9521 68.3044C83.0914 68.2012 83.2256 68.0877 83.3597 67.9742C88.4526 63.6862 91.817 55.1928 90.8933 48.6964C90.5115 45.941 89.4227 43.9698 87.9005 42.9017C87.6078 42.6981 87.2948 42.5252 86.9666 42.3857H86.9098C84.8613 41.5085 82.2555 42.0245 79.5878 44.1092ZM75.5062 61.2146C74.9025 56.8853 77.2038 51.199 80.6662 48.5158C84.1286 45.8326 87.3794 47.1484 87.9831 51.488C88.5868 55.8275 86.2803 61.5035 82.8231 64.1867C79.3659 66.8699 76.1099 65.5438 75.5062 61.2146Z" fill="url(#paint4_linear_534_418)"/>
<path d="M50.9184 14.3254C61.1197 12.4627 71.0062 16.3894 78.0651 23.6134C82.2895 27.9518 85.371 33.2708 87.0332 39.0934C85.0363 38.3762 82.6472 38.4433 80.0878 39.4288C79.6028 39.6164 79.1274 39.8282 78.6637 40.0635C76.4439 41.2252 74.4554 42.7834 72.7968 44.6611C71.3262 40.4763 67.8586 36.2451 63.7616 32.5041C57.8895 27.1377 50.7171 22.7775 46.2589 21.0076C42.1928 19.3926 37.8274 18.8559 34.2464 19.9756C38.5705 17.5814 44.0298 15.5845 50.9184 14.3254Z" fill="#5FC12E"/>
<path d="M80.6501 48.5158C77.2032 51.199 74.9019 56.8853 75.4901 61.2146C76.0783 65.5438 79.3756 66.8906 82.8225 64.1867C86.2693 61.4829 88.5862 55.8172 87.9824 51.488C87.3787 47.1588 84.0763 45.8275 80.6501 48.5158ZM79.3962 58.6759C79.2981 57.5416 79.4694 56.4002 79.8963 55.3448C80.3231 54.2893 80.9934 53.3497 81.8524 52.6025C83.5036 51.3229 85.0722 51.9575 85.3612 54.0267C85.4587 55.1614 85.2865 56.303 84.8588 57.3585C84.431 58.414 83.7598 59.3534 82.8998 60.1C81.2538 61.3849 79.68 60.745 79.3962 58.6759Z" fill="#DAE0E5"/>
<path d="M81.8533 52.6026C80.9943 53.3498 80.3241 54.2894 79.8972 55.3448C79.4704 56.4003 79.2991 57.5417 79.3972 58.6759C79.681 60.7399 81.2548 61.3849 82.9008 60.1001C83.7608 59.3534 84.432 58.414 84.8598 57.3586C85.2875 56.3031 85.4597 55.1614 85.3621 54.0268C85.0732 51.9576 83.5045 51.3229 81.8533 52.6026Z" fill="#5FC12E"/>
<path d="M80.0882 39.4497L86.9664 42.3754C87.2946 42.5148 87.6076 42.6878 87.9004 42.8914C87.6804 41.6158 87.391 40.3532 87.0335 39.1091C85.0366 38.3764 82.6475 38.4641 80.0882 39.4497Z" fill="#DAE0E5"/>
<path d="M50.7796 13.5746C61.2724 11.6587 71.4099 15.7052 78.6194 23.0834L78.6204 23.0843C82.9318 27.5153 86.0782 32.9457 87.7776 38.89C88.1159 40.0674 88.3908 41.2618 88.6087 42.4671C90.2135 43.7278 91.2793 45.8476 91.6594 48.5902C92.1438 52.0016 91.5013 55.8865 90.1038 59.4486C88.7106 62.9994 86.5387 66.2989 83.886 68.5404C83.6751 68.9072 83.4467 69.3182 83.2141 69.6957C79.4628 75.8972 78.2127 83.2912 79.7112 90.3783C79.7618 90.4846 79.7908 90.6017 79.7883 90.724C79.9036 91.2282 80.0325 91.7342 80.176 92.2367C80.6116 93.7274 81.1706 95.1793 81.8469 96.5765L82.1487 97.18C82.2497 97.3821 82.3529 97.5834 82.4592 97.7767C82.4624 97.7824 82.466 97.7886 82.469 97.7943C82.8775 98.5841 83.1632 99.4321 83.3167 100.308C83.5356 101.515 83.4946 102.754 83.1965 103.944C82.8984 105.133 82.3494 106.247 81.5872 107.207C81.583 107.213 81.5788 107.218 81.5745 107.223C80.4126 108.61 79.0064 109.771 77.426 110.652V110.653C73.416 112.968 68.2104 114.104 63.0462 114.104C57.8819 114.104 52.6744 112.968 48.6594 110.653L48.6604 110.652C47.6318 110.068 46.6704 109.373 45.7923 108.581C42.7417 109.148 39.5877 108.74 36.7825 107.404L36.7786 107.402L36.469 107.252C36.4645 107.25 36.4598 107.248 36.4553 107.245C31.9444 104.952 28.5694 100.39 26.0735 95.0931C23.5703 89.7809 21.9037 83.6281 20.8645 78.0062L20.6536 76.8138C19.6563 70.9211 19.2956 64.937 19.5774 58.9652C19.2651 58.414 18.9397 57.8378 18.636 57.2123C18.5847 57.1396 18.5461 57.0603 18.5227 56.9769C17.8998 55.6393 17.3986 54.0678 17.3635 52.0248C17.3087 49.3524 14.7062 30.2101 33.7337 19.4173C33.8115 19.3483 33.9038 19.293 34.0091 19.2591C38.3962 16.8167 43.9148 14.8228 50.7796 13.5746ZM78.8294 93.1283C78.0228 94.3801 76.7739 95.5193 75.1292 96.4671C71.3568 98.646 66.2056 99.4498 61.43 98.9525C58.2159 101.684 54.9347 103.919 52.2219 105.537C50.3348 106.663 48.6865 107.509 47.5169 108.015C48.119 108.495 48.7574 108.928 49.428 109.309L49.4329 109.312C53.1577 111.46 58.082 112.555 63.0462 112.555C68.0105 112.555 72.9322 111.459 76.6516 109.312L76.6633 109.305C78.0799 108.518 79.3404 107.477 80.3821 106.236C81.0037 105.45 81.4509 104.54 81.6946 103.568C81.9392 102.592 81.9729 101.574 81.7932 100.584L81.7923 100.579C81.6672 99.8632 81.4351 99.1695 81.1028 98.5228C80.9824 98.3039 80.869 98.0816 80.7639 97.8714L80.7649 97.8705C79.9835 96.3485 79.3357 94.7618 78.8294 93.1283ZM45.9739 21.7474C42.0684 20.1961 37.9589 19.7014 34.6292 20.6898C34.6282 20.6904 34.6273 20.6912 34.6262 20.6918C16.3694 30.9554 18.8528 49.1402 18.9114 51.9935V51.9955C18.9142 52.1609 18.9205 52.3226 18.93 52.4808C20.3319 53.6623 21.7053 54.7535 23.052 55.7523C23.0703 55.7659 23.0887 55.7802 23.1057 55.7953C24.0943 56.6737 24.8171 57.8121 25.1917 59.0804L25.1946 59.0921C25.2817 59.4044 25.3326 59.7088 25.3294 59.9877C25.3262 60.2494 25.2741 60.593 25.0452 60.8744C24.7743 61.2071 24.381 61.3073 24.0276 61.2552C23.7175 61.2095 23.4382 61.0523 23.2083 60.8812C22.7896 60.5699 22.3686 60.2498 21.9446 59.9222C22.3665 60.6067 22.7574 61.2124 23.1194 61.7611C23.7234 62.6766 24.2657 63.4688 24.7083 64.1966C25.6226 65.7003 26.1706 67.028 26.2688 69.0599C26.3345 70.3726 26.49 71.7777 26.6624 73.2543C26.791 74.3557 26.9286 75.497 27.0413 76.6517L27.1448 77.8099C27.2903 79.6661 26.9838 81.425 26.8928 82.6244C26.8446 83.2607 26.854 83.7226 26.9446 84.0629C27.0244 84.3624 27.161 84.5515 27.4133 84.6937L27.4202 84.6976C27.8165 84.9263 28.0985 84.9105 28.8352 84.7943C29.5914 84.675 30.6302 84.4961 32.2337 84.6986H32.2346C32.8215 84.7734 33.0666 84.7047 33.176 84.6322C33.2549 84.5797 33.4217 84.4172 33.5003 83.7914C33.5535 83.3673 33.9404 83.0663 34.3645 83.1195C34.7883 83.173 35.0886 83.5599 35.0354 83.9837C34.9335 84.7965 34.6612 85.5039 34.0335 85.9212C33.4363 86.3179 32.7059 86.3185 32.0403 86.2337L32.0393 86.2347C30.661 86.0607 29.7998 86.2094 29.0764 86.3236C28.3342 86.4407 27.5554 86.5627 26.6467 86.0384L26.6477 86.0375C25.9886 85.6638 25.6202 85.1053 25.4485 84.4603C25.2871 83.8536 25.2985 83.1718 25.3489 82.5072C25.4553 81.1049 25.7349 79.6307 25.6018 77.932C25.482 76.4199 25.2982 74.9146 25.1253 73.433C24.9532 71.9594 24.7914 70.5074 24.7229 69.1371V69.1361C24.7169 69.0121 24.7082 68.8915 24.6985 68.7738C24.333 68.9683 23.8957 68.9647 23.4778 68.7914C23.4651 68.7861 23.4519 68.7801 23.4397 68.7738C22.9349 68.5135 22.5033 68.1304 22.1858 67.6595C21.8684 67.1886 21.6752 66.645 21.6233 66.0795L21.6223 66.0736C21.5758 65.4956 21.7245 64.9499 22.1087 64.6019C22.3435 64.3893 22.6286 64.2874 22.928 64.2796C22.6061 63.7848 22.2428 63.2447 21.8264 62.6136C21.5808 62.2413 21.3217 61.8409 21.0471 61.4076C20.9549 66.48 21.3331 71.5509 22.18 76.555L22.387 77.7259C23.4118 83.27 25.0468 89.2823 27.4739 94.433C29.9073 99.597 33.0894 103.795 37.1516 105.863L37.4485 106.006C40.0243 107.233 42.9291 107.589 45.7249 107.021L45.7346 107.018C45.7891 106.997 45.8453 106.982 45.9026 106.974C46.7077 106.745 48.7475 105.808 51.429 104.208C53.9801 102.687 57.0492 100.606 60.0735 98.0746L60.5559 97.6654C60.6178 97.5874 60.6933 97.5221 60.7796 97.473C68.3705 90.9039 75.1226 81.8031 72.8801 71.7377C71.6403 71.4843 70.4687 70.9617 69.4505 70.2035C68.2975 69.3449 67.3772 68.2118 66.7727 66.9076C65.988 65.2571 65.5476 63.4642 65.4768 61.638L65.4758 61.639C65.153 55.7949 67.7411 49.3265 71.8245 44.6117L71.9094 44.514C70.4203 40.6422 67.1596 36.6746 63.2405 33.0961H63.2395C57.4273 27.7843 50.3337 23.4783 45.9739 21.7474ZM81.052 70.3734C80.5025 70.6208 79.9326 70.8238 79.3469 70.9779C79.3443 70.9791 79.3418 70.9807 79.3391 70.9818C77.8063 71.6349 76.1545 71.9481 74.4973 71.9066C76.4921 82.0644 70.1127 91.0598 63.052 97.5218C67.1346 97.7048 71.2961 96.8946 74.3557 95.1273V95.1263L74.7835 94.8695C76.7621 93.6264 77.8534 92.1661 78.2083 90.7543C76.7288 83.8216 77.7469 76.6067 81.052 70.3734ZM41.3157 72.8431C41.6026 72.8792 41.8749 72.9876 42.1096 73.1556V73.1546C42.6349 73.4852 43.0508 73.9639 43.3059 74.5296C43.5609 75.0955 43.6444 75.7247 43.5442 76.3373L43.5423 76.3363C43.4978 76.6315 43.3797 76.911 43.1966 77.1468C43.0116 77.3849 42.7678 77.571 42.4895 77.6869C42.2111 77.8027 41.907 77.8446 41.6077 77.808C41.3211 77.7728 41.0491 77.665 40.8137 77.4984L40.8128 77.4994C40.2882 77.1684 39.8725 76.6898 39.6175 76.1244C39.3642 75.5626 39.281 74.939 39.3772 74.3304H39.3762C39.4176 74.0306 39.5372 73.746 39.7219 73.5062C39.9068 73.2665 40.1515 73.0796 40.4309 72.9632C40.7104 72.8469 41.0153 72.8053 41.3157 72.8431ZM41.1907 73.8353C41.0631 73.8193 40.9334 73.8367 40.8147 73.8861C40.6962 73.9355 40.5924 74.0149 40.5139 74.1166C40.4355 74.2184 40.385 74.3399 40.3675 74.4671L40.3655 74.4789C40.2978 74.8973 40.3544 75.3268 40.5286 75.7132C40.703 76.0998 40.9873 76.4274 41.346 76.6537L41.3772 76.6752C41.4805 76.7515 41.6023 76.8002 41.7298 76.8158C41.8573 76.8313 41.9871 76.8134 42.1057 76.764C42.2243 76.7146 42.3287 76.6349 42.4075 76.5336C42.4862 76.4321 42.5374 76.311 42.5559 76.1839L42.5569 76.1752L42.5764 76.0179C42.609 75.6502 42.5471 75.2789 42.3948 74.9408C42.2205 74.5542 41.9354 74.2272 41.5764 74.0013C41.5648 73.994 41.5532 73.9861 41.5423 73.9779C41.4395 73.9006 41.3183 73.8514 41.1907 73.8353ZM69.6389 68.3275C69.8694 68.5542 70.1144 68.767 70.3753 68.9613C71.3066 69.6548 72.394 70.1067 73.5413 70.2816C73.5847 70.2831 73.6273 70.2896 73.6692 70.2982C73.9125 70.3254 74.156 70.3444 74.3997 70.3539L69.6389 68.3275ZM40.803 62.0111C41.0916 62.0098 41.3787 62.0659 41.6458 62.1752V62.1761C45.3398 63.6835 49.1937 64.7657 53.1321 65.4037V65.4046C53.6802 65.4883 54.1767 65.7759 54.5217 66.2103C54.8688 66.6474 55.037 67.2 54.9915 67.7562C54.9459 68.3126 54.6903 68.8316 54.2766 69.2064C53.8681 69.5765 53.3351 69.7778 52.7844 69.7738V69.7748C52.7816 69.7748 52.7785 69.7738 52.7757 69.7738C52.7717 69.7737 52.767 69.7748 52.763 69.7748L52.7639 69.7738C52.649 69.7738 52.5343 69.7628 52.4212 69.7425L52.4202 69.7445C48.1548 69.0529 43.9811 67.8783 39.9807 66.2445C39.7136 66.1352 39.4709 65.974 39.2659 65.7709C39.1304 65.6366 39.0146 65.4845 38.9182 65.3207C38.1311 65.2436 37.5131 65.3025 36.9749 65.4964C36.3496 65.7219 35.7509 66.1578 35.0921 66.9398C34.8167 67.2667 34.3282 67.3089 34.0012 67.0336C33.6745 66.7581 33.6331 66.2696 33.9085 65.9427C34.6838 65.0225 35.4945 64.385 36.4505 64.0404C37.1468 63.7894 37.8776 63.7107 38.6643 63.7504C38.6916 63.6232 38.7292 63.4981 38.7786 63.3773C38.8878 63.1104 39.0483 62.8673 39.2512 62.6625C39.4544 62.4575 39.697 62.2946 39.9632 62.183C40.2291 62.0715 40.5146 62.0124 40.803 62.0111ZM86.5901 43.0609C84.8766 42.3715 82.6001 42.7458 80.0637 44.7201H80.0628C77.5362 46.6805 75.389 49.7812 73.9895 53.2357C72.5903 56.6899 71.9696 60.4215 72.4133 63.6097L72.4143 63.6107C72.8187 66.5389 74.036 68.3572 75.555 69.1625L75.8762 69.2992C76.8208 69.6791 77.8612 69.7534 78.8499 69.5091H78.8508C80.1725 69.1773 81.406 68.5609 82.4651 67.7035L82.4915 67.683L82.6673 67.5443C82.6726 67.5399 82.6775 67.535 82.6829 67.5306C82.7675 67.3985 82.8862 67.301 83.0208 67.2416L83.3128 66.9877C85.5421 64.9556 87.4191 62.0518 88.6624 58.8832C89.9888 55.5024 90.5655 51.8902 90.1272 48.806V48.8031C89.7645 46.1857 88.749 44.4443 87.4592 43.5375C87.2103 43.3643 86.9434 43.2166 86.6643 43.098C86.6387 43.0871 86.6139 43.0741 86.5901 43.0609ZM40.8098 63.5599C40.7248 63.5603 40.6403 63.5769 40.5618 63.6097C40.4831 63.6427 40.4109 63.6917 40.3508 63.7523C40.291 63.8128 40.2435 63.8845 40.2112 63.9632C40.1789 64.0423 40.162 64.1278 40.1624 64.2132C40.1628 64.2984 40.1802 64.3827 40.2132 64.4613C40.2462 64.54 40.2941 64.6121 40.3548 64.6722C40.3851 64.7023 40.4189 64.7289 40.4544 64.7523L40.5667 64.8119C44.4585 66.4013 48.5186 67.5434 52.6682 68.2162L52.6887 68.2201C52.7148 68.225 52.7423 68.2272 52.7688 68.2269C52.7755 68.2268 52.7826 68.2268 52.7893 68.2269C52.9543 68.2296 53.1153 68.1697 53.2376 68.0589C53.3597 67.9481 53.435 67.7946 53.4485 67.6302C53.462 67.4657 53.4125 67.3015 53.3098 67.1722C53.2072 67.0432 53.0589 66.9581 52.8958 66.9339L52.885 66.932C48.8303 66.2752 44.8629 65.1598 41.0598 63.6078H41.0589C40.98 63.5756 40.895 63.5596 40.8098 63.5599ZM23.1809 65.3216C22.9575 65.2333 22.84 65.2885 22.7796 65.3431C22.6981 65.4169 22.5887 65.6122 22.6194 65.9935C22.6567 66.3897 22.7924 66.7709 23.0149 67.1009C23.2337 67.4255 23.5305 67.6895 23.8762 67.8724C24.1049 67.9629 24.2222 67.9083 24.2825 67.8539C24.3538 67.7893 24.4467 67.6327 24.4495 67.3402L24.4485 67.3216C24.3093 66.8163 24.1181 66.3501 23.8753 65.8744C23.6809 65.6489 23.4457 65.4609 23.1809 65.3216ZM80.0784 40.2865C79.7203 40.4334 79.3679 40.594 79.0227 40.7689V40.7699C76.8868 41.8876 74.9732 43.387 73.3772 45.1937L73.3704 45.2025C69.2832 49.7015 66.7155 56.0068 67.0217 61.5531L67.0227 61.5668C67.0802 63.0858 67.4264 64.5798 68.0432 65.9671L72.0696 67.6791C71.4896 66.6 71.0844 65.3023 70.8801 63.8236C70.3902 60.3041 71.0802 56.2951 72.555 52.6546C73.9374 49.242 76.0374 46.0845 78.596 43.9173L79.1135 43.4974C80.3768 42.5142 81.6537 41.8397 82.8958 41.4847L80.0784 40.2865ZM80.1731 47.9066C82.0252 46.4539 84.0005 45.9664 85.6751 46.6478C87.3478 47.3287 88.4261 49.0564 88.7503 51.3812C89.0752 53.7118 88.615 56.3495 87.6467 58.7377C86.6784 61.1258 85.1704 63.3409 83.3167 64.7953C81.4647 66.248 79.4893 66.7362 77.8147 66.055C76.1417 65.3743 75.0638 63.6466 74.7395 61.3216C74.4145 58.991 74.8739 56.3534 75.8421 53.9652C76.8105 51.5768 78.3191 49.3609 80.1731 47.9066ZM85.0911 48.0814C84.1123 47.6833 82.7226 47.8737 81.1282 49.1244C79.5354 50.3738 78.1697 52.3437 77.2766 54.5462C76.3835 56.7491 75.994 59.1093 76.2727 61.1078C76.5522 63.1117 77.4174 64.2225 78.3977 64.6214C79.3765 65.0196 80.7661 64.8282 82.3606 63.5775C83.9534 62.328 85.3192 60.3582 86.2122 58.1556C87.1052 55.953 87.4956 53.5934 87.2171 51.5951C86.9376 49.5911 86.0714 48.4804 85.0911 48.0814ZM81.5589 51.8568C82.4694 51.2151 83.4907 50.9698 84.4094 51.3431C85.3893 51.7415 85.961 52.7256 86.1282 53.9193L86.1331 53.9603C86.241 55.2164 86.0499 56.4804 85.5764 57.6488C85.1029 58.8173 84.3595 59.8573 83.4075 60.6839C83.3973 60.6928 83.3868 60.702 83.3762 60.7103C82.4232 61.4541 81.3256 61.7593 80.345 61.3597C79.3655 60.9602 78.7944 59.9752 78.6301 58.7806C78.6284 58.7681 78.6264 58.7552 78.6253 58.7425C78.5167 57.4869 78.7064 56.2225 79.179 55.0541C79.6516 53.8857 80.3941 52.8451 81.345 52.0179L81.3782 51.9906L81.5589 51.8568ZM83.8264 52.7777C83.5392 52.6611 83.0307 52.6743 82.3421 53.2025C81.5841 53.8669 80.9925 54.7005 80.6145 55.6351C80.2368 56.5691 80.0836 57.5786 80.1663 58.5824C80.2874 59.4423 80.642 59.8096 80.93 59.9271C81.2166 60.0437 81.7234 60.0296 82.4085 59.5004C83.1683 58.8361 83.7627 58.0033 84.1419 57.0677C84.5211 56.1319 84.6752 55.1197 84.5921 54.1136C84.4676 53.2582 84.1135 52.8944 83.8264 52.7777ZM19.3479 54.8314C19.5063 55.3501 19.6989 55.8329 19.9133 56.2953C21.1718 57.3504 22.407 58.3333 23.6165 59.2474C23.3083 58.373 22.7867 57.5876 22.094 56.9671C21.1889 56.295 20.2746 55.5817 19.3479 54.8314ZM77.512 24.1644C70.6039 17.0949 60.9674 13.2877 51.0579 15.097H51.0569C46.3281 15.9568 42.2771 17.1733 38.8225 18.6361C41.3713 18.7006 44.0293 19.3096 46.5452 20.3089C51.1018 22.118 58.3521 26.5321 64.2835 31.9525C68.0467 35.3887 71.3504 39.2935 73.0686 43.2601C74.6042 41.714 76.3699 40.4104 78.305 39.3978L78.3137 39.3939L78.6809 39.2132C79.0506 39.0372 79.4269 38.8745 79.8089 38.7269H79.8098C81.9525 37.9019 84.0223 37.6744 85.887 38.0111C84.1879 32.8236 81.3269 28.0854 77.512 24.1644ZM86.3997 39.7211C85.2092 39.3668 83.8558 39.3038 82.387 39.5863L86.8323 41.4779C86.7032 40.8886 86.5593 40.3029 86.3997 39.7211Z" fill="#82828A" fill-opacity="0.26"/>
<path d="M92.5682 99.1039C91.6136 98.3041 90.8448 96.4774 90.8448 95.0274C90.8448 93.5775 91.6136 93.046 92.5682 93.8458C93.5228 94.6405 94.2916 96.4671 94.2916 97.9222C94.2916 99.3773 93.5228 99.8985 92.5682 99.1039ZM84.596 79.0005V101.312C84.596 102.138 85.0398 102.969 85.9479 103.686L98.4867 113.505C100.757 115.286 105.102 115.667 108.188 114.352C110.035 113.567 111.005 112.355 111.005 111.127V88.8148C111.005 90.0429 110.03 91.2555 108.188 92.0398C105.102 93.3556 100.757 92.9738 98.4867 91.1936L85.9479 81.3741C85.0346 80.6569 84.596 79.8261 84.596 79.0005Z" fill="#EAE2BB"/>
<path d="M84.596 79.0006C84.596 79.8262 85.0398 80.6569 85.9479 81.3742L98.4867 91.1936C100.757 92.9738 105.102 93.3557 108.188 92.0399C110.035 91.2556 111.005 90.043 111.005 88.8149C111.005 87.9893 110.561 87.1534 109.653 86.4361L105.933 83.5259V87.2875C105.933 88.4072 105.024 89.3154 103.905 89.3154C102.785 89.3154 101.877 88.4072 101.877 87.2875V80.3473L97.1142 76.6218C96.3608 76.0336 95.3804 75.595 94.2916 75.3215V79.5733C94.2916 80.693 93.3835 81.6012 92.2638 81.6012C91.144 81.6012 90.2359 80.693 90.2359 79.5733V75.0635C89.2452 75.177 88.2854 75.4092 87.4185 75.7807C85.5712 76.5599 84.6012 77.7725 84.6012 79.0057L84.596 79.0006Z" fill="#F2EFDF"/>
<path d="M90.2359 75.0582V79.568C90.2359 80.6878 91.1441 81.5959 92.2638 81.5959C93.3835 81.5959 94.2917 80.6878 94.2917 79.568V64.5886C94.2917 63.8094 94.8386 63.4585 95.0708 63.3398C95.303 63.2212 95.9171 63.0096 96.5363 63.4895L97.6921 64.3976C100.349 66.4771 101.877 69.6041 101.877 72.9839V87.2822C101.877 88.402 102.785 89.3101 103.905 89.3101C105.024 89.3101 105.933 88.402 105.933 87.2822V72.9839C105.933 68.3502 103.838 64.0571 100.195 61.2036L99.0337 60.2954C97.3825 59.0003 95.1843 58.7681 93.2958 59.6917C91.4072 60.6102 90.2359 62.4833 90.2359 64.5834V75.053V75.0582Z" fill="#DDE2E2"/>
<path d="M98.9971 59.6506C97.2406 58.4619 95.0079 58.2977 93.0762 59.2424H93.0771C91.0165 60.2446 89.7364 62.2919 89.7363 64.5832V74.6203C88.8619 74.7524 88.0102 74.9788 87.2236 75.3156L86.8701 75.4748C85.1489 76.2991 84.1066 77.5679 84.1016 78.9904C84.1015 78.992 84.1006 78.9937 84.1006 78.9953V101.307C84.1006 102.326 84.6448 103.29 85.6436 104.074H85.6445L98.1836 113.893C99.4183 114.861 101.175 115.423 102.993 115.582C104.816 115.742 106.758 115.502 108.389 114.807C110.316 113.986 111.51 112.639 111.51 111.121V88.8058C111.506 87.7902 110.957 86.8254 109.968 86.0441L109.966 86.0431L106.433 83.2795V72.9836C106.433 68.1961 104.267 63.7578 100.503 60.8097L99.3418 59.9015L98.9971 59.6506ZM85.1006 81.2736C85.2631 81.4442 85.4437 81.6097 85.6426 81.7668L85.6445 81.7687L98.1836 91.5881C99.4182 92.5558 101.175 93.1176 102.993 93.2765C104.816 93.4359 106.758 93.1954 108.389 92.5002V92.4992C109.262 92.1282 109.982 91.6483 110.51 91.0959V111.121C110.51 112.06 109.752 113.139 107.996 113.887C106.541 114.507 104.768 114.734 103.08 114.586C101.387 114.438 99.8355 113.919 98.7998 113.107L86.2617 103.287C85.434 102.637 85.1006 101.939 85.1006 101.307V81.2736ZM92.8887 93.4621C92.3401 93.0029 91.6512 92.7792 91.0654 93.1818C90.5444 93.5403 90.3448 94.2557 90.3447 95.0275C90.3448 95.8327 90.5571 96.7187 90.8887 97.5041C91.1822 98.1992 91.5886 98.8559 92.0684 99.3224V102.834C92.0684 103.11 92.2922 103.334 92.5684 103.334C92.8445 103.334 93.0684 103.11 93.0684 102.834V99.9299C93.4072 100.017 93.7543 99.9849 94.0713 99.7678C94.593 99.4101 94.7919 98.6949 94.792 97.923C94.792 97.118 94.5806 96.2306 94.249 95.4445C93.9196 94.6635 93.4487 93.9284 92.8887 93.4621ZM91.6318 94.0051C91.6688 93.9797 91.8413 93.8898 92.2471 94.2297L92.249 94.2306C92.6432 94.559 93.0337 95.1376 93.3271 95.8332C93.6185 96.5239 93.792 97.2784 93.792 97.923C93.7918 98.5995 93.6069 98.873 93.5059 98.9426C93.4677 98.9686 93.2938 99.057 92.8887 98.7199C92.4936 98.3884 92.1027 97.8095 91.8096 97.1154C91.5182 96.4254 91.3448 95.6721 91.3447 95.0275C91.3448 94.3505 91.5302 94.0751 91.6318 94.0051ZM89.7363 79.5627C89.7363 80.9585 90.8679 82.0909 92.2637 82.091C93.6595 82.091 94.792 80.9585 94.792 79.5627V76.2697C95.3956 76.4746 95.9343 76.7355 96.3848 77.0422L96.6377 77.2267L101.377 80.9338V87.2824C101.377 88.678 102.509 89.8095 103.904 89.8097C105.3 89.8097 106.432 88.6782 106.433 87.2824V84.5471L109.349 86.8283C110.172 87.479 110.51 88.1836 110.51 88.8156C110.509 89.7547 109.757 90.833 107.997 91.5803H107.996C106.541 92.2006 104.768 92.428 103.08 92.2804C101.387 92.1324 99.8355 91.612 98.7998 90.8L86.2607 80.9806C85.4376 80.3298 85.1008 79.6317 85.1006 79.0012C85.1006 78.0566 85.8537 76.9784 87.6123 76.2365L87.6152 76.2355C88.2694 75.9552 88.9864 75.7576 89.7363 75.634V79.5627ZM93.5156 60.1408C95.2321 59.3014 97.2254 59.512 98.7256 60.6887V60.6896L99.8867 61.5978C103.408 64.3566 105.433 68.5041 105.433 72.9836V87.2824C105.432 88.1259 104.748 88.8097 103.904 88.8097C103.061 88.8095 102.377 88.1257 102.377 87.2824V80.9328C102.416 80.8994 102.453 80.8618 102.486 80.8195C102.743 80.4909 102.693 80.0194 102.377 79.7521V72.9787C102.377 69.4449 100.778 66.1723 98 63.9982L96.8447 63.091L96.8428 63.089C96.0011 62.4368 95.1528 62.7314 94.8428 62.8898C94.5538 63.0377 93.7921 63.5187 93.792 64.5832V74.7267C93.6727 74.8277 93.582 74.965 93.541 75.1281C93.4671 75.4228 93.5756 75.7176 93.792 75.9025V79.5627C93.792 80.4063 93.1073 81.091 92.2637 81.091C91.4201 81.0909 90.7363 80.4062 90.7363 79.5627V64.5832C90.7364 62.6744 91.7984 60.9765 93.5146 60.1418L93.5156 60.1408ZM95.2988 63.7795C95.4535 63.7006 95.8334 63.5725 96.2295 63.8791L96.2305 63.8781L97.3828 64.7853L97.3838 64.7863C99.9203 66.7712 101.377 69.7529 101.377 72.9787V78.9679L97.5908 76.007L97.2588 75.7648C96.5417 75.276 95.6953 74.9057 94.792 74.6496V64.5832C94.7921 64.0903 95.123 63.8693 95.2988 63.7795Z" fill="#82828A" fill-opacity="0.26"/>
<path d="M90.8451 95.0275C90.8451 96.4774 91.6139 98.3041 92.5685 99.1039C93.5231 99.8985 94.292 99.3722 94.292 97.9222C94.292 96.4723 93.5231 94.6405 92.5685 93.8458C91.6139 93.046 90.8451 93.5775 90.8451 95.0275Z" fill="#A09043"/>
<defs>
<linearGradient id="paint0_linear_534_418" x1="70.2799" y1="104.933" x2="75.5702" y2="118.886" gradientUnits="userSpaceOnUse">
<stop stop-color="#99A1AF"/>
<stop offset="1" stop-color="#99A1AF" stop-opacity="0"/>
</linearGradient>
<radialGradient id="paint1_radial_534_418" cx="0" cy="0" r="1" gradientUnits="userSpaceOnUse" gradientTransform="translate(32 38.9063) rotate(78.5285) scale(70.565 44.6354)">
<stop offset="0.629808" stop-color="white"/>
<stop offset="1" stop-color="#E2EBF0"/>
</radialGradient>
<linearGradient id="paint2_linear_534_418" x1="65.5732" y1="98.1448" x2="60.9123" y2="114.875" gradientUnits="userSpaceOnUse">
<stop stop-color="#C5CACF"/>
<stop offset="1" stop-color="#889099"/>
</linearGradient>
<linearGradient id="paint3_linear_534_418" x1="82.6895" y1="90.709" x2="73.6717" y2="120.386" gradientUnits="userSpaceOnUse">
<stop stop-color="#C5CACF"/>
<stop offset="1" stop-color="#889099"/>
</linearGradient>
<linearGradient id="paint4_linear_534_418" x1="91.0459" y1="41.9768" x2="72.6372" y2="71.1638" gradientUnits="userSpaceOnUse">
<stop stop-color="#C5CACF"/>
<stop offset="1" stop-color="#889099"/>
</linearGradient>
</defs>
</svg>
