<svg width="24" height="24" viewBox="0 0 24 24" fill="none" xmlns="http://www.w3.org/2000/svg">
<path fill-rule="evenodd" clip-rule="evenodd" d="M6.32 2.57689C10.094 2.13876 13.906 2.13876 17.68 2.57689C19.177 2.75089 20.25 4.03689 20.25 5.50689V20.9999C20.2498 21.1276 20.217 21.2532 20.1547 21.3647C20.0925 21.4762 20.0027 21.5699 19.8941 21.637C19.7854 21.7041 19.6614 21.7423 19.5338 21.7481C19.4062 21.7539 19.2793 21.7269 19.165 21.6699L12 18.0889L4.835 21.6719C4.72058 21.729 4.59345 21.7559 4.4657 21.7501C4.33795 21.7442 4.21381 21.7058 4.10509 21.6385C3.99637 21.5711 3.90667 21.4771 3.84452 21.3654C3.78237 21.2536 3.74983 21.1278 3.75 20.9999V5.50689C3.75 4.03689 4.823 2.75089 6.32 2.57689Z" fill="#58585F" fill-opacity="0.3"/>
</svg>
