<svg width="24" height="24" viewBox="0 0 24 24" fill="none" xmlns="http://www.w3.org/2000/svg">
<path d="M3.375 3C2.339 3 1.5 3.84 1.5 4.875V5.625C1.5 6.661 2.34 7.5 3.375 7.5H20.625C21.66 7.5 22.5 6.66 22.5 5.625V4.875C22.5 3.839 21.66 3 20.625 3H3.375Z" fill="#58585F" fill-opacity="0.3"/>
<path fill-rule="evenodd" clip-rule="evenodd" d="M3.08691 9L3.62691 18.176C3.67179 18.9395 4.00661 19.6571 4.56293 20.182C5.11925 20.7069 5.85505 20.9995 6.61991 21H17.3769C18.1421 21 18.8784 20.7077 19.4352 20.1827C19.9919 19.6578 20.327 18.9399 20.3719 18.176L20.9129 9H3.08691ZM11.9999 10.5C12.1988 10.5 12.3896 10.579 12.5302 10.7197C12.6709 10.8603 12.7499 11.0511 12.7499 11.25V16.19L14.4699 14.47C14.5386 14.3963 14.6214 14.3372 14.7134 14.2962C14.8054 14.2552 14.9047 14.2332 15.0054 14.2314C15.1061 14.2296 15.2061 14.2482 15.2995 14.2859C15.3929 14.3236 15.4777 14.3797 15.549 14.451C15.6202 14.5222 15.6763 14.607 15.714 14.7004C15.7518 14.7938 15.7703 14.8938 15.7685 14.9945C15.7667 15.0952 15.7447 15.1945 15.7037 15.2865C15.6627 15.3785 15.6036 15.4613 15.5299 15.53L12.5299 18.53C12.3893 18.6705 12.1987 18.7493 11.9999 18.7493C11.8012 18.7493 11.6105 18.6705 11.4699 18.53L8.46991 15.53C8.39623 15.4613 8.33712 15.3785 8.29613 15.2865C8.25514 15.1945 8.2331 15.0952 8.23132 14.9945C8.22955 14.8938 8.24807 14.7938 8.28579 14.7004C8.32351 14.607 8.37966 14.5222 8.45088 14.451C8.5221 14.3797 8.60693 14.3236 8.70032 14.2859C8.7937 14.2482 8.89373 14.2296 8.99444 14.2314C9.09514 14.2332 9.19445 14.2552 9.28645 14.2962C9.37845 14.3372 9.46125 14.3963 9.52991 14.47L11.2499 16.19V11.25C11.2499 11.0511 11.3289 10.8603 11.4696 10.7197C11.6102 10.579 11.801 10.5 11.9999 10.5Z" fill="#58585F" fill-opacity="0.3"/>
</svg>
