<svg width="16" height="16" viewBox="0 0 16 16" fill="none" xmlns="http://www.w3.org/2000/svg">
<g clip-path="url(#clip0_568_8186)">
<path d="M11.5 11C12.0523 11 12.5 11.4477 12.5 12C12.5 12.5523 12.0523 13 11.5 13L4.5 13C3.94772 13 3.5 12.5523 3.5 12C3.5 11.4477 3.94772 11 4.5 11L11.5 11Z" fill="#55C043"/>
<path d="M11.5 7C12.0523 7 12.5 7.44772 12.5 8C12.5 8.55229 12.0523 9 11.5 9L4.5 9C3.94772 9 3.5 8.55228 3.5 8C3.5 7.44771 3.94772 7 4.5 7L11.5 7Z" fill="black" fill-opacity="0.15"/>
<path d="M11.5 3C12.0523 3 12.5 3.44772 12.5 4C12.5 4.55229 12.0523 5 11.5 5L4.5 5C3.94772 5 3.5 4.55228 3.5 4C3.5 3.44771 3.94772 3 4.5 3L11.5 3Z" fill="black" fill-opacity="0.15"/>
</g>
<defs>
<clipPath id="clip0_568_8186">
<rect width="16" height="16" fill="white"/>
</clipPath>
</defs>
</svg>
