<svg width="480" height="260" viewBox="0 0 480 260" fill="none" xmlns="http://www.w3.org/2000/svg">
<g clip-path="url(#clip0_1029_2365)">
<rect x="56" y="15" width="368" height="257" rx="22" fill="url(#paint0_linear_1029_2365)" stroke="url(#paint1_linear_1029_2365)" stroke-width="1.2"/>
<rect x="62" y="21" width="356" height="257" rx="16" fill="url(#paint2_linear_1029_2365)"/>
<path d="M209 57H107C98.7157 57 92 63.7157 92 72V164C92 172.284 98.7157 179 107 179H209C217.284 179 224 172.284 224 164V72C224 63.7157 217.284 57 209 57Z" fill="white" stroke="#E4E4E7" stroke-width="1.2"/>
<path d="M176.5 75H113.5C111.567 75 110 76.567 110 78.5C110 80.433 111.567 82 113.5 82H176.5C178.433 82 180 80.433 180 78.5C180 76.567 178.433 75 176.5 75Z" fill="#E4E4E7"/>
<path d="M154.5 95H113.5C111.567 95 110 96.567 110 98.5C110 100.433 111.567 102 113.5 102H154.5C156.433 102 158 100.433 158 98.5C158 96.567 156.433 95 154.5 95Z" fill="#E4E4E7"/>
<path d="M118 159C122.418 159 126 155.418 126 151C126 146.582 122.418 143 118 143C113.582 143 110 146.582 110 151C110 155.418 113.582 159 118 159Z" stroke="#E4E4E7" stroke-width="1.2"/>
<path d="M373 57H271C262.716 57 256 63.7157 256 72V164C256 172.284 262.716 179 271 179H373C381.284 179 388 172.284 388 164V72C388 63.7157 381.284 57 373 57Z" fill="white" stroke="#E4E4E7" stroke-width="1.2"/>
<path d="M348.5 75H277.5C275.567 75 274 76.567 274 78.5C274 80.433 275.567 82 277.5 82H348.5C350.433 82 352 80.433 352 78.5C352 76.567 350.433 75 348.5 75Z" fill="#D4D4D8"/>
<path d="M322.5 95H277.5C275.567 95 274 96.567 274 98.5C274 100.433 275.567 102 277.5 102H322.5C324.433 102 326 100.433 326 98.5C326 96.567 324.433 95 322.5 95Z" fill="#D4D4D8"/>
<path d="M283 159.331C287.449 159.331 291.056 155.725 291.056 151.276C291.056 146.827 287.449 143.22 283 143.22C278.551 143.22 274.945 146.827 274.945 151.276C274.945 155.725 278.551 159.331 283 159.331Z" fill="#2563EB" fill-opacity="0.3"/>
<path d="M283 143.22C287.449 143.22 291.056 146.827 291.056 151.276C291.056 155.724 287.449 159.331 283 159.331" stroke="#2563EB" stroke-width="1.11111" stroke-linecap="round" stroke-linejoin="round"/>
<path d="M279.389 151.553L281.889 154.331L286.611 148.22" stroke="#2563EB" stroke-width="1.11111" stroke-linecap="round" stroke-linejoin="round"/>
<path d="M277.304 157.806C277.764 157.806 278.137 157.432 278.137 156.972C278.137 156.512 277.764 156.139 277.304 156.139C276.843 156.139 276.47 156.512 276.47 156.972C276.47 157.432 276.843 157.806 277.304 157.806Z" fill="#2563EB"/>
<path d="M274.945 152.109C275.405 152.109 275.778 151.736 275.778 151.276C275.778 150.815 275.405 150.442 274.945 150.442C274.484 150.442 274.111 150.815 274.111 151.276C274.111 151.736 274.484 152.109 274.945 152.109Z" fill="#2563EB"/>
<path d="M277.304 146.412C277.764 146.412 278.137 146.039 278.137 145.579C278.137 145.119 277.764 144.745 277.304 144.745C276.843 144.745 276.47 145.119 276.47 145.579C276.47 146.039 276.843 146.412 277.304 146.412Z" fill="#2563EB"/>
<path d="M279.918 159.551C280.378 159.551 280.751 159.178 280.751 158.718C280.751 158.258 280.378 157.884 279.918 157.884C279.458 157.884 279.084 158.258 279.084 158.718C279.084 159.178 279.458 159.551 279.918 159.551Z" fill="#2563EB"/>
<path d="M275.558 155.191C276.018 155.191 276.391 154.818 276.391 154.358C276.391 153.898 276.018 153.524 275.558 153.524C275.098 153.524 274.725 153.898 274.725 154.358C274.725 154.818 275.098 155.191 275.558 155.191Z" fill="#2563EB"/>
<path d="M275.558 149.027C276.018 149.027 276.391 148.654 276.391 148.193C276.391 147.733 276.018 147.36 275.558 147.36C275.098 147.36 274.725 147.733 274.725 148.193C274.725 148.654 275.098 149.027 275.558 149.027Z" fill="#2563EB"/>
<path d="M279.918 144.667C280.378 144.667 280.751 144.294 280.751 143.833C280.751 143.373 280.378 143 279.918 143C279.458 143 279.084 143.373 279.084 143.833C279.084 144.294 279.458 144.667 279.918 144.667Z" fill="#2563EB"/>
<path d="M248.049 118.487L241.862 124.674C241.733 124.803 241.558 124.876 241.375 124.876C241.193 124.876 241.018 124.803 240.889 124.674C240.76 124.545 240.687 124.37 240.687 124.188C240.687 124.006 240.76 123.831 240.889 123.702L245.903 118.688H232.438C232.255 118.688 232.08 118.615 231.951 118.486C231.822 118.358 231.75 118.183 231.75 118C231.75 117.818 231.822 117.643 231.951 117.514C232.08 117.385 232.255 117.313 232.438 117.313H245.903L240.889 112.299C240.76 112.17 240.687 111.995 240.687 111.813C240.687 111.63 240.76 111.455 240.889 111.326C241.018 111.197 241.193 111.125 241.375 111.125C241.558 111.125 241.733 111.197 241.862 111.326L248.049 117.514C248.113 117.578 248.164 117.654 248.199 117.737C248.233 117.821 248.251 117.91 248.251 118C248.251 118.091 248.233 118.18 248.199 118.264C248.164 118.347 248.113 118.423 248.049 118.487Z" fill="#A1A1AA"/>
</g>
<defs>
<linearGradient id="paint0_linear_1029_2365" x1="240" y1="15" x2="240" y2="272" gradientUnits="userSpaceOnUse">
<stop stop-opacity="0.05"/>
<stop offset="1" stop-color="#F4F4F5" stop-opacity="0"/>
</linearGradient>
<linearGradient id="paint1_linear_1029_2365" x1="240" y1="15" x2="240" y2="272" gradientUnits="userSpaceOnUse">
<stop stop-opacity="0.05"/>
<stop offset="1" stop-color="#E4E4E7" stop-opacity="0"/>
</linearGradient>
<linearGradient id="paint2_linear_1029_2365" x1="240" y1="21" x2="240" y2="248" gradientUnits="userSpaceOnUse">
<stop stop-color="white"/>
<stop offset="1" stop-color="white" stop-opacity="0"/>
</linearGradient>
<clipPath id="clip0_1029_2365">
<rect width="480" height="260" fill="white"/>
</clipPath>
</defs>
</svg>
