<svg width="400" height="400" viewBox="0 0 400 400" fill="none" xmlns="http://www.w3.org/2000/svg">
<g filter="url(#filter0_i_8_80)">
<path d="M210.786 60.1218C214.114 59.6605 217.28 61.7479 218.149 64.9929C223.927 86.6226 225.966 122.402 213.459 159.748C212.688 162.034 210.743 163.726 208.372 164.173L202.428 165.293C190.095 167.618 184.444 182.045 191.917 192.128L192.913 193.473C194.587 195.737 194.656 198.813 193.091 201.154C178.265 223.203 153.656 246.238 117.583 262.359C114.226 263.86 110.284 262.347 108.784 258.99C107.287 255.634 108.79 251.706 112.144 250.206C129.585 242.411 144.057 232.936 155.826 222.846C171.477 209.427 171.007 186.271 158.74 169.703C155.813 165.759 158.023 160.112 162.849 159.203L188.394 154.388C196.748 152.814 203.675 146.77 205.491 138.464C206.023 136.028 206.494 133.61 206.907 131.216C211.232 106.156 183.807 94.2029 166.904 113.204C146.945 135.641 130.322 162.123 116.831 189.14C103.137 216.565 92.8089 244.276 85.5475 268.351C81.9737 280.2 94.243 289.971 105.308 284.426L108.603 282.775C110.348 281.901 112.389 281.836 114.186 282.597C127.51 288.257 141.93 290.872 156.393 290.252L297.803 284.185C298.765 284.144 299.728 284.222 300.671 284.418C314.479 287.289 312.234 307.651 298.132 307.445L138.199 305.103C134.719 305.052 131.281 304.326 128.077 302.966L121.926 300.354C115.502 297.627 108.205 297.857 101.966 300.985L71.24 316.391C66.3225 318.856 60.704 314.639 61.6976 309.229C67.2665 279.051 81.1923 230.723 104.926 183.194C110.952 171.124 117.637 159.057 125.01 147.321C133.129 134.398 119.847 118.523 108.718 128.967C75.8902 159.776 54.0061 198.917 61.6052 239.233C62.2842 242.846 59.9082 246.327 56.2961 247.008C52.6838 247.689 49.2025 245.311 48.5201 241.7C39.6854 194.827 65.3697 151.374 99.5965 119.253C131.725 89.1011 172.839 67.4847 204.579 61.1724L210.786 60.1218Z" fill="url(#paint0_linear_8_80)"/>
<path d="M210.786 60.1218C214.114 59.6605 217.28 61.7479 218.149 64.9929C223.927 86.6226 225.966 122.402 213.459 159.748C212.688 162.034 210.743 163.726 208.372 164.173L202.428 165.293C190.095 167.618 184.444 182.045 191.917 192.128L192.913 193.473C194.587 195.737 194.656 198.813 193.091 201.154C178.265 223.203 153.656 246.238 117.583 262.359C114.226 263.86 110.284 262.347 108.784 258.99C107.287 255.634 108.79 251.706 112.144 250.206C129.585 242.411 144.057 232.936 155.826 222.846C171.477 209.427 171.007 186.271 158.74 169.703C155.813 165.759 158.023 160.112 162.849 159.203L188.394 154.388C196.748 152.814 203.675 146.77 205.491 138.464C206.023 136.028 206.494 133.61 206.907 131.216C211.232 106.156 183.807 94.2029 166.904 113.204C146.945 135.641 130.322 162.123 116.831 189.14C103.137 216.565 92.8089 244.276 85.5475 268.351C81.9737 280.2 94.243 289.971 105.308 284.426L108.603 282.775C110.348 281.901 112.389 281.836 114.186 282.597C127.51 288.257 141.93 290.872 156.393 290.252L297.803 284.185C298.765 284.144 299.728 284.222 300.671 284.418C314.479 287.289 312.234 307.651 298.132 307.445L138.199 305.103C134.719 305.052 131.281 304.326 128.077 302.966L121.926 300.354C115.502 297.627 108.205 297.857 101.966 300.985L71.24 316.391C66.3225 318.856 60.704 314.639 61.6976 309.229C67.2665 279.051 81.1923 230.723 104.926 183.194C110.952 171.124 117.637 159.057 125.01 147.321C133.129 134.398 119.847 118.523 108.718 128.967C75.8902 159.776 54.0061 198.917 61.6052 239.233C62.2842 242.846 59.9082 246.327 56.2961 247.008C52.6838 247.689 49.2025 245.311 48.5201 241.7C39.6854 194.827 65.3697 151.374 99.5965 119.253C131.725 89.1011 172.839 67.4847 204.579 61.1724L210.786 60.1218Z" fill="url(#paint1_linear_8_80)"/>
<path d="M210.786 60.1218C214.114 59.6605 217.28 61.7479 218.149 64.9929C223.927 86.6226 225.966 122.402 213.459 159.748C212.688 162.034 210.743 163.726 208.372 164.173L202.428 165.293C190.095 167.618 184.444 182.045 191.917 192.128L192.913 193.473C194.587 195.737 194.656 198.813 193.091 201.154C178.265 223.203 153.656 246.238 117.583 262.359C114.226 263.86 110.284 262.347 108.784 258.99C107.287 255.634 108.79 251.706 112.144 250.206C129.585 242.411 144.057 232.936 155.826 222.846C171.477 209.427 171.007 186.271 158.74 169.703C155.813 165.759 158.023 160.112 162.849 159.203L188.394 154.388C196.748 152.814 203.675 146.77 205.491 138.464C206.023 136.028 206.494 133.61 206.907 131.216C211.232 106.156 183.807 94.2029 166.904 113.204C146.945 135.641 130.322 162.123 116.831 189.14C103.137 216.565 92.8089 244.276 85.5475 268.351C81.9737 280.2 94.243 289.971 105.308 284.426L108.603 282.775C110.348 281.901 112.389 281.836 114.186 282.597C127.51 288.257 141.93 290.872 156.393 290.252L297.803 284.185C298.765 284.144 299.728 284.222 300.671 284.418C314.479 287.289 312.234 307.651 298.132 307.445L138.199 305.103C134.719 305.052 131.281 304.326 128.077 302.966L121.926 300.354C115.502 297.627 108.205 297.857 101.966 300.985L71.24 316.391C66.3225 318.856 60.704 314.639 61.6976 309.229C67.2665 279.051 81.1923 230.723 104.926 183.194C110.952 171.124 117.637 159.057 125.01 147.321C133.129 134.398 119.847 118.523 108.718 128.967C75.8902 159.776 54.0061 198.917 61.6052 239.233C62.2842 242.846 59.9082 246.327 56.2961 247.008C52.6838 247.689 49.2025 245.311 48.5201 241.7C39.6854 194.827 65.3697 151.374 99.5965 119.253C131.725 89.1011 172.839 67.4847 204.579 61.1724L210.786 60.1218Z" fill="url(#paint2_linear_8_80)"/>
<path d="M210.786 60.1218C214.114 59.6605 217.28 61.7479 218.149 64.9929C223.927 86.6226 225.966 122.402 213.459 159.748C212.688 162.034 210.743 163.726 208.372 164.173L202.428 165.293C190.095 167.618 184.444 182.045 191.917 192.128L192.913 193.473C194.587 195.737 194.656 198.813 193.091 201.154C178.265 223.203 153.656 246.238 117.583 262.359C114.226 263.86 110.284 262.347 108.784 258.99C107.287 255.634 108.79 251.706 112.144 250.206C129.585 242.411 144.057 232.936 155.826 222.846C171.477 209.427 171.007 186.271 158.74 169.703C155.813 165.759 158.023 160.112 162.849 159.203L188.394 154.388C196.748 152.814 203.675 146.77 205.491 138.464C206.023 136.028 206.494 133.61 206.907 131.216C211.232 106.156 183.807 94.2029 166.904 113.204C146.945 135.641 130.322 162.123 116.831 189.14C103.137 216.565 92.8089 244.276 85.5475 268.351C81.9737 280.2 94.243 289.971 105.308 284.426L108.603 282.775C110.348 281.901 112.389 281.836 114.186 282.597C127.51 288.257 141.93 290.872 156.393 290.252L297.803 284.185C298.765 284.144 299.728 284.222 300.671 284.418C314.479 287.289 312.234 307.651 298.132 307.445L138.199 305.103C134.719 305.052 131.281 304.326 128.077 302.966L121.926 300.354C115.502 297.627 108.205 297.857 101.966 300.985L71.24 316.391C66.3225 318.856 60.704 314.639 61.6976 309.229C67.2665 279.051 81.1923 230.723 104.926 183.194C110.952 171.124 117.637 159.057 125.01 147.321C133.129 134.398 119.847 118.523 108.718 128.967C75.8902 159.776 54.0061 198.917 61.6052 239.233C62.2842 242.846 59.9082 246.327 56.2961 247.008C52.6838 247.689 49.2025 245.311 48.5201 241.7C39.6854 194.827 65.3697 151.374 99.5965 119.253C131.725 89.1011 172.839 67.4847 204.579 61.1724L210.786 60.1218Z" fill="url(#paint3_linear_8_80)"/>
</g>
<rect x="258" y="230.629" width="120" height="23" rx="11.5" fill="#0086D3"/>
<rect x="231" y="177.629" width="116" height="23" rx="11.5" fill="#6AC922"/>
<defs>
<filter id="filter0_i_8_80" x="46.7654" y="60.0581" width="263.179" height="265.054" filterUnits="userSpaceOnUse" color-interpolation-filters="sRGB">
<feFlood flood-opacity="0" result="BackgroundImageFix"/>
<feBlend mode="normal" in="SourceGraphic" in2="BackgroundImageFix" result="shape"/>
<feColorMatrix in="SourceAlpha" type="matrix" values="0 0 0 0 0 0 0 0 0 0 0 0 0 0 0 0 0 0 127 0" result="hardAlpha"/>
<feOffset dy="10"/>
<feGaussianBlur stdDeviation="4"/>
<feComposite in2="hardAlpha" operator="arithmetic" k2="-1" k3="1"/>
<feColorMatrix type="matrix" values="0 0 0 0 1 0 0 0 0 1 0 0 0 0 1 0 0 0 0.45 0"/>
<feBlend mode="overlay" in2="shape" result="effect1_innerShadow_8_80"/>
</filter>
<linearGradient id="paint0_linear_8_80" x1="212" y1="161.629" x2="336" y2="194.855" gradientUnits="userSpaceOnUse">
<stop/>
<stop offset="0.490385" stop-color="#0192E6"/>
<stop offset="0.649038" stop-color="#01EDC4"/>
<stop offset="0.841346" stop-color="#A0F786"/>
<stop offset="0.980769" stop-color="#F3FDD3"/>
</linearGradient>
<linearGradient id="paint1_linear_8_80" x1="212" y1="161.629" x2="336" y2="194.855" gradientUnits="userSpaceOnUse">
<stop/>
<stop offset="0.740385" stop-color="#0192E6"/>
<stop offset="0.980769" stop-color="#00EFE3"/>
</linearGradient>
<linearGradient id="paint2_linear_8_80" x1="69.0832" y1="350.894" x2="170.67" y2="124.35" gradientUnits="userSpaceOnUse">
<stop stop-color="#FFFC62"/>
<stop offset="0.471154" stop-color="#00EFC3"/>
<stop offset="1" stop-color="#0092E7"/>
</linearGradient>
<linearGradient id="paint3_linear_8_80" x1="212" y1="161.629" x2="336" y2="194.855" gradientUnits="userSpaceOnUse">
<stop/>
<stop offset="0.740385" stop-color="#0192E6"/>
<stop offset="0.980769" stop-color="#00EFE3"/>
</linearGradient>
</defs>
</svg>
