<svg width="149" height="32" viewBox="0 0 149 32" fill="none" xmlns="http://www.w3.org/2000/svg">
<g filter="url(#filter0_di_562_309)">
<path d="M11.761 11.417C13.5032 11.4171 14.9161 12.8289 14.9163 14.571C14.9163 16.3133 13.5033 17.7262 11.761 17.7263C10.0187 17.7263 8.6058 16.3134 8.6058 14.571C8.60598 12.8289 10.0188 11.417 11.761 11.417Z" fill="url(#paint0_linear_562_309)"/>
<path fill-rule="evenodd" clip-rule="evenodd" d="M20.3452 0.834961C22.8691 0.834961 31.417 1.40695 33.3688 2.55109C35.3204 3.66153 36.8347 5.20949 37.9115 7.19474C39.0219 9.18001 39.5771 11.4684 39.5771 14.0593C39.5771 16.6504 39.0388 18.9395 37.962 20.925C37.3228 22.1033 36.5276 23.1313 35.5803 24.0133C35.368 24.3001 33.8366 26.1752 28.8789 27.9139C23.4933 29.8025 18.1748 30.0162 18.1748 30.0162V27.2061C14.6164 27.0219 8.94072 26.4964 7.37211 25.6191C5.42049 24.475 3.88939 22.9102 2.77894 20.925C1.66843 18.9395 1.11328 16.6504 1.11328 14.0593C1.11336 11.4684 1.65169 9.18001 2.72846 7.19474C3.83891 5.20949 5.37002 3.66154 7.32164 2.55109C9.27343 1.40695 17.8213 0.834961 20.3452 0.834961ZM20.3452 6.03383C18.9318 6.03383 11.3765 6.3703 10.2996 7.04332C9.22295 7.7163 8.38158 8.65862 7.77591 9.86988C7.17025 11.0812 6.86744 12.4779 6.86737 14.0593C6.86737 15.6409 7.17018 17.0384 7.77591 18.2498C8.41523 19.4274 9.27342 20.3698 10.3501 21.0764C11.1729 21.5751 15.5436 21.8874 18.3274 22.0166C22.7511 22.2219 20.3452 6.03383 23.6707 6.17234C22.1587 6.08075 20.854 6.03383 20.3452 6.03383ZM26.516 12.1401V17.0032H31.3803V12.1401H26.516Z" fill="url(#paint1_linear_562_309)"/>
</g>
<path d="M139.654 24.8947C137.486 24.8947 135.799 24.4128 134.594 23.449C133.414 22.4852 132.824 21.1238 132.824 19.3649C132.824 17.4855 133.45 16.0518 134.703 15.0639C135.98 14.076 137.751 13.5821 140.016 13.5821H144.606C144.461 12.2569 144.088 11.2449 143.486 10.5461C142.883 9.84739 141.992 9.49801 140.811 9.49801C139.944 9.49801 139.185 9.67872 138.534 10.0401C137.883 10.4016 137.329 10.9678 136.871 11.7388L133.33 10.4377C133.715 9.64258 134.221 8.90768 134.847 8.23303C135.498 7.53427 136.305 6.98009 137.269 6.57048C138.257 6.16086 139.438 5.95605 140.811 5.95605C142.57 5.95605 144.04 6.30543 145.22 7.00418C146.401 7.67884 147.268 8.65469 147.823 9.93172C148.401 11.2088 148.69 12.7508 148.69 14.5579L148.582 24.461H144.859L144.751 22.2563C144.269 23.0996 143.594 23.7502 142.727 24.208C141.883 24.6658 140.859 24.8947 139.654 24.8947ZM140.16 21.4973C141.052 21.4973 141.835 21.3045 142.51 20.919C143.208 20.5094 143.739 19.9673 144.1 19.2926C144.485 18.6179 144.678 17.871 144.678 17.0518V16.6903H141.317C139.703 16.6903 138.57 16.9192 137.92 17.3771C137.269 17.8108 136.944 18.4372 136.944 19.2565C136.944 19.9552 137.221 20.5094 137.775 20.919C138.353 21.3045 139.148 21.4973 140.16 21.4973Z" fill="#58585F"/>
<path d="M121.527 24.4618V6.39065H125.575V9.6796C126.298 8.54714 127.238 7.70382 128.394 7.14963C129.551 6.59545 130.743 6.31836 131.972 6.31836V10.1856C130.864 10.1856 129.816 10.3422 128.828 10.6554C127.864 10.9446 127.081 11.4265 126.479 12.1011C125.876 12.7758 125.575 13.6673 125.575 14.7757V24.4618H121.527Z" fill="#58585F"/>
<path d="M108.29 24.4618L100.808 6.39062H104.965L110.314 19.8356L115.627 6.39062H119.819L112.374 24.4618H108.29Z" fill="#58585F"/>
<path d="M72.7683 24.461V6.38976H76.5632L76.7439 8.8113C77.2981 7.8716 78.0089 7.1608 78.8763 6.6789C79.7438 6.197 80.7317 5.95605 81.84 5.95605C83.2857 5.95605 84.5146 6.28134 85.5265 6.9319C86.5385 7.58246 87.2734 8.57035 87.7312 9.89557C88.2613 8.61854 89.0083 7.6427 89.9721 6.96804C90.9359 6.29338 92.0683 5.95605 93.3694 5.95605C95.4657 5.95605 97.0801 6.63071 98.2125 7.98003C99.345 9.30525 99.8992 11.3533 99.8751 14.1242V24.461H95.8633V15.2085C95.8633 13.7628 95.7067 12.6544 95.3934 11.8834C95.0802 11.0883 94.6585 10.5341 94.1284 10.2209C93.5984 9.90762 92.9839 9.751 92.2852 9.751C91.0322 9.72691 90.0564 10.1727 89.3576 11.0883C88.683 12.0039 88.3457 13.3171 88.3457 15.0278V24.461H84.2977V15.2085C84.2977 13.7628 84.1411 12.6544 83.8279 11.8834C83.5387 11.0883 83.1291 10.5341 82.599 10.2209C82.0689 9.90762 81.4545 9.751 80.7557 9.751C79.5028 9.72691 78.527 10.1727 77.8282 11.0883C77.1536 12.0039 76.8162 13.3171 76.8162 15.0278V24.461H72.7683Z" fill="#58585F"/>
<path d="M60.9018 24.8947C59.0947 24.8947 57.4803 24.4971 56.0587 23.702C54.6612 22.8827 53.5649 21.7623 52.7698 20.3407C51.9747 18.9191 51.5771 17.2807 51.5771 15.4254C51.5771 13.5701 51.9626 11.9316 52.7336 10.51C53.5288 9.0884 54.6251 7.98003 56.0226 7.1849C57.4201 6.36567 59.0224 5.95605 60.8295 5.95605C62.6367 5.95605 64.239 6.36567 65.6365 7.1849C67.034 7.98003 68.1183 9.0884 68.8893 10.51C69.6844 11.9316 70.082 13.5701 70.082 15.4254C70.082 17.2807 69.6965 18.9191 68.9254 20.3407C68.1544 21.7623 67.0701 22.8827 65.6726 23.702C64.2751 24.4971 62.6848 24.8947 60.9018 24.8947ZM60.9018 21.172C61.8897 21.172 62.7692 20.9311 63.5402 20.4492C64.3113 19.9432 64.9136 19.2685 65.3473 18.4252C65.781 17.5578 65.9979 16.5578 65.9979 15.4254C65.9979 14.2929 65.769 13.305 65.3112 12.4617C64.8775 11.5943 64.2751 10.9196 63.5041 10.4377C62.733 9.93172 61.8415 9.67872 60.8295 9.67872C59.8176 9.67872 58.926 9.91967 58.155 10.4016C57.384 10.8835 56.7816 11.5581 56.3479 12.4255C55.9142 13.293 55.6973 14.2929 55.6973 15.4254C55.6973 16.5578 55.9142 17.5578 56.3479 18.4252C56.8057 19.2685 57.4201 19.9432 58.1911 20.4492C58.9863 20.9311 59.8898 21.172 60.9018 21.172Z" fill="#58585F"/>
<defs>
<filter id="filter0_di_562_309" x="0" y="0" width="40.6904" height="31.4082" filterUnits="userSpaceOnUse" color-interpolation-filters="sRGB">
<feFlood flood-opacity="0" result="BackgroundImageFix"/>
<feColorMatrix in="SourceAlpha" type="matrix" values="0 0 0 0 0 0 0 0 0 0 0 0 0 0 0 0 0 0 127 0" result="hardAlpha"/>
<feOffset dy="0.27832"/>
<feGaussianBlur stdDeviation="0.556641"/>
<feComposite in2="hardAlpha" operator="out"/>
<feColorMatrix type="matrix" values="0 0 0 0 1 0 0 0 0 1 0 0 0 0 1 0 0 0 1 0"/>
<feBlend mode="normal" in2="BackgroundImageFix" result="effect1_dropShadow_562_309"/>
<feBlend mode="normal" in="SourceGraphic" in2="effect1_dropShadow_562_309" result="shape"/>
<feColorMatrix in="SourceAlpha" type="matrix" values="0 0 0 0 0 0 0 0 0 0 0 0 0 0 0 0 0 0 127 0" result="hardAlpha"/>
<feOffset dy="1.11328"/>
<feGaussianBlur stdDeviation="1.3916"/>
<feComposite in2="hardAlpha" operator="arithmetic" k2="-1" k3="1"/>
<feColorMatrix type="matrix" values="0 0 0 0 0.495192 0 0 0 0 0.495192 0 0 0 0 0.495192 0 0 0 1 0"/>
<feBlend mode="multiply" in2="shape" result="effect2_innerShadow_562_309"/>
</filter>
<linearGradient id="paint0_linear_562_309" x1="20.3452" y1="0.834961" x2="20.3452" y2="30.0162" gradientUnits="userSpaceOnUse">
<stop offset="0.0192308" stop-color="#1F2A56"/>
<stop offset="0.649038" stop-color="#949FAA"/>
<stop offset="0.884615" stop-color="#D2BCA2"/>
<stop offset="1" stop-color="#F1C39A"/>
</linearGradient>
<linearGradient id="paint1_linear_562_309" x1="20.3452" y1="0.834961" x2="20.3452" y2="30.0162" gradientUnits="userSpaceOnUse">
<stop offset="0.0192308" stop-color="#1F2A56"/>
<stop offset="0.649038" stop-color="#949FAA"/>
<stop offset="0.884615" stop-color="#D2BCA2"/>
<stop offset="1" stop-color="#F1C39A"/>
</linearGradient>
</defs>
</svg>
