<svg width="24" height="24" viewBox="0 0 24 24" fill="none" xmlns="http://www.w3.org/2000/svg">
<path d="M24 19H9.97949L8.60547 18.084L8.41309 17.9561L5.68457 18.7354C6.57624 16.6859 8.08122 13.8833 10.1006 11.2236C12.309 8.31502 15.0975 5.62187 18.3252 4.2373C18.3085 5.67839 17.9466 7.67762 16.9033 9.6543H13.1152L13.4639 10.3721L14.5977 12.7129C13.3255 13.9136 11.4377 15.0614 8.90527 15.665C8.63688 15.7291 8.47134 15.9982 8.53516 16.2666C8.59918 16.5352 8.86908 16.7017 9.1377 16.6377C12.0242 15.9496 14.1607 14.5919 15.5615 13.1709L15.8086 12.9189L15.6553 12.6016L14.7109 10.6543H17.4971L17.6406 10.3984C19.0831 7.81625 19.4303 5.14737 19.3047 3.4707L19.2715 3.03027L18.8291 3.00879L18.3564 3C15.9261 3.02436 12.5913 4.04782 9.80078 5.82617C6.82803 7.72067 4.32808 10.5702 4.32812 14.1523C4.32825 14.4284 4.55206 14.6523 4.82812 14.6523C5.10419 14.6523 5.328 14.4284 5.32812 14.1523C5.32809 11.0712 7.48758 8.48701 10.3389 6.66992C12.1655 5.50589 14.2168 4.69781 16.0342 4.29492C13.4 5.87915 11.1356 8.20777 9.30469 10.6191C6.89204 13.7968 5.19207 17.1696 4.36133 19.3193L4 20.2568L8.24219 19.0439L9.67676 20L18.8291 21.5L24 24H0V0H24V19Z" fill="black"/>
</svg>
